<svg xmlns="http://www.w3.org/2000/svg" xmlns:xlink="http://www.w3.org/1999/xlink" width="113" height="113" viewBox="0 0 113 113">
  <defs>
    <filter id="Trazado_982547" x="0" y="0" width="113" height="113" filterUnits="userSpaceOnUse">
      <feOffset dy="3" input="SourceAlpha"/>
      <feGaussianBlur stdDeviation="3" result="blur"/>
      <feFlood flood-opacity="0.161"/>
      <feComposite operator="in" in2="blur"/>
      <feComposite in="SourceGraphic"/>
    </filter>
  </defs>
  <g id="Grupo_1207688" data-name="Grupo 1207688" transform="translate(-278 -4612.179)">
    <g id="Grupo_1207609" data-name="Grupo 1207609" transform="translate(0 2198.406)">
      <g id="Grupo_1207311" data-name="Grupo 1207311" transform="translate(7 1543.358)">
        <g id="Grupo_1174813" data-name="Grupo 1174813" transform="translate(280 876.414)">
          <g id="Grupo_1201680" data-name="Grupo 1201680">
            <g id="Grupo_1201330" data-name="Grupo 1201330">
              <g id="Grupo_1172010" data-name="Grupo 1172010">
                <g id="Grupo_1171046" data-name="Grupo 1171046">
                  <g id="Grupo_1148525" data-name="Grupo 1148525">
                    <g transform="matrix(1, 0, 0, 1, -9, -6)" filter="url(#Trazado_982547)">
                      <g id="Trazado_982547-2" data-name="Trazado 982547" transform="translate(9 6)" fill="#fff4e6">
                        <path d="M 47.5 93.5 C 41.28937149047852 93.5 35.26533508300781 92.28397369384766 29.59518623352051 89.88570404052734 C 24.11771965026855 87.56893157958984 19.19813346862793 84.25196075439453 14.97309303283691 80.02691650390625 C 10.74804019927979 75.80186462402344 7.431066513061523 70.88229370117188 5.114293098449707 65.40481567382812 C 2.716026782989502 59.73468017578125 1.5 53.71062850952148 1.5 47.5 C 1.5 41.28937149047852 2.716026782989502 35.26533508300781 5.114293098449707 29.59518623352051 C 7.431066513061523 24.11771965026855 10.74804019927979 19.19813346862793 14.97309303283691 14.97309303283691 C 19.19813346862793 10.74804019927979 24.11771965026855 7.431066513061523 29.59518623352051 5.114293098449707 C 35.26533508300781 2.716026782989502 41.28937149047852 1.5 47.5 1.5 C 53.71062850952148 1.5 59.73468017578125 2.716026782989502 65.40481567382812 5.114293098449707 C 70.88229370117188 7.431066513061523 75.80186462402344 10.74804019927979 80.02691650390625 14.97309303283691 C 84.25196075439453 19.19813346862793 87.56893157958984 24.11771965026855 89.88570404052734 29.59518623352051 C 92.28397369384766 35.26533508300781 93.5 41.28937149047852 93.5 47.5 C 93.5 53.71062850952148 92.28397369384766 59.73468017578125 89.88570404052734 65.40481567382812 C 87.56893157958984 70.88229370117188 84.25196075439453 75.80186462402344 80.02691650390625 80.02691650390625 C 75.80186462402344 84.25196075439453 70.88229370117188 87.56893157958984 65.40481567382812 89.88570404052734 C 59.73468017578125 92.28397369384766 53.71062850952148 93.5 47.5 93.5 Z" stroke="none"/>
                        <path d="M 47.5 3 C 41.49121475219727 3 35.66376876831055 4.176155090332031 30.17950439453125 6.495796203613281 C 24.88084411621094 8.736953735351562 20.12152099609375 11.94598388671875 16.03375244140625 16.03375244140625 C 11.94598388671875 20.12152099609375 8.736953735351562 24.88084411621094 6.495796203613281 30.17950439453125 C 4.176155090332031 35.66376876831055 3 41.49121475219727 3 47.5 C 3 53.50878524780273 4.176155090332031 59.33623123168945 6.495796203613281 64.82049560546875 C 8.736953735351562 70.11915588378906 11.94598388671875 74.87847900390625 16.03375244140625 78.96624755859375 C 20.12152099609375 83.05401611328125 24.88084411621094 86.26304626464844 30.17950439453125 88.50419616699219 C 35.66376876831055 90.82384490966797 41.49121475219727 92 47.5 92 C 53.50878524780273 92 59.33623123168945 90.82384490966797 64.82049560546875 88.50419616699219 C 70.11915588378906 86.26304626464844 74.87847900390625 83.05401611328125 78.96624755859375 78.96624755859375 C 83.05401611328125 74.87847900390625 86.26304626464844 70.11915588378906 88.50419616699219 64.82049560546875 C 90.82384490966797 59.33623123168945 92 53.50878524780273 92 47.5 C 92 41.49121475219727 90.82384490966797 35.66376876831055 88.50419616699219 30.17950439453125 C 86.26304626464844 24.88084411621094 83.05401611328125 20.12152099609375 78.96624755859375 16.03375244140625 C 74.87847900390625 11.94598388671875 70.11915588378906 8.736953735351562 64.82049560546875 6.495796203613281 C 59.33623123168945 4.176155090332031 53.50878524780273 3 47.5 3 M 47.5 0 C 73.7335205078125 0 95 21.2664794921875 95 47.5 C 95 73.7335205078125 73.7335205078125 95 47.5 95 C 21.2664794921875 95 0 73.7335205078125 0 47.5 C 0 21.2664794921875 21.2664794921875 0 47.5 0 Z" stroke="none" fill="#ff9d1c"/>
                      </g>
                    </g>
                  </g>
                </g>
              </g>
            </g>
          </g>
        </g>
      </g>
    </g>
    <g id="call-center_8800981" transform="translate(297.382 4629.077)">
      <circle id="Elipse_13461" data-name="Elipse 13461" cx="26.662" cy="26.662" r="26.662" transform="translate(15.751 4.159)" fill="#4f7fff"/>
      <path id="Trazado_1052594" data-name="Trazado 1052594" d="M49.524,5.946A26.661,26.661,0,0,1,25.742,53.6,26.661,26.661,0,1,0,49.524,5.945Z" transform="translate(3.621 0.469)" fill="#3161e3"/>
      <circle id="Elipse_13462" data-name="Elipse 13462" cx="22.025" cy="22.025" r="22.025" transform="translate(20.388 8.796)" fill="#f7f7ff"/>
      <path id="Trazado_1052595" data-name="Trazado 1052595" d="M53.65,12.613A22.006,22.006,0,0,1,22.613,43.65,22.01,22.01,0,1,0,53.65,12.613Z" transform="translate(3.122 1.53)" fill="#ccccd6"/>
      <path id="Trazado_1052596" data-name="Trazado 1052596" d="M51.319,58.31l-2.145,3.153a11.624,11.624,0,0,1-14.989,3.709A68.536,68.536,0,0,1,17.551,52.954,68.34,68.34,0,0,1,5.356,36.343,11.6,11.6,0,0,1,9.042,21.331l3.2-2.191L15.766,25.3l3.547,6.213-1.136,1.136a2.314,2.314,0,0,0-.487,2.585A36.2,36.2,0,0,0,35.275,52.8a2.273,2.273,0,0,0,2.573-.487l1.09-1.078,6.167,3.524Z" transform="translate(0.159 2.57)" fill="#00ba46"/>
      <g id="Grupo_1207685" data-name="Grupo 1207685" transform="translate(4.164 26.486)">
        <path id="Trazado_1052597" data-name="Trazado 1052597" d="M35.553,62.2A68.535,68.535,0,0,1,18.918,49.979,68.339,68.339,0,0,1,6.723,33.368,11.63,11.63,0,0,1,6.345,23.26a11.611,11.611,0,0,0-.99,12.426A68.339,68.339,0,0,0,17.55,52.3,68.536,68.536,0,0,0,34.185,64.516a11.624,11.624,0,0,0,14.989-3.709l.958-1.408c-3.718,3.689-10,5.2-14.579,2.8Z" transform="translate(-4.005 -23.26)" fill="#009b3a"/>
      </g>
      <g id="Grupo_1207686" data-name="Grupo 1207686" transform="translate(19.04 33.644)">
        <path id="Trazado_1052598" data-name="Trazado 1052598" d="M17.269,29.87l-.248-.434a2.3,2.3,0,0,0-.184.867Z" transform="translate(-16.837 -29.435)" fill="#00ba46"/>
      </g>
      <path id="Trazado_1052599" data-name="Trazado 1052599" d="M20.905,29.077l-1.692,1.692-1.032,1.02-3.547-6.213L11.11,19.42l2.411-1.658a2.386,2.386,0,0,1,3.327.765l2.84,4.973,1.588,2.782a2.334,2.334,0,0,1-.371,2.794Z" transform="translate(1.291 2.289)" fill="#009b3a"/>
      <path id="Trazado_1052600" data-name="Trazado 1052600" d="M48.213,51.906,46.52,54.375l-6.213-3.547L34.14,47.3s1.066-1.078,1.078-1.078l1.692-1.692a2.3,2.3,0,0,1,2.782-.371l2.794,1.588,4.962,2.84a2.329,2.329,0,0,1,.765,3.315Z" transform="translate(4.958 6.505)" fill="#009b3a"/>
      <path id="Trazado_1052601" data-name="Trazado 1052601" d="M50.184,28.592A11.578,11.578,0,0,1,32.935,38.7L27,40.184l1.484-5.935a11.589,11.589,0,1,1,21.7-5.657Z" transform="translate(3.821 2.229)" fill="#e21743"/>
      <path id="Trazado_1052602" data-name="Trazado 1052602" d="M48.3,21.546A11.575,11.575,0,0,1,31.776,35.658l-4.08,1.02L27,39.461l5.935-1.484A11.58,11.58,0,0,0,48.3,21.546Z" transform="translate(3.821 2.953)" fill="#ba0028"/>
      <g id="Grupo_1207687" data-name="Grupo 1207687" transform="translate(3.002 3)">
        <path id="Trazado_1052603" data-name="Trazado 1052603" d="M40.227,3a27.718,27.718,0,0,0-23.3,12.628,1.16,1.16,0,0,0,1.942,1.266A25.5,25.5,0,1,1,54.154,52.176c-1.205.785.086,2.711,1.265,1.943A27.815,27.815,0,0,0,40.227,3Z" transform="translate(-0.816 -3)"/>
        <path id="Trazado_1052604" data-name="Trazado 1052604" d="M50.44,50.639A1.129,1.129,0,0,0,51,50.489,23.182,23.182,0,1,0,19.505,19.006a1.16,1.16,0,0,0,2.031,1.119,20.835,20.835,0,0,1,2.733-3.842l1.606,1.606a1.16,1.16,0,0,0,1.639-1.639L25.9,14.637A20.849,20.849,0,0,1,38.65,9.358v2.279a1.16,1.16,0,0,0,2.318,0V9.377A20.75,20.75,0,0,1,53.7,14.656L52.1,16.25a1.16,1.16,0,0,0,1.639,1.639L55.337,16.3a20.75,20.75,0,0,1,5.279,12.729h-2.26a1.16,1.16,0,0,0,0,2.318h2.279a20.862,20.862,0,0,1-5.276,12.751L53.744,42.48A1.16,1.16,0,0,0,52.1,44.119l1.609,1.609a20.83,20.83,0,0,1-3.832,2.729,1.185,1.185,0,0,0,.559,2.182Z" transform="translate(-0.398 -2.363)"/>
        <path id="Trazado_1052605" data-name="Trazado 1052605" d="M52.985,51.958l-7.756-4.431a3.487,3.487,0,0,0-4.184.56l-3.855,3.855a1.136,1.136,0,0,1-1.27.254A35.011,35.011,0,0,1,18.9,35.178a1.137,1.137,0,0,1,.255-1.27l3.855-3.855a3.485,3.485,0,0,0,.56-4.184L19.14,18.114a3.509,3.509,0,0,0-4.982-1.145L8.542,20.812A12.788,12.788,0,0,0,4.484,37.328a69.778,69.778,0,0,0,12.4,16.883A69.791,69.791,0,0,0,33.8,66.633a12.884,12.884,0,0,0,16.483-4.078l3.842-5.614a3.511,3.511,0,0,0-1.144-4.984ZM15.468,18.883a1.188,1.188,0,0,1,1.66.381l4.432,7.756a1.163,1.163,0,0,1-.187,1.395L19.727,30.06,13.937,19.93l1.531-1.047ZM48.374,61.247a10.456,10.456,0,0,1-13.492,3.335,67.507,67.507,0,0,1-16.356-12.01A67.458,67.458,0,0,1,6.535,36.248,10.47,10.47,0,0,1,9.851,22.725l2.166-1.482,6.011,10.516-.51.51a3.461,3.461,0,0,0-.719,3.885A37.337,37.337,0,0,0,34.945,54.3a3.467,3.467,0,0,0,3.885-.718l.458-.458,10.53,6.014Zm3.842-5.615-1.085,1.585L40.987,51.424l1.7-1.7a1.16,1.16,0,0,1,1.395-.187l7.756,4.431A1.164,1.164,0,0,1,52.216,55.632Z" transform="translate(-3.002 -0.871)"/>
        <path id="Trazado_1052606" data-name="Trazado 1052606" d="M32.159,32.274h3.478a1.16,1.16,0,0,0,0-2.318H33.318V28.8h2.318A1.159,1.159,0,0,0,36.8,27.637V24.159A1.159,1.159,0,0,0,35.637,23H32.159a1.16,1.16,0,0,0,0,2.318h2.318v1.159H32.159A1.159,1.159,0,0,0,31,27.637v3.478A1.159,1.159,0,0,0,32.159,32.274Z" transform="translate(1.456 0.184)"/>
        <path id="Trazado_1052607" data-name="Trazado 1052607" d="M39.159,28.791h2.318v2.318a1.16,1.16,0,0,0,2.318,0V24.154a1.16,1.16,0,0,0-2.318,0v2.318H40.318V24.154a1.16,1.16,0,0,0-2.318,0v3.478A1.159,1.159,0,0,0,39.159,28.791Z" transform="translate(2.57 0.189)"/>
        <path id="Trazado_1052608" data-name="Trazado 1052608" d="M26.34,41.163a1.15,1.15,0,0,0,1.1.3l5.5-1.373a12.764,12.764,0,1,0-5.528-5.528l-1.373,5.5a1.157,1.157,0,0,0,.3,1.1ZM38.751,18.318a10.433,10.433,0,1,1-5.1,19.532,1.189,1.189,0,0,0-.848-.113l-4.056,1.013,1.013-4.056a1.154,1.154,0,0,0-.113-.848,10.426,10.426,0,0,1,9.1-15.528Z" transform="translate(0.66 -0.93)"/>
      </g>
    </g>
  </g>
</svg>
