<svg xmlns="http://www.w3.org/2000/svg" xmlns:xlink="http://www.w3.org/1999/xlink" width="113" height="113" viewBox="0 0 113 113">
  <defs>
    <filter id="Trazado_982547" x="0" y="0" width="113" height="113" filterUnits="userSpaceOnUse">
      <feOffset dy="3" input="SourceAlpha"/>
      <feGaussianBlur stdDeviation="3" result="blur"/>
      <feFlood flood-opacity="0.161"/>
      <feComposite operator="in" in2="blur"/>
      <feComposite in="SourceGraphic"/>
    </filter>
  </defs>
  <g id="Grupo_1207689" data-name="Grupo 1207689" transform="translate(-587 -4612.179)">
    <g id="Grupo_1207606" data-name="Grupo 1207606" transform="translate(0 2198.406)">
      <g id="Grupo_1207308" data-name="Grupo 1207308" transform="translate(316 1543.358)">
        <g id="Grupo_1174813" data-name="Grupo 1174813" transform="translate(280 876.414)">
          <g id="Grupo_1201680" data-name="Grupo 1201680">
            <g id="Grupo_1201330" data-name="Grupo 1201330">
              <g id="Grupo_1172010" data-name="Grupo 1172010">
                <g id="Grupo_1171046" data-name="Grupo 1171046">
                  <g id="Grupo_1148525" data-name="Grupo 1148525">
                    <g transform="matrix(1, 0, 0, 1, -9, -6)" filter="url(#Trazado_982547)">
                      <g id="Trazado_982547-2" data-name="Trazado 982547" transform="translate(9 6)" fill="#fff4e6">
                        <path d="M 47.5 93.5 C 41.28937149047852 93.5 35.26533508300781 92.28397369384766 29.59518623352051 89.88570404052734 C 24.11771965026855 87.56893157958984 19.19813346862793 84.25196075439453 14.97309303283691 80.02691650390625 C 10.74804019927979 75.80186462402344 7.431066513061523 70.88229370117188 5.114293098449707 65.40481567382812 C 2.716026782989502 59.73468017578125 1.5 53.71062850952148 1.5 47.5 C 1.5 41.28937149047852 2.716026782989502 35.26533508300781 5.114293098449707 29.59518623352051 C 7.431066513061523 24.11771965026855 10.74804019927979 19.19813346862793 14.97309303283691 14.97309303283691 C 19.19813346862793 10.74804019927979 24.11771965026855 7.431066513061523 29.59518623352051 5.114293098449707 C 35.26533508300781 2.716026782989502 41.28937149047852 1.5 47.5 1.5 C 53.71062850952148 1.5 59.73468017578125 2.716026782989502 65.40481567382812 5.114293098449707 C 70.88229370117188 7.431066513061523 75.80186462402344 10.74804019927979 80.02691650390625 14.97309303283691 C 84.25196075439453 19.19813346862793 87.56893157958984 24.11771965026855 89.88570404052734 29.59518623352051 C 92.28397369384766 35.26533508300781 93.5 41.28937149047852 93.5 47.5 C 93.5 53.71062850952148 92.28397369384766 59.73468017578125 89.88570404052734 65.40481567382812 C 87.56893157958984 70.88229370117188 84.25196075439453 75.80186462402344 80.02691650390625 80.02691650390625 C 75.80186462402344 84.25196075439453 70.88229370117188 87.56893157958984 65.40481567382812 89.88570404052734 C 59.73468017578125 92.28397369384766 53.71062850952148 93.5 47.5 93.5 Z" stroke="none"/>
                        <path d="M 47.5 3 C 41.49121475219727 3 35.66376876831055 4.176155090332031 30.17950439453125 6.495796203613281 C 24.88084411621094 8.736953735351562 20.12152099609375 11.94598388671875 16.03375244140625 16.03375244140625 C 11.94598388671875 20.12152099609375 8.736953735351562 24.88084411621094 6.495796203613281 30.17950439453125 C 4.176155090332031 35.66376876831055 3 41.49121475219727 3 47.5 C 3 53.50878524780273 4.176155090332031 59.33623123168945 6.495796203613281 64.82049560546875 C 8.736953735351562 70.11915588378906 11.94598388671875 74.87847900390625 16.03375244140625 78.96624755859375 C 20.12152099609375 83.05401611328125 24.88084411621094 86.26304626464844 30.17950439453125 88.50419616699219 C 35.66376876831055 90.82384490966797 41.49121475219727 92 47.5 92 C 53.50878524780273 92 59.33623123168945 90.82384490966797 64.82049560546875 88.50419616699219 C 70.11915588378906 86.26304626464844 74.87847900390625 83.05401611328125 78.96624755859375 78.96624755859375 C 83.05401611328125 74.87847900390625 86.26304626464844 70.11915588378906 88.50419616699219 64.82049560546875 C 90.82384490966797 59.33623123168945 92 53.50878524780273 92 47.5 C 92 41.49121475219727 90.82384490966797 35.66376876831055 88.50419616699219 30.17950439453125 C 86.26304626464844 24.88084411621094 83.05401611328125 20.12152099609375 78.96624755859375 16.03375244140625 C 74.87847900390625 11.94598388671875 70.11915588378906 8.736953735351562 64.82049560546875 6.495796203613281 C 59.33623123168945 4.176155090332031 53.50878524780273 3 47.5 3 M 47.5 0 C 73.7335205078125 0 95 21.2664794921875 95 47.5 C 95 73.7335205078125 73.7335205078125 95 47.5 95 C 21.2664794921875 95 0 73.7335205078125 0 47.5 C 0 21.2664794921875 21.2664794921875 0 47.5 0 Z" stroke="none" fill="#ff9d1c"/>
                      </g>
                    </g>
                  </g>
                </g>
              </g>
            </g>
          </g>
        </g>
      </g>
    </g>
    <g id="rating-Delivery-bad-Logistic-box" transform="translate(608.67 4633.208)">
      <path id="Trazado_1052609" data-name="Trazado 1052609" d="M55.126,9v8.406H11.1a.853.853,0,0,1,.2-.3l7.8-7.8a1.06,1.06,0,0,1,.736-.3Z" transform="translate(0.462 0.355)" fill="#3d9ae2"/>
      <path id="Trazado_1052610" data-name="Trazado 1052610" d="M55.131,17V53.776a1.051,1.051,0,0,1-1.051,1.051H11v-37.4A.9.9,0,0,1,11.105,17Z" transform="translate(0.457 0.761)" fill="#5aaae7"/>
      <path id="Trazado_1052611" data-name="Trazado 1052611" d="M53.609,17V27.507H42.051A1.051,1.051,0,0,1,41,26.457V17Z" transform="translate(1.979 0.761)" fill="#3d9ae2"/>
      <path id="Trazado_1052612" data-name="Trazado 1052612" d="M62.116,4.051V25.065a1.051,1.051,0,0,1-1.051,1.051H40.051A1.051,1.051,0,0,1,39,25.065V5.1c0-1.629.473-2.1,1.051-2.1H61.065A1.051,1.051,0,0,1,62.116,4.051Z" transform="translate(1.877 0.051)" fill="#ffa733"/>
      <path id="Trazado_1052613" data-name="Trazado 1052613" d="M53.355,39v6.3h-6.3A1.051,1.051,0,0,1,46,44.254v-4.2A1.051,1.051,0,0,1,47.051,39Z" transform="translate(2.232 1.877)" fill="#3d9ae2"/>
      <path id="Trazado_1052614" data-name="Trazado 1052614" d="M62.167,39.588a1.059,1.059,0,0,1,0,1.492l-6.914,5.863a1.051,1.051,0,0,1-1.8-.736V43.486H45.051A1.051,1.051,0,0,1,44,42.436v-4.2a1.051,1.051,0,0,1,1.051-1.051h8.406V34.461a1.051,1.051,0,0,1,1.8-.736Z" transform="translate(2.131 1.594)" fill="#ff9811"/>
      <path id="Trazado_1052615" data-name="Trazado 1052615" d="M40.421,51.723a2.108,2.108,0,0,1-2.1,2.1H11V45.418h1.849a.706.706,0,0,0,.252-.042.99.99,0,0,0,.483-.263l7.744-7.744a2.093,2.093,0,0,1,2.963,0l.011.011a2.093,2.093,0,0,1,0,2.963l-3.278,3.278a1.051,1.051,0,0,0,.736,1.8H34.116a2.1,2.1,0,0,1,0,4.2h4.2a2.117,2.117,0,0,1,2.1,2.1Z" transform="translate(0.457 1.763)" fill="#3d9ae2"/>
      <path id="Trazado_1052616" data-name="Trazado 1052616" d="M32.421,47.621h4.2a2.1,2.1,0,1,1,0,4.2h-4.2a2.1,2.1,0,1,1,0,4.2H28.1a2.181,2.181,0,0,1,2.207,1.912,2.112,2.112,0,0,1-2.091,2.291H11.837a1.06,1.06,0,0,1-.736-.3L9.609,58.433a1.06,1.06,0,0,0-.736-.3H4.051A1.051,1.051,0,0,1,3,57.078V43.418h8.154a.706.706,0,0,0,.252-.042.99.99,0,0,0,.483-.263l7.744-7.744a2.093,2.093,0,0,1,2.963,0l.011.011a2.093,2.093,0,0,1,0,2.963l-2.974,2.974-.3.3a1.051,1.051,0,0,0,.736,1.8H32.421a2.1,2.1,0,1,1,0,4.2Z" transform="translate(0.051 1.662)" fill="#ffc477"/>
      <rect id="Rect치ngulo_419578" data-name="Rect치ngulo 419578" width="10.507" height="10.507" rx="1" transform="translate(17.761 24.065)" fill="#3d9ae2"/>
      <rect id="Rect치ngulo_419579" data-name="Rect치ngulo 419579" width="10.507" height="10.507" rx="1" transform="translate(15.66 21.964)" fill="#e6e7e8"/>
      <path id="Trazado_1052617" data-name="Trazado 1052617" d="M11.406,39v4.161a.706.706,0,0,1-.252.042H3V40.051A1.051,1.051,0,0,1,4.051,39Z" transform="translate(0.051 1.877)" fill="#ffb655"/>
      <circle id="Elipse_13463" data-name="Elipse 13463" cx="8.406" cy="8.406" r="8.406" transform="translate(46.131 8.304)" fill="#ee8700"/>
      <circle id="Elipse_13464" data-name="Elipse 13464" cx="8.406" cy="8.406" r="8.406" transform="translate(44.03 6.203)" fill="#ff5023"/>
      <path id="Trazado_1052618" data-name="Trazado 1052618" d="M41,14.457A9.457,9.457,0,1,0,50.457,5,9.457,9.457,0,0,0,41,14.457ZM50.457,7.1A7.355,7.355,0,1,1,43.1,14.457,7.355,7.355,0,0,1,50.457,7.1Z" transform="translate(1.979 0.152)"/>
      <path id="Trazado_1052619" data-name="Trazado 1052619" d="M46,11h2.1v2.1H46Z" transform="translate(2.232 0.457)"/>
      <path id="Trazado_1052620" data-name="Trazado 1052620" d="M52,11h2.1v2.1H52Z" transform="translate(2.537 0.457)"/>
      <path id="Trazado_1052621" data-name="Trazado 1052621" d="M50.2,16.1a2.1,2.1,0,0,1,2.1,2.1h2.1A4.2,4.2,0,1,0,46,18.2h2.1A2.1,2.1,0,0,1,50.2,16.1Z" transform="translate(2.232 0.609)"/>
      <path id="Trazado_1052622" data-name="Trazado 1052622" d="M36.674,47.928h-1.24a3.131,3.131,0,0,0-2.963-4.2H20.115L23.4,40.447a3.158,3.158,0,0,0-4.466-4.466l-6.431,6.441V18.507H37.725v-2.1H13.989l6.3-6.3H37.725V8H19.863a1.085,1.085,0,0,0-.746.3l-8.406,8.406a1.085,1.085,0,0,0-.3.746V39.522H4.1a2.108,2.108,0,0,0-2.1,2.1V58.435a2.108,2.108,0,0,0,2.1,2.1H8.924l1.482,1.482a2.084,2.084,0,0,0,1.482.62H28.268a3.1,3.1,0,0,0,2.217-.914,3.163,3.163,0,0,0,.925-2.511,2.807,2.807,0,0,0-.189-.778h1.25a3.131,3.131,0,0,0,2.963-4.2h1.24a3.152,3.152,0,1,0,0-6.3ZM4.1,41.624h6.3v2.1H4.1ZM36.674,52.131H19.863v2.1H32.471a1.051,1.051,0,1,1,0,2.1H19.863v2.1h8.29a1.147,1.147,0,0,1,1.166.956,1.035,1.035,0,0,1-.326.841.975.975,0,0,1-.725.3H11.887l-1.482-1.482a2.084,2.084,0,0,0-1.482-.62H4.1V45.827h7.1a2.084,2.084,0,0,0,1.482-.62l7.744-7.733a1.051,1.051,0,0,1,1.482,1.482l-3.278,3.289a2.1,2.1,0,0,0-.452,2.291,2.08,2.08,0,0,0,1.933,1.292H32.471a1.051,1.051,0,0,1,0,2.1H19.863v2.1H36.674a1.051,1.051,0,0,1,0,2.1Z" transform="translate(0 0.304)"/>
      <path id="Trazado_1052623" data-name="Trazado 1052623" d="M52.812,52.152H36v2.1H53.863A1.051,1.051,0,0,0,54.913,53.2V49h-2.1Z" transform="translate(1.725 2.385)"/>
      <path id="Trazado_1052624" data-name="Trazado 1052624" d="M52,28h2.1v3.152H52Z" transform="translate(2.537 1.319)"/>
      <path id="Trazado_1052625" data-name="Trazado 1052625" d="M62.964,38.9c-.02-.021-.042-.04-.063-.059L56.044,33.03a2.1,2.1,0,0,0-3.587,1.486v1.666H45.1a2.1,2.1,0,0,0-2.1,2.1v4.2a2.1,2.1,0,0,0,2.1,2.1h7.355v1.666a2.1,2.1,0,0,0,1.3,1.942,2.148,2.148,0,0,0,.821.163,1.985,1.985,0,0,0,1.406-.56l6.983-5.928a2.1,2.1,0,0,0,0-2.971Zm-8.406,7.355V43.537a1.051,1.051,0,0,0-1.051-1.051H45.1v-4.2h8.406a1.051,1.051,0,0,0,1.051-1.051l.063-2.658,6.852,5.811Z" transform="translate(2.08 1.543)"/>
      <path id="Trazado_1052626" data-name="Trazado 1052626" d="M30,28H44.71v2.1H30Z" transform="translate(1.421 1.319)"/>
      <path id="Trazado_1052627" data-name="Trazado 1052627" d="M30,32H48.913v2.1H30Z" transform="translate(1.421 1.522)"/>
      <path id="Trazado_1052628" data-name="Trazado 1052628" d="M16.1,22.1h3.152V20H16.1A2.1,2.1,0,0,0,14,22.1v3.152h2.1Z" transform="translate(0.609 0.913)"/>
      <path id="Trazado_1052629" data-name="Trazado 1052629" d="M14,30.152a2.1,2.1,0,0,0,2.1,2.1h3.172v-2.1H16.1V27H14Z" transform="translate(0.609 1.268)"/>
      <path id="Trazado_1052630" data-name="Trazado 1052630" d="M26.254,22.1a2.1,2.1,0,0,0-2.1-2.1H21v2.1h3.152v3.152h2.1Z" transform="translate(0.964 0.913)"/>
      <path id="Trazado_1052631" data-name="Trazado 1052631" d="M24.153,30.152H20.981v2.1h3.172a2.1,2.1,0,0,0,2.1-2.1V27h-2.1Z" transform="translate(0.963 1.268)"/>
      <path id="Trazado_1052632" data-name="Trazado 1052632" d="M32,12h4.2v2.1H32Z" transform="translate(1.522 0.507)"/>
      <path id="Trazado_1052633" data-name="Trazado 1052633" d="M26,12h4.2v2.1H26Z" transform="translate(1.218 0.507)"/>
      <path id="Trazado_1052634" data-name="Trazado 1052634" d="M20,12h4.2v2.1H20Z" transform="translate(0.913 0.507)"/>
      <path id="Trazado_1052635" data-name="Trazado 1052635" d="M60.3,10.406h2.1V4.1A2.1,2.1,0,0,0,60.3,2H54V4.1h6.3Z" transform="translate(2.638)"/>
      <path id="Trazado_1052636" data-name="Trazado 1052636" d="M40.1,10.406H38V4.1A2.1,2.1,0,0,1,40.1,2h6.3V4.1H40.1Z" transform="translate(1.827)"/>
      <path id="Trazado_1052637" data-name="Trazado 1052637" d="M62.406,24.3V18H60.3v6.3H54v2.1h6.3A2.1,2.1,0,0,0,62.406,24.3Z" transform="translate(2.638 0.812)"/>
      <path id="Trazado_1052638" data-name="Trazado 1052638" d="M40.1,26.406h6.3V24.3H40.1V18H38v6.3A2.1,2.1,0,0,0,40.1,26.406Z" transform="translate(1.827 0.812)"/>
    </g>
  </g>
</svg>
