<svg xmlns="http://www.w3.org/2000/svg" xmlns:xlink="http://www.w3.org/1999/xlink" width="113" height="113" viewBox="0 0 113 113">
  <defs>
    <filter id="Trazado_982547" x="0" y="0" width="113" height="113" filterUnits="userSpaceOnUse">
      <feOffset dy="3" input="SourceAlpha"/>
      <feGaussianBlur stdDeviation="3" result="blur"/>
      <feFlood flood-opacity="0.161"/>
      <feComposite operator="in" in2="blur"/>
      <feComposite in="SourceGraphic"/>
    </filter>
  </defs>
  <g id="Grupo_1207694" data-name="Grupo 1207694" transform="translate(-902 -4612.179)">
    <g id="Grupo_1207607" data-name="Grupo 1207607" transform="translate(0 2198.406)">
      <g id="Grupo_1207309" data-name="Grupo 1207309" transform="translate(631 1543.358)">
        <g id="Grupo_1174813" data-name="Grupo 1174813" transform="translate(280 876.414)">
          <g id="Grupo_1201680" data-name="Grupo 1201680">
            <g id="Grupo_1201330" data-name="Grupo 1201330">
              <g id="Grupo_1172010" data-name="Grupo 1172010">
                <g id="Grupo_1171046" data-name="Grupo 1171046">
                  <g id="Grupo_1148525" data-name="Grupo 1148525">
                    <g transform="matrix(1, 0, 0, 1, -9, -6)" filter="url(#Trazado_982547)">
                      <g id="Trazado_982547-2" data-name="Trazado 982547" transform="translate(9 6)" fill="#fff4e6">
                        <path d="M 47.5 93.5 C 41.28937149047852 93.5 35.26533508300781 92.28397369384766 29.59518623352051 89.88570404052734 C 24.11771965026855 87.56893157958984 19.19813346862793 84.25196075439453 14.97309303283691 80.02691650390625 C 10.74804019927979 75.80186462402344 7.431066513061523 70.88229370117188 5.114293098449707 65.40481567382812 C 2.716026782989502 59.73468017578125 1.5 53.71062850952148 1.5 47.5 C 1.5 41.28937149047852 2.716026782989502 35.26533508300781 5.114293098449707 29.59518623352051 C 7.431066513061523 24.11771965026855 10.74804019927979 19.19813346862793 14.97309303283691 14.97309303283691 C 19.19813346862793 10.74804019927979 24.11771965026855 7.431066513061523 29.59518623352051 5.114293098449707 C 35.26533508300781 2.716026782989502 41.28937149047852 1.5 47.5 1.5 C 53.71062850952148 1.5 59.73468017578125 2.716026782989502 65.40481567382812 5.114293098449707 C 70.88229370117188 7.431066513061523 75.80186462402344 10.74804019927979 80.02691650390625 14.97309303283691 C 84.25196075439453 19.19813346862793 87.56893157958984 24.11771965026855 89.88570404052734 29.59518623352051 C 92.28397369384766 35.26533508300781 93.5 41.28937149047852 93.5 47.5 C 93.5 53.71062850952148 92.28397369384766 59.73468017578125 89.88570404052734 65.40481567382812 C 87.56893157958984 70.88229370117188 84.25196075439453 75.80186462402344 80.02691650390625 80.02691650390625 C 75.80186462402344 84.25196075439453 70.88229370117188 87.56893157958984 65.40481567382812 89.88570404052734 C 59.73468017578125 92.28397369384766 53.71062850952148 93.5 47.5 93.5 Z" stroke="none"/>
                        <path d="M 47.5 3 C 41.49121475219727 3 35.66376876831055 4.176155090332031 30.17950439453125 6.495796203613281 C 24.88084411621094 8.736953735351562 20.12152099609375 11.94598388671875 16.03375244140625 16.03375244140625 C 11.94598388671875 20.12152099609375 8.736953735351562 24.88084411621094 6.495796203613281 30.17950439453125 C 4.176155090332031 35.66376876831055 3 41.49121475219727 3 47.5 C 3 53.50878524780273 4.176155090332031 59.33623123168945 6.495796203613281 64.82049560546875 C 8.736953735351562 70.11915588378906 11.94598388671875 74.87847900390625 16.03375244140625 78.96624755859375 C 20.12152099609375 83.05401611328125 24.88084411621094 86.26304626464844 30.17950439453125 88.50419616699219 C 35.66376876831055 90.82384490966797 41.49121475219727 92 47.5 92 C 53.50878524780273 92 59.33623123168945 90.82384490966797 64.82049560546875 88.50419616699219 C 70.11915588378906 86.26304626464844 74.87847900390625 83.05401611328125 78.96624755859375 78.96624755859375 C 83.05401611328125 74.87847900390625 86.26304626464844 70.11915588378906 88.50419616699219 64.82049560546875 C 90.82384490966797 59.33623123168945 92 53.50878524780273 92 47.5 C 92 41.49121475219727 90.82384490966797 35.66376876831055 88.50419616699219 30.17950439453125 C 86.26304626464844 24.88084411621094 83.05401611328125 20.12152099609375 78.96624755859375 16.03375244140625 C 74.87847900390625 11.94598388671875 70.11915588378906 8.736953735351562 64.82049560546875 6.495796203613281 C 59.33623123168945 4.176155090332031 53.50878524780273 3 47.5 3 M 47.5 0 C 73.7335205078125 0 95 21.2664794921875 95 47.5 C 95 73.7335205078125 73.7335205078125 95 47.5 95 C 21.2664794921875 95 0 73.7335205078125 0 47.5 C 0 21.2664794921875 21.2664794921875 0 47.5 0 Z" stroke="none" fill="#ff9d1c"/>
                      </g>
                    </g>
                  </g>
                </g>
              </g>
            </g>
          </g>
        </g>
      </g>
    </g>
    <g id="injury-time_12370587" transform="translate(883.629 4621.308)">
      <path id="Trazado_1052639" data-name="Trazado 1052639" d="M223.987,26.657l-2.475-2.475-2.475,2.475v7.426h4.95Z" transform="translate(-149.65 -14.207)" fill="#fb2b3a"/>
      <path id="Trazado_1052640" data-name="Trazado 1052640" d="M85.874,87.7h-3.5v3.5l5.251,5.251,3.5-3.5Z" transform="translate(-33.265 -68.299)" fill="#b2caec"/>
      <path id="Trazado_1052641" data-name="Trazado 1052641" d="M335.335,87.7h3.5v3.5l-5.251,5.251-3.5-3.5Z" transform="translate(-244.221 -68.299)" fill="#b2caec"/>
      <path id="Trazado_1052642" data-name="Trazado 1052642" d="M223.19,403.385h-3.357a.8.8,0,0,1-.8-.8V391.18h4.95v11.408A.8.8,0,0,1,223.19,403.385Z" transform="translate(-149.65 -326.751)" fill="#c0d6f2"/>
      <circle id="Elipse_13465" data-name="Elipse 13465" cx="24.752" cy="24.752" r="24.752" transform="translate(47.11 17.401)" fill="#0055a3"/>
      <path id="Trazado_1052643" data-name="Trazado 1052643" d="M143.063,113.509a24.752,24.752,0,0,1-34.879,34.879,24.752,24.752,0,1,0,34.879-34.879Z" transform="translate(-55.245 -90.28)" fill="#004281"/>
      <circle id="Elipse_13466" data-name="Elipse 13466" cx="19.801" cy="19.801" r="19.801" transform="translate(52.06 22.351)" fill="#c0d6f2"/>
      <path id="Trazado_1052644" data-name="Trazado 1052644" d="M159.728,137.207a19.8,19.8,0,0,1-27.847,27.847,19.8,19.8,0,1,0,27.847-27.847Z" transform="translate(-75.426 -110.462)" fill="#b2caec"/>
      <path id="Trazado_1052645" data-name="Trazado 1052645" d="M205.593,12.45H194.811a.8.8,0,0,1-.8-.8V8.3a.8.8,0,0,1,.8-.8h10.782a.8.8,0,0,1,.8.8v3.357A.8.8,0,0,1,205.593,12.45Z" transform="translate(-128.34 0)" fill="#fd4755"/>
      <path id="Trazado_1052646" data-name="Trazado 1052646" d="M255.02,7.5h-2.968a.8.8,0,0,1,.8.8v3.357a.8.8,0,0,1-.8.8h2.968a.8.8,0,0,0,.8-.8V8.3A.8.8,0,0,0,255.02,7.5Z" transform="translate(-177.767 0)" fill="#fb2b3a"/>
      <path id="Trazado_1052647" data-name="Trazado 1052647" d="M54.671,52.373,47.047,60a.8.8,0,0,1-1.127,0l-2.373-2.374a.8.8,0,0,1,0-1.127l7.624-7.624a.8.8,0,0,1,1.127,0l2.374,2.374A.8.8,0,0,1,54.671,52.373Z" transform="translate(0 -35.035)" fill="#c0d6f2"/>
      <path id="Trazado_1052648" data-name="Trazado 1052648" d="M87,51.245l-2.374-2.374a.8.8,0,0,0-1.127,0L81.269,51.1a.8.8,0,0,1,1.127,0l2.374,2.374a.8.8,0,0,1,0,1.127L87,52.372A.8.8,0,0,0,87,51.245Z" transform="translate(-32.324 -35.034)" fill="#b2caec"/>
      <path id="Trazado_1052649" data-name="Trazado 1052649" d="M350.236,52.372,357.86,60a.8.8,0,0,0,1.127,0l2.374-2.374a.8.8,0,0,0,0-1.127l-7.624-7.624a.8.8,0,0,0-1.127,0l-2.374,2.374A.8.8,0,0,0,350.236,52.372Z" transform="translate(-261.184 -35.034)" fill="#c0d6f2"/>
      <path id="Trazado_1052650" data-name="Trazado 1052650" d="M393.685,88.821,391.459,86.6a.8.8,0,0,1,0,1.127L389.086,90.1a.8.8,0,0,1-1.127,0l2.226,2.226a.8.8,0,0,0,1.127,0l2.374-2.374A.8.8,0,0,0,393.685,88.821Z" transform="translate(-293.508 -67.359)" fill="#b2caec"/>
      <path id="Trazado_1052651" data-name="Trazado 1052651" d="M179.65,77.394h8.313a1.484,1.484,0,0,0,1.235-.661l3.591-5.386a.37.37,0,0,0-.177-.553,25.515,25.515,0,0,0-17.609,0,.37.37,0,0,0-.177.553l3.591,5.386A1.484,1.484,0,0,0,179.65,77.394Z" transform="translate(-111.945 -52.568)" fill="#fed402"/>
      <path id="Trazado_1052652" data-name="Trazado 1052652" d="M187.964,357.816h-8.312a1.484,1.484,0,0,0-1.234.661l-3.591,5.386a.37.37,0,0,0,.177.553,25.515,25.515,0,0,0,17.609,0,.37.37,0,0,0,.177-.553l-3.591-5.386A1.484,1.484,0,0,0,187.964,357.816Z" transform="translate(-111.946 -298.337)" fill="#fed402"/>
      <path id="Trazado_1052653" data-name="Trazado 1052653" d="M192.79,383.539l-1.746-2.619a.363.363,0,0,1-.212.2,25.546,25.546,0,0,1-14.943.82l-1.063,1.594a.371.371,0,0,0,.177.553,25.514,25.514,0,0,0,17.609,0A.371.371,0,0,0,192.79,383.539Z" transform="translate(-111.947 -318.013)" fill="#fac600"/>
      <path id="Trazado_1052654" data-name="Trazado 1052654" d="M170.185,193.07a3.709,3.709,0,0,1-3.709,3.709H146.24a3.709,3.709,0,0,1-3.709-3.709V182.053a3.709,3.709,0,0,1,3.709-3.709h20.235a3.709,3.709,0,0,1,3.709,3.709Z" transform="translate(-84.496 -145.495)" fill="#0055a3"/>
      <path id="Trazado_1052655" data-name="Trazado 1052655" d="M168.062,179.124a3.718,3.718,0,0,1,.116.923v11.017a3.709,3.709,0,0,1-3.709,3.709H144.234a3.719,3.719,0,0,1-.923-.116,3.711,3.711,0,0,0,3.594,2.786H167.14a3.709,3.709,0,0,0,3.709-3.709V182.718A3.711,3.711,0,0,0,168.062,179.124Z" transform="translate(-85.16 -146.159)" fill="#004281"/>
      <path id="Trazado_1052656" data-name="Trazado 1052656" d="M66.021,180.151a.37.37,0,0,0-.553.177,25.515,25.515,0,0,0,0,17.609.37.37,0,0,0,.553.177l4.607-3.071a.742.742,0,0,0,.33-.617V183.84a.742.742,0,0,0-.33-.617Z" transform="translate(-17.533 -146.98)" fill="#fed402"/>
      <path id="Trazado_1052657" data-name="Trazado 1052657" d="M204.754,73.744a25.268,25.268,0,0,0-3.7-1.053l-2.684,4.025a1.484,1.484,0,0,1-1.235.661h-8.117l1.538,2.307a1.484,1.484,0,0,0,1.234.661h8.312a1.484,1.484,0,0,0,1.235-.661l3.591-5.386A.37.37,0,0,0,204.754,73.744Z" transform="translate(-124.088 -55.518)" fill="#fac600"/>
      <path id="Trazado_1052658" data-name="Trazado 1052658" d="M73.579,191.12l-2.637-1.758v9.994a.742.742,0,0,1-.33.617l-3.246,2.164a25.268,25.268,0,0,0,1.053,3.7.371.371,0,0,0,.553.177l4.607-3.071a.742.742,0,0,0,.33-.617V191.737A.742.742,0,0,0,73.579,191.12Z" transform="translate(-20.483 -154.878)" fill="#fac600"/>
      <path id="Trazado_1052659" data-name="Trazado 1052659" d="M364.906,180.151a.37.37,0,0,1,.553.177,25.514,25.514,0,0,1,0,17.609.37.37,0,0,1-.553.177l-4.607-3.071a.742.742,0,0,1-.33-.617V183.84a.742.742,0,0,1,.33-.617Z" transform="translate(-269.671 -146.98)" fill="#fed402"/>
      <path id="Trazado_1052660" data-name="Trazado 1052660" d="M365.46,180.328a.371.371,0,0,0-.553-.177l-1.361.907a25.555,25.555,0,0,1-1.053,13.911.371.371,0,0,1-.553.177l-1.97-1.313v.592a.742.742,0,0,0,.33.617l4.607,3.071a.37.37,0,0,0,.553-.177,25.513,25.513,0,0,0,0-17.609Z" transform="translate(-269.671 -146.98)" fill="#fac600"/>
      <circle id="Elipse_13467" data-name="Elipse 13467" cx="11.522" cy="11.522" r="11.522" transform="translate(83.384 42.067)" fill="#6fd7a3"/>
      <path id="Trazado_1052661" data-name="Trazado 1052661" d="M344.079,257.552a11.523,11.523,0,0,1-16.647,15.6,11.523,11.523,0,1,0,16.647-15.6Z" transform="translate(-241.962 -212.95)" fill="#3ec3a4"/>
      <path id="Trazado_1052662" data-name="Trazado 1052662" d="M358.265,276.883a.742.742,0,0,0-.742-.742h-3.5a.371.371,0,0,1-.371-.371v-3.5a.742.742,0,0,0-.742-.742h-3.125a.742.742,0,0,0-.742.742v3.5a.371.371,0,0,1-.371.371h-3.5a.742.742,0,0,0-.742.742v3.125a.742.742,0,0,0,.742.742h3.5a.371.371,0,0,1,.371.371v3.5a.742.742,0,0,0,.742.742h3.125a.742.742,0,0,0,.742-.742v-3.5a.371.371,0,0,1,.371-.371h3.5a.742.742,0,0,0,.742-.742v-3.125Z" transform="translate(-256.445 -224.856)" fill="#fff"/>
      <path id="Trazado_1052663" data-name="Trazado 1052663" d="M252.862,443.719a16.151,16.151,0,0,1,12.035,9.018" transform="translate(-178.457 -371.494)" fill="none" stroke="#000" stroke-linecap="round" stroke-linejoin="round" stroke-miterlimit="10" stroke-width="1"/>
      <path id="Trazado_1052664" data-name="Trazado 1052664" d="M137.462,452.789a16.152,16.152,0,0,1,11.979-9.01" transform="translate(-80.179 -371.545)" fill="none" stroke="#000" stroke-linecap="round" stroke-linejoin="round" stroke-miterlimit="10" stroke-width="1"/>
      <line id="Línea_1267" data-name="Línea 1267" y1="4.031" transform="translate(74.337 12.599)" fill="none" stroke="#000" stroke-linecap="round" stroke-linejoin="round" stroke-miterlimit="10" stroke-width="1"/>
      <line id="Línea_1268" data-name="Línea 1268" y2="4.031" transform="translate(69.387 12.599)" fill="none" stroke="#000" stroke-linecap="round" stroke-linejoin="round" stroke-miterlimit="10" stroke-width="1"/>
      <path id="Trazado_1052665" data-name="Trazado 1052665" d="M205.593,12.45H194.811a.8.8,0,0,1-.8-.8V8.3a.8.8,0,0,1,.8-.8h10.782a.8.8,0,0,1,.8.8v3.357A.8.8,0,0,1,205.593,12.45Z" transform="translate(-128.34 0)" fill="none" stroke="#000" stroke-linecap="round" stroke-linejoin="round" stroke-miterlimit="10" stroke-width="1"/>
      <line id="Línea_1269" data-name="Línea 1269" x1="3.462" y1="3.462" transform="translate(52.682 19.472)" fill="none" stroke="#000" stroke-linecap="round" stroke-linejoin="round" stroke-miterlimit="10" stroke-width="1"/>
      <line id="Línea_1270" data-name="Línea 1270" x2="3.489" y2="3.489" transform="translate(49.181 22.973)" fill="none" stroke="#000" stroke-linecap="round" stroke-linejoin="round" stroke-miterlimit="10" stroke-width="1"/>
      <path id="Trazado_1052666" data-name="Trazado 1052666" d="M54.671,52.373,47.047,60a.8.8,0,0,1-1.127,0l-2.373-2.374a.8.8,0,0,1,0-1.127l7.624-7.624a.8.8,0,0,1,1.127,0l2.374,2.374A.8.8,0,0,1,54.671,52.373Z" transform="translate(0 -35.035)" fill="none" stroke="#000" stroke-linecap="round" stroke-linejoin="round" stroke-miterlimit="10" stroke-width="1"/>
      <line id="Línea_1271" data-name="Línea 1271" y1="3.462" x2="3.462" transform="translate(87.58 19.472)" fill="none" stroke="#000" stroke-linecap="round" stroke-linejoin="round" stroke-miterlimit="10" stroke-width="1"/>
      <line id="Línea_1272" data-name="Línea 1272" x1="3.489" y2="3.489" transform="translate(91.053 22.973)" fill="none" stroke="#000" stroke-linecap="round" stroke-linejoin="round" stroke-miterlimit="10" stroke-width="1"/>
      <path id="Trazado_1052667" data-name="Trazado 1052667" d="M350.236,52.372,357.86,60a.8.8,0,0,0,1.127,0l2.374-2.374a.8.8,0,0,0,0-1.127l-7.624-7.624a.8.8,0,0,0-1.127,0l-2.374,2.374A.8.8,0,0,0,350.236,52.372Z" transform="translate(-261.184 -35.034)" fill="none" stroke="#000" stroke-linecap="round" stroke-linejoin="round" stroke-miterlimit="10" stroke-width="1"/>
      <path id="Trazado_1052668" data-name="Trazado 1052668" d="M179.65,77.394h8.313a1.484,1.484,0,0,0,1.235-.661l3.591-5.386a.37.37,0,0,0-.177-.553,25.515,25.515,0,0,0-17.609,0,.37.37,0,0,0-.177.553l3.591,5.386A1.484,1.484,0,0,0,179.65,77.394Z" transform="translate(-111.945 -52.568)" fill="none" stroke="#000" stroke-linecap="round" stroke-linejoin="round" stroke-miterlimit="10" stroke-width="1"/>
      <path id="Trazado_1052669" data-name="Trazado 1052669" d="M187.964,357.816h-8.312a1.484,1.484,0,0,0-1.234.661l-3.591,5.386a.37.37,0,0,0,.177.553,25.515,25.515,0,0,0,17.609,0,.37.37,0,0,0,.177-.553l-3.591-5.386A1.484,1.484,0,0,0,187.964,357.816Z" transform="translate(-111.946 -298.337)" fill="none" stroke="#000" stroke-linecap="round" stroke-linejoin="round" stroke-miterlimit="10" stroke-width="1"/>
      <path id="Trazado_1052670" data-name="Trazado 1052670" d="M185.38,236.933a8.059,8.059,0,0,0,2.835-5.245" transform="translate(-120.987 -190.924)" fill="none" stroke="#000" stroke-linecap="round" stroke-linejoin="round" stroke-miterlimit="10" stroke-width="1"/>
      <circle id="Elipse_13468" data-name="Elipse 13468" cx="2.304" cy="2.304" r="2.304" transform="translate(62.644 38.125)" fill="none" stroke="#000" stroke-linecap="round" stroke-linejoin="round" stroke-miterlimit="10" stroke-width="1"/>
      <path id="Trazado_1052671" data-name="Trazado 1052671" d="M240.328,218.509a2.3,2.3,0,1,1-4.609,0v-3.685a2.3,2.3,0,0,1,4.609,0Z" transform="translate(-163.857 -174.599)" fill="none" stroke="#000" stroke-linecap="round" stroke-linejoin="round" stroke-miterlimit="10" stroke-width="1"/>
      <path id="Trazado_1052672" data-name="Trazado 1052672" d="M66.021,180.151a.37.37,0,0,0-.553.177,25.515,25.515,0,0,0,0,17.609.37.37,0,0,0,.553.177l4.607-3.071a.742.742,0,0,0,.33-.617V183.84a.742.742,0,0,0-.33-.617Z" transform="translate(-17.533 -146.98)" fill="none" stroke="#000" stroke-linecap="round" stroke-linejoin="round" stroke-miterlimit="10" stroke-width="1"/>
      <path id="Trazado_1052673" data-name="Trazado 1052673" d="M367.024,189.223c0-.03,0-.061,0-.091a25.373,25.373,0,0,0-1.567-8.8.371.371,0,0,0-.553-.177l-4.607,3.071a.742.742,0,0,0-.33.617v6.018" transform="translate(-269.669 -146.98)" fill="none" stroke="#000" stroke-linecap="round" stroke-linejoin="round" stroke-miterlimit="10" stroke-width="1"/>
      <g id="Grupo_1207691" data-name="Grupo 1207691" transform="translate(81.08 39.763)">
        <g id="Grupo_1207690" data-name="Grupo 1207690">
          <line id="Línea_1273" data-name="Línea 1273" fill="none" stroke="#000" stroke-linecap="round" stroke-linejoin="round" stroke-miterlimit="10" stroke-width="1"/>
        </g>
      </g>
      <g id="Grupo_1207693" data-name="Grupo 1207693" transform="translate(81.08 44.372)">
        <g id="Grupo_1207692" data-name="Grupo 1207692">
          <line id="Línea_1274" data-name="Línea 1274" fill="none" stroke="#000" stroke-linecap="round" stroke-linejoin="round" stroke-miterlimit="10" stroke-width="1"/>
        </g>
      </g>
      <path id="Trazado_1052674" data-name="Trazado 1052674" d="M358.265,276.883a.742.742,0,0,0-.742-.742h-3.5a.371.371,0,0,1-.371-.371v-3.5a.742.742,0,0,0-.742-.742h-3.125a.742.742,0,0,0-.742.742v3.5a.371.371,0,0,1-.371.371h-3.5a.742.742,0,0,0-.742.742v3.125a.742.742,0,0,0,.742.742h3.5a.371.371,0,0,1,.371.371v3.5a.742.742,0,0,0,.742.742h3.125a.742.742,0,0,0,.742-.742v-3.5a.371.371,0,0,1,.371-.371h3.5a.742.742,0,0,0,.742-.742v-3.125Z" transform="translate(-256.445 -224.856)" fill="none" stroke="#000" stroke-linecap="round" stroke-linejoin="round" stroke-miterlimit="10" stroke-width="1"/>
      <path id="Trazado_1052675" data-name="Trazado 1052675" d="M333.59,244.427a11.493,11.493,0,1,1-4.412-3.137" transform="translate(-229.991 -198.402)" fill="none" stroke="#000" stroke-linecap="round" stroke-linejoin="round" stroke-miterlimit="10" stroke-width="1"/>
      <path id="Trazado_1052676" data-name="Trazado 1052676" d="M219.037,413.057v8.162a.8.8,0,0,0,.8.8h3.357a.8.8,0,0,0,.8-.8v-8.162" transform="translate(-149.65 -345.382)" fill="none" stroke="#000" stroke-linecap="round" stroke-linejoin="round" stroke-miterlimit="10" stroke-width="1"/>
      <path id="Trazado_1052677" data-name="Trazado 1052677" d="M113.351,147.4a19.8,19.8,0,0,0-4.753,7.849" transform="translate(-55.598 -119.145)" fill="none" stroke="#000" stroke-linecap="round" stroke-linejoin="round" stroke-miterlimit="10" stroke-width="1"/>
      <path id="Trazado_1052678" data-name="Trazado 1052678" d="M172.142,114.058a19.694,19.694,0,0,0-3.906,1.755" transform="translate(-106.387 -90.747)" fill="none" stroke="#000" stroke-linecap="round" stroke-linejoin="round" stroke-miterlimit="10" stroke-width="1"/>
      <path id="Trazado_1052679" data-name="Trazado 1052679" d="M121.353,294.582a19.85,19.85,0,0,1-12.755-12.8" transform="translate(-55.598 -233.588)" fill="none" stroke="#000" stroke-linecap="round" stroke-linejoin="round" stroke-miterlimit="10" stroke-width="1"/>
      <path id="Trazado_1052680" data-name="Trazado 1052680" d="M276.876,114.058a19.85,19.85,0,0,1,12.755,12.8" transform="translate(-198.908 -90.747)" fill="none" stroke="#000" stroke-linecap="round" stroke-linejoin="round" stroke-miterlimit="10" stroke-width="1"/>
      <path id="Trazado_1052681" data-name="Trazado 1052681" d="M276.687,349.484a19.75,19.75,0,0,0,6.107-3.242" transform="translate(-198.747 -288.481)" fill="none" stroke="#000" stroke-linecap="round" stroke-linejoin="round" stroke-miterlimit="10" stroke-width="1"/>
      <path id="Trazado_1052682" data-name="Trazado 1052682" d="M94.185,85.281A24.829,24.829,0,0,0,79.951,99.516" transform="translate(-31.202 -66.24)" fill="none" stroke="#000" stroke-linecap="round" stroke-linejoin="round" stroke-miterlimit="10" stroke-width="1"/>
      <path id="Trazado_1052683" data-name="Trazado 1052683" d="M94.185,315.106a24.828,24.828,0,0,1-14.234-14.235" transform="translate(-31.202 -249.842)" fill="none" stroke="#000" stroke-linecap="round" stroke-linejoin="round" stroke-miterlimit="10" stroke-width="1"/>
      <path id="Trazado_1052684" data-name="Trazado 1052684" d="M295.557,377.438a24.711,24.711,0,0,0,6.06-3.375" transform="translate(-214.817 -312.174)" fill="none" stroke="#000" stroke-linecap="round" stroke-linejoin="round" stroke-miterlimit="10" stroke-width="1"/>
      <path id="Trazado_1052685" data-name="Trazado 1052685" d="M295.557,85.281a24.829,24.829,0,0,1,14.234,14.235" transform="translate(-214.817 -66.24)" fill="none" stroke="#000" stroke-linecap="round" stroke-linejoin="round" stroke-miterlimit="10" stroke-width="1"/>
      <path id="Trazado_1052686" data-name="Trazado 1052686" d="M281.409,300.38h3.338a3.7,3.7,0,0,0,1.649-.386" transform="translate(-202.768 -249.095)" fill="none" stroke="#000" stroke-linecap="round" stroke-linejoin="round" stroke-miterlimit="10" stroke-width="1"/>
      <path id="Trazado_1052687" data-name="Trazado 1052687" d="M170.185,192.021v-9.968a3.709,3.709,0,0,0-3.709-3.709H146.24a3.709,3.709,0,0,0-3.709,3.709V193.07a3.709,3.709,0,0,0,3.709,3.709h11.7" transform="translate(-84.496 -145.495)" fill="none" stroke="#000" stroke-linecap="round" stroke-linejoin="round" stroke-miterlimit="10" stroke-width="1"/>
    </g>
  </g>
</svg>
