<svg xmlns="http://www.w3.org/2000/svg" xmlns:xlink="http://www.w3.org/1999/xlink" width="113" height="113" viewBox="0 0 113 113">
  <defs>
    <filter id="Trazado_982547" x="0" y="0" width="113" height="113" filterUnits="userSpaceOnUse">
      <feOffset dy="3" input="SourceAlpha"/>
      <feGaussianBlur stdDeviation="3" result="blur"/>
      <feFlood flood-opacity="0.161"/>
      <feComposite operator="in" in2="blur"/>
      <feComposite in="SourceGraphic"/>
    </filter>
  </defs>
  <g id="Grupo_1207695" data-name="Grupo 1207695" transform="translate(-1217 -4612.179)">
    <g id="Grupo_1207608" data-name="Grupo 1207608" transform="translate(0 2198.406)">
      <g id="Grupo_1207310" data-name="Grupo 1207310" transform="translate(946 1543.358)">
        <g id="Grupo_1174813" data-name="Grupo 1174813" transform="translate(280 876.414)">
          <g id="Grupo_1201680" data-name="Grupo 1201680">
            <g id="Grupo_1201330" data-name="Grupo 1201330">
              <g id="Grupo_1172010" data-name="Grupo 1172010">
                <g id="Grupo_1171046" data-name="Grupo 1171046">
                  <g id="Grupo_1148525" data-name="Grupo 1148525">
                    <g transform="matrix(1, 0, 0, 1, -9, -6)" filter="url(#Trazado_982547)">
                      <g id="Trazado_982547-2" data-name="Trazado 982547" transform="translate(9 6)" fill="#fff4e6">
                        <path d="M 47.5 93.5 C 41.28937149047852 93.5 35.26533508300781 92.28397369384766 29.59518623352051 89.88570404052734 C 24.11771965026855 87.56893157958984 19.19813346862793 84.25196075439453 14.97309303283691 80.02691650390625 C 10.74804019927979 75.80186462402344 7.431066513061523 70.88229370117188 5.114293098449707 65.40481567382812 C 2.716026782989502 59.73468017578125 1.5 53.71062850952148 1.5 47.5 C 1.5 41.28937149047852 2.716026782989502 35.26533508300781 5.114293098449707 29.59518623352051 C 7.431066513061523 24.11771965026855 10.74804019927979 19.19813346862793 14.97309303283691 14.97309303283691 C 19.19813346862793 10.74804019927979 24.11771965026855 7.431066513061523 29.59518623352051 5.114293098449707 C 35.26533508300781 2.716026782989502 41.28937149047852 1.5 47.5 1.5 C 53.71062850952148 1.5 59.73468017578125 2.716026782989502 65.40481567382812 5.114293098449707 C 70.88229370117188 7.431066513061523 75.80186462402344 10.74804019927979 80.02691650390625 14.97309303283691 C 84.25196075439453 19.19813346862793 87.56893157958984 24.11771965026855 89.88570404052734 29.59518623352051 C 92.28397369384766 35.26533508300781 93.5 41.28937149047852 93.5 47.5 C 93.5 53.71062850952148 92.28397369384766 59.73468017578125 89.88570404052734 65.40481567382812 C 87.56893157958984 70.88229370117188 84.25196075439453 75.80186462402344 80.02691650390625 80.02691650390625 C 75.80186462402344 84.25196075439453 70.88229370117188 87.56893157958984 65.40481567382812 89.88570404052734 C 59.73468017578125 92.28397369384766 53.71062850952148 93.5 47.5 93.5 Z" stroke="none"/>
                        <path d="M 47.5 3 C 41.49121475219727 3 35.66376876831055 4.176155090332031 30.17950439453125 6.495796203613281 C 24.88084411621094 8.736953735351562 20.12152099609375 11.94598388671875 16.03375244140625 16.03375244140625 C 11.94598388671875 20.12152099609375 8.736953735351562 24.88084411621094 6.495796203613281 30.17950439453125 C 4.176155090332031 35.66376876831055 3 41.49121475219727 3 47.5 C 3 53.50878524780273 4.176155090332031 59.33623123168945 6.495796203613281 64.82049560546875 C 8.736953735351562 70.11915588378906 11.94598388671875 74.87847900390625 16.03375244140625 78.96624755859375 C 20.12152099609375 83.05401611328125 24.88084411621094 86.26304626464844 30.17950439453125 88.50419616699219 C 35.66376876831055 90.82384490966797 41.49121475219727 92 47.5 92 C 53.50878524780273 92 59.33623123168945 90.82384490966797 64.82049560546875 88.50419616699219 C 70.11915588378906 86.26304626464844 74.87847900390625 83.05401611328125 78.96624755859375 78.96624755859375 C 83.05401611328125 74.87847900390625 86.26304626464844 70.11915588378906 88.50419616699219 64.82049560546875 C 90.82384490966797 59.33623123168945 92 53.50878524780273 92 47.5 C 92 41.49121475219727 90.82384490966797 35.66376876831055 88.50419616699219 30.17950439453125 C 86.26304626464844 24.88084411621094 83.05401611328125 20.12152099609375 78.96624755859375 16.03375244140625 C 74.87847900390625 11.94598388671875 70.11915588378906 8.736953735351562 64.82049560546875 6.495796203613281 C 59.33623123168945 4.176155090332031 53.50878524780273 3 47.5 3 M 47.5 0 C 73.7335205078125 0 95 21.2664794921875 95 47.5 C 95 73.7335205078125 73.7335205078125 95 47.5 95 C 21.2664794921875 95 0 73.7335205078125 0 47.5 C 0 21.2664794921875 21.2664794921875 0 47.5 0 Z" stroke="none" fill="#ff9d1c"/>
                      </g>
                    </g>
                  </g>
                </g>
              </g>
            </g>
          </g>
        </g>
      </g>
    </g>
    <g id="configulation-setting-marketing-seo-laptop" transform="translate(1238.133 4625.873)">
      <path id="Trazado_1052688" data-name="Trazado 1052688" d="M65.061,17.449V57.49H46.153v2.224a2.231,2.231,0,0,1-2.224,2.224h-17.8a2.231,2.231,0,0,1-2.224-2.224V57.49H5V17.449A4.449,4.449,0,0,1,9.449,13H60.612A4.449,4.449,0,0,1,65.061,17.449Z" transform="translate(0.337 0.112)" fill="#898890"/>
      <path id="Trazado_1052689" data-name="Trazado 1052689" d="M38.224,53h4.449v2.224a2.231,2.231,0,0,1-2.224,2.224H36a2.231,2.231,0,0,0,2.224-2.224Z" transform="translate(3.816 4.602)" fill="#57565c"/>
      <path id="Trazado_1052690" data-name="Trazado 1052690" d="M59.9,17.449V57.49H55.449V17.449A4.449,4.449,0,0,0,51,13h4.449A4.449,4.449,0,0,1,59.9,17.449Z" transform="translate(5.5 0.112)" fill="#57565c"/>
      <path id="Trazado_1052691" data-name="Trazado 1052691" d="M60.163,19.224V52.592H9V19.224A2.231,2.231,0,0,1,11.224,17H57.939a2.231,2.231,0,0,1,2.224,2.224Z" transform="translate(0.786 0.561)" fill="#46f8ff"/>
      <path id="Trazado_1052692" data-name="Trazado 1052692" d="M55.673,19.224V52.592H51.224V19.224A2.231,2.231,0,0,0,49,17h4.449a2.231,2.231,0,0,1,2.224,2.224Z" transform="translate(5.275 0.561)" fill="#00d7df"/>
      <circle id="Elipse_13469" data-name="Elipse 13469" cx="13.5" cy="13.5" r="13.5" transform="translate(14.367 21.806)" fill="#ff3051"/>
      <path id="Trazado_1052693" data-name="Trazado 1052693" d="M38.571,34.347A13.334,13.334,0,0,1,23,47.5a13.347,13.347,0,0,0,0-26.316A13.334,13.334,0,0,1,38.571,34.347Z" transform="translate(2.357 1.01)" fill="#cd2a00"/>
      <path id="Trazado_1052694" data-name="Trazado 1052694" d="M67.51,53v4.449A4.449,4.449,0,0,1,63.061,61.9H7.449A4.449,4.449,0,0,1,3,57.449V53H24.133v2.224a2.231,2.231,0,0,0,2.224,2.224h17.8a2.231,2.231,0,0,0,2.224-2.224V53Z" transform="translate(0.112 4.602)" fill="#c6c5ca"/>
      <path id="Trazado_1052695" data-name="Trazado 1052695" d="M62.01,53v4.449A4.449,4.449,0,0,1,57.561,61.9H52a4.449,4.449,0,0,0,4.449-4.449V53Z" transform="translate(5.612 4.602)" fill="#898890"/>
      <path id="Trazado_1052696" data-name="Trazado 1052696" d="M53.664,39.8,45.8,47.664,37.937,36.653,36.569,38.01v.011l-1,.99L34,28l2.28.323,8.731,1.246-2.358,2.369Z" transform="translate(3.592 1.796)" fill="#fee9ab"/>
      <path id="Trazado_1052697" data-name="Trazado 1052697" d="M53.664,39.8l-3.926,3.937L34,28l2.28.323,8.731,1.246-2.358,2.369Z" transform="translate(3.592 1.796)" fill="#ffde55"/>
      <ellipse id="Elipse_13470" data-name="Elipse 13470" cx="2.5" cy="2" rx="2.5" ry="2" transform="translate(29.367 37.806)" fill="#ffd422"/>
      <circle id="Elipse_13471" data-name="Elipse 13471" cx="2" cy="2" r="2" transform="translate(21.367 28.806)" fill="#ffd422"/>
      <path id="Trazado_1052698" data-name="Trazado 1052698" d="M31.337,37.224A2.224,2.224,0,0,1,28,39.148,2.224,2.224,0,0,0,28,35.3a2.224,2.224,0,0,1,3.337,1.924Z" transform="translate(2.918 2.582)" fill="#ebbf00"/>
      <path id="Trazado_1052699" data-name="Trazado 1052699" d="M23.337,29.224A2.224,2.224,0,0,1,20,31.148,2.224,2.224,0,0,0,20,27.3a2.224,2.224,0,0,1,3.337,1.924Z" transform="translate(2.02 1.684)" fill="#ebbf00"/>
      <path id="Trazado_1052700" data-name="Trazado 1052700" d="M67.622,56.49H66.51V17.561A5.561,5.561,0,0,0,60.949,12H9.786a5.561,5.561,0,0,0-5.561,5.561V56.49H3.112A1.112,1.112,0,0,0,2,57.6v4.449a5.561,5.561,0,0,0,5.561,5.561H63.173a5.561,5.561,0,0,0,5.561-5.561V57.6A1.112,1.112,0,0,0,67.622,56.49ZM6.449,17.561a3.347,3.347,0,0,1,3.337-3.337H60.949a3.347,3.347,0,0,1,3.337,3.337V56.49H46.49A1.112,1.112,0,0,0,45.377,57.6v2.224a1.112,1.112,0,0,1-1.112,1.112h-17.8a1.112,1.112,0,0,1-1.112-1.112V57.6a1.112,1.112,0,0,0-1.112-1.112H6.449ZM66.51,62.051a3.347,3.347,0,0,1-3.337,3.337H7.561a3.347,3.347,0,0,1-3.337-3.337V58.714H23.133v1.112a3.347,3.347,0,0,0,3.337,3.337h17.8A3.347,3.347,0,0,0,47.6,59.826V58.714H66.51Z" transform="translate(0 0)"/>
      <path id="Trazado_1052701" data-name="Trazado 1052701" d="M27,52H38.122v2.224H27Z" transform="translate(2.806 4.49)"/>
      <path id="Trazado_1052702" data-name="Trazado 1052702" d="M8,56h2.224v2.224H8Z" transform="translate(0.673 4.939)"/>
      <path id="Trazado_1052703" data-name="Trazado 1052703" d="M12,56h2.224v2.224H12Z" transform="translate(1.122 4.939)"/>
      <path id="Trazado_1052704" data-name="Trazado 1052704" d="M16,56h2.224v2.224H16Z" transform="translate(1.571 4.939)"/>
      <path id="Trazado_1052705" data-name="Trazado 1052705" d="M46,56h2.224v2.224H46Z" transform="translate(4.939 4.939)"/>
      <path id="Trazado_1052706" data-name="Trazado 1052706" d="M50,56h2.224v2.224H50Z" transform="translate(5.387 4.939)"/>
      <path id="Trazado_1052707" data-name="Trazado 1052707" d="M54,56h2.224v2.224H54Z" transform="translate(5.836 4.939)"/>
      <path id="Trazado_1052708" data-name="Trazado 1052708" d="M58.051,16H11.337A3.347,3.347,0,0,0,8,19.337V52.7a1.112,1.112,0,0,0,1.112,1.112H60.275A1.112,1.112,0,0,0,61.387,52.7V19.337A3.347,3.347,0,0,0,58.051,16Zm1.112,35.592H10.224V19.337a1.112,1.112,0,0,1,1.112-1.112H58.051a1.112,1.112,0,0,1,1.112,1.112Z" transform="translate(0.673 0.449)"/>
      <path id="Trazado_1052709" data-name="Trazado 1052709" d="M46.84,32.692l1.43-1.43a1.112,1.112,0,0,0-.628-1.891L39.5,28.208a14.478,14.478,0,1,0,.483,11.333l.276-.276,7.1,9.942a1.112,1.112,0,0,0,.813.463h.091a1.112,1.112,0,0,0,.786-.326l7.866-7.866a1.112,1.112,0,0,0-.14-1.691ZM26.464,46.7A12.235,12.235,0,1,1,36.741,27.817L36.63,27.8a1.112,1.112,0,0,0-1.259,1.259l1.573,11.011a1.1,1.1,0,0,0,.159.415A12.235,12.235,0,0,1,26.464,46.7Zm21.949.151-7.1-9.939a1.112,1.112,0,0,0-.814-.463h-.091a1.112,1.112,0,0,0-.786.326l-.787.787-1.048-7.341,7.341,1.048-.786.786a1.112,1.112,0,0,0,.14,1.692l9.942,7.1Z" transform="translate(1.118 0.894)"/>
      <path id="Trazado_1052710" data-name="Trazado 1052710" d="M0,0H19.136V2.223H0Z" transform="translate(21.121 42.482) rotate(-54.482)"/>
      <path id="Trazado_1052711" data-name="Trazado 1052711" d="M24.673,29.337a3.337,3.337,0,1,0-3.337,3.337A3.337,3.337,0,0,0,24.673,29.337Zm-4.449,0a1.112,1.112,0,1,1,1.112,1.112A1.112,1.112,0,0,1,20.224,29.337Z" transform="translate(1.796 1.571)"/>
      <path id="Trazado_1052712" data-name="Trazado 1052712" d="M29.337,34a3.337,3.337,0,1,0,3.337,3.337A3.337,3.337,0,0,0,29.337,34Zm0,4.449a1.112,1.112,0,1,1,1.112-1.112A1.112,1.112,0,0,1,29.337,38.449Z" transform="translate(2.694 2.469)"/>
    </g>
  </g>
</svg>
