<svg xmlns="http://www.w3.org/2000/svg" xmlns:xlink="http://www.w3.org/1999/xlink" width="103" height="103" viewBox="0 0 103 103">
  <defs>
    <filter id="Trazado_982547" x="0" y="0" width="103" height="103" filterUnits="userSpaceOnUse">
      <feOffset dy="3" input="SourceAlpha"/>
      <feGaussianBlur stdDeviation="3" result="blur"/>
      <feFlood flood-opacity="0.161"/>
      <feComposite operator="in" in2="blur"/>
      <feComposite in="SourceGraphic"/>
    </filter>
  </defs>
  <g id="Grupo_1207682" data-name="Grupo 1207682" transform="translate(-191 -2770.213)">
    <g id="Grupo_1207604" data-name="Grupo 1207604" transform="translate(0 -893.287)">
      <g id="Grupo_1207313" data-name="Grupo 1207313" transform="translate(0 2919.5)">
        <g id="Grupo_1202212" data-name="Grupo 1202212" transform="translate(-80 -126.414)">
          <g id="Grupo_1174813" data-name="Grupo 1174813" transform="translate(280 876.414)">
            <g id="Grupo_1201680" data-name="Grupo 1201680">
              <g id="Grupo_1201330" data-name="Grupo 1201330">
                <g id="Grupo_1172010" data-name="Grupo 1172010">
                  <g id="Grupo_1171046" data-name="Grupo 1171046">
                    <g id="Grupo_1148525" data-name="Grupo 1148525">
                      <g transform="matrix(1, 0, 0, 1, -9, -6)" filter="url(#Trazado_982547)">
                        <g id="Trazado_982547-2" data-name="Trazado 982547" transform="translate(9 6)" fill="#f2f7e5">
                          <path d="M 42.5 83.5 C 36.96437835693359 83.5 31.59512901306152 82.41617584228516 26.54141235351562 80.27863311767578 C 21.65934181213379 78.21369171142578 17.27447128295898 75.25723266601562 13.50862312316895 71.49137878417969 C 9.742764472961426 67.72553253173828 6.786305904388428 63.34066009521484 4.721364498138428 58.45858764648438 C 2.583823442459106 53.40486907958984 1.5 48.03562164306641 1.5 42.5 C 1.5 36.96437835693359 2.583823442459106 31.59512901306152 4.721364498138428 26.54141235351562 C 6.786305904388428 21.65934181213379 9.742764472961426 17.27448272705078 13.50862312316895 13.50862312316895 C 17.27447128295898 9.742776870727539 21.65934181213379 6.786305904388428 26.54141235351562 4.721364498138428 C 31.59512901306152 2.583823442459106 36.96437835693359 1.5 42.5 1.5 C 48.03562164306641 1.5 53.40486907958984 2.583823442459106 58.45858764648438 4.721364498138428 C 63.34066009521484 6.786305904388428 67.72553253173828 9.742776870727539 71.49137878417969 13.50862312316895 C 75.25723266601562 17.27448272705078 78.21369171142578 21.65934181213379 80.27863311767578 26.54141235351562 C 82.41617584228516 31.59512901306152 83.5 36.96437835693359 83.5 42.5 C 83.5 48.03562164306641 82.41617584228516 53.40486907958984 80.27863311767578 58.45858764648438 C 78.21369171142578 63.34066009521484 75.25723266601562 67.72553253173828 71.49137878417969 71.49137878417969 C 67.72553253173828 75.25723266601562 63.34066009521484 78.21369171142578 58.45858764648438 80.27863311767578 C 53.40486907958984 82.41617584228516 48.03562164306641 83.5 42.5 83.5 Z" stroke="none"/>
                          <path d="M 42.5 3 C 37.16621398925781 3 31.99356079101562 4.043960571289062 27.125732421875 6.102882385253906 C 22.42246627807617 8.092185974121094 18.19785308837891 10.94070434570312 14.56928253173828 14.56928253173828 C 10.94070434570312 18.19785308837891 8.092185974121094 22.42246627807617 6.102882385253906 27.125732421875 C 4.043960571289062 31.99356079101562 3 37.16621398925781 3 42.5 C 3 47.83378601074219 4.043960571289062 53.00643920898438 6.102882385253906 57.874267578125 C 8.092185974121094 62.57753372192383 10.94070434570312 66.80214691162109 14.56928253173828 70.43071746826172 C 18.19785308837891 74.05929565429688 22.42246627807617 76.90781402587891 27.125732421875 78.89711761474609 C 31.99356079101562 80.95603942871094 37.16621398925781 82 42.5 82 C 47.83378601074219 82 53.00643920898438 80.95603942871094 57.874267578125 78.89711761474609 C 62.57753372192383 76.90781402587891 66.80214691162109 74.05929565429688 70.43071746826172 70.43071746826172 C 74.05929565429688 66.80214691162109 76.90781402587891 62.57753372192383 78.89711761474609 57.874267578125 C 80.95603942871094 53.00643920898438 82 47.83378601074219 82 42.5 C 82 37.16621398925781 80.95603942871094 31.99356079101562 78.89711761474609 27.125732421875 C 76.90781402587891 22.42246627807617 74.05929565429688 18.19785308837891 70.43071746826172 14.56928253173828 C 66.80214691162109 10.94070434570312 62.57753372192383 8.092185974121094 57.874267578125 6.102882385253906 C 53.00643920898438 4.043960571289062 47.83378601074219 3 42.5 3 M 42.5 0 C 65.97210693359375 0 85 19.02789306640625 85 42.5 C 85 65.97210693359375 65.97210693359375 85 42.5 85 C 19.02789306640625 85 0 65.97210693359375 0 42.5 C 0 19.02789306640625 19.02789306640625 0 42.5 0 Z" stroke="none" fill="#1d7083"/>
                        </g>
                      </g>
                    </g>
                  </g>
                </g>
              </g>
            </g>
          </g>
        </g>
      </g>
    </g>
    <g id="take-profit_12304509" transform="translate(213.725 2790.441)">
      <circle id="Elipse_13448" data-name="Elipse 13448" cx="5.358" cy="5.358" r="5.358" transform="translate(10.319 9.884)" fill="#f9ac00"/>
      <path id="Trazado_1052513" data-name="Trazado 1052513" d="M73.46,74.58a5.358,5.358,0,1,1,5.191-5.355A5.358,5.358,0,0,1,73.46,74.58Z" transform="translate(-57.951 -53.983)" fill="#fcdb35" fill-rule="evenodd"/>
      <circle id="Elipse_13449" data-name="Elipse 13449" cx="4.275" cy="4.275" r="4.275" transform="translate(11.402 10.967)" fill="#f19a00"/>
      <g id="Grupo_1207681" data-name="Grupo 1207681" transform="translate(4.692 4.689)">
        <path id="Trazado_1052514" data-name="Trazado 1052514" d="M88.88,74.95a4.275,4.275,0,1,1-4,4.266A4.275,4.275,0,0,1,88.88,74.95Z" transform="translate(-77.619 -68.663)" fill="#f9ac00" fill-rule="evenodd"/>
        <path id="Trazado_1052515" data-name="Trazado 1052515" d="M11.026,11h2.059V57.109H59.2v2.059H11.026Z" transform="translate(-11.026 -10.997)" fill="#7986bf" fill-rule="evenodd"/>
        <path id="Trazado_1052516" data-name="Trazado 1052516" d="M230.789,232.275a2.29,2.29,0,1,0-2.29-2.29A2.294,2.294,0,0,0,230.789,232.275Z" transform="translate(-207.12 -206.393)" fill="#2dd62d" fill-rule="evenodd"/>
        <path id="Trazado_1052517" data-name="Trazado 1052517" d="M230.234,232.829a2.29,2.29,0,1,1,1.735-2.222A2.291,2.291,0,0,1,230.234,232.829Z" transform="translate(-207.12 -207.014)" fill="#43f043" fill-rule="evenodd"/>
      </g>
      <circle id="Elipse_13450" data-name="Elipse 13450" cx="5.358" cy="5.358" r="5.358" transform="translate(35.361 10.231) rotate(-3.555)" fill="#f9ac00"/>
      <path id="Trazado_1052518" data-name="Trazado 1052518" d="M331.5,74.58a5.358,5.358,0,1,1,5.19-5.355A5.358,5.358,0,0,1,331.5,74.58Z" transform="translate(-290.624 -53.983)" fill="#fcdb35" fill-rule="evenodd"/>
      <circle id="Elipse_13451" data-name="Elipse 13451" cx="4.275" cy="4.275" r="4.275" transform="translate(36.77 10.967)" fill="#f19a00"/>
      <path id="Trazado_1052519" data-name="Trazado 1052519" d="M346.922,74.95a4.275,4.275,0,1,1-4,4.266A4.275,4.275,0,0,1,346.922,74.95Z" transform="translate(-305.602 -63.974)" fill="#f9ac00" fill-rule="evenodd"/>
      <circle id="Elipse_13452" data-name="Elipse 13452" cx="5.358" cy="5.358" r="5.358" transform="translate(23.003 4.68)" fill="#f9ac00"/>
      <path id="Trazado_1052520" data-name="Trazado 1052520" d="M202.48,21.651a5.358,5.358,0,1,1,5.19-5.355A5.358,5.358,0,0,1,202.48,21.651Z" transform="translate(-174.287 -6.258)" fill="#fcdb35" fill-rule="evenodd"/>
      <circle id="Elipse_13453" data-name="Elipse 13453" cx="4.275" cy="4.275" r="4.275" transform="translate(22.485 8.644) rotate(-31.72)" fill="#f19a00"/>
      <path id="Trazado_1052521" data-name="Trazado 1052521" d="M217.9,22.021a4.275,4.275,0,1,1-4,4.266A4.275,4.275,0,0,1,217.9,22.021Z" transform="translate(-189.265 -16.248)" fill="#f9ac00" fill-rule="evenodd"/>
      <path id="Trazado_1052522" data-name="Trazado 1052522" d="M16.577,16.455c.009-.072.019-.154-.209-.288a3.222,3.222,0,0,0-.881-.294c-.14-.034-.285-.068-.434-.109a2.241,2.241,0,0,1-1.386-.909,1.558,1.558,0,0,1,.222-1.928,2.134,2.134,0,0,1,1.1-.58v-.323a.688.688,0,0,1,1.376,0v.329a2.072,2.072,0,0,1,1.412.973.688.688,0,1,1-1.212.652.9.9,0,0,0-.654-.31,1.352,1.352,0,0,0-1.027.212c-.122.127-.068.213-.048.245a.985.985,0,0,0,.589.312c.123.035.25.064.383.1a4.407,4.407,0,0,1,1.258.446,1.617,1.617,0,0,1,.878,1.641A1.706,1.706,0,0,1,17,17.94a2.524,2.524,0,0,1-.635.209v.311a.688.688,0,0,1-1.376,0v-.34a2.241,2.241,0,0,1-1.508-1.014.688.688,0,1,1,1.207-.661c.2.366,1.185.518,1.7.262a.326.326,0,0,0,.192-.252Zm-.9-5.874a4.661,4.661,0,1,0,4.661,4.661,4.666,4.666,0,0,0-4.661-4.661Zm0,10.7a6.038,6.038,0,1,0-6.038-6.038A6.045,6.045,0,0,0,15.675,21.28Zm26.27-4.824c.009-.072.019-.155-.209-.289a3.221,3.221,0,0,0-.88-.294c-.14-.034-.285-.068-.434-.109a2.241,2.241,0,0,1-1.386-.909,1.558,1.558,0,0,1,.222-1.928,2.135,2.135,0,0,1,1.1-.58v-.323a.688.688,0,0,1,1.376,0v.329a2.071,2.071,0,0,1,1.412.973.688.688,0,1,1-1.212.652.9.9,0,0,0-.654-.31,1.353,1.353,0,0,0-1.027.212c-.122.127-.068.213-.048.245a.985.985,0,0,0,.589.312c.123.035.25.064.383.1a4.41,4.41,0,0,1,1.259.446,1.618,1.618,0,0,1,.878,1.641,1.706,1.706,0,0,1-.945,1.317,2.525,2.525,0,0,1-.635.209v.311a.688.688,0,0,1-1.376,0v-.34a2.243,2.243,0,0,1-1.508-1.014.688.688,0,1,1,1.207-.661c.2.366,1.185.518,1.7.262a.326.326,0,0,0,.192-.251Zm-.9-5.875A4.661,4.661,0,1,0,45.7,15.242a4.666,4.666,0,0,0-4.661-4.661Zm0,10.7A6.038,6.038,0,1,0,35,15.242,6.044,6.044,0,0,0,41.042,21.28ZM29.261,11.252c.009-.072.019-.154-.209-.288a3.237,3.237,0,0,0-.881-.294c-.14-.033-.285-.068-.434-.109a2.242,2.242,0,0,1-1.386-.909,1.558,1.558,0,0,1,.222-1.928,2.137,2.137,0,0,1,1.1-.58V6.821a.688.688,0,0,1,1.376,0V7.15a2.071,2.071,0,0,1,1.412.973.688.688,0,1,1-1.212.653.9.9,0,0,0-.654-.31,1.351,1.351,0,0,0-1.027.212c-.122.127-.068.213-.048.245a.988.988,0,0,0,.589.312c.123.035.25.064.383.1a4.407,4.407,0,0,1,1.258.446,1.617,1.617,0,0,1,.878,1.641,1.706,1.706,0,0,1-.945,1.317,2.487,2.487,0,0,1-.635.209v.311a.688.688,0,1,1-1.376,0v-.34A2.242,2.242,0,0,1,26.162,11.9a.688.688,0,0,1,1.207-.661c.2.366,1.185.518,1.7.262a.327.327,0,0,0,.192-.252Zm-.9-5.875a4.662,4.662,0,1,0,4.661,4.661,4.667,4.667,0,0,0-4.661-4.661Zm0,10.7a6.038,6.038,0,1,0-6.038-6.038A6.044,6.044,0,0,0,28.358,16.076Zm7.8,5.38L32.034,25.58a.688.688,0,0,1-.973-.973l4.124-4.124a.688.688,0,0,1,.973.973ZM24.683,25.58l-4.124-4.124a.688.688,0,1,1,.973-.973l4.124,4.124a.688.688,0,0,1-.973.973Zm3.675-8.328a.688.688,0,0,1,.688.688v5.832a.688.688,0,0,1-1.376,0V17.94A.688.688,0,0,1,28.358,17.252ZM17.577,27.594a.688.688,0,0,1,0,1.377H15.8a.688.688,0,0,1,0-1.377Zm5.467,0a.688.688,0,0,1,0,1.377H21.271a.688.688,0,0,1,0-1.377Zm13.139.688a.689.689,0,0,1-.688.689H33.722a.688.688,0,0,1,0-1.377h1.773A.688.688,0,0,1,36.183,28.282Zm13.252,0a.688.688,0,0,1,.688-.688H51.9a.688.688,0,0,1,0,1.377H50.123A.689.689,0,0,1,49.435,28.282Zm-2.318,0a.688.688,0,0,1-.688.689H44.656a.688.688,0,0,1,0-1.377h1.773A.688.688,0,0,1,47.117,28.282ZM12.11,27.594a.688.688,0,0,1,0,1.377H10.337a.688.688,0,0,1,0-1.377Zm28.852,0a.688.688,0,0,1,0,1.377H39.189a.688.688,0,0,1,0-1.377Zm11.21,24.578V51.49H6.748A.688.688,0,0,1,6.06,50.8V5.377H5.377v46.8h46.8ZM28.358,26.907a1.375,1.375,0,1,1-1.375,1.375A1.376,1.376,0,0,1,28.358,26.907Zm24.5,23.205H7.437V34.29L16.147,48.7a.688.688,0,0,0,.589.332l.062,0a.689.689,0,0,0,.581-.442L20,41.682l4.877.848a.688.688,0,0,0,.786-.512l2.724-10.986a2.725,2.725,0,0,0,.721-.1l5.072,8.687a.688.688,0,0,0,.594.341h.033a.688.688,0,0,0,.592-.4l1.794-3.887h7.775l-.55.391a.688.688,0,1,0,.8,1.121l2.3-1.64a.688.688,0,0,0,0-1.121l-2.3-1.64a.688.688,0,0,0-.8,1.121l.55.392H36.752a.689.689,0,0,0-.625.4L34.7,37.781l-4.407-7.547a2.75,2.75,0,1,0-3.245.467L24.48,41.065l-4.806-.836a.688.688,0,0,0-.761.434l-2.32,6.113L7.437,31.629V4.689A.688.688,0,0,0,6.748,4H4.689A.688.688,0,0,0,4,4.689V52.86a.688.688,0,0,0,.688.688H52.86a.688.688,0,0,0,.688-.688V50.8a.688.688,0,0,0-.688-.688Z" fill-rule="evenodd"/>
    </g>
  </g>
</svg>
