<svg xmlns="http://www.w3.org/2000/svg" xmlns:xlink="http://www.w3.org/1999/xlink" width="103" height="103" viewBox="0 0 103 103">
  <defs>
    <filter id="Trazado_982547" x="0" y="0" width="103" height="103" filterUnits="userSpaceOnUse">
      <feOffset dy="3" input="SourceAlpha"/>
      <feGaussianBlur stdDeviation="3" result="blur"/>
      <feFlood flood-opacity="0.161"/>
      <feComposite operator="in" in2="blur"/>
      <feComposite in="SourceGraphic"/>
    </filter>
  </defs>
  <g id="Grupo_1207684" data-name="Grupo 1207684" transform="translate(-1031 -2770.213)">
    <g id="Grupo_1207603" data-name="Grupo 1207603" transform="translate(0 -893.287)">
      <g id="Grupo_1207317" data-name="Grupo 1207317" transform="translate(0 2919.5)">
        <g id="Grupo_1202211" data-name="Grupo 1202211" transform="translate(760 -126.414)">
          <g id="Grupo_1174813" data-name="Grupo 1174813" transform="translate(280 876.414)">
            <g id="Grupo_1201680" data-name="Grupo 1201680">
              <g id="Grupo_1201330" data-name="Grupo 1201330">
                <g id="Grupo_1172010" data-name="Grupo 1172010">
                  <g id="Grupo_1171046" data-name="Grupo 1171046">
                    <g id="Grupo_1148525" data-name="Grupo 1148525">
                      <g transform="matrix(1, 0, 0, 1, -9, -6)" filter="url(#Trazado_982547)">
                        <g id="Trazado_982547-2" data-name="Trazado 982547" transform="translate(9 6)" fill="#f2f7e5">
                          <path d="M 42.5 83.5 C 36.96437835693359 83.5 31.59512901306152 82.41617584228516 26.54141235351562 80.27863311767578 C 21.65934181213379 78.21369171142578 17.27447128295898 75.25723266601562 13.50862312316895 71.49137878417969 C 9.742764472961426 67.72553253173828 6.786305904388428 63.34066009521484 4.721364498138428 58.45858764648438 C 2.583823442459106 53.40486907958984 1.5 48.03562164306641 1.5 42.5 C 1.5 36.96437835693359 2.583823442459106 31.59512901306152 4.721364498138428 26.54141235351562 C 6.786305904388428 21.65934181213379 9.742764472961426 17.27448272705078 13.50862312316895 13.50862312316895 C 17.27447128295898 9.742776870727539 21.65934181213379 6.786305904388428 26.54141235351562 4.721364498138428 C 31.59512901306152 2.583823442459106 36.96437835693359 1.5 42.5 1.5 C 48.03562164306641 1.5 53.40486907958984 2.583823442459106 58.45858764648438 4.721364498138428 C 63.34066009521484 6.786305904388428 67.72553253173828 9.742776870727539 71.49137878417969 13.50862312316895 C 75.25723266601562 17.27448272705078 78.21369171142578 21.65934181213379 80.27863311767578 26.54141235351562 C 82.41617584228516 31.59512901306152 83.5 36.96437835693359 83.5 42.5 C 83.5 48.03562164306641 82.41617584228516 53.40486907958984 80.27863311767578 58.45858764648438 C 78.21369171142578 63.34066009521484 75.25723266601562 67.72553253173828 71.49137878417969 71.49137878417969 C 67.72553253173828 75.25723266601562 63.34066009521484 78.21369171142578 58.45858764648438 80.27863311767578 C 53.40486907958984 82.41617584228516 48.03562164306641 83.5 42.5 83.5 Z" stroke="none"/>
                          <path d="M 42.5 3 C 37.16621398925781 3 31.99356079101562 4.043960571289062 27.125732421875 6.102882385253906 C 22.42246627807617 8.092185974121094 18.19785308837891 10.94070434570312 14.56928253173828 14.56928253173828 C 10.94070434570312 18.19785308837891 8.092185974121094 22.42246627807617 6.102882385253906 27.125732421875 C 4.043960571289062 31.99356079101562 3 37.16621398925781 3 42.5 C 3 47.83378601074219 4.043960571289062 53.00643920898438 6.102882385253906 57.874267578125 C 8.092185974121094 62.57753372192383 10.94070434570312 66.80214691162109 14.56928253173828 70.43071746826172 C 18.19785308837891 74.05929565429688 22.42246627807617 76.90781402587891 27.125732421875 78.89711761474609 C 31.99356079101562 80.95603942871094 37.16621398925781 82 42.5 82 C 47.83378601074219 82 53.00643920898438 80.95603942871094 57.874267578125 78.89711761474609 C 62.57753372192383 76.90781402587891 66.80214691162109 74.05929565429688 70.43071746826172 70.43071746826172 C 74.05929565429688 66.80214691162109 76.90781402587891 62.57753372192383 78.89711761474609 57.874267578125 C 80.95603942871094 53.00643920898438 82 47.83378601074219 82 42.5 C 82 37.16621398925781 80.95603942871094 31.99356079101562 78.89711761474609 27.125732421875 C 76.90781402587891 22.42246627807617 74.05929565429688 18.19785308837891 70.43071746826172 14.56928253173828 C 66.80214691162109 10.94070434570312 62.57753372192383 8.092185974121094 57.874267578125 6.102882385253906 C 53.00643920898438 4.043960571289062 47.83378601074219 3 42.5 3 M 42.5 0 C 65.97210693359375 0 85 19.02789306640625 85 42.5 C 85 65.97210693359375 65.97210693359375 85 42.5 85 C 19.02789306640625 85 0 65.97210693359375 0 42.5 C 0 19.02789306640625 19.02789306640625 0 42.5 0 Z" stroke="none" fill="#1d7083"/>
                        </g>
                      </g>
                    </g>
                  </g>
                </g>
              </g>
            </g>
          </g>
        </g>
      </g>
    </g>
    <g id="_99_marketing_marketing_digital_social_media_marketing_windows" data-name="99 marketing, marketing digital, social media, marketing windows" transform="translate(1054.417 2790.417)">
      <circle id="Elipse_13454" data-name="Elipse 13454" cx="14" cy="14" r="14" transform="translate(14.583 14.583)" fill="#1b75bc"/>
      <circle id="Elipse_13455" data-name="Elipse 13455" cx="3.5" cy="3.5" r="3.5" transform="translate(4.583 3.583)" fill="#1b75bc"/>
      <circle id="Elipse_13456" data-name="Elipse 13456" cx="3.5" cy="3.5" r="3.5" transform="translate(45.583 3.583)" fill="#1b75bc"/>
      <path id="Trazado_1052556" data-name="Trazado 1052556" d="M54.293,51A5.293,5.293,0,0,0,49,56.293V58.94a.882.882,0,0,0,.882.882H58.7a.882.882,0,0,0,.882-.882V56.293A5.293,5.293,0,0,0,54.293,51Z" transform="translate(-5.42 -5.656)" fill="#f7941d"/>
      <circle id="Elipse_13457" data-name="Elipse 13457" cx="3.5" cy="3.5" r="3.5" transform="translate(4.583 39.583)" fill="#1b75bc"/>
      <path id="Trazado_1052557" data-name="Trazado 1052557" d="M8.293,51A5.293,5.293,0,0,0,3,56.293V58.94a.882.882,0,0,0,.882.882H12.7a.882.882,0,0,0,.882-.882V56.293A5.293,5.293,0,0,0,8.293,51Z" transform="translate(0 -5.656)" fill="#f7941d"/>
      <path id="Trazado_1052558" data-name="Trazado 1052558" d="M8.293,11A5.293,5.293,0,0,0,3,16.293V18.94a.882.882,0,0,0,.882.882H12.7a.882.882,0,0,0,.882-.882V16.293A5.293,5.293,0,0,0,8.293,11Z" transform="translate(0 -0.943)" fill="#f7941d"/>
      <path id="Trazado_1052559" data-name="Trazado 1052559" d="M54.293,11A5.293,5.293,0,0,0,49,16.293V18.94a.882.882,0,0,0,.882.882H58.7a.882.882,0,0,0,.882-.882V16.293A5.293,5.293,0,0,0,54.293,11Z" transform="translate(-5.42 -0.943)" fill="#f7941d"/>
      <path id="Trazado_1052560" data-name="Trazado 1052560" d="M23.768,27.536a.882.882,0,0,1-.785-.485L22.1,25.287a.882.882,0,0,1,1.57-.794l.882,1.764a.882.882,0,0,1-.388,1.182.82.82,0,0,1-.4.1Z" transform="translate(-2.243 -2.482)" fill="#f7941d"/>
      <path id="Trazado_1052561" data-name="Trazado 1052561" d="M5.882,23.764A.882.882,0,0,1,5,22.882a.741.741,0,0,1,.071-.335.851.851,0,0,1,.979-.529.529.529,0,0,1,.168.053.494.494,0,0,1,.15.079.538.538,0,0,1,.132.106.8.8,0,0,1,.194.291.873.873,0,0,1-.812,1.217Z" transform="translate(-0.236 -2.239)"/>
      <path id="Trazado_1052562" data-name="Trazado 1052562" d="M17.882,6.764a.882.882,0,0,1-.626-.256,1.015,1.015,0,0,1-.185-.291A.882.882,0,0,1,17,5.882a1.085,1.085,0,0,1,0-.168.529.529,0,0,1,.053-.168.67.67,0,0,1,.079-.159,1.394,1.394,0,0,1,.106-.132.882.882,0,0,1,.794-.238.529.529,0,0,1,.168.053.67.67,0,0,1,.159.079l.132.106.106.132a.671.671,0,0,1,.079.159.529.529,0,0,1,.053.168,1.085,1.085,0,0,1,.035.168.882.882,0,0,1-.071.335,1.015,1.015,0,0,1-.185.291,1.014,1.014,0,0,1-.291.185A.882.882,0,0,1,17.882,6.764Z" transform="translate(-1.649 -0.236)"/>
      <path id="Trazado_1052563" data-name="Trazado 1052563" d="M21.882,6.762a.882.882,0,0,1-.335-.071,1.014,1.014,0,0,1-.291-.185,1.014,1.014,0,0,1-.185-.291A.741.741,0,0,1,21,5.88a1.085,1.085,0,0,1,0-.168.529.529,0,0,1,.053-.168.671.671,0,0,1,.079-.159,1.394,1.394,0,0,1,.106-.132l.132-.106a.67.67,0,0,1,.159-.079A.565.565,0,0,1,21.705,5a.882.882,0,0,1,.8.238l.106.132a.671.671,0,0,1,.079.159.529.529,0,0,1,.053.168,1.085,1.085,0,0,1,.018.185.882.882,0,0,1-.071.335,1.015,1.015,0,0,1-.185.291,1.015,1.015,0,0,1-.291.185A.882.882,0,0,1,21.882,6.762Z" transform="translate(-2.12 -0.233)"/>
      <path id="Trazado_1052564" data-name="Trazado 1052564" d="M25.882,6.762a.882.882,0,0,1-.626-.256,1.015,1.015,0,0,1-.185-.291A.741.741,0,0,1,25,5.88a1.085,1.085,0,0,1,0-.168.529.529,0,0,1,.053-.168.671.671,0,0,1,.079-.159,1.394,1.394,0,0,1,.106-.132l.132-.106a.67.67,0,0,1,.159-.079A.565.565,0,0,1,25.705,5a.882.882,0,0,1,.8.238l.106.132a.67.67,0,0,1,.079.159.529.529,0,0,1,.053.168,1.085,1.085,0,0,1,.018.185.882.882,0,0,1-.071.335,1.014,1.014,0,0,1-.185.291,1.015,1.015,0,0,1-.291.185.882.882,0,0,1-.335.071Z" transform="translate(-2.592 -0.233)"/>
      <path id="Trazado_1052565" data-name="Trazado 1052565" d="M37.882,6.762a.882.882,0,0,1-.335-.071,1.015,1.015,0,0,1-.291-.185,1.015,1.015,0,0,1-.185-.291A.741.741,0,0,1,37,5.88a1.086,1.086,0,0,1,0-.168.529.529,0,0,1,.053-.168.671.671,0,0,1,.079-.159,1.4,1.4,0,0,1,.106-.132l.132-.106.159-.079L37.705,5a.882.882,0,0,1,.8.238l.106.132a.67.67,0,0,1,.079.159.529.529,0,0,1,.053.168,1.085,1.085,0,0,1,.018.185.882.882,0,0,1-.071.335,1.015,1.015,0,0,1-.185.291A.882.882,0,0,1,37.882,6.762Z" transform="translate(-4.006 -0.233)"/>
      <path id="Trazado_1052566" data-name="Trazado 1052566" d="M41.882,6.762a.962.962,0,0,1-.626-.256,1.014,1.014,0,0,1-.185-.291A.741.741,0,0,1,41,5.88a1.085,1.085,0,0,1,0-.168.529.529,0,0,1,.053-.168.67.67,0,0,1,.079-.159,1.4,1.4,0,0,1,.106-.132l.132-.106.159-.079L41.705,5a.882.882,0,0,1,.512.053,1.014,1.014,0,0,1,.291.185l.106.132a.671.671,0,0,1,.079.159.529.529,0,0,1,.053.168,1.085,1.085,0,0,1,.018.185.882.882,0,0,1-.071.335,1.015,1.015,0,0,1-.185.291,1.015,1.015,0,0,1-.291.185A.882.882,0,0,1,41.882,6.762Z" transform="translate(-4.477 -0.233)"/>
      <path id="Trazado_1052567" data-name="Trazado 1052567" d="M45.882,6.763a.882.882,0,0,1-.335-.071,1.015,1.015,0,0,1-.291-.185,1.014,1.014,0,0,1-.185-.291A.741.741,0,0,1,45,5.88a1.085,1.085,0,0,1,0-.168.529.529,0,0,1,.053-.168.67.67,0,0,1,.079-.159,1.394,1.394,0,0,1,.106-.132A1.021,1.021,0,0,1,46.058,5l.159.053.159.079.132.106.106.132a.67.67,0,0,1,.079.159.529.529,0,0,1,.053.168,1.085,1.085,0,0,1,.018.185.882.882,0,0,1-.071.335,1.015,1.015,0,0,1-.185.291A.882.882,0,0,1,45.882,6.763Z" transform="translate(-4.948 -0.234)"/>
      <path id="Trazado_1052568" data-name="Trazado 1052568" d="M17.882,58.764a.882.882,0,0,1-.335-.071,1.014,1.014,0,0,1-.291-.185.883.883,0,1,1,.626.256Z" transform="translate(-1.65 -6.362)"/>
      <path id="Trazado_1052569" data-name="Trazado 1052569" d="M21.882,58.764a.882.882,0,0,1-.335-.071,1.014,1.014,0,0,1-.291-.185.882.882,0,0,1,.794-1.491.529.529,0,0,1,.168.053.494.494,0,0,1,.15.079l.132.106a.8.8,0,0,1,.194.291.882.882,0,0,1-.812,1.217Z" transform="translate(-2.121 -6.363)"/>
      <path id="Trazado_1052570" data-name="Trazado 1052570" d="M25.882,58.765A.882.882,0,0,1,25,57.882a.741.741,0,0,1,.071-.335.794.794,0,0,1,.476-.476.879.879,0,1,1,.335,1.694Z" transform="translate(-2.592 -6.363)"/>
      <path id="Trazado_1052571" data-name="Trazado 1052571" d="M37.882,58.764a.882.882,0,0,1-.335-.071,1.015,1.015,0,0,1-.291-.185.881.881,0,1,1,1.253,0,1.015,1.015,0,0,1-.291.185A.882.882,0,0,1,37.882,58.764Z" transform="translate(-4.006 -6.362)"/>
      <path id="Trazado_1052572" data-name="Trazado 1052572" d="M41.882,58.762a.882.882,0,0,1-.626-.256,1.288,1.288,0,0,1-.194-.291A.891.891,0,0,1,42.05,57a.529.529,0,0,1,.168.053.494.494,0,0,1,.15.079l.141.106a.912.912,0,0,1,0,1.253,1.015,1.015,0,0,1-.291.185A.882.882,0,0,1,41.882,58.762Z" transform="translate(-4.477 -6.361)"/>
      <path id="Trazado_1052573" data-name="Trazado 1052573" d="M45.882,58.765a.882.882,0,0,1-.335-.071,1.015,1.015,0,0,1-.291-.185A.882.882,0,0,1,45,57.882a.741.741,0,0,1,.071-.335.854.854,0,0,1,1.147-.476,1.015,1.015,0,0,1,.291.185.912.912,0,0,1,0,1.253,1.015,1.015,0,0,1-.291.185A.882.882,0,0,1,45.882,58.765Z" transform="translate(-4.949 -6.363)"/>
      <path id="Trazado_1052574" data-name="Trazado 1052574" d="M5.882,26.764a.885.885,0,1,1,.626-1.509.926.926,0,0,1,.256.626A.882.882,0,0,1,5.882,26.764Z" transform="translate(-0.236 -2.592)"/>
      <path id="Trazado_1052575" data-name="Trazado 1052575" d="M5.882,29.762a.882.882,0,0,1-.626-.256,1.014,1.014,0,0,1-.185-.291A.741.741,0,0,1,5,28.88a.926.926,0,0,1,.256-.626l.132-.106a.67.67,0,0,1,.159-.079L5.706,28a.882.882,0,0,1,.512.053,1.015,1.015,0,0,1,.291.185.926.926,0,0,1,.256.644A.882.882,0,0,1,5.882,29.762Z" transform="translate(-0.236 -2.944)"/>
      <path id="Trazado_1052576" data-name="Trazado 1052576" d="M5.883,35.765a.882.882,0,0,1-.812-1.217.794.794,0,0,1,.476-.476.882.882,0,0,1,.962.185,1.015,1.015,0,0,1,.185.291.882.882,0,0,1-.812,1.217Z" transform="translate(-0.236 -3.653)"/>
      <path id="Trazado_1052577" data-name="Trazado 1052577" d="M5.882,38.764a.882.882,0,0,1-.335-.071,1.015,1.015,0,0,1-.291-.185,1.015,1.015,0,0,1-.185-.291A.741.741,0,0,1,5,37.881a.882.882,0,1,1,.882.882Z" transform="translate(-0.236 -4.005)"/>
      <path id="Trazado_1052578" data-name="Trazado 1052578" d="M5.882,41.764a.882.882,0,0,1-.335-.071,1.014,1.014,0,0,1-.291-.185.895.895,0,1,1,.626.256Z" transform="translate(-0.236 -4.359)"/>
      <path id="Trazado_1052579" data-name="Trazado 1052579" d="M57.882,23.765a.882.882,0,0,1-.335-.071,1.014,1.014,0,0,1-.291-.185A.882.882,0,0,1,57,22.882a.741.741,0,0,1,.071-.335,1.014,1.014,0,0,1,.185-.291.882.882,0,0,1,.962-.185.67.67,0,0,1,.159.079l.132.106a.887.887,0,0,1-.626,1.509Z" transform="translate(-6.363 -2.239)"/>
      <path id="Trazado_1052580" data-name="Trazado 1052580" d="M57.882,26.764a.882.882,0,0,1-.626-.256,1.015,1.015,0,0,1-.185-.291A.882.882,0,0,1,57,25.882a.926.926,0,0,1,.256-.626.882.882,0,0,1,.291-.185.82.82,0,0,1,.5-.053.529.529,0,0,1,.168.053.494.494,0,0,1,.15.079.882.882,0,0,1,.141.106.926.926,0,0,1,.256.626A.882.882,0,0,1,57.882,26.764Z" transform="translate(-6.363 -2.592)"/>
      <path id="Trazado_1052581" data-name="Trazado 1052581" d="M57.882,29.764a.882.882,0,0,1-.626-.256,1.015,1.015,0,0,1-.185-.291A.741.741,0,0,1,57,28.882a.882.882,0,1,1,1.694.335,1.015,1.015,0,0,1-.185.291A.882.882,0,0,1,57.882,29.764Z" transform="translate(-6.363 -2.946)"/>
      <path id="Trazado_1052582" data-name="Trazado 1052582" d="M57.882,35.762A.882.882,0,0,1,57,34.88a.741.741,0,0,1,.071-.335,1.014,1.014,0,0,1,.185-.291l.132-.106.159-.079A.565.565,0,0,1,57.706,34a.854.854,0,0,1,.988.529.829.829,0,0,1,0,.67,1.014,1.014,0,0,1-.185.291A.882.882,0,0,1,57.882,35.762Z" transform="translate(-6.363 -3.65)"/>
      <path id="Trazado_1052583" data-name="Trazado 1052583" d="M57.882,38.761A.882.882,0,0,1,57,37.879a1.2,1.2,0,0,1,0-.176.565.565,0,0,1,.053-.159.67.67,0,0,1,.079-.159l.106-.132a.889.889,0,1,1,.644,1.509Z" transform="translate(-6.362 -4.003)"/>
      <path id="Trazado_1052584" data-name="Trazado 1052584" d="M57.882,41.764a.874.874,0,1,1,.626-.256A.882.882,0,0,1,57.882,41.764Z" transform="translate(-6.363 -4.36)"/>
      <path id="Trazado_1052585" data-name="Trazado 1052585" d="M58.826,30.647H53.533l1.411-1.059a.882.882,0,0,0-1.059-1.411l-3.529,2.647v.044a.626.626,0,0,0-.168.2.317.317,0,0,0-.062.088.82.82,0,0,0,0,.741.318.318,0,0,0,.062.088.626.626,0,0,0,.168.2h0l3.529,2.647a.882.882,0,1,0,1.059-1.411l-1.411-1.014h5.293a.882.882,0,0,0,0-1.764Z" transform="translate(-5.543 -2.946)" fill="#f7941d"/>
      <path id="Trazado_1052586" data-name="Trazado 1052586" d="M12.554,31.987a.538.538,0,0,0,.062-.088.82.82,0,0,0,0-.741.538.538,0,0,0-.062-.088.626.626,0,0,0-.168-.2s0,0,0-.044L8.858,28.176A.882.882,0,0,0,7.8,29.588l1.376,1.059H3.882a.882.882,0,0,0,0,1.764H9.175L7.764,33.469a.882.882,0,1,0,1.059,1.411l3.529-2.647h0a.626.626,0,0,0,.2-.247Z" transform="translate(0 -2.946)" fill="#f7941d"/>
      <path id="Trazado_1052587" data-name="Trazado 1052587" d="M34.619,6.652a.882.882,0,0,0-1.209.309L32.4,8.637V3.882a.882.882,0,1,0-1.764,0V8.637L29.635,6.961a.882.882,0,1,0-1.517.882l2.647,4.411a1.094,1.094,0,0,0,.124.159h0a.812.812,0,0,0,.247.168H31.2a.8.8,0,0,0,.618,0h.062a.812.812,0,0,0,.247-.168h0a1.094,1.094,0,0,0,.124-.159l2.647-4.411a.882.882,0,0,0-.273-1.191Z" transform="translate(-2.94 0)" fill="#1b75bc"/>
      <path id="Trazado_1052588" data-name="Trazado 1052588" d="M34.928,54.844l-2.647-4.411a.467.467,0,0,0-.1-.124.882.882,0,0,0-1.323,0,.468.468,0,0,0-.1.124l-2.647,4.411a.882.882,0,1,0,1.517.882l1.006-1.658v4.755a.882.882,0,0,0,1.764,0V54.068l1.006,1.676a.882.882,0,0,0,1.517-.9Z" transform="translate(-2.94 -5.539)" fill="#1b75bc"/>
      <path id="Trazado_1052589" data-name="Trazado 1052589" d="M40.511,26.415a.882.882,0,0,0-.75-.415H23.882a.89.89,0,0,0-.865,1.059l1.764,8.822a.882.882,0,0,0,.882.706h9.686a.882.882,0,0,0,.785-.485l4.411-8.822a.882.882,0,0,0-.035-.865Z" transform="translate(-2.357 -2.71)" fill="#f7941d"/>
      <path id="Trazado_1052590" data-name="Trazado 1052590" d="M31.883,32.764a.882.882,0,0,1-.812-1.217,1.015,1.015,0,0,1,.185-.291.882.882,0,0,1,1.253,0,1.014,1.014,0,0,1,.185.291.882.882,0,0,1-.812,1.217Z" transform="translate(-3.3 -3.298)" fill="#fff"/>
      <path id="Trazado_1052591" data-name="Trazado 1052591" d="M27.882,32.764a.882.882,0,0,1-.626-.256,1.288,1.288,0,0,1-.194-.291A.882.882,0,0,1,27,31.881a.741.741,0,0,1,.071-.335,1.015,1.015,0,0,1,.185-.291.882.882,0,0,1,1.253,0,1.015,1.015,0,0,1,.185.291.882.882,0,0,1-.812,1.217Z" transform="translate(-2.828 -3.298)" fill="#fff"/>
      <path id="Trazado_1052592" data-name="Trazado 1052592" d="M35.882,32.764a.874.874,0,0,1-.812-1.217,1.014,1.014,0,0,1,.185-.291.882.882,0,0,1,1.253,0,1.015,1.015,0,0,1,.185.291.882.882,0,0,1-.812,1.217Z" transform="translate(-3.771 -3.298)" fill="#fff"/>
      <circle id="Elipse_13458" data-name="Elipse 13458" cx="2.5" cy="2.5" r="2.5" transform="translate(22.583 32.583)" fill="#231f20"/>
      <circle id="Elipse_13459" data-name="Elipse 13459" cx="2.5" cy="2.5" r="2.5" transform="translate(28.583 32.583)" fill="#231f20"/>
      <circle id="Elipse_13460" data-name="Elipse 13460" cx="3.5" cy="3.5" r="3.5" transform="translate(45.583 39.583)" fill="#1b75bc"/>
      <path id="Trazado_1052593" data-name="Trazado 1052593" d="M30.347,24.172a.882.882,0,0,0,.882.882h4.746l-3.529,7.057H24.013L22.6,25.054h3.335a.882.882,0,1,0,0-1.764H22.073l-.644-1.279a.882.882,0,0,0-1.57.794l.829,1.658,1.764,8.707a.829.829,0,0,0,.256.441,2.647,2.647,0,1,0,4.861.265h1.2a2.632,2.632,0,1,0,4.843-.256,1.094,1.094,0,0,0,.168-.229l4.411-8.822A.882.882,0,0,0,37.4,23.29H31.23A.882.882,0,0,0,30.347,24.172ZM25.936,34.758a.882.882,0,1,1-.882-.882A.882.882,0,0,1,25.936,34.758Zm5.293.882a.882.882,0,1,1,.882-.882A.882.882,0,0,1,31.23,35.64ZM11.822,41.816a3.529,3.529,0,1,0-3.529,3.529A3.529,3.529,0,0,0,11.822,41.816ZM8.293,43.58a1.764,1.764,0,1,1,1.764-1.764A1.764,1.764,0,0,1,8.293,43.58Zm42.433,2.108a3.529,3.529,0,1,0-3.705,0,5.293,5.293,0,0,0-3.44,4.949v2.647a.882.882,0,0,0,.882.882h1.764a.882.882,0,1,0,0-1.764h-.882V50.637a3.529,3.529,0,0,1,7.057,0V52.4h-.882a.882.882,0,0,0,0,1.764h1.764a.882.882,0,0,0,.882-.882V50.637a5.293,5.293,0,0,0-3.44-4.949Zm-1.853-4.755A1.764,1.764,0,1,1,47.109,42.7,1.764,1.764,0,0,1,48.873,40.933ZM10.146,10.4a3.529,3.529,0,1,0-3.705,0A5.293,5.293,0,0,0,3,15.35V18a.882.882,0,0,0,.882.882h6.175a.882.882,0,1,0,0-1.764H4.764V15.35a3.529,3.529,0,0,1,7.057,0V18a.882.882,0,1,0,1.764,0V15.35A5.293,5.293,0,0,0,10.146,10.4ZM8.293,5.647A1.764,1.764,0,1,1,6.529,7.411,1.764,1.764,0,0,1,8.293,5.647ZM50.726,10.4a3.529,3.529,0,1,0-3.705,0,5.293,5.293,0,0,0-3.44,4.949V18a.882.882,0,0,0,.882.882h1.764a.882.882,0,0,0,0-1.764h-.882V15.35a3.529,3.529,0,0,1,7.057,0v1.764H49.755a.882.882,0,1,0,0,1.764h3.529A.882.882,0,0,0,54.166,18V15.35A5.293,5.293,0,0,0,50.726,10.4ZM48.873,5.647a1.764,1.764,0,1,1-1.764,1.764A1.764,1.764,0,0,1,48.873,5.647ZM13.586,50.637v2.647a.882.882,0,0,1-.882.882H6.529a.882.882,0,1,1,0-1.764h5.293V50.637a3.529,3.529,0,0,0-7.057,0v2.647a.882.882,0,0,1-1.764,0V50.637a5.293,5.293,0,1,1,10.586,0ZM27.957,29.209a.882.882,0,0,1-.185-.962,1.015,1.015,0,0,1,.185-.291.882.882,0,0,1,1.253,0,1.014,1.014,0,0,1,.185.291.882.882,0,0,1-1.438.962Zm-2.276-1.253a1.015,1.015,0,0,1,.185.291.882.882,0,0,1-1.438.962,1.288,1.288,0,0,1-.194-.291.882.882,0,0,1-.062-.335.741.741,0,0,1,.071-.335,1.015,1.015,0,0,1,.185-.291.882.882,0,0,1,1.253,0ZM27.957,24.8a.882.882,0,1,1,1.253,0,1.015,1.015,0,0,1-.291.185.882.882,0,0,1-.962-.185ZM5.02,21.27a.882.882,0,0,1-.256-.626.741.741,0,0,1,.071-.335.851.851,0,0,1,.979-.529.529.529,0,0,1,.168.053.494.494,0,0,1,.15.079.538.538,0,0,1,.132.106.8.8,0,0,1,.194.291.883.883,0,0,1-1.438.962Zm10.4-15.288a.882.882,0,0,1-.071-.335,1.085,1.085,0,0,1,0-.168.529.529,0,0,1,.053-.168.67.67,0,0,1,.079-.159,1.394,1.394,0,0,1,.106-.132.882.882,0,0,1,.794-.238.529.529,0,0,1,.168.053.67.67,0,0,1,.159.079l.132.106.106.132a.671.671,0,0,1,.079.159.529.529,0,0,1,.053.168,1.085,1.085,0,0,1,.035.168.882.882,0,0,1-.071.335,1.015,1.015,0,0,1-.185.291,1.014,1.014,0,0,1-.291.185.882.882,0,0,1-.962-.185,1.014,1.014,0,0,1-.185-.291Zm3.529,0a.741.741,0,0,1-.071-.335,1.085,1.085,0,0,1,0-.168.529.529,0,0,1,.053-.168.67.67,0,0,1,.079-.159,1.394,1.394,0,0,1,.106-.132l.132-.106a.67.67,0,0,1,.159-.079.565.565,0,0,1,.176-.071.882.882,0,0,1,.8.238l.106.132a.671.671,0,0,1,.079.159.529.529,0,0,1,.053.168,1.085,1.085,0,0,1,.018.185.882.882,0,0,1-.071.335,1.015,1.015,0,0,1-.185.291,1.015,1.015,0,0,1-.291.185.829.829,0,0,1-.67,0,1.014,1.014,0,0,1-.291-.185A1.014,1.014,0,0,1,18.95,5.982Zm3.529,0a.741.741,0,0,1-.071-.335,1.085,1.085,0,0,1,0-.168.529.529,0,0,1,.053-.168.671.671,0,0,1,.079-.159,1.394,1.394,0,0,1,.106-.132l.132-.106a.67.67,0,0,1,.159-.079.565.565,0,0,1,.176-.071.882.882,0,0,1,.8.238l.106.132a.67.67,0,0,1,.079.159.529.529,0,0,1,.053.168,1.085,1.085,0,0,1,.018.185.882.882,0,0,1-.071.335,1.014,1.014,0,0,1-.185.291,1.015,1.015,0,0,1-.291.185.882.882,0,0,1-.962-.185A1.015,1.015,0,0,1,22.478,5.982Zm10.586,0a.741.741,0,0,1-.071-.335,1.086,1.086,0,0,1,0-.168.529.529,0,0,1,.053-.168.671.671,0,0,1,.079-.159,1.4,1.4,0,0,1,.106-.132l.132-.106.159-.079.176-.071A.882.882,0,0,1,34.5,5l.106.132a.67.67,0,0,1,.079.159.529.529,0,0,1,.053.168,1.085,1.085,0,0,1,.018.185.882.882,0,0,1-.071.335,1.015,1.015,0,0,1-.185.291.882.882,0,0,1-.962.185,1.015,1.015,0,0,1-.291-.185,1.014,1.014,0,0,1-.185-.291Zm3.529,0a.741.741,0,0,1-.071-.335,1.085,1.085,0,0,1,0-.168.529.529,0,0,1,.053-.168.67.67,0,0,1,.079-.159,1.4,1.4,0,0,1,.106-.132l.132-.106.159-.079.176-.071a.882.882,0,0,1,.512.053A1.014,1.014,0,0,1,38.031,5l.106.132a.671.671,0,0,1,.079.159.529.529,0,0,1,.053.168,1.085,1.085,0,0,1,.018.185.882.882,0,0,1-.071.335,1.015,1.015,0,0,1-.185.291,1.015,1.015,0,0,1-.291.185.829.829,0,0,1-.67,0,.882.882,0,0,1-.291-.185,1.014,1.014,0,0,1-.185-.291Zm3.529,0a.741.741,0,0,1-.071-.335,1.085,1.085,0,0,1,0-.168.529.529,0,0,1,.053-.168.67.67,0,0,1,.079-.159,1.394,1.394,0,0,1,.106-.132,1.021,1.021,0,0,1,.82-.256l.159.053.159.079L41.56,5l.106.132a.67.67,0,0,1,.079.159.529.529,0,0,1,.053.168,1.085,1.085,0,0,1,.018.185.882.882,0,0,1-.071.335,1.015,1.015,0,0,1-.185.291.882.882,0,0,1-.962.185,1.014,1.014,0,0,1-.291-.185,1.015,1.015,0,0,1-.185-.291Zm-23.078,45.2A.882.882,0,0,1,15.9,52.331a1.015,1.015,0,0,1-.291-.185.886.886,0,1,1,1.438-.962Zm3.529,0a.877.877,0,0,1-1.147,1.147,1.014,1.014,0,0,1-.291-.185.882.882,0,0,1,.794-1.491.529.529,0,0,1,.168.053.494.494,0,0,1,.15.079l.132.106a.8.8,0,0,1,.194.291Zm3.529,0a.882.882,0,1,1-1.694.335.741.741,0,0,1,.071-.335.794.794,0,0,1,.476-.476.854.854,0,0,1,1.147.476Zm10.586,0a.882.882,0,0,1-.185.962,1.015,1.015,0,0,1-.291.185.829.829,0,0,1-.67,0,1.014,1.014,0,0,1-.291-.185.886.886,0,1,1,1.438-.962Zm3.529,0a.882.882,0,0,1-.185.962,1.015,1.015,0,0,1-.291.185.882.882,0,0,1-.962-.185,1.288,1.288,0,0,1-.194-.291.891.891,0,0,1,.988-1.217.53.53,0,0,1,.168.053.494.494,0,0,1,.15.079l.141.106a.882.882,0,0,1,.185.309Zm3.529,0a.882.882,0,0,1-.185.962,1.015,1.015,0,0,1-.291.185.829.829,0,0,1-.67,0,1.015,1.015,0,0,1-.291-.185.882.882,0,0,1-.256-.626.741.741,0,0,1,.071-.335.854.854,0,0,1,1.147-.476,1.015,1.015,0,0,1,.291.185A.882.882,0,0,1,41.745,51.184ZM49.5,52.657a.926.926,0,0,1,.256.626.882.882,0,0,1-.071.335.794.794,0,0,1-.476.476.882.882,0,0,1-1.217-.812.926.926,0,0,1,.256-.626.912.912,0,0,1,1.253,0ZM4.764,23.29a.882.882,0,0,1,1.509-.626.926.926,0,0,1,.256.626.882.882,0,0,1-1.764,0Zm0,2.647a.926.926,0,0,1,.256-.626l.132-.106a.67.67,0,0,1,.159-.079l.159-.071a.882.882,0,0,1,.512.053,1.015,1.015,0,0,1,.291.185.926.926,0,0,1,.256.644.882.882,0,0,1-1.509.626,1.014,1.014,0,0,1-.185-.291.741.741,0,0,1-.071-.335ZM6.529,31.23a.882.882,0,1,1-1.694-.335.794.794,0,0,1,.476-.476.882.882,0,0,1,.962.185,1.015,1.015,0,0,1,.185.291A.882.882,0,0,1,6.529,31.23Zm0,2.647a.882.882,0,0,1-1.217.812A1.015,1.015,0,0,1,5.02,34.5a1.014,1.014,0,0,1-.185-.291.741.741,0,0,1-.071-.335.882.882,0,1,1,1.764,0ZM6.273,35.9a.926.926,0,0,1,.256.626.873.873,0,0,1-1.217.812,1.014,1.014,0,0,1-.291-.185A.886.886,0,1,1,6.273,35.9ZM50.893,21.27a.882.882,0,0,1-.256-.626.741.741,0,0,1,.071-.335,1.014,1.014,0,0,1,.185-.291.882.882,0,0,1,.962-.185.67.67,0,0,1,.159.079l.132.106a.884.884,0,0,1-.962,1.438,1.014,1.014,0,0,1-.291-.185Zm-.256,2.02a.926.926,0,0,1,.256-.626.882.882,0,0,1,.291-.185.82.82,0,0,1,.5-.053.529.529,0,0,1,.168.053.494.494,0,0,1,.15.079.882.882,0,0,1,.141.106.926.926,0,0,1,.256.626.882.882,0,0,1-1.509.626,1.014,1.014,0,0,1-.185-.291A.882.882,0,0,1,50.637,23.29Zm0,2.647a.882.882,0,1,1,1.694.335,1.015,1.015,0,0,1-.185.291.882.882,0,0,1-1.253,0,1.015,1.015,0,0,1-.185-.291.741.741,0,0,1-.071-.335Zm.256,5.919a.882.882,0,0,1-.256-.626.741.741,0,0,1,.071-.335,1.015,1.015,0,0,1,.185-.291l.132-.106.159-.079a.565.565,0,0,1,.159-.071.854.854,0,0,1,.988.529.829.829,0,0,1,0,.67,1.014,1.014,0,0,1-.185.291.882.882,0,0,1-1.253,0Zm-.256,2.02a1.2,1.2,0,0,1,0-.176.564.564,0,0,1,.053-.159.67.67,0,0,1,.079-.159l.106-.132a.9.9,0,1,1-.238.626Zm0,2.647a.847.847,0,1,1,.256.626.882.882,0,0,1-.256-.626ZM31.776,29.395a.854.854,0,0,1-.476-1.147,1.014,1.014,0,0,1,.185-.291.882.882,0,0,1,1.253,0,1.015,1.015,0,0,1,.185.291.882.882,0,0,1-1.147,1.147Zm22.39-.812a.882.882,0,0,1-.882.882H47.991L49.4,30.524a.882.882,0,1,1-1.059,1.411l-3.529-2.647h0a.626.626,0,0,1-.168-.2A.317.317,0,0,1,44.586,29a.82.82,0,0,1,0-.741.317.317,0,0,1,.062-.088.626.626,0,0,1,.168-.2s0,0,0-.044l3.529-2.647A.882.882,0,0,1,49.4,26.686L47.991,27.7h5.293A.882.882,0,0,1,54.166,28.583ZM3.882,27.7H9.175L7.764,26.642a.882.882,0,0,1,1.059-1.411l3.529,2.647v.044a.626.626,0,0,1,.168.2.538.538,0,0,1,.062.088.82.82,0,0,1,0,.741.538.538,0,0,1-.062.088.626.626,0,0,1-.168.2h0L8.822,31.891a.865.865,0,1,1-1.059-1.367l1.411-1.059H3.882a.882.882,0,0,1,0-1.764Zm21.3-19.84A.882.882,0,1,1,26.7,6.979L27.7,8.637V3.882a.882.882,0,0,1,1.764,0V8.637l1.006-1.676a.882.882,0,1,1,1.517.882l-2.647,4.411a1.094,1.094,0,0,1-.124.159h0a.812.812,0,0,1-.247.168h-.062a.8.8,0,0,1-.618,0H28.23a.812.812,0,0,1-.247-.168h0a1.094,1.094,0,0,1-.124-.159Zm6.81,41.462a.878.878,0,0,1-1.517.882l-1.006-1.676v4.755a.882.882,0,0,1-1.764,0V48.529L26.7,50.205a.882.882,0,1,1-1.517-.882l2.647-4.411a.468.468,0,0,1,.1-.124.882.882,0,0,1,1.323,0,.468.468,0,0,1,.1.124ZM28.583,14.468A14.115,14.115,0,1,0,42.7,28.583,14.115,14.115,0,0,0,28.583,14.468Zm0,26.465a12.35,12.35,0,1,1,12.35-12.35A12.35,12.35,0,0,1,28.583,40.933Z" transform="translate(0 0)"/>
    </g>
  </g>
</svg>
