<svg xmlns="http://www.w3.org/2000/svg" xmlns:xlink="http://www.w3.org/1999/xlink" width="113" height="113" viewBox="0 0 113 113">
  <defs>
    <filter id="Trazado_982547" x="0" y="0" width="113" height="113" filterUnits="userSpaceOnUse">
      <feOffset dy="3" input="SourceAlpha"/>
      <feGaussianBlur stdDeviation="3" result="blur"/>
      <feFlood flood-opacity="0.161"/>
      <feComposite operator="in" in2="blur"/>
      <feComposite in="SourceGraphic"/>
    </filter>
  </defs>
  <g id="Grupo_1207655" data-name="Grupo 1207655" transform="translate(-895 -3065.981)">
    <g id="Grupo_1207517" data-name="Grupo 1207517" transform="translate(-7 652.208)">
      <g id="Grupo_1207309" data-name="Grupo 1207309" transform="translate(631 1543.358)">
        <g id="Grupo_1174813" data-name="Grupo 1174813" transform="translate(280 876.414)">
          <g id="Grupo_1201680" data-name="Grupo 1201680">
            <g id="Grupo_1201330" data-name="Grupo 1201330">
              <g id="Grupo_1172010" data-name="Grupo 1172010">
                <g id="Grupo_1171046" data-name="Grupo 1171046">
                  <g id="Grupo_1148525" data-name="Grupo 1148525">
                    <g transform="matrix(1, 0, 0, 1, -9, -6)" filter="url(#Trazado_982547)">
                      <g id="Trazado_982547-2" data-name="Trazado 982547" transform="translate(9 6)" fill="#fff4e6">
                        <path d="M 47.5 93.5 C 41.28937149047852 93.5 35.26533508300781 92.28397369384766 29.59518623352051 89.88570404052734 C 24.11771965026855 87.56893157958984 19.19813346862793 84.25196075439453 14.97309303283691 80.02691650390625 C 10.74804019927979 75.80186462402344 7.431066513061523 70.88229370117188 5.114293098449707 65.40481567382812 C 2.716026782989502 59.73468017578125 1.5 53.71062850952148 1.5 47.5 C 1.5 41.28937149047852 2.716026782989502 35.26533508300781 5.114293098449707 29.59518623352051 C 7.431066513061523 24.11771965026855 10.74804019927979 19.19813346862793 14.97309303283691 14.97309303283691 C 19.19813346862793 10.74804019927979 24.11771965026855 7.431066513061523 29.59518623352051 5.114293098449707 C 35.26533508300781 2.716026782989502 41.28937149047852 1.5 47.5 1.5 C 53.71062850952148 1.5 59.73468017578125 2.716026782989502 65.40481567382812 5.114293098449707 C 70.88229370117188 7.431066513061523 75.80186462402344 10.74804019927979 80.02691650390625 14.97309303283691 C 84.25196075439453 19.19813346862793 87.56893157958984 24.11771965026855 89.88570404052734 29.59518623352051 C 92.28397369384766 35.26533508300781 93.5 41.28937149047852 93.5 47.5 C 93.5 53.71062850952148 92.28397369384766 59.73468017578125 89.88570404052734 65.40481567382812 C 87.56893157958984 70.88229370117188 84.25196075439453 75.80186462402344 80.02691650390625 80.02691650390625 C 75.80186462402344 84.25196075439453 70.88229370117188 87.56893157958984 65.40481567382812 89.88570404052734 C 59.73468017578125 92.28397369384766 53.71062850952148 93.5 47.5 93.5 Z" stroke="none"/>
                        <path d="M 47.5 3 C 41.49121475219727 3 35.66376876831055 4.176155090332031 30.17950439453125 6.495796203613281 C 24.88084411621094 8.736953735351562 20.12152099609375 11.94598388671875 16.03375244140625 16.03375244140625 C 11.94598388671875 20.12152099609375 8.736953735351562 24.88084411621094 6.495796203613281 30.17950439453125 C 4.176155090332031 35.66376876831055 3 41.49121475219727 3 47.5 C 3 53.50878524780273 4.176155090332031 59.33623123168945 6.495796203613281 64.82049560546875 C 8.736953735351562 70.11915588378906 11.94598388671875 74.87847900390625 16.03375244140625 78.96624755859375 C 20.12152099609375 83.05401611328125 24.88084411621094 86.26304626464844 30.17950439453125 88.50419616699219 C 35.66376876831055 90.82384490966797 41.49121475219727 92 47.5 92 C 53.50878524780273 92 59.33623123168945 90.82384490966797 64.82049560546875 88.50419616699219 C 70.11915588378906 86.26304626464844 74.87847900390625 83.05401611328125 78.96624755859375 78.96624755859375 C 83.05401611328125 74.87847900390625 86.26304626464844 70.11915588378906 88.50419616699219 64.82049560546875 C 90.82384490966797 59.33623123168945 92 53.50878524780273 92 47.5 C 92 41.49121475219727 90.82384490966797 35.66376876831055 88.50419616699219 30.17950439453125 C 86.26304626464844 24.88084411621094 83.05401611328125 20.12152099609375 78.96624755859375 16.03375244140625 C 74.87847900390625 11.94598388671875 70.11915588378906 8.736953735351562 64.82049560546875 6.495796203613281 C 59.33623123168945 4.176155090332031 53.50878524780273 3 47.5 3 M 47.5 0 C 73.7335205078125 0 95 21.2664794921875 95 47.5 C 95 73.7335205078125 73.7335205078125 95 47.5 95 C 21.2664794921875 95 0 73.7335205078125 0 47.5 C 0 21.2664794921875 21.2664794921875 0 47.5 0 Z" stroke="none" fill="#ff9d1c"/>
                      </g>
                    </g>
                  </g>
                </g>
              </g>
            </g>
          </g>
        </g>
      </g>
    </g>
    <g id="market-analysis_7784233" transform="translate(916.019 3083.122)">
      <circle id="Elipse_13429" data-name="Elipse 13429" cx="33.214" cy="33.214" r="33.214" transform="translate(3.148 3.145)" fill="#4a8cdd"/>
      <path id="Trazado_1052387" data-name="Trazado 1052387" d="M55.49,11.49a33.214,33.214,0,0,1,0,46.957L32,34.98Z" transform="translate(4.362 1.379)" fill="#f4f4f2"/>
      <circle id="Elipse_13430" data-name="Elipse 13430" cx="9.162" cy="9.162" r="9.162" transform="translate(46.669 27.197)" fill="#fad55c"/>
      <path id="Trazado_1052388" data-name="Trazado 1052388" d="M58.915,54.45a34.692,34.692,0,0,1-3.436,4.02L32,34.98,55.49,11.49a34.69,34.69,0,0,1,3.436,4.02,22.906,22.906,0,0,0,0,38.94Z" transform="translate(4.362 1.379)" fill="#e2e2e2"/>
      <path id="Trazado_1052389" data-name="Trazado 1052389" d="M14.453,36.214A33.212,33.212,0,0,1,41.934,3.505,33.7,33.7,0,0,0,36.214,3a33.214,33.214,0,0,0,0,66.427,33.694,33.694,0,0,0,5.727-.5,33.214,33.214,0,0,1-27.487-32.71Z" transform="translate(0.148 0.145)" fill="#356baa"/>
      <path id="Trazado_1052390" data-name="Trazado 1052390" d="M55.49,12.724A33.111,33.111,0,0,0,32,3V36.214Z" transform="translate(4.362 0.145)" fill="#7ece88"/>
      <path id="Trazado_1052391" data-name="Trazado 1052391" d="M46.726,33.145a22.791,22.791,0,0,0,1.855,9.025,9.162,9.162,0,0,1,0-18.05,22.792,22.792,0,0,0-1.855,9.025Z" transform="translate(5.67 3.214)" fill="#edc045"/>
      <path id="Trazado_1052392" data-name="Trazado 1052392" d="M25.436,10,22,15.726h6.872Z" transform="translate(2.909 1.162)" fill="#f9715f"/>
      <circle id="Elipse_13431" data-name="Elipse 13431" cx="4.581" cy="4.581" r="4.581" transform="translate(23.763 32.923)" fill="#484c4f"/>
      <path id="Trazado_1052393" data-name="Trazado 1052393" d="M32.744,39H19V52.744h2.485L22.436,64.2h6.872l.951-11.453h2.485Z" transform="translate(2.473 5.376)" fill="#484c4f"/>
      <circle id="Elipse_13432" data-name="Elipse 13432" cx="4.581" cy="4.581" r="4.581" transform="translate(16.892 32.923)" fill="#7e7f7f"/>
      <path id="Trazado_1052394" data-name="Trazado 1052394" d="M26.744,39H13V52.744h2.485L16.436,64.2h6.872l.951-11.453h2.485Z" transform="translate(1.601 5.376)" fill="#7e7f7f"/>
      <circle id="Elipse_13433" data-name="Elipse 13433" cx="4.581" cy="4.581" r="4.581" transform="translate(10.02 32.923)" fill="#f4f4f2"/>
      <path id="Trazado_1052395" data-name="Trazado 1052395" d="M20.744,39H7V52.744H9.485L10.436,64.2h6.872l.951-11.453h2.485Z" transform="translate(0.729 5.376)" fill="#f4f4f2"/>
      <path id="Trazado_1052396" data-name="Trazado 1052396" d="M13,39V64.2h3.436l.951-11.453h2.485V39Z" transform="translate(1.601 5.376)" fill="#dbdbdb"/>
      <path id="Trazado_1052397" data-name="Trazado 1052397" d="M17.581,33.581A4.581,4.581,0,0,0,13,29v9.162A4.581,4.581,0,0,0,17.581,33.581Z" transform="translate(1.601 3.923)" fill="#dbdbdb"/>
      <path id="Trazado_1052398" data-name="Trazado 1052398" d="M36.362,2A34.359,34.359,0,0,0,6.584,53.539V58.12a1.145,1.145,0,0,0,1.145,1.145H9.161l.859,10.4a1.145,1.145,0,0,0,1.145,1.054H31.781a1.145,1.145,0,0,0,.687-.241,33.065,33.065,0,0,0,3.894.241A34.359,34.359,0,1,0,36.362,2Zm1.145,2.291a31.839,31.839,0,0,1,20.707,8.578L37.507,33.6ZM17.854,58.028l-.87,10.4H12.219l-.87-10.4A1.145,1.145,0,0,0,10.2,56.974H8.875V45.521H20.328V56.974h-1.34A1.145,1.145,0,0,0,17.854,58.028Zm6.872,0-.87,10.4H19.274l.756-9.162h1.443a1.145,1.145,0,0,0,1.145-1.145v-12.6H27.2V56.974h-1.34a1.145,1.145,0,0,0-1.145,1.054Zm6,10.4H26.146l.756-9.162h1.443A1.145,1.145,0,0,0,29.49,58.12v-12.6h4.581V56.974h-1.34a1.145,1.145,0,0,0-1.145,1.054Zm2.291-.195.767-8.968h1.432a1.145,1.145,0,0,0,1.145-1.145V44.376a1.145,1.145,0,0,0-1.145-1.145H7.729a1.145,1.145,0,0,0-1.145,1.145v3.871A32.068,32.068,0,0,1,35.216,4.291V36.359a1.145,1.145,0,0,0,.332.813L58.214,59.826a31.828,31.828,0,0,1-21.852,8.6,31.373,31.373,0,0,1-3.321-.195ZM59.806,58.211,37.977,36.359,59.829,14.507a32.068,32.068,0,0,1,0,43.7Z" transform="translate(0)"/>
      <path id="Trazado_1052399" data-name="Trazado 1052399" d="M33.2,33.727a5.727,5.727,0,0,0-9.162-4.581,5.727,5.727,0,0,0-6.872,0,5.727,5.727,0,1,0,0,9.162,5.727,5.727,0,0,0,6.872,0A5.727,5.727,0,0,0,33.2,33.727Zm-19.47,3.436a3.436,3.436,0,1,1,3.436-3.436A3.436,3.436,0,0,1,13.727,37.162Zm4.948-.607a5.532,5.532,0,0,0,0-5.658,3.367,3.367,0,0,1,1.924-.607,3.436,3.436,0,1,1,0,6.872A3.367,3.367,0,0,1,18.674,36.555Zm8.8.607a3.436,3.436,0,0,1-1.913-.6,5.635,5.635,0,0,0,0-5.727,3.436,3.436,0,1,1,1.913,6.322Z" transform="translate(0.875 3.778)"/>
      <path id="Trazado_1052400" data-name="Trazado 1052400" d="M0,0H12.953V2.291H0Z" transform="translate(50.424 40.133) rotate(-45)"/>
      <path id="Trazado_1052401" data-name="Trazado 1052401" d="M45,28h2.291v2.291H45Z" transform="translate(6.251 3.778)"/>
      <path id="Trazado_1052402" data-name="Trazado 1052402" d="M51,34h2.291v2.291H51Z" transform="translate(7.122 4.65)"/>
      <path id="Trazado_1052403" data-name="Trazado 1052403" d="M50.308,23A10.308,10.308,0,1,0,60.615,33.308,10.308,10.308,0,0,0,50.308,23Zm0,18.325a8.017,8.017,0,1,1,8.017-8.017,8.017,8.017,0,0,1-8.017,8.017Z" transform="translate(5.524 3.051)"/>
      <path id="Trazado_1052404" data-name="Trazado 1052404" d="M28.019,9.561a1.145,1.145,0,0,0-1.97,0l-3.436,5.727a1.145,1.145,0,0,0,.985,1.729H25.82a10.308,10.308,0,0,1-10.239,9.162H11V28.47h4.581a12.6,12.6,0,0,0,12.6-11.453H30.47a1.145,1.145,0,0,0,.985-1.729Zm-2.394,5.165,1.409-2.359,1.409,2.359Z" transform="translate(1.31 1.017)"/>
      <path id="Trazado_1052405" data-name="Trazado 1052405" d="M14.581,42H12.291v2.291H10v2.291h2.291v2.291h2.291V46.581h2.291V44.291H14.581Z" transform="translate(1.165 5.812)"/>
      <g id="Grupo_1207654" data-name="Grupo 1207654" transform="translate(6.903 19.138)">
        <ellipse id="Elipse_13434" data-name="Elipse 13434" cx="2.909" cy="1.432" rx="2.909" ry="1.432" transform="matrix(0.62, -0.784, 0.784, 0.62, 0, 4.561)" fill="#f7f7f7"/>
        <circle id="Elipse_13435" data-name="Elipse 13435" cx="1.145" cy="1.145" r="1.145" transform="translate(0.426 6.351) rotate(-6.663)" fill="#f7f7f7"/>
      </g>
    </g>
  </g>
</svg>
