<svg xmlns="http://www.w3.org/2000/svg" xmlns:xlink="http://www.w3.org/1999/xlink" width="113" height="113" viewBox="0 0 113 113">
  <defs>
    <filter id="Trazado_982547" x="0" y="0" width="113" height="113" filterUnits="userSpaceOnUse">
      <feOffset dy="3" input="SourceAlpha"/>
      <feGaussianBlur stdDeviation="3" result="blur"/>
      <feFlood flood-opacity="0.161"/>
      <feComposite operator="in" in2="blur"/>
      <feComposite in="SourceGraphic"/>
    </filter>
  </defs>
  <g id="Grupo_1207657" data-name="Grupo 1207657" transform="translate(-1210 -3065.981)">
    <g id="Grupo_1207518" data-name="Grupo 1207518" transform="translate(-7 652.208)">
      <g id="Grupo_1207310" data-name="Grupo 1207310" transform="translate(946 1543.358)">
        <g id="Grupo_1174813" data-name="Grupo 1174813" transform="translate(280 876.414)">
          <g id="Grupo_1201680" data-name="Grupo 1201680">
            <g id="Grupo_1201330" data-name="Grupo 1201330">
              <g id="Grupo_1172010" data-name="Grupo 1172010">
                <g id="Grupo_1171046" data-name="Grupo 1171046">
                  <g id="Grupo_1148525" data-name="Grupo 1148525">
                    <g transform="matrix(1, 0, 0, 1, -9, -6)" filter="url(#Trazado_982547)">
                      <g id="Trazado_982547-2" data-name="Trazado 982547" transform="translate(9 6)" fill="#fff4e6">
                        <path d="M 47.5 93.5 C 41.28937149047852 93.5 35.26533508300781 92.28397369384766 29.59518623352051 89.88570404052734 C 24.11771965026855 87.56893157958984 19.19813346862793 84.25196075439453 14.97309303283691 80.02691650390625 C 10.74804019927979 75.80186462402344 7.431066513061523 70.88229370117188 5.114293098449707 65.40481567382812 C 2.716026782989502 59.73468017578125 1.5 53.71062850952148 1.5 47.5 C 1.5 41.28937149047852 2.716026782989502 35.26533508300781 5.114293098449707 29.59518623352051 C 7.431066513061523 24.11771965026855 10.74804019927979 19.19813346862793 14.97309303283691 14.97309303283691 C 19.19813346862793 10.74804019927979 24.11771965026855 7.431066513061523 29.59518623352051 5.114293098449707 C 35.26533508300781 2.716026782989502 41.28937149047852 1.5 47.5 1.5 C 53.71062850952148 1.5 59.73468017578125 2.716026782989502 65.40481567382812 5.114293098449707 C 70.88229370117188 7.431066513061523 75.80186462402344 10.74804019927979 80.02691650390625 14.97309303283691 C 84.25196075439453 19.19813346862793 87.56893157958984 24.11771965026855 89.88570404052734 29.59518623352051 C 92.28397369384766 35.26533508300781 93.5 41.28937149047852 93.5 47.5 C 93.5 53.71062850952148 92.28397369384766 59.73468017578125 89.88570404052734 65.40481567382812 C 87.56893157958984 70.88229370117188 84.25196075439453 75.80186462402344 80.02691650390625 80.02691650390625 C 75.80186462402344 84.25196075439453 70.88229370117188 87.56893157958984 65.40481567382812 89.88570404052734 C 59.73468017578125 92.28397369384766 53.71062850952148 93.5 47.5 93.5 Z" stroke="none"/>
                        <path d="M 47.5 3 C 41.49121475219727 3 35.66376876831055 4.176155090332031 30.17950439453125 6.495796203613281 C 24.88084411621094 8.736953735351562 20.12152099609375 11.94598388671875 16.03375244140625 16.03375244140625 C 11.94598388671875 20.12152099609375 8.736953735351562 24.88084411621094 6.495796203613281 30.17950439453125 C 4.176155090332031 35.66376876831055 3 41.49121475219727 3 47.5 C 3 53.50878524780273 4.176155090332031 59.33623123168945 6.495796203613281 64.82049560546875 C 8.736953735351562 70.11915588378906 11.94598388671875 74.87847900390625 16.03375244140625 78.96624755859375 C 20.12152099609375 83.05401611328125 24.88084411621094 86.26304626464844 30.17950439453125 88.50419616699219 C 35.66376876831055 90.82384490966797 41.49121475219727 92 47.5 92 C 53.50878524780273 92 59.33623123168945 90.82384490966797 64.82049560546875 88.50419616699219 C 70.11915588378906 86.26304626464844 74.87847900390625 83.05401611328125 78.96624755859375 78.96624755859375 C 83.05401611328125 74.87847900390625 86.26304626464844 70.11915588378906 88.50419616699219 64.82049560546875 C 90.82384490966797 59.33623123168945 92 53.50878524780273 92 47.5 C 92 41.49121475219727 90.82384490966797 35.66376876831055 88.50419616699219 30.17950439453125 C 86.26304626464844 24.88084411621094 83.05401611328125 20.12152099609375 78.96624755859375 16.03375244140625 C 74.87847900390625 11.94598388671875 70.11915588378906 8.736953735351562 64.82049560546875 6.495796203613281 C 59.33623123168945 4.176155090332031 53.50878524780273 3 47.5 3 M 47.5 0 C 73.7335205078125 0 95 21.2664794921875 95 47.5 C 95 73.7335205078125 73.7335205078125 95 47.5 95 C 21.2664794921875 95 0 73.7335205078125 0 47.5 C 0 21.2664794921875 21.2664794921875 0 47.5 0 Z" stroke="none" fill="#ff9d1c"/>
                      </g>
                    </g>
                  </g>
                </g>
              </g>
            </g>
          </g>
        </g>
      </g>
    </g>
    <g id="upselling_11519018" transform="translate(1193.894 3063.037)">
      <g id="Grupo_1207656" data-name="Grupo 1207656" transform="translate(45.56 25.806)">
        <path id="Trazado_1052406" data-name="Trazado 1052406" d="M53.6,268.3H71.413v17.8H53.6Z" transform="translate(-53.225 -237.043)" fill="#fedc97" fill-rule="evenodd"/>
        <path id="Trazado_1052407" data-name="Trazado 1052407" d="M104.174,268.3H98.1v7.233l.329-.277,2.714-2.372,2.714,2.372.316.277Z" transform="translate(-91.862 -237.043)" fill="#6abdc8" fill-rule="evenodd"/>
        <path id="Trazado_1052408" data-name="Trazado 1052408" d="M275.5,221h24.044v24.044H275.5Z" transform="translate(-245.89 -195.975)" fill="#fedc97" fill-rule="evenodd"/>
        <path id="Trazado_1052409" data-name="Trazado 1052409" d="M343.808,221H335.6v9.763l.435-.382,3.676-3.188,3.663,3.188.435.382Z" transform="translate(-298.071 -195.975)" fill="#6abdc8" fill-rule="evenodd"/>
        <path id="Trazado_1052410" data-name="Trazado 1052410" d="M53.6,403.4h53.28v4.335H53.6Z" transform="translate(-53.225 -354.343)" fill="#dd6e42" fill-rule="evenodd"/>
        <path id="Trazado_1052411" data-name="Trazado 1052411" d="M53.6,436.3h7.813v5.889H53.6Z" transform="translate(-53.225 -382.909)" fill="#dd6e42" fill-rule="evenodd"/>
        <path id="Trazado_1052412" data-name="Trazado 1052412" d="M398.7,436.3h7.813v5.889H398.7Z" transform="translate(-352.858 -382.909)" fill="#dd6e42" fill-rule="evenodd"/>
        <path id="Trazado_1052413" data-name="Trazado 1052413" d="M226.2,436.3h7.813v5.889H226.2Z" transform="translate(-203.085 -382.909)" fill="#dd6e42" fill-rule="evenodd"/>
        <path id="Trazado_1052414" data-name="Trazado 1052414" d="M62.024,31.152A12.846,12.846,0,0,1,73.961,51.507l2.872,5.968-6.1-2.885a12.66,12.66,0,0,1-5.547,2.055,12.845,12.845,0,1,1-3.162-25.494Z" transform="translate(-50.754 -31.054)" fill="#fcb13b" fill-rule="evenodd"/>
        <path id="Trazado_1052415" data-name="Trazado 1052415" d="M284.75,45.3A12.45,12.45,0,1,1,272.3,57.75,12.449,12.449,0,0,1,284.75,45.3Z" transform="translate(-243.111 -43.423)" fill="#e6e6e6" fill-rule="evenodd"/>
        <path id="Trazado_1052416" data-name="Trazado 1052416" d="M340,89.329l5.981-3.729V99.157L340,95.429Z" transform="translate(-301.892 -78.413)" fill="#cc4342" fill-rule="evenodd"/>
        <path id="Trazado_1052417" data-name="Trazado 1052417" d="M305.052,113.9h3.083v6.113h-3.1a1.746,1.746,0,0,1-1.739-1.739v-2.635A1.757,1.757,0,0,1,305.052,113.9Z" transform="translate(-270.027 -102.985)" fill="#fcb13b" fill-rule="evenodd"/>
        <path id="Trazado_1052418" data-name="Trazado 1052418" d="M385.4,119a2.5,2.5,0,0,1,0,4.98V119Z" transform="translate(-341.31 -107.413)" fill="#fcb13b" fill-rule="evenodd"/>
      </g>
      <path id="Trazado_1052419" data-name="Trazado 1052419" d="M82.4,43.625v2.029a.791.791,0,0,1-1.581,0V43.625h-.237a2.539,2.539,0,0,1-2.53-2.53V38.46a2.539,2.539,0,0,1,2.53-2.53h2.872l5.784-3.6a.8.8,0,0,1,1.212.672v3.729a3.3,3.3,0,0,1,0,6.311v3.5A.792.792,0,0,1,89.2,47.2l-5.744-3.57Zm11.844-2.951a.791.791,0,1,1,0-1.581h1.3a.791.791,0,1,1,0,1.581Zm-.382-3.267a.776.776,0,0,1-1.107-.053.788.788,0,0,1,.04-1.107l.791-.738a.8.8,0,0,1,1.12.04.793.793,0,0,1-.053,1.12ZM92.8,43.546a.791.791,0,0,1-.04-1.12.765.765,0,0,1,1.107-.04l.79.738a.788.788,0,0,1,.053,1.107.8.8,0,0,1-1.12.053Zm-2.358-2.227a1.723,1.723,0,0,0,0-2.859Zm-7.562-3.808H80.572a.962.962,0,0,0-.949.949V41.1a.962.962,0,0,0,.949.949h2.306Zm5.981-3.1-4.4,2.74v5.23l4.4,2.727ZM87.2,26.893a13.243,13.243,0,0,1,8.788,23.149h3.228a.793.793,0,0,1,.79.791V85.087a.793.793,0,0,1-.79.791H91.4a.793.793,0,0,1-.79-.791v-5.1H77.266v5.1a.793.793,0,0,1-.791.791H68.662a.793.793,0,0,1-.79-.791v-5.1H54.539v5.1a.793.793,0,0,1-.791.791H45.935a.793.793,0,0,1-.791-.791V57.064a.793.793,0,0,1,.791-.791h17.8a.793.793,0,0,1,.79.791V74.073H74.38V50.832a.793.793,0,0,1,.79-.791h3.241A13.243,13.243,0,0,1,87.2,26.893Zm6.588,24.73a11.207,11.207,0,0,1-1.7.817v8.155a.786.786,0,0,1-1.3.593L87.2,58.078l-3.531,3.07a.791.791,0,0,1-1.357-.553V52.439a12.617,12.617,0,0,1-1.7-.817H75.974V74.086h22.45V51.622Zm-3.281,1.331a13.435,13.435,0,0,1-6.627,0v5.9l2.793-2.424a.784.784,0,0,1,1.041.013l2.78,2.411v-5.9Zm8.353-12.819A11.66,11.66,0,1,0,87.2,51.794,11.656,11.656,0,0,0,98.859,40.134ZM67,65.14a.8.8,0,0,1-1.08-.29.783.783,0,0,1,.29-1.08l2.754-1.581h-.132a.791.791,0,0,1,0-1.581h3.017a.789.789,0,0,1,.725,1.186l-1.528,2.648a.807.807,0,0,1-1.08.29.792.792,0,0,1-.29-1.08l.053-.092Zm-10.711-31.7a1.705,1.705,0,1,0,0,2.411A1.707,1.707,0,0,0,56.291,33.441Zm-1.2-2.068A3.284,3.284,0,1,1,51.8,34.653,3.283,3.283,0,0,1,55.092,31.372Zm9.367.474a.792.792,0,1,1,1.12,1.12L53.406,45.14a.792.792,0,0,1-1.12-1.12Zm-.487,9.275a1.708,1.708,0,1,0,0,2.424A1.708,1.708,0,0,0,63.972,41.122Zm1.12-1.107a3.28,3.28,0,1,1-4.638,0A3.281,3.281,0,0,1,65.092,40.015Zm-8.353-14.9A13.635,13.635,0,0,1,69.69,46.326l2.675,5.547a.789.789,0,0,1-1.041,1.054l-5.7-2.688a13.641,13.641,0,1,1-8.88-25.125Zm9.091,4.018a12.059,12.059,0,1,0-3.2,20.817A11.917,11.917,0,0,0,65.079,48.7a.8.8,0,0,1,.8-.079l4.084,1.937-1.884-3.913a.808.808,0,0,1,.053-.856A12.063,12.063,0,0,0,65.83,29.133Zm3.636,50.856V84.3H75.7V79.988Zm22.727,0V84.3h6.232V79.988Zm-45.467,0V84.3h6.232V79.988Zm28.445-4.335H46.726v2.754h51.7V75.654Zm19.091-5.981a.791.791,0,0,1,0,1.581H89.545a.791.791,0,0,1,0-1.581Zm0-4.256a.791.791,0,0,1,0,1.581H89.545a.791.791,0,0,1,0-1.581Zm-34.189,5.4a.791.791,0,0,1,0,1.581H56.581a.791.791,0,0,1,0-1.581Zm0-3.149a.79.79,0,1,1,0,1.581H56.581a.79.79,0,1,1,0-1.581Zm-7.483-9.815v4.7l1.726-1.5a.784.784,0,0,1,1.041.013l1.726,1.5v-4.7H52.589Zm6.074,0V64.3a.786.786,0,0,1-1.3.593L54.828,62.7,52.352,64.85a.791.791,0,0,1-1.357-.553V57.854H46.726V74.073H62.944V57.854Z" transform="translate(0 0)"/>
    </g>
  </g>
</svg>
