<svg xmlns="http://www.w3.org/2000/svg" xmlns:xlink="http://www.w3.org/1999/xlink" width="103" height="103" viewBox="0 0 103 103">
  <defs>
    <filter id="Trazado_982547" x="0" y="0" width="103" height="103" filterUnits="userSpaceOnUse">
      <feOffset dy="3" input="SourceAlpha"/>
      <feGaussianBlur stdDeviation="3" result="blur"/>
      <feFlood flood-opacity="0.161"/>
      <feComposite operator="in" in2="blur"/>
      <feComposite in="SourceGraphic"/>
    </filter>
  </defs>
  <g id="Grupo_1207675" data-name="Grupo 1207675" transform="translate(-1136 -3490.203)">
    <g id="Grupo_1207598" data-name="Grupo 1207598" transform="translate(945 -173.297)">
      <g id="Grupo_1207313" data-name="Grupo 1207313" transform="translate(0 2919.5)">
        <g id="Grupo_1202212" data-name="Grupo 1202212" transform="translate(-80 -126.414)">
          <g id="Grupo_1174813" data-name="Grupo 1174813" transform="translate(280 876.414)">
            <g id="Grupo_1201680" data-name="Grupo 1201680">
              <g id="Grupo_1201330" data-name="Grupo 1201330">
                <g id="Grupo_1172010" data-name="Grupo 1172010">
                  <g id="Grupo_1171046" data-name="Grupo 1171046">
                    <g id="Grupo_1148525" data-name="Grupo 1148525">
                      <g transform="matrix(1, 0, 0, 1, -9, -6)" filter="url(#Trazado_982547)">
                        <g id="Trazado_982547-2" data-name="Trazado 982547" transform="translate(9 6)" fill="#f2f7e5">
                          <path d="M 42.5 83.5 C 36.96437835693359 83.5 31.59512901306152 82.41617584228516 26.54141235351562 80.27863311767578 C 21.65934181213379 78.21369171142578 17.27447128295898 75.25723266601562 13.50862312316895 71.49137878417969 C 9.742764472961426 67.72553253173828 6.786305904388428 63.34066009521484 4.721364498138428 58.45858764648438 C 2.583823442459106 53.40486907958984 1.5 48.03562164306641 1.5 42.5 C 1.5 36.96437835693359 2.583823442459106 31.59512901306152 4.721364498138428 26.54141235351562 C 6.786305904388428 21.65934181213379 9.742764472961426 17.27448272705078 13.50862312316895 13.50862312316895 C 17.27447128295898 9.742776870727539 21.65934181213379 6.786305904388428 26.54141235351562 4.721364498138428 C 31.59512901306152 2.583823442459106 36.96437835693359 1.5 42.5 1.5 C 48.03562164306641 1.5 53.40486907958984 2.583823442459106 58.45858764648438 4.721364498138428 C 63.34066009521484 6.786305904388428 67.72553253173828 9.742776870727539 71.49137878417969 13.50862312316895 C 75.25723266601562 17.27448272705078 78.21369171142578 21.65934181213379 80.27863311767578 26.54141235351562 C 82.41617584228516 31.59512901306152 83.5 36.96437835693359 83.5 42.5 C 83.5 48.03562164306641 82.41617584228516 53.40486907958984 80.27863311767578 58.45858764648438 C 78.21369171142578 63.34066009521484 75.25723266601562 67.72553253173828 71.49137878417969 71.49137878417969 C 67.72553253173828 75.25723266601562 63.34066009521484 78.21369171142578 58.45858764648438 80.27863311767578 C 53.40486907958984 82.41617584228516 48.03562164306641 83.5 42.5 83.5 Z" stroke="none"/>
                          <path d="M 42.5 3 C 37.16621398925781 3 31.99356079101562 4.043960571289062 27.125732421875 6.102882385253906 C 22.42246627807617 8.092185974121094 18.19785308837891 10.94070434570312 14.56928253173828 14.56928253173828 C 10.94070434570312 18.19785308837891 8.092185974121094 22.42246627807617 6.102882385253906 27.125732421875 C 4.043960571289062 31.99356079101562 3 37.16621398925781 3 42.5 C 3 47.83378601074219 4.043960571289062 53.00643920898438 6.102882385253906 57.874267578125 C 8.092185974121094 62.57753372192383 10.94070434570312 66.80214691162109 14.56928253173828 70.43071746826172 C 18.19785308837891 74.05929565429688 22.42246627807617 76.90781402587891 27.125732421875 78.89711761474609 C 31.99356079101562 80.95603942871094 37.16621398925781 82 42.5 82 C 47.83378601074219 82 53.00643920898438 80.95603942871094 57.874267578125 78.89711761474609 C 62.57753372192383 76.90781402587891 66.80214691162109 74.05929565429688 70.43071746826172 70.43071746826172 C 74.05929565429688 66.80214691162109 76.90781402587891 62.57753372192383 78.89711761474609 57.874267578125 C 80.95603942871094 53.00643920898438 82 47.83378601074219 82 42.5 C 82 37.16621398925781 80.95603942871094 31.99356079101562 78.89711761474609 27.125732421875 C 76.90781402587891 22.42246627807617 74.05929565429688 18.19785308837891 70.43071746826172 14.56928253173828 C 66.80214691162109 10.94070434570312 62.57753372192383 8.092185974121094 57.874267578125 6.102882385253906 C 53.00643920898438 4.043960571289062 47.83378601074219 3 42.5 3 M 42.5 0 C 65.97210693359375 0 85 19.02789306640625 85 42.5 C 85 65.97210693359375 65.97210693359375 85 42.5 85 C 19.02789306640625 85 0 65.97210693359375 0 42.5 C 0 19.02789306640625 19.02789306640625 0 42.5 0 Z" stroke="none" fill="#1d7083"/>
                        </g>
                      </g>
                    </g>
                  </g>
                </g>
              </g>
            </g>
          </g>
        </g>
      </g>
    </g>
    <g id="FilledOutline" transform="translate(1143.477 3479.864)">
      <path id="Trazado_1052467" data-name="Trazado 1052467" d="M112,72h35.162v48.837H112Z" transform="translate(-84.307 -35.189)" fill="#ccdce5"/>
      <path id="Trazado_1052468" data-name="Trazado 1052468" d="M38.648,40a14.651,14.651,0,0,0-10.36,25.011l10.36-10.36Z" transform="translate(-7.047 -7.096)" fill="#ffc119"/>
      <path id="Trazado_1052469" data-name="Trazado 1052469" d="M154.36,44.291A14.605,14.605,0,0,0,144,40V69.3a14.651,14.651,0,0,0,10.36-25.011Z" transform="translate(-112.4 -7.096)" fill="#88bf40"/>
      <path id="Trazado_1052470" data-name="Trazado 1052470" d="M59.147,170.36a14.605,14.605,0,0,0,10.36,4.291V160Z" transform="translate(-37.907 -112.445)" fill="#ef5249"/>
      <path id="Trazado_1052471" data-name="Trazado 1052471" d="M31.6,63.183A15.648,15.648,0,0,0,46.453,42.671h8.589V40.718H45.661A15.632,15.632,0,1,0,31.6,63.183Zm-.977-1.988a13.552,13.552,0,0,1-7.977-3.3l7.977-7.977ZM43.448,40.718H39.414v1.953H44.38a13.682,13.682,0,0,1-11.8,18.523V33.915a13.572,13.572,0,0,1,8.693,3.971A13.745,13.745,0,0,1,43.448,40.718ZM21.931,37.886a13.572,13.572,0,0,1,8.692-3.971V47.15l-9.359,9.359a13.674,13.674,0,0,1,.666-18.623Z" transform="translate(0)"/>
      <path id="Trazado_1052472" data-name="Trazado 1052472" d="M104,93.3v20.511a.977.977,0,0,0,.977.977h35.162a.977.977,0,0,0,.977-.977V64.977a.977.977,0,0,0-.977-.977h-16.6v1.953h15.628v46.883H105.953V93.3Z" transform="translate(-77.283 -28.166)"/>
      <path id="Trazado_1052473" data-name="Trazado 1052473" d="M352,104h1.953v1.953H352Z" transform="translate(-295.005 -63.282)"/>
      <path id="Trazado_1052474" data-name="Trazado 1052474" d="M352,144h1.953v11.721H352Z" transform="translate(-295.005 -98.399)"/>
      <path id="Trazado_1052475" data-name="Trazado 1052475" d="M320,144h1.953v7.814H320Z" transform="translate(-266.912 -98.399)"/>
      <path id="Trazado_1052476" data-name="Trazado 1052476" d="M288,144h1.953v2.93H288Z" transform="translate(-238.818 -98.399)"/>
      <path id="Trazado_1052477" data-name="Trazado 1052477" d="M148.07,312.968l-2.93,4.884,1.675,1.005,2.752-4.587,6.134-2.231,4.315,3.319-.885,1.107-6.454.922a.979.979,0,0,0-.43.172l-6.837,4.884,1.135,1.59,6.643-4.745,6.6-.943a.977.977,0,0,0,.625-.357l1.15-1.438,3.352,2.578a.978.978,0,0,0,.435.189l5.86.977.321-1.927-5.619-.936-3.129-2.407,2.034-2.543,5.243,1.907.668-1.836-4.622-1.681,2.121-2.651L166.7,307l-2.534,3.167-4.184-1.521a.977.977,0,0,0-.668,0l-3.276,1.191-2.632-2.024a.977.977,0,0,0-.734-.193l-6.837.977.276,1.934,6.43-.919,1.321,1.016-5.292,1.924A.978.978,0,0,0,148.07,312.968Zm11.582-2.365,3.229,1.174-1.645,2.056-3.36-2.585Z" transform="translate(-113.4 -241.498)"/>
      <path id="Trazado_1052478" data-name="Trazado 1052478" d="M256,264h1.953v1.953H256Z" transform="translate(-210.725 -203.748)"/>
      <path id="Trazado_1052479" data-name="Trazado 1052479" d="M288,264h9.767v1.953H288Z" transform="translate(-238.818 -203.748)"/>
    </g>
  </g>
</svg>
