<svg xmlns="http://www.w3.org/2000/svg" xmlns:xlink="http://www.w3.org/1999/xlink" width="103" height="103" viewBox="0 0 103 103">
  <defs>
    <filter id="Trazado_982547" x="0" y="0" width="103" height="103" filterUnits="userSpaceOnUse">
      <feOffset dy="3" input="SourceAlpha"/>
      <feGaussianBlur stdDeviation="3" result="blur"/>
      <feFlood flood-opacity="0.161"/>
      <feComposite operator="in" in2="blur"/>
      <feComposite in="SourceGraphic"/>
    </filter>
  </defs>
  <g id="Grupo_1207676" data-name="Grupo 1207676" transform="translate(-191 -3890)">
    <g id="Grupo_1207601" data-name="Grupo 1207601" transform="translate(0 226.5)">
      <g id="Grupo_1207313" data-name="Grupo 1207313" transform="translate(0 2919.5)">
        <g id="Grupo_1202212" data-name="Grupo 1202212" transform="translate(-80 -126.414)">
          <g id="Grupo_1174813" data-name="Grupo 1174813" transform="translate(280 876.414)">
            <g id="Grupo_1201680" data-name="Grupo 1201680">
              <g id="Grupo_1201330" data-name="Grupo 1201330">
                <g id="Grupo_1172010" data-name="Grupo 1172010">
                  <g id="Grupo_1171046" data-name="Grupo 1171046">
                    <g id="Grupo_1148525" data-name="Grupo 1148525">
                      <g transform="matrix(1, 0, 0, 1, -9, -6)" filter="url(#Trazado_982547)">
                        <g id="Trazado_982547-2" data-name="Trazado 982547" transform="translate(9 6)" fill="#f2f7e5">
                          <path d="M 42.5 83.5 C 36.96437835693359 83.5 31.59512901306152 82.41617584228516 26.54141235351562 80.27863311767578 C 21.65934181213379 78.21369171142578 17.27447128295898 75.25723266601562 13.50862312316895 71.49137878417969 C 9.742764472961426 67.72553253173828 6.786305904388428 63.34066009521484 4.721364498138428 58.45858764648438 C 2.583823442459106 53.40486907958984 1.5 48.03562164306641 1.5 42.5 C 1.5 36.96437835693359 2.583823442459106 31.59512901306152 4.721364498138428 26.54141235351562 C 6.786305904388428 21.65934181213379 9.742764472961426 17.27448272705078 13.50862312316895 13.50862312316895 C 17.27447128295898 9.742776870727539 21.65934181213379 6.786305904388428 26.54141235351562 4.721364498138428 C 31.59512901306152 2.583823442459106 36.96437835693359 1.5 42.5 1.5 C 48.03562164306641 1.5 53.40486907958984 2.583823442459106 58.45858764648438 4.721364498138428 C 63.34066009521484 6.786305904388428 67.72553253173828 9.742776870727539 71.49137878417969 13.50862312316895 C 75.25723266601562 17.27448272705078 78.21369171142578 21.65934181213379 80.27863311767578 26.54141235351562 C 82.41617584228516 31.59512901306152 83.5 36.96437835693359 83.5 42.5 C 83.5 48.03562164306641 82.41617584228516 53.40486907958984 80.27863311767578 58.45858764648438 C 78.21369171142578 63.34066009521484 75.25723266601562 67.72553253173828 71.49137878417969 71.49137878417969 C 67.72553253173828 75.25723266601562 63.34066009521484 78.21369171142578 58.45858764648438 80.27863311767578 C 53.40486907958984 82.41617584228516 48.03562164306641 83.5 42.5 83.5 Z" stroke="none"/>
                          <path d="M 42.5 3 C 37.16621398925781 3 31.99356079101562 4.043960571289062 27.125732421875 6.102882385253906 C 22.42246627807617 8.092185974121094 18.19785308837891 10.94070434570312 14.56928253173828 14.56928253173828 C 10.94070434570312 18.19785308837891 8.092185974121094 22.42246627807617 6.102882385253906 27.125732421875 C 4.043960571289062 31.99356079101562 3 37.16621398925781 3 42.5 C 3 47.83378601074219 4.043960571289062 53.00643920898438 6.102882385253906 57.874267578125 C 8.092185974121094 62.57753372192383 10.94070434570312 66.80214691162109 14.56928253173828 70.43071746826172 C 18.19785308837891 74.05929565429688 22.42246627807617 76.90781402587891 27.125732421875 78.89711761474609 C 31.99356079101562 80.95603942871094 37.16621398925781 82 42.5 82 C 47.83378601074219 82 53.00643920898438 80.95603942871094 57.874267578125 78.89711761474609 C 62.57753372192383 76.90781402587891 66.80214691162109 74.05929565429688 70.43071746826172 70.43071746826172 C 74.05929565429688 66.80214691162109 76.90781402587891 62.57753372192383 78.89711761474609 57.874267578125 C 80.95603942871094 53.00643920898438 82 47.83378601074219 82 42.5 C 82 37.16621398925781 80.95603942871094 31.99356079101562 78.89711761474609 27.125732421875 C 76.90781402587891 22.42246627807617 74.05929565429688 18.19785308837891 70.43071746826172 14.56928253173828 C 66.80214691162109 10.94070434570312 62.57753372192383 8.092185974121094 57.874267578125 6.102882385253906 C 53.00643920898438 4.043960571289062 47.83378601074219 3 42.5 3 M 42.5 0 C 65.97210693359375 0 85 19.02789306640625 85 42.5 C 85 65.97210693359375 65.97210693359375 85 42.5 85 C 19.02789306640625 85 0 65.97210693359375 0 42.5 C 0 19.02789306640625 19.02789306640625 0 42.5 0 Z" stroke="none" fill="#1d7083"/>
                        </g>
                      </g>
                    </g>
                  </g>
                </g>
              </g>
            </g>
          </g>
        </g>
      </g>
    </g>
    <g id="layer1-0" transform="translate(218.554 3912.114)">
      <path id="ellipse10166" d="M12.131,3.553a1.7,1.7,0,1,1-1.7-1.7A1.7,1.7,0,0,1,12.131,3.553Z" transform="translate(23.413 0.585)" fill="#a0bf05"/>
      <path id="ellipse10164" d="M5.251,3.553a1.7,1.7,0,1,1-1.7-1.7A1.7,1.7,0,0,1,5.251,3.553Z" transform="translate(8.194 0.585)" fill="#a0bf05"/>
      <path id="ellipse10162" d="M2.076,6.728a1.7,1.7,0,1,1-1.7-1.7A1.7,1.7,0,0,1,2.076,6.728Z" transform="translate(1.171 7.609)" fill="#f55"/>
      <path id="ellipse10141" d="M17.009,8.5A8.5,8.5,0,1,1,8.5,0,8.5,8.5,0,0,1,17.009,8.5Z" transform="translate(22.792 2.309) rotate(45)" fill="#ffca28"/>
      <path id="ellipse10153" d="M10.209,5.1A5.1,5.1,0,1,1,5.1,0,5.1,5.1,0,0,1,10.209,5.1Z" transform="translate(22.792 7.116) rotate(45)" fill="#e4eff8"/>
      <path id="ellipse10157" d="M9.41,3.968a5.095,5.095,0,0,0-2.727,9.458,5.1,5.1,0,0,1,7.005-7.01A5.069,5.069,0,0,0,9.41,3.968Z" transform="translate(13.459 5.264)" fill="#c4dcf0"/>
      <path id="ellipse10150" d="M5.557,2.958a8.5,8.5,0,0,1,0,16.913,8.505,8.505,0,1,0,0-16.913Z" transform="translate(16.389 2.923)" fill="#ecb200"/>
      <path id="ellipse10145" d="M5.663,5.4a8.5,8.5,0,0,0,6.864,14.47,8.5,8.5,0,0,1,0-16.913q-.362-.04-.727-.048A8.5,8.5,0,0,0,5.663,5.4Z" transform="translate(11.117 2.922)" fill="#f5f9fb"/>
      <path id="path10127" d="M11.536,9.25l-6,7.452a2.524,2.524,0,0,1-3.7.054,2.524,2.524,0,0,1,.054-3.7l7.455-6" transform="translate(6.441 12.096)" fill="#427096"/>
      <path id="path10136" d="M9.347,7.056l-7.455,6a2.524,2.524,0,0,0-.055,3.7,2.581,2.581,0,0,0,.307.249,2.43,2.43,0,0,1,.611-2.867l7.455-6L11.44,9.37l.1-.12Z" transform="translate(6.441 12.096)" fill="#f5f9fb"/>
      <path id="path10131" d="M9,7.056l-.319.256.876.878-6,7.452a2.362,2.362,0,0,1-2.339.779,2.592,2.592,0,0,0,.272.337,2.524,2.524,0,0,0,3.7-.055l6-7.452Z" transform="translate(6.789 12.096)" fill="#365b7a"/>
      <path id="path10117" d="M5.82,9.525h8.5V34.173H5.82Z" transform="translate(16.974 17.559)" fill="#ff5151"/>
      <path id="path10119" d="M5.82,9.525V34.173h1.7V9.525Z" transform="translate(16.974 17.559)" fill="#f5f9fb"/>
      <path id="path10121" d="M7.672,9.525h2.55V34.173H7.672Z" transform="translate(21.071 17.559)" fill="#ff2929"/>
      <path id="path10110" d="M-1.588,14.817h8.5v7.649h-8.5Z" transform="translate(0.585 29.266)" fill="#ff5151"/>
      <path id="path10112" d="M-1.588,14.817v7.649h1.7V14.817Z" transform="translate(0.585 29.266)" fill="#f5f9fb"/>
      <path id="path10115" d="M.264,14.817h2.55v7.649H.264Z" transform="translate(4.683 29.266)" fill="#ff2929"/>
      <path id="path10101" d="M9.524,6.88h8.5V40.026h-8.5Z" transform="translate(25.169 11.706)" fill="#a0bf05"/>
      <path id="path10106" d="M9.524,6.88V40.026h1.7V6.88Z" transform="translate(25.169 11.706)" fill="#f5f9fb"/>
      <path id="path10125" d="M14.151,15.571v-3.4h-3.4v3.4H8.2l4.25,4.25,4.249-4.25Z" transform="translate(22.242 23.412)" fill="#ff5151"/>
      <path id="path10108" d="M11.377,6.88h2.55V40.026h-2.55Z" transform="translate(29.266 11.706)" fill="#809804"/>
      <path id="path10080" d="M2.116,12.171h8.5V28.319h-8.5Z" transform="translate(8.78 23.412)" fill="#a0bf05"/>
      <path id="path10091" d="M2.116,12.171V28.319h1.7V12.171Z" transform="translate(8.78 23.412)" fill="#f5f9fb"/>
      <path id="ellipse10160" d="M8.691,6.728a1.7,1.7,0,1,1-1.7-1.7,1.7,1.7,0,0,1,1.7,1.7Z" transform="translate(15.803 7.609)" fill="#f55"/>
      <path id="path10096" d="M3.968,12.171h2.55V28.319H3.968Z" transform="translate(12.877 23.412)" fill="#809804"/>
      <path id="path10123" d="M13.093,15.1v3.4h-3.4V15.1H7.143l4.25-4.25,4.249,4.25Z" transform="translate(19.901 20.486)" fill="#a0bf05"/>
      <path id="path10094" d="M9.2,4.137a2.549,2.549,0,0,0,.251,1.1l-6.8,6.8a2.563,2.563,0,1,0,1.2,1.2l6.806-6.8a2.536,2.536,0,0,0,2.281-.045l2.452,2.261a9.349,9.349,0,0,0-.7,10.3L7.8,24.492a3.426,3.426,0,1,0,4.837,4.844.041.041,0,0,0,.007-.006l5.534-6.877A9.336,9.336,0,0,0,30.2,8.653l2.45-2.261A2.554,2.554,0,1,0,31.5,5.142L29.051,7.4a9.3,9.3,0,0,0-12.511,0L14.088,5.142a2.549,2.549,0,1,0-4.892-1Zm2.55-.85a.85.85,0,1,1-.85.85A.85.85,0,0,1,11.746,3.288Zm22.1,0a.85.85,0,1,1-.85.85A.85.85,0,0,1,33.843,3.288Zm-10.937,3.4a7.65,7.65,0,0,1,4.9,1.869L26.544,9.719a5.945,5.945,0,0,0-7.5,0L17.791,8.563a7.649,7.649,0,0,1,4.9-1.874q.107,0,.214,0ZM48.277,9.223a.851.851,0,0,0-.835.866v6.8h-.85a.85.85,0,1,0,0,1.7h.85v6.8h-.85a.85.85,0,1,0,0,1.7h.85v6.8h-.85a.85.85,0,1,0,0,1.7h.85v6.8h-.85a.85.85,0,1,0,0,1.7h.85v5.952a.847.847,0,0,1-.847.847H44.042V18.585a.851.851,0,0,0-.853-.851H34.7a.851.851,0,0,0-.853.851V32.677l-1.7-1.7V27.085a.851.851,0,0,0-.853-.852H22.8a.851.851,0,0,0-.853.852V50.879h-1.7V35.574a.851.851,0,0,0-.853-.852H10.9a.851.851,0,0,0-.853.852V50.879h-1.7V44.072a.851.851,0,0,0-.853-.852H-1a.851.851,0,0,0-.853.852v7.655A.851.851,0,0,0-1,52.579q23.8.01,47.594,0a2.553,2.553,0,0,0,2.546-2.546V10.09a.85.85,0,0,0-.865-.866Zm-31.641.586,1.258,1.16a5.947,5.947,0,1,0,9.8,0L28.95,9.811a7.644,7.644,0,1,1-12.314,0Zm6.22.277a4.25,4.25,0,0,1,2.422.8l-1.291,1.193a2.539,2.539,0,0,0-2.384,0l-1.29-1.19a4.25,4.25,0,0,1,2.543-.807ZM19.163,12.14l1.291,1.192a2.549,2.549,0,1,0,4.683,0l1.29-1.19a4.247,4.247,0,1,1-7.264,0ZM1.547,13.486a.85.85,0,1,1-.85.85A.85.85,0,0,1,1.547,13.486Zm21.248,0a.85.85,0,1,1-.85.85A.85.85,0,0,1,22.795,13.486Zm12.748,5.957h6.8V50.878h-6.8v-7.3l4-4a.85.85,0,0,0-.6-1.449h-1.7V35.579a.85.85,0,0,0-.847-.848h-.5l-.355-.355Zm-19.888.91q.252.308.53.594t.589.534l-5.458,6.776A1.73,1.73,0,0,1,8.869,25.81Zm7.989,7.591h6.8v3.041l-4,4a.85.85,0,0,0,.6,1.451h1.7v2.553a.85.85,0,0,0,.853.847h.5l.349.349V50.869h-6.8Zm7.652,4.59,2.2,2.2H33a.808.808,0,0,0-.855.85V38.13h-1.7V35.582a.85.85,0,0,0-.847-.853h-.5Zm-19.551,3.9h6.8V50.869h-6.8Zm22.1,0h1.7v2.546a.85.85,0,0,0,.853.853h.495l-2.2,2.2-2.2-2.2h.5a.849.849,0,0,0,.85-.848Zm-1.7,5.446,1.7,1.7v7.3h-1.7ZM-.153,44.93h6.8v5.939h-6.8Z" transform="translate(0)" fill="#333"/>
    </g>
  </g>
</svg>
