<svg xmlns="http://www.w3.org/2000/svg" width="90.997" height="90.997" viewBox="0 0 90.997 90.997">
  <g id="icons8-software-tableau" transform="translate(-1 -1)">
    <rect id="Rectángulo_419523" data-name="Rectángulo 419523" width="3.033" height="18.199" transform="translate(44.982 1)" fill="#78909c"/>
    <rect id="Rectángulo_419524" data-name="Rectángulo 419524" width="18.199" height="3.033" transform="translate(37.399 8.583)" fill="#78909c"/>
    <rect id="Rectángulo_419525" data-name="Rectángulo 419525" width="3.033" height="18.199" transform="translate(81.38 37.399)" fill="#5c6bc0"/>
    <rect id="Rectángulo_419526" data-name="Rectángulo 419526" width="18.199" height="3.033" transform="translate(73.797 44.982)" fill="#5c6bc0"/>
    <rect id="Rectángulo_419527" data-name="Rectángulo 419527" width="3.033" height="18.199" transform="translate(8.583 37.399)" fill="#78909c"/>
    <rect id="Rectángulo_419528" data-name="Rectángulo 419528" width="18.199" height="3.033" transform="translate(1 44.982)" fill="#78909c"/>
    <rect id="Rectángulo_419529" data-name="Rectángulo 419529" width="3.033" height="18.199" transform="translate(44.982 73.797)" fill="#5c6bc0"/>
    <rect id="Rectángulo_419530" data-name="Rectángulo 419530" width="18.199" height="3.033" transform="translate(37.399 81.38)" fill="#5c6bc0"/>
    <rect id="Rectángulo_419531" data-name="Rectángulo 419531" width="35" height="7" transform="translate(28.998 42.998)" fill="#e8762d"/>
    <rect id="Rectángulo_419532" data-name="Rectángulo 419532" width="7" height="35" transform="translate(42.998 28.998)" fill="#e8762d"/>
    <rect id="Rectángulo_419533" data-name="Rectángulo 419533" width="4" height="28" transform="translate(20.998 10.998)" fill="#ffa000"/>
    <rect id="Rectángulo_419534" data-name="Rectángulo 419534" width="28" height="4" transform="translate(8.998 22.998)" fill="#ffa000"/>
    <rect id="Rectángulo_419535" data-name="Rectángulo 419535" width="4" height="28" transform="translate(67.998 10.998)" fill="#607d8b"/>
    <rect id="Rectángulo_419536" data-name="Rectángulo 419536" width="28" height="4" transform="translate(55.998 22.998)" fill="#607d8b"/>
    <rect id="Rectángulo_419537" data-name="Rectángulo 419537" width="4" height="28" transform="translate(20.998 53.998)" fill="#c62828"/>
    <rect id="Rectángulo_419538" data-name="Rectángulo 419538" width="28" height="4" transform="translate(8.998 65.998)" fill="#c62828"/>
    <rect id="Rectángulo_419539" data-name="Rectángulo 419539" width="4" height="28" transform="translate(67.998 53.998)" fill="#0d47a1"/>
    <rect id="Rectángulo_419540" data-name="Rectángulo 419540" width="28" height="4" transform="translate(55.998 65.998)" fill="#0d47a1"/>
  </g>
</svg>
