<svg xmlns="http://www.w3.org/2000/svg" xmlns:xlink="http://www.w3.org/1999/xlink" width="103" height="103" viewBox="0 0 103 103">
  <defs>
    <filter id="Trazado_982547" x="0" y="0" width="103" height="103" filterUnits="userSpaceOnUse">
      <feOffset dy="3" input="SourceAlpha"/>
      <feGaussianBlur stdDeviation="3" result="blur"/>
      <feFlood flood-opacity="0.161"/>
      <feComposite operator="in" in2="blur"/>
      <feComposite in="SourceGraphic"/>
    </filter>
  </defs>
  <g id="Grupo_1207659" data-name="Grupo 1207659" transform="translate(-191 -3490.203)">
    <g id="Grupo_1207595" data-name="Grupo 1207595" transform="translate(0 -173.297)">
      <g id="Grupo_1207313" data-name="Grupo 1207313" transform="translate(0 2919.5)">
        <g id="Grupo_1202212" data-name="Grupo 1202212" transform="translate(-80 -126.414)">
          <g id="Grupo_1174813" data-name="Grupo 1174813" transform="translate(280 876.414)">
            <g id="Grupo_1201680" data-name="Grupo 1201680">
              <g id="Grupo_1201330" data-name="Grupo 1201330">
                <g id="Grupo_1172010" data-name="Grupo 1172010">
                  <g id="Grupo_1171046" data-name="Grupo 1171046">
                    <g id="Grupo_1148525" data-name="Grupo 1148525">
                      <g transform="matrix(1, 0, 0, 1, -9, -6)" filter="url(#Trazado_982547)">
                        <g id="Trazado_982547-2" data-name="Trazado 982547" transform="translate(9 6)" fill="#f2f7e5">
                          <path d="M 42.5 83.5 C 36.96437835693359 83.5 31.59512901306152 82.41617584228516 26.54141235351562 80.27863311767578 C 21.65934181213379 78.21369171142578 17.27447128295898 75.25723266601562 13.50862312316895 71.49137878417969 C 9.742764472961426 67.72553253173828 6.786305904388428 63.34066009521484 4.721364498138428 58.45858764648438 C 2.583823442459106 53.40486907958984 1.5 48.03562164306641 1.5 42.5 C 1.5 36.96437835693359 2.583823442459106 31.59512901306152 4.721364498138428 26.54141235351562 C 6.786305904388428 21.65934181213379 9.742764472961426 17.27448272705078 13.50862312316895 13.50862312316895 C 17.27447128295898 9.742776870727539 21.65934181213379 6.786305904388428 26.54141235351562 4.721364498138428 C 31.59512901306152 2.583823442459106 36.96437835693359 1.5 42.5 1.5 C 48.03562164306641 1.5 53.40486907958984 2.583823442459106 58.45858764648438 4.721364498138428 C 63.34066009521484 6.786305904388428 67.72553253173828 9.742776870727539 71.49137878417969 13.50862312316895 C 75.25723266601562 17.27448272705078 78.21369171142578 21.65934181213379 80.27863311767578 26.54141235351562 C 82.41617584228516 31.59512901306152 83.5 36.96437835693359 83.5 42.5 C 83.5 48.03562164306641 82.41617584228516 53.40486907958984 80.27863311767578 58.45858764648438 C 78.21369171142578 63.34066009521484 75.25723266601562 67.72553253173828 71.49137878417969 71.49137878417969 C 67.72553253173828 75.25723266601562 63.34066009521484 78.21369171142578 58.45858764648438 80.27863311767578 C 53.40486907958984 82.41617584228516 48.03562164306641 83.5 42.5 83.5 Z" stroke="none"/>
                          <path d="M 42.5 3 C 37.16621398925781 3 31.99356079101562 4.043960571289062 27.125732421875 6.102882385253906 C 22.42246627807617 8.092185974121094 18.19785308837891 10.94070434570312 14.56928253173828 14.56928253173828 C 10.94070434570312 18.19785308837891 8.092185974121094 22.42246627807617 6.102882385253906 27.125732421875 C 4.043960571289062 31.99356079101562 3 37.16621398925781 3 42.5 C 3 47.83378601074219 4.043960571289062 53.00643920898438 6.102882385253906 57.874267578125 C 8.092185974121094 62.57753372192383 10.94070434570312 66.80214691162109 14.56928253173828 70.43071746826172 C 18.19785308837891 74.05929565429688 22.42246627807617 76.90781402587891 27.125732421875 78.89711761474609 C 31.99356079101562 80.95603942871094 37.16621398925781 82 42.5 82 C 47.83378601074219 82 53.00643920898438 80.95603942871094 57.874267578125 78.89711761474609 C 62.57753372192383 76.90781402587891 66.80214691162109 74.05929565429688 70.43071746826172 70.43071746826172 C 74.05929565429688 66.80214691162109 76.90781402587891 62.57753372192383 78.89711761474609 57.874267578125 C 80.95603942871094 53.00643920898438 82 47.83378601074219 82 42.5 C 82 37.16621398925781 80.95603942871094 31.99356079101562 78.89711761474609 27.125732421875 C 76.90781402587891 22.42246627807617 74.05929565429688 18.19785308837891 70.43071746826172 14.56928253173828 C 66.80214691162109 10.94070434570312 62.57753372192383 8.092185974121094 57.874267578125 6.102882385253906 C 53.00643920898438 4.043960571289062 47.83378601074219 3 42.5 3 M 42.5 0 C 65.97210693359375 0 85 19.02789306640625 85 42.5 C 85 65.97210693359375 65.97210693359375 85 42.5 85 C 19.02789306640625 85 0 65.97210693359375 0 42.5 C 0 19.02789306640625 19.02789306640625 0 42.5 0 Z" stroke="none" fill="#1d7083"/>
                        </g>
                      </g>
                    </g>
                  </g>
                </g>
              </g>
            </g>
          </g>
        </g>
      </g>
    </g>
    <g id="increase_8994823" transform="translate(212.099 3507.96)">
      <g id="Flat" transform="translate(2.424 3.424)">
        <g id="Grupo_1207658" data-name="Grupo 1207658" transform="translate(0 0)">
          <rect id="Rectángulo_419571" data-name="Rectángulo 419571" width="5.395" height="35.069" rx="0.5" transform="translate(40.465 13.488)" fill="#7dfad0"/>
          <rect id="Rectángulo_419572" data-name="Rectángulo 419572" width="5.395" height="35.069" rx="0.5" transform="translate(48.557 13.488)" fill="#7dfad0"/>
          <rect id="Rectángulo_419573" data-name="Rectángulo 419573" width="5.395" height="18.883" rx="0.5" transform="translate(24.279 29.674)" fill="#7dfad0"/>
          <rect id="Rectángulo_419574" data-name="Rectángulo 419574" width="5.395" height="10.791" rx="0.5" transform="translate(16.186 37.767)" fill="#7dfad0"/>
          <rect id="Rectángulo_419575" data-name="Rectángulo 419575" width="5.395" height="5.395" rx="0.5" transform="translate(8.093 43.162)" fill="#7dfad0"/>
          <rect id="Rectángulo_419576" data-name="Rectángulo 419576" width="5.395" height="5.395" rx="0.5" transform="translate(0 43.162)" fill="#7dfad0"/>
          <rect id="Rectángulo_419577" data-name="Rectángulo 419577" width="5.395" height="29.674" rx="0.5" transform="translate(32.372 18.883)" fill="#7dfad0"/>
          <circle id="Elipse_13436" data-name="Elipse 13436" cx="1.349" cy="1.349" r="1.349" transform="translate(1.349 29.674)" fill="#7dfad0"/>
          <circle id="Elipse_13437" data-name="Elipse 13437" cx="1.349" cy="1.349" r="1.349" transform="translate(9.442 29.674)" fill="#7dfad0"/>
          <circle id="Elipse_13438" data-name="Elipse 13438" cx="1.349" cy="1.349" r="1.349" transform="translate(17.535 24.279)" fill="#7dfad0"/>
          <circle id="Elipse_13439" data-name="Elipse 13439" cx="1.349" cy="1.349" r="1.349" transform="translate(25.628 16.186)" fill="#7dfad0"/>
          <circle id="Elipse_13440" data-name="Elipse 13440" cx="1.349" cy="1.349" r="1.349" transform="translate(33.72 5.395)" fill="#7dfad0"/>
          <circle id="Elipse_13441" data-name="Elipse 13441" cx="1.349" cy="1.349" r="1.349" transform="translate(41.813)" fill="#7dfad0"/>
          <circle id="Elipse_13442" data-name="Elipse 13442" cx="1.349" cy="1.349" r="1.349" transform="translate(49.906)" fill="#7dfad0"/>
        </g>
        <path id="Trazado_1052420" data-name="Trazado 1052420" d="M4.7,23.046a2.018,2.018,0,0,0,.54,1.349H3.349A1.336,1.336,0,0,1,2,23.046v-2.7A1.336,1.336,0,0,1,3.349,19H5.237a2.018,2.018,0,0,0-.54,1.349Z" transform="translate(-2 24.162)" fill="#70e1bb"/>
        <path id="Trazado_1052421" data-name="Trazado 1052421" d="M7.7,23.046a2.018,2.018,0,0,0,.54,1.349H6.349A1.336,1.336,0,0,1,5,23.046v-2.7A1.336,1.336,0,0,1,6.349,19H8.237a2.018,2.018,0,0,0-.54,1.349Z" transform="translate(3.093 24.162)" fill="#70e1bb"/>
        <path id="Trazado_1052422" data-name="Trazado 1052422" d="M10.7,26.442a2.018,2.018,0,0,0,.54,1.349H9.349A1.336,1.336,0,0,1,8,26.442V18.349A1.336,1.336,0,0,1,9.349,17h1.888a2.018,2.018,0,0,0-.54,1.349Z" transform="translate(8.186 20.767)" fill="#70e1bb"/>
        <path id="Trazado_1052423" data-name="Trazado 1052423" d="M13.7,31.535a2.018,2.018,0,0,0,.54,1.349H12.349A1.336,1.336,0,0,1,11,31.535V15.349A1.336,1.336,0,0,1,12.349,14h1.888a2.018,2.018,0,0,0-.54,1.349Z" transform="translate(13.279 15.674)" fill="#70e1bb"/>
        <path id="Trazado_1052424" data-name="Trazado 1052424" d="M16.7,38.325a2.018,2.018,0,0,0,.54,1.349H15.349A1.336,1.336,0,0,1,14,38.325V11.349A1.336,1.336,0,0,1,15.349,10h1.888a2.018,2.018,0,0,0-.54,1.349Z" transform="translate(18.372 8.883)" fill="#70e1bb"/>
        <path id="Trazado_1052425" data-name="Trazado 1052425" d="M19.7,41.72a2.018,2.018,0,0,0,.54,1.349H18.349A1.336,1.336,0,0,1,17,41.72V9.349A1.336,1.336,0,0,1,18.349,8h1.888a2.018,2.018,0,0,0-.54,1.349Z" transform="translate(23.465 5.488)" fill="#70e1bb"/>
        <path id="Trazado_1052426" data-name="Trazado 1052426" d="M22.7,41.72a2.018,2.018,0,0,0,.54,1.349H21.349A1.336,1.336,0,0,1,20,41.72V9.349A1.336,1.336,0,0,1,21.349,8h1.888a2.018,2.018,0,0,0-.54,1.349Z" transform="translate(28.557 5.488)" fill="#70e1bb"/>
        <path id="Trazado_1052427" data-name="Trazado 1052427" d="M6.849,15.349a1.875,1.875,0,0,0,.459,1.268,1.26,1.26,0,0,1-.459.081,1.349,1.349,0,1,1,0-2.7,1.26,1.26,0,0,1,.459.081A1.875,1.875,0,0,0,6.849,15.349Z" transform="translate(3.942 15.674)" fill="#70e1bb"/>
        <path id="Trazado_1052428" data-name="Trazado 1052428" d="M9.849,13.349a1.875,1.875,0,0,0,.459,1.268,1.26,1.26,0,0,1-.459.081,1.349,1.349,0,1,1,0-2.7,1.26,1.26,0,0,1,.459.081,1.875,1.875,0,0,0-.459,1.268Z" transform="translate(9.035 12.279)" fill="#70e1bb"/>
        <path id="Trazado_1052429" data-name="Trazado 1052429" d="M12.849,10.349a1.875,1.875,0,0,0,.459,1.268,1.26,1.26,0,0,1-.459.081,1.349,1.349,0,0,1,0-2.7,1.26,1.26,0,0,1,.459.081A1.875,1.875,0,0,0,12.849,10.349Z" transform="translate(14.128 7.186)" fill="#70e1bb"/>
        <path id="Trazado_1052430" data-name="Trazado 1052430" d="M3.849,15.349a1.875,1.875,0,0,0,.459,1.268,1.26,1.26,0,0,1-.459.081,1.349,1.349,0,1,1,0-2.7,1.26,1.26,0,0,1,.459.081,1.875,1.875,0,0,0-.459,1.268Z" transform="translate(-1.151 15.674)" fill="#70e1bb"/>
        <path id="Trazado_1052431" data-name="Trazado 1052431" d="M15.849,6.349a1.875,1.875,0,0,0,.459,1.268,1.26,1.26,0,0,1-.459.081,1.349,1.349,0,0,1,0-2.7,1.26,1.26,0,0,1,.459.081,1.875,1.875,0,0,0-.459,1.268Z" transform="translate(19.221 0.395)" fill="#70e1bb"/>
        <path id="Trazado_1052432" data-name="Trazado 1052432" d="M18.849,4.349a1.875,1.875,0,0,0,.459,1.268,1.26,1.26,0,0,1-.459.081,1.349,1.349,0,1,1,0-2.7,1.26,1.26,0,0,1,.459.081,1.875,1.875,0,0,0-.459,1.268Z" transform="translate(24.313 -3)" fill="#70e1bb"/>
        <path id="Trazado_1052433" data-name="Trazado 1052433" d="M21.849,4.349a1.875,1.875,0,0,0,.459,1.268,1.26,1.26,0,0,1-.459.081,1.349,1.349,0,0,1,0-2.7,1.26,1.26,0,0,1,.459.081,1.875,1.875,0,0,0-.459,1.268Z" transform="translate(29.406 -3)" fill="#70e1bb"/>
      </g>
      <g id="Outline" transform="translate(1.75 2.75)">
        <path id="Trazado_1052434" data-name="Trazado 1052434" d="M21.471,7.75h-2.7A2.026,2.026,0,0,0,16.75,9.773v1.349a.674.674,0,1,0,1.349,0V9.773a.674.674,0,0,1,.674-.674h2.7a.674.674,0,0,1,.674.674V42.145a.674.674,0,0,1-.674.674h-2.7a.674.674,0,0,1-.674-.674V13.82a.674.674,0,1,0-1.349,0V42.145a2.026,2.026,0,0,0,2.023,2.023h2.7a2.026,2.026,0,0,0,2.023-2.023V9.773A2.026,2.026,0,0,0,21.471,7.75Z" transform="translate(23.715 5.738)" fill="#231f20"/>
        <path id="Trazado_1052435" data-name="Trazado 1052435" d="M25.82,36.075a.674.674,0,0,0,.674-.674V9.773A2.026,2.026,0,0,0,24.471,7.75h-2.7A2.026,2.026,0,0,0,19.75,9.773V42.145a2.026,2.026,0,0,0,2.023,2.023h2.7a2.026,2.026,0,0,0,2.023-2.023V38.1a.674.674,0,1,0-1.349,0v4.046a.674.674,0,0,1-.674.674h-2.7a.674.674,0,0,1-.674-.674V9.773a.674.674,0,0,1,.674-.674h2.7a.674.674,0,0,1,.674.674V35.4A.674.674,0,0,0,25.82,36.075Z" transform="translate(28.807 5.738)" fill="#231f20"/>
        <path id="Trazado_1052436" data-name="Trazado 1052436" d="M15.471,13.75h-2.7a2.026,2.026,0,0,0-2.023,2.023V31.959a2.026,2.026,0,0,0,2.023,2.023h2.7a2.026,2.026,0,0,0,2.023-2.023V22.517a.674.674,0,0,0-1.349,0v9.442a.674.674,0,0,1-.674.674h-2.7a.674.674,0,0,1-.674-.674V15.773a.674.674,0,0,1,.674-.674h2.7a.674.674,0,0,1,.674.674V19.82a.674.674,0,0,0,1.349,0V15.773a2.026,2.026,0,0,0-2.023-2.023Z" transform="translate(13.529 15.924)" fill="#231f20"/>
        <path id="Trazado_1052437" data-name="Trazado 1052437" d="M12.471,16.75h-2.7A2.026,2.026,0,0,0,7.75,18.773v8.093a2.026,2.026,0,0,0,2.023,2.023h2.7a2.026,2.026,0,0,0,2.023-2.023V18.773A2.026,2.026,0,0,0,12.471,16.75Zm.674,10.116a.674.674,0,0,1-.674.674h-2.7a.674.674,0,0,1-.674-.674V18.773a.674.674,0,0,1,.674-.674h2.7a.674.674,0,0,1,.674.674Z" transform="translate(8.436 21.017)" fill="#231f20"/>
        <path id="Trazado_1052438" data-name="Trazado 1052438" d="M9.471,18.75h-2.7A2.026,2.026,0,0,0,4.75,20.773v2.7a2.026,2.026,0,0,0,2.023,2.023h2.7a2.026,2.026,0,0,0,2.023-2.023v-2.7A2.026,2.026,0,0,0,9.471,18.75Zm.674,4.721a.674.674,0,0,1-.674.674h-2.7a.674.674,0,0,1-.674-.674v-2.7a.674.674,0,0,1,.674-.674h2.7a.674.674,0,0,1,.674.674Z" transform="translate(3.343 24.412)" fill="#231f20"/>
        <path id="Trazado_1052439" data-name="Trazado 1052439" d="M6.471,18.75h-2.7A2.026,2.026,0,0,0,1.75,20.773v2.7a2.026,2.026,0,0,0,2.023,2.023h2.7a2.026,2.026,0,0,0,2.023-2.023v-2.7A2.026,2.026,0,0,0,6.471,18.75Zm.674,4.721a.674.674,0,0,1-.674.674h-2.7a.674.674,0,0,1-.674-.674v-2.7a.674.674,0,0,1,.674-.674h2.7a.674.674,0,0,1,.674.674Z" transform="translate(-1.75 24.412)" fill="#231f20"/>
        <path id="Trazado_1052440" data-name="Trazado 1052440" d="M18.471,9.75h-2.7a2.026,2.026,0,0,0-2.023,2.023V38.75a2.026,2.026,0,0,0,2.023,2.023h2.7a2.026,2.026,0,0,0,2.023-2.023V11.773A2.026,2.026,0,0,0,18.471,9.75Zm.674,29a.674.674,0,0,1-.674.674h-2.7a.674.674,0,0,1-.674-.674V11.773a.674.674,0,0,1,.674-.674h2.7a.674.674,0,0,1,.674.674Z" transform="translate(18.622 9.133)" fill="#231f20"/>
        <path id="Trazado_1052441" data-name="Trazado 1052441" d="M52.831,6.8a2.023,2.023,0,1,0,0-4.046A2,2,0,0,0,51.1,3.79a15.754,15.754,0,0,0-4.645-.021A2,2,0,0,0,44.738,2.75a2.026,2.026,0,0,0-2.023,2.023l.008.039a17.178,17.178,0,0,0-5.171,3.573,1.969,1.969,0,0,0-.906-.24,2.026,2.026,0,0,0-2.023,2.023,1.972,1.972,0,0,0,.24.907,26.186,26.186,0,0,0-2.877,3.951,46.864,46.864,0,0,1-2.779,4.042,1.975,1.975,0,0,0-.654-.132,2.026,2.026,0,0,0-2.023,2.023,1.966,1.966,0,0,0,.278.963,59.087,59.087,0,0,1-5.4,5.376,1.966,1.966,0,0,0-.95-.27,2.026,2.026,0,0,0-2.023,2.023,1.993,1.993,0,0,0,.141.7,29.681,29.681,0,0,1-4.736,3.336,1.978,1.978,0,0,0-3.433,1.045,13.322,13.322,0,0,1-4.18-.021,2,2,0,0,0-1.954-1.683,2.023,2.023,0,0,0,0,4.046A2,2,0,0,0,6,35.432a14.961,14.961,0,0,0,2.4.24,14.5,14.5,0,0,0,2.248-.216,2,2,0,0,0,1.714,1.014,2.026,2.026,0,0,0,2.023-2.023c0-.041-.021-.076-.023-.116a30.478,30.478,0,0,0,5.092-3.561,1.963,1.963,0,0,0,1,.3,2.014,2.014,0,0,0,1.868-2.789,60.327,60.327,0,0,0,5.478-5.455,2,2,0,0,0,.747.151,2.026,2.026,0,0,0,2.023-2.023,1.964,1.964,0,0,0-.326-1.034,48.085,48.085,0,0,0,2.879-4.183,25.085,25.085,0,0,1,2.7-3.727,2,2,0,0,0,.812.177,2.026,2.026,0,0,0,2.023-2.023,2,2,0,0,0-.178-.814,15.959,15.959,0,0,1,4.725-3.288A1.969,1.969,0,0,0,46.7,5.1a14.457,14.457,0,0,1,4.181.022A2,2,0,0,0,52.831,6.8ZM4.273,35.122a.674.674,0,1,1,.674-.674A.674.674,0,0,1,4.273,35.122Zm8.093,0a.674.674,0,1,1,.674-.674A.674.674,0,0,1,12.366,35.122Zm8.093-5.4a.674.674,0,1,1,.674-.674A.674.674,0,0,1,20.459,29.726Zm8.093-8.093a.674.674,0,1,1,.674-.674A.674.674,0,0,1,28.552,21.633Zm8.093-10.791a.674.674,0,1,1,.674-.674A.674.674,0,0,1,36.645,10.843Zm8.093-5.4a.674.674,0,1,1,.674-.674A.674.674,0,0,1,44.738,5.448ZM52.831,4.1a.674.674,0,1,1-.674.674A.674.674,0,0,1,52.831,4.1Z" transform="translate(-0.901 -2.75)" fill="#231f20"/>
      </g>
    </g>
  </g>
</svg>
