<svg xmlns="http://www.w3.org/2000/svg" xmlns:xlink="http://www.w3.org/1999/xlink" width="113" height="113" viewBox="0 0 113 113">
  <defs>
    <filter id="Trazado_982547" x="0" y="0" width="113" height="113" filterUnits="userSpaceOnUse">
      <feOffset dy="3" input="SourceAlpha"/>
      <feGaussianBlur stdDeviation="3" result="blur"/>
      <feFlood flood-opacity="0.161"/>
      <feComposite operator="in" in2="blur"/>
      <feComposite in="SourceGraphic"/>
    </filter>
  </defs>
  <g id="Grupo_1207633" data-name="Grupo 1207633" transform="translate(-271 -3065.981)">
    <g id="Grupo_1207515" data-name="Grupo 1207515" transform="translate(-7 652.208)">
      <g id="Grupo_1207311" data-name="Grupo 1207311" transform="translate(7 1543.358)">
        <g id="Grupo_1174813" data-name="Grupo 1174813" transform="translate(280 876.414)">
          <g id="Grupo_1201680" data-name="Grupo 1201680">
            <g id="Grupo_1201330" data-name="Grupo 1201330">
              <g id="Grupo_1172010" data-name="Grupo 1172010">
                <g id="Grupo_1171046" data-name="Grupo 1171046">
                  <g id="Grupo_1148525" data-name="Grupo 1148525">
                    <g transform="matrix(1, 0, 0, 1, -9, -6)" filter="url(#Trazado_982547)">
                      <g id="Trazado_982547-2" data-name="Trazado 982547" transform="translate(9 6)" fill="#fff4e6">
                        <path d="M 47.5 93.5 C 41.28937149047852 93.5 35.26533508300781 92.28397369384766 29.59518623352051 89.88570404052734 C 24.11771965026855 87.56893157958984 19.19813346862793 84.25196075439453 14.97309303283691 80.02691650390625 C 10.74804019927979 75.80186462402344 7.431066513061523 70.88229370117188 5.114293098449707 65.40481567382812 C 2.716026782989502 59.73468017578125 1.5 53.71062850952148 1.5 47.5 C 1.5 41.28937149047852 2.716026782989502 35.26533508300781 5.114293098449707 29.59518623352051 C 7.431066513061523 24.11771965026855 10.74804019927979 19.19813346862793 14.97309303283691 14.97309303283691 C 19.19813346862793 10.74804019927979 24.11771965026855 7.431066513061523 29.59518623352051 5.114293098449707 C 35.26533508300781 2.716026782989502 41.28937149047852 1.5 47.5 1.5 C 53.71062850952148 1.5 59.73468017578125 2.716026782989502 65.40481567382812 5.114293098449707 C 70.88229370117188 7.431066513061523 75.80186462402344 10.74804019927979 80.02691650390625 14.97309303283691 C 84.25196075439453 19.19813346862793 87.56893157958984 24.11771965026855 89.88570404052734 29.59518623352051 C 92.28397369384766 35.26533508300781 93.5 41.28937149047852 93.5 47.5 C 93.5 53.71062850952148 92.28397369384766 59.73468017578125 89.88570404052734 65.40481567382812 C 87.56893157958984 70.88229370117188 84.25196075439453 75.80186462402344 80.02691650390625 80.02691650390625 C 75.80186462402344 84.25196075439453 70.88229370117188 87.56893157958984 65.40481567382812 89.88570404052734 C 59.73468017578125 92.28397369384766 53.71062850952148 93.5 47.5 93.5 Z" stroke="none"/>
                        <path d="M 47.5 3 C 41.49121475219727 3 35.66376876831055 4.176155090332031 30.17950439453125 6.495796203613281 C 24.88084411621094 8.736953735351562 20.12152099609375 11.94598388671875 16.03375244140625 16.03375244140625 C 11.94598388671875 20.12152099609375 8.736953735351562 24.88084411621094 6.495796203613281 30.17950439453125 C 4.176155090332031 35.66376876831055 3 41.49121475219727 3 47.5 C 3 53.50878524780273 4.176155090332031 59.33623123168945 6.495796203613281 64.82049560546875 C 8.736953735351562 70.11915588378906 11.94598388671875 74.87847900390625 16.03375244140625 78.96624755859375 C 20.12152099609375 83.05401611328125 24.88084411621094 86.26304626464844 30.17950439453125 88.50419616699219 C 35.66376876831055 90.82384490966797 41.49121475219727 92 47.5 92 C 53.50878524780273 92 59.33623123168945 90.82384490966797 64.82049560546875 88.50419616699219 C 70.11915588378906 86.26304626464844 74.87847900390625 83.05401611328125 78.96624755859375 78.96624755859375 C 83.05401611328125 74.87847900390625 86.26304626464844 70.11915588378906 88.50419616699219 64.82049560546875 C 90.82384490966797 59.33623123168945 92 53.50878524780273 92 47.5 C 92 41.49121475219727 90.82384490966797 35.66376876831055 88.50419616699219 30.17950439453125 C 86.26304626464844 24.88084411621094 83.05401611328125 20.12152099609375 78.96624755859375 16.03375244140625 C 74.87847900390625 11.94598388671875 70.11915588378906 8.736953735351562 64.82049560546875 6.495796203613281 C 59.33623123168945 4.176155090332031 53.50878524780273 3 47.5 3 M 47.5 0 C 73.7335205078125 0 95 21.2664794921875 95 47.5 C 95 73.7335205078125 73.7335205078125 95 47.5 95 C 21.2664794921875 95 0 73.7335205078125 0 47.5 C 0 21.2664794921875 21.2664794921875 0 47.5 0 Z" stroke="none" fill="#ff9d1c"/>
                      </g>
                    </g>
                  </g>
                </g>
              </g>
            </g>
          </g>
        </g>
      </g>
    </g>
    <g id="variables_13252911" transform="translate(265.85 3023.33)">
      <g id="Grupo_1207611" data-name="Grupo 1207611" transform="translate(51.262 71.326)">
        <circle id="Elipse_13426" data-name="Elipse 13426" cx="10.387" cy="10.387" r="10.387" transform="translate(0 0)" fill="#ffae06"/>
      </g>
      <g id="Grupo_1207612" data-name="Grupo 1207612" transform="translate(47.355 67.418)">
        <path id="Trazado_1052328" data-name="Trazado 1052328" d="M183.732,85.735a10.387,10.387,0,1,1-10.387-10.387A10.387,10.387,0,0,1,183.732,85.735Zm3.908,0a14.295,14.295,0,1,0-14.295,14.295A14.295,14.295,0,0,0,187.639,85.735Z" transform="translate(-159.05 -71.44)" fill="#ffc107" fill-rule="evenodd"/>
      </g>
      <g id="Grupo_1207613" data-name="Grupo 1207613" transform="translate(58.487 100.91)">
        <path id="Trazado_1052329" data-name="Trazado 1052329" d="M226.97,275.77h6.322v11.988H226.97Z" transform="translate(-226.97 -275.77)" fill="#e3a76f" fill-rule="evenodd"/>
      </g>
      <g id="Grupo_1207614" data-name="Grupo 1207614" transform="translate(48.346 100.91)">
        <path id="Trazado_1052330" data-name="Trazado 1052330" d="M181.565,275.77v11.988h-6.322V275.77h-7.512A2.638,2.638,0,0,0,165.1,278.4v18.715a2.638,2.638,0,0,0,2.631,2.631h21.344a2.638,2.638,0,0,0,2.631-2.631V278.4a2.638,2.638,0,0,0-2.631-2.631Z" transform="translate(-165.1 -275.77)" fill="#f2d1a5" fill-rule="evenodd"/>
      </g>
      <g id="Grupo_1207632" data-name="Grupo 1207632" transform="translate(25.457 66.63)">
        <g id="Grupo_1207624" data-name="Grupo 1207624" transform="translate(21.11 0)">
          <g id="Grupo_1207620" data-name="Grupo 1207620">
            <g id="Grupo_1207615" data-name="Grupo 1207615" transform="translate(11.423 8.553)">
              <path id="Trazado_1052331" data-name="Trazado 1052331" d="M227.6,131.87a3.662,3.662,0,0,1-3.658-3.658.787.787,0,0,1,1.574,0,2.085,2.085,0,1,0,2.085-2.085,3.658,3.658,0,1,1,3.658-3.658.787.787,0,1,1-1.574,0,2.085,2.085,0,1,0-2.085,2.085,3.658,3.658,0,1,1,0,7.317Z" transform="translate(-223.94 -118.81)"/>
            </g>
            <g id="Grupo_1207616" data-name="Grupo 1207616" transform="translate(14.295 7.043)">
              <path id="Trazado_1052332" data-name="Trazado 1052332" d="M242.247,112.681a.787.787,0,0,1-.787-.787v-1.508a.787.787,0,1,1,1.574,0v1.508A.787.787,0,0,1,242.247,112.681Z" transform="translate(-241.46 -109.6)"/>
            </g>
            <g id="Grupo_1207617" data-name="Grupo 1207617" transform="translate(14.295 20.04)">
              <path id="Trazado_1052333" data-name="Trazado 1052333" d="M242.247,191.972a.787.787,0,0,1-.787-.787v-1.508a.787.787,0,0,1,1.574,0v1.508A.787.787,0,0,1,242.247,191.972Z" transform="translate(-241.46 -188.89)"/>
            </g>
            <g id="Grupo_1207618" data-name="Grupo 1207618">
              <path id="Trazado_1052334" data-name="Trazado 1052334" d="M169.331,96.793a15.081,15.081,0,1,1,15.081-15.081A15.1,15.1,0,0,1,169.331,96.793Zm0-28.588a13.508,13.508,0,1,0,13.508,13.508A13.523,13.523,0,0,0,169.331,68.205Z" transform="translate(-154.25 -66.63)"/>
            </g>
            <g id="Grupo_1207619" data-name="Grupo 1207619" transform="translate(3.908 3.908)">
              <path id="Trazado_1052335" data-name="Trazado 1052335" d="M189.264,112.817a11.174,11.174,0,1,1,11.174-11.174A11.186,11.186,0,0,1,189.264,112.817Zm0-20.772a9.6,9.6,0,1,0,9.6,9.6A9.611,9.611,0,0,0,189.264,92.045Z" transform="translate(-178.09 -90.47)"/>
            </g>
          </g>
          <g id="Grupo_1207623" data-name="Grupo 1207623" transform="translate(0.992 33.492)">
            <g id="Grupo_1207621" data-name="Grupo 1207621" transform="translate(0 0.002)">
              <path id="Trazado_1052336" data-name="Trazado 1052336" d="M185.062,296.519H163.717A3.421,3.421,0,0,1,160.3,293.1V274.388a3.421,3.421,0,0,1,3.418-3.418h21.346a3.422,3.422,0,0,1,3.418,3.418V293.1A3.423,3.423,0,0,1,185.062,296.519Zm-21.344-23.975a1.847,1.847,0,0,0-1.844,1.844V293.1a1.846,1.846,0,0,0,1.844,1.844h21.346a1.847,1.847,0,0,0,1.844-1.844V274.388a1.846,1.846,0,0,0-1.844-1.844Z" transform="translate(-160.3 -270.97)"/>
            </g>
            <g id="Grupo_1207622" data-name="Grupo 1207622" transform="translate(10.143)">
              <path id="Trazado_1052337" data-name="Trazado 1052337" d="M229.289,284.522h-6.322a.787.787,0,0,1-.787-.787V271.747a.787.787,0,1,1,1.574,0v11.2H228.5v-11.2a.787.787,0,1,1,1.574,0v11.988A.786.786,0,0,1,229.289,284.522Z" transform="translate(-222.18 -270.96)"/>
            </g>
          </g>
        </g>
        <g id="Grupo_1207631" data-name="Grupo 1207631" transform="translate(0 8.158)">
          <g id="Grupo_1207627" data-name="Grupo 1207627">
            <g id="Grupo_1207625" data-name="Grupo 1207625" transform="translate(8.383)">
              <path id="Trazado_1052338" data-name="Trazado 1052338" d="M77.387,159.128a.787.787,0,0,1-.787-.787V117.187a.787.787,0,0,1,1.574,0v41.154A.787.787,0,0,1,77.387,159.128Z" transform="translate(-76.6 -116.4)"/>
            </g>
            <g id="Grupo_1207626" data-name="Grupo 1207626">
              <path id="Trazado_1052339" data-name="Trazado 1052339" d="M43.009,126.356a.779.779,0,0,1-.556-.231L34.627,118.3,26.8,126.126a.787.787,0,0,1-1.113-1.113l8.382-8.382a.784.784,0,0,1,1.111,0l8.382,8.382a.788.788,0,0,1,0,1.113.778.778,0,0,1-.554.229Z" transform="translate(-25.457 -116.4)"/>
            </g>
          </g>
          <g id="Grupo_1207630" data-name="Grupo 1207630" transform="translate(54.046)">
            <g id="Grupo_1207628" data-name="Grupo 1207628" transform="translate(8.381)">
              <path id="Trazado_1052340" data-name="Trazado 1052340" d="M407.107,159.128a.787.787,0,0,1-.787-.787V117.187a.787.787,0,0,1,1.574,0v41.154A.787.787,0,0,1,407.107,159.128Z" transform="translate(-406.32 -116.4)"/>
            </g>
            <g id="Grupo_1207629" data-name="Grupo 1207629" transform="translate(0 32.772)">
              <path id="Trazado_1052341" data-name="Trazado 1052341" d="M364.355,326.294a.779.779,0,0,1-.556-.231l-8.382-8.382a.787.787,0,0,1,1.113-1.113l7.827,7.827,7.827-7.827a.787.787,0,0,1,1.113,1.113l-8.382,8.382a.792.792,0,0,1-.559.231Z" transform="translate(-355.188 -316.337)"/>
            </g>
          </g>
        </g>
      </g>
    </g>
  </g>
</svg>
