<svg xmlns="http://www.w3.org/2000/svg" xmlns:xlink="http://www.w3.org/1999/xlink" width="103" height="103" viewBox="0 0 103 103">
  <defs>
    <filter id="Trazado_982547" x="0" y="0" width="103" height="103" filterUnits="userSpaceOnUse">
      <feOffset dy="3" input="SourceAlpha"/>
      <feGaussianBlur stdDeviation="3" result="blur"/>
      <feFlood flood-opacity="0.161"/>
      <feComposite operator="in" in2="blur"/>
      <feComposite in="SourceGraphic"/>
    </filter>
  </defs>
  <g id="Grupo_1207673" data-name="Grupo 1207673" transform="translate(-506 -3490.203)">
    <g id="Grupo_1207664" data-name="Grupo 1207664">
      <g id="Grupo_1207596" data-name="Grupo 1207596" transform="translate(315 -173.297)">
        <g id="Grupo_1207313" data-name="Grupo 1207313" transform="translate(0 2919.5)">
          <g id="Grupo_1202212" data-name="Grupo 1202212" transform="translate(-80 -126.414)">
            <g id="Grupo_1174813" data-name="Grupo 1174813" transform="translate(280 876.414)">
              <g id="Grupo_1201680" data-name="Grupo 1201680">
                <g id="Grupo_1201330" data-name="Grupo 1201330">
                  <g id="Grupo_1172010" data-name="Grupo 1172010">
                    <g id="Grupo_1171046" data-name="Grupo 1171046">
                      <g id="Grupo_1148525" data-name="Grupo 1148525">
                        <g transform="matrix(1, 0, 0, 1, -9, -6)" filter="url(#Trazado_982547)">
                          <g id="Trazado_982547-2" data-name="Trazado 982547" transform="translate(9 6)" fill="#f2f7e5">
                            <path d="M 42.5 83.5 C 36.96437835693359 83.5 31.59512901306152 82.41617584228516 26.54141235351562 80.27863311767578 C 21.65934181213379 78.21369171142578 17.27447128295898 75.25723266601562 13.50862312316895 71.49137878417969 C 9.742764472961426 67.72553253173828 6.786305904388428 63.34066009521484 4.721364498138428 58.45858764648438 C 2.583823442459106 53.40486907958984 1.5 48.03562164306641 1.5 42.5 C 1.5 36.96437835693359 2.583823442459106 31.59512901306152 4.721364498138428 26.54141235351562 C 6.786305904388428 21.65934181213379 9.742764472961426 17.27448272705078 13.50862312316895 13.50862312316895 C 17.27447128295898 9.742776870727539 21.65934181213379 6.786305904388428 26.54141235351562 4.721364498138428 C 31.59512901306152 2.583823442459106 36.96437835693359 1.5 42.5 1.5 C 48.03562164306641 1.5 53.40486907958984 2.583823442459106 58.45858764648438 4.721364498138428 C 63.34066009521484 6.786305904388428 67.72553253173828 9.742776870727539 71.49137878417969 13.50862312316895 C 75.25723266601562 17.27448272705078 78.21369171142578 21.65934181213379 80.27863311767578 26.54141235351562 C 82.41617584228516 31.59512901306152 83.5 36.96437835693359 83.5 42.5 C 83.5 48.03562164306641 82.41617584228516 53.40486907958984 80.27863311767578 58.45858764648438 C 78.21369171142578 63.34066009521484 75.25723266601562 67.72553253173828 71.49137878417969 71.49137878417969 C 67.72553253173828 75.25723266601562 63.34066009521484 78.21369171142578 58.45858764648438 80.27863311767578 C 53.40486907958984 82.41617584228516 48.03562164306641 83.5 42.5 83.5 Z" stroke="none"/>
                            <path d="M 42.5 3 C 37.16621398925781 3 31.99356079101562 4.043960571289062 27.125732421875 6.102882385253906 C 22.42246627807617 8.092185974121094 18.19785308837891 10.94070434570312 14.56928253173828 14.56928253173828 C 10.94070434570312 18.19785308837891 8.092185974121094 22.42246627807617 6.102882385253906 27.125732421875 C 4.043960571289062 31.99356079101562 3 37.16621398925781 3 42.5 C 3 47.83378601074219 4.043960571289062 53.00643920898438 6.102882385253906 57.874267578125 C 8.092185974121094 62.57753372192383 10.94070434570312 66.80214691162109 14.56928253173828 70.43071746826172 C 18.19785308837891 74.05929565429688 22.42246627807617 76.90781402587891 27.125732421875 78.89711761474609 C 31.99356079101562 80.95603942871094 37.16621398925781 82 42.5 82 C 47.83378601074219 82 53.00643920898438 80.95603942871094 57.874267578125 78.89711761474609 C 62.57753372192383 76.90781402587891 66.80214691162109 74.05929565429688 70.43071746826172 70.43071746826172 C 74.05929565429688 66.80214691162109 76.90781402587891 62.57753372192383 78.89711761474609 57.874267578125 C 80.95603942871094 53.00643920898438 82 47.83378601074219 82 42.5 C 82 37.16621398925781 80.95603942871094 31.99356079101562 78.89711761474609 27.125732421875 C 76.90781402587891 22.42246627807617 74.05929565429688 18.19785308837891 70.43071746826172 14.56928253173828 C 66.80214691162109 10.94070434570312 62.57753372192383 8.092185974121094 57.874267578125 6.102882385253906 C 53.00643920898438 4.043960571289062 47.83378601074219 3 42.5 3 M 42.5 0 C 65.97210693359375 0 85 19.02789306640625 85 42.5 C 85 65.97210693359375 65.97210693359375 85 42.5 85 C 19.02789306640625 85 0 65.97210693359375 0 42.5 C 0 19.02789306640625 19.02789306640625 0 42.5 0 Z" stroke="none" fill="#1d7083"/>
                          </g>
                        </g>
                      </g>
                    </g>
                  </g>
                </g>
              </g>
            </g>
          </g>
        </g>
      </g>
    </g>
    <g id="profit-growth_2835488" transform="translate(532 3509.71)">
      <g id="Grupo_1207671" data-name="Grupo 1207671" transform="translate(1.876 1.876)">
        <g id="Grupo_1207669" data-name="Grupo 1207669" transform="translate(0 5.254)">
          <g id="Grupo_1207665" data-name="Grupo 1207665">
            <path id="Trazado_1052442" data-name="Trazado 1052442" d="M33.523,33.394v20.14a1.756,1.756,0,0,1-1.751,1.751H3.751A1.756,1.756,0,0,1,2,53.533V15.846a1.757,1.757,0,0,1,.657-1.366L10.756,8H16.01v3.5h-3.5a1.764,1.764,0,0,0-1.751,1.751,1.756,1.756,0,0,0,1.751,1.751H23.015a1.764,1.764,0,0,0,1.751-1.751A1.756,1.756,0,0,0,23.015,11.5h-3.5V8h5.254l8.1,6.48a1.757,1.757,0,0,1,.657,1.366V28.14l-3.5-3.5V18.508H5.5V51.782H30.021V29.891Z" transform="translate(-2 -8)" fill="#ffeaa7"/>
          </g>
          <g id="Grupo_1207666" data-name="Grupo 1207666" transform="translate(3.503 10.508)">
            <path id="Trazado_1052443" data-name="Trazado 1052443" d="M27.891,23.5,6,45.394V20H30.518v6.129Z" transform="translate(-6 -20)" fill="#e6e9ed"/>
          </g>
          <g id="Grupo_1207667" data-name="Grupo 1207667" transform="translate(3.503 19.264)">
            <path id="Trazado_1052444" data-name="Trazado 1052444" d="M6,51.891,27.891,30l2.627,2.627V54.518H6Z" transform="translate(-6 -30)" fill="#e6e9ed"/>
          </g>
          <g id="Grupo_1207668" data-name="Grupo 1207668" transform="translate(3.503 7.005)">
            <path id="Trazado_1052445" data-name="Trazado 1052445" d="M55.036,16V28.259h-3.5V22.129L36.647,37.015l-2.627-2.627-3.5-3.5-2.627-2.627L6,50.15V44.9L27.891,23.005l2.627,2.627,3.5,3.5,2.627,2.627L48.906,19.5H42.777V16Z" transform="translate(-6 -16)" fill="#ff826e"/>
          </g>
        </g>
        <g id="Grupo_1207670" data-name="Grupo 1207670" transform="translate(14.01)">
          <path id="Trazado_1052446" data-name="Trazado 1052446" d="M21.5,14.259H18V3.751a1.751,1.751,0,0,1,3.5,0Z" transform="translate(-18 -2)" fill="#aab2bd"/>
        </g>
      </g>
      <g id="Grupo_1207672" data-name="Grupo 1207672" transform="translate(1 1)">
        <path id="Trazado_1052447" data-name="Trazado 1052447" d="M41.28,13.259v5.254h4.891L36.026,28.658l-1.751-1.751V14.976a2.615,2.615,0,0,0-.986-2.052L24.95,6.254H20.264V3.627a2.627,2.627,0,1,0-5.254,0V6.254H10.325l-8.34,6.672A2.616,2.616,0,0,0,1,14.976V52.663A2.63,2.63,0,0,0,3.627,55.29H31.647a2.63,2.63,0,0,0,2.627-2.627V34.637l1.751,1.751,14.01-14.01v4.891H55.29V13.259ZM20.264,11.508h2.627a.876.876,0,1,1,0,1.751H20.264ZM17.637,2.751a.877.877,0,0,1,.876.876v9.632H16.762V3.627A.877.877,0,0,1,17.637,2.751ZM15.01,13.259H12.383a.876.876,0,0,1,0-1.751H15.01Zm17.513,39.4a.877.877,0,0,1-.876.876H3.627a.877.877,0,0,1-.876-.876V14.976a.874.874,0,0,1,.328-.684l7.86-6.287H15.01V9.756H12.383a2.627,2.627,0,1,0,0,5.254H22.891a2.627,2.627,0,0,0,0-5.254H20.264V8.005h4.071l7.859,6.287a.872.872,0,0,1,.329.684V25.155L30.772,23.4V16.762H4.5V51.787H30.772V31.134l1.751,1.751ZM25.518,30.772V50.036H23.767V34.274H22.015V50.036H20.264V37.777H18.513V50.036H16.762V43.031H15.01v7.005H13.259V44.782H11.508v5.254H9.756V48.285H8.005v1.751H6.254V48.647L27.269,27.632l1.751,1.751V50.036H27.269V30.772Zm3.5-9.119L27.269,19.9,6.254,40.917v-22.4H29.021Zm24.518,3.865H51.787V18.15L36.026,33.912l-8.756-8.756L6.254,46.171V43.393L27.269,22.378l8.756,8.756L50.4,16.762H43.031V15.01H53.539Z" transform="translate(-1 -1)"/>
        <path id="Trazado_1052448" data-name="Trazado 1052448" d="M9,23h8.756v1.751H9Z" transform="translate(-1.995 -3.736)"/>
        <path id="Trazado_1052449" data-name="Trazado 1052449" d="M9,27h8.756v1.751H9Z" transform="translate(-1.995 -4.233)"/>
        <path id="Trazado_1052450" data-name="Trazado 1052450" d="M13,31h1.751v1.751H13Z" transform="translate(-2.492 -4.731)"/>
        <path id="Trazado_1052451" data-name="Trazado 1052451" d="M17,31h1.751v1.751H17Z" transform="translate(-2.99 -4.731)"/>
        <path id="Trazado_1052452" data-name="Trazado 1052452" d="M9,31h1.751v1.751H9Z" transform="translate(-1.995 -4.731)"/>
      </g>
    </g>
  </g>
</svg>
