<svg xmlns="http://www.w3.org/2000/svg" xmlns:xlink="http://www.w3.org/1999/xlink" width="113" height="113" viewBox="0 0 113 113">
  <defs>
    <filter id="Trazado_982547" x="0" y="0" width="113" height="113" filterUnits="userSpaceOnUse">
      <feOffset dy="3" input="SourceAlpha"/>
      <feGaussianBlur stdDeviation="3" result="blur"/>
      <feFlood flood-opacity="0.161"/>
      <feComposite operator="in" in2="blur"/>
      <feComposite in="SourceGraphic"/>
    </filter>
  </defs>
  <g id="Grupo_1207653" data-name="Grupo 1207653" transform="translate(-580 -3065.981)">
    <g id="Grupo_1207516" data-name="Grupo 1207516" transform="translate(-7 652.208)">
      <g id="Grupo_1207308" data-name="Grupo 1207308" transform="translate(316 1543.358)">
        <g id="Grupo_1174813" data-name="Grupo 1174813" transform="translate(280 876.414)">
          <g id="Grupo_1201680" data-name="Grupo 1201680">
            <g id="Grupo_1201330" data-name="Grupo 1201330">
              <g id="Grupo_1172010" data-name="Grupo 1172010">
                <g id="Grupo_1171046" data-name="Grupo 1171046">
                  <g id="Grupo_1148525" data-name="Grupo 1148525">
                    <g transform="matrix(1, 0, 0, 1, -9, -6)" filter="url(#Trazado_982547)">
                      <g id="Trazado_982547-2" data-name="Trazado 982547" transform="translate(9 6)" fill="#fff4e6">
                        <path d="M 47.5 93.5 C 41.28937149047852 93.5 35.26533508300781 92.28397369384766 29.59518623352051 89.88570404052734 C 24.11771965026855 87.56893157958984 19.19813346862793 84.25196075439453 14.97309303283691 80.02691650390625 C 10.74804019927979 75.80186462402344 7.431066513061523 70.88229370117188 5.114293098449707 65.40481567382812 C 2.716026782989502 59.73468017578125 1.5 53.71062850952148 1.5 47.5 C 1.5 41.28937149047852 2.716026782989502 35.26533508300781 5.114293098449707 29.59518623352051 C 7.431066513061523 24.11771965026855 10.74804019927979 19.19813346862793 14.97309303283691 14.97309303283691 C 19.19813346862793 10.74804019927979 24.11771965026855 7.431066513061523 29.59518623352051 5.114293098449707 C 35.26533508300781 2.716026782989502 41.28937149047852 1.5 47.5 1.5 C 53.71062850952148 1.5 59.73468017578125 2.716026782989502 65.40481567382812 5.114293098449707 C 70.88229370117188 7.431066513061523 75.80186462402344 10.74804019927979 80.02691650390625 14.97309303283691 C 84.25196075439453 19.19813346862793 87.56893157958984 24.11771965026855 89.88570404052734 29.59518623352051 C 92.28397369384766 35.26533508300781 93.5 41.28937149047852 93.5 47.5 C 93.5 53.71062850952148 92.28397369384766 59.73468017578125 89.88570404052734 65.40481567382812 C 87.56893157958984 70.88229370117188 84.25196075439453 75.80186462402344 80.02691650390625 80.02691650390625 C 75.80186462402344 84.25196075439453 70.88229370117188 87.56893157958984 65.40481567382812 89.88570404052734 C 59.73468017578125 92.28397369384766 53.71062850952148 93.5 47.5 93.5 Z" stroke="none"/>
                        <path d="M 47.5 3 C 41.49121475219727 3 35.66376876831055 4.176155090332031 30.17950439453125 6.495796203613281 C 24.88084411621094 8.736953735351562 20.12152099609375 11.94598388671875 16.03375244140625 16.03375244140625 C 11.94598388671875 20.12152099609375 8.736953735351562 24.88084411621094 6.495796203613281 30.17950439453125 C 4.176155090332031 35.66376876831055 3 41.49121475219727 3 47.5 C 3 53.50878524780273 4.176155090332031 59.33623123168945 6.495796203613281 64.82049560546875 C 8.736953735351562 70.11915588378906 11.94598388671875 74.87847900390625 16.03375244140625 78.96624755859375 C 20.12152099609375 83.05401611328125 24.88084411621094 86.26304626464844 30.17950439453125 88.50419616699219 C 35.66376876831055 90.82384490966797 41.49121475219727 92 47.5 92 C 53.50878524780273 92 59.33623123168945 90.82384490966797 64.82049560546875 88.50419616699219 C 70.11915588378906 86.26304626464844 74.87847900390625 83.05401611328125 78.96624755859375 78.96624755859375 C 83.05401611328125 74.87847900390625 86.26304626464844 70.11915588378906 88.50419616699219 64.82049560546875 C 90.82384490966797 59.33623123168945 92 53.50878524780273 92 47.5 C 92 41.49121475219727 90.82384490966797 35.66376876831055 88.50419616699219 30.17950439453125 C 86.26304626464844 24.88084411621094 83.05401611328125 20.12152099609375 78.96624755859375 16.03375244140625 C 74.87847900390625 11.94598388671875 70.11915588378906 8.736953735351562 64.82049560546875 6.495796203613281 C 59.33623123168945 4.176155090332031 53.50878524780273 3 47.5 3 M 47.5 0 C 73.7335205078125 0 95 21.2664794921875 95 47.5 C 95 73.7335205078125 73.7335205078125 95 47.5 95 C 21.2664794921875 95 0 73.7335205078125 0 47.5 C 0 21.2664794921875 21.2664794921875 0 47.5 0 Z" stroke="none" fill="#ff9d1c"/>
                      </g>
                    </g>
                  </g>
                </g>
              </g>
            </g>
          </g>
        </g>
      </g>
    </g>
    <g id="interest-rate_4025758" transform="translate(605.471 3088.481)">
      <g id="Grupo_1207651" data-name="Grupo 1207651">
        <g id="Grupo_1207634" data-name="Grupo 1207634">
          <path id="Trazado_1052342" data-name="Trazado 1052342" d="M47,51a2.006,2.006,0,0,0,2,2H41V37h8a2.015,2.015,0,0,0-2,2,2.006,2.006,0,0,0,2,2,2.015,2.015,0,0,0-2,2,2.006,2.006,0,0,0,2,2,2.015,2.015,0,0,0-2,2,2.006,2.006,0,0,0,2,2,2.015,2.015,0,0,0-2,2Z" fill="#b4dd7f"/>
        </g>
        <g id="Grupo_1207635" data-name="Grupo 1207635">
          <path id="Trazado_1052343" data-name="Trazado 1052343" d="M47,27v6H41V27Z" fill="#b4dd7f"/>
        </g>
        <g id="Grupo_1207636" data-name="Grupo 1207636">
          <path id="Trazado_1052344" data-name="Trazado 1052344" d="M53,27.68V33H47V27h6Z" fill="#ef7385"/>
        </g>
        <g id="Grupo_1207637" data-name="Grupo 1207637">
          <path id="Trazado_1052345" data-name="Trazado 1052345" d="M41,27v.62a14,14,0,1,1,12,.06V27l-1.81-2.89a9.993,9.993,0,1,0-8.36-.04Z" fill="#ffc729"/>
        </g>
        <g id="Grupo_1207638" data-name="Grupo 1207638">
          <path id="Trazado_1052346" data-name="Trazado 1052346" d="M47.06,5a10,10,0,0,1,4.13,19.11l-2.66-4.26a1.8,1.8,0,0,0-3.06,0l-2.64,4.22A10.005,10.005,0,0,1,47.06,5Z" fill="#fcd770"/>
        </g>
        <g id="Grupo_1207639" data-name="Grupo 1207639">
          <path id="Trazado_1052347" data-name="Trazado 1052347" d="M53,53v2a6,6,0,0,1-6,6,6.009,6.009,0,0,1-6-6V53H53Z" fill="#ccd1d9"/>
        </g>
        <g id="Grupo_1207640" data-name="Grupo 1207640">
          <path id="Trazado_1052348" data-name="Trazado 1052348" d="M53,27H41l1.83-2.93,2.64-4.22a1.8,1.8,0,0,1,3.06,0l2.66,4.26Z" fill="#ccd1d9"/>
        </g>
        <g id="Grupo_1207641" data-name="Grupo 1207641">
          <path id="Trazado_1052349" data-name="Trazado 1052349" d="M55,41a2.006,2.006,0,0,1,2,2,2.015,2.015,0,0,1-2,2H49a2.006,2.006,0,0,1-2-2,2.015,2.015,0,0,1,2-2Z" fill="#f0d0b4"/>
        </g>
        <g id="Grupo_1207642" data-name="Grupo 1207642">
          <path id="Trazado_1052350" data-name="Trazado 1052350" d="M55,37a2.006,2.006,0,0,1,2,2,2.015,2.015,0,0,1-2,2H49a2.006,2.006,0,0,1-2-2,2.015,2.015,0,0,1,2-2h6Z" fill="#f0d0b4"/>
        </g>
        <g id="Grupo_1207643" data-name="Grupo 1207643">
          <path id="Trazado_1052351" data-name="Trazado 1052351" d="M55,45a2.006,2.006,0,0,1,2,2,2.015,2.015,0,0,1-2,2H49a2.006,2.006,0,0,1-2-2,2.015,2.015,0,0,1,2-2Z" fill="#f0d0b4"/>
        </g>
        <g id="Grupo_1207644" data-name="Grupo 1207644">
          <path id="Trazado_1052352" data-name="Trazado 1052352" d="M56.41,52.41A1.955,1.955,0,0,1,55,53H49a2.006,2.006,0,0,1-2-2,2.015,2.015,0,0,1,2-2h6a2.006,2.006,0,0,1,2,2A1.955,1.955,0,0,1,56.41,52.41Z" fill="#f0d0b4"/>
        </g>
        <g id="Grupo_1207645" data-name="Grupo 1207645">
          <path id="Trazado_1052353" data-name="Trazado 1052353" d="M41,37V53H38.22a7.967,7.967,0,0,1-4.12-1.14L31,50V36l3.1-1.86A7.967,7.967,0,0,1,38.22,33H53a1,1,0,0,1,1,1,3,3,0,0,1-3,3H41Z" fill="#f0d0b4"/>
        </g>
        <g id="Grupo_1207646" data-name="Grupo 1207646">
          <path id="Trazado_1052354" data-name="Trazado 1052354" d="M25,35V51H1V35H25Z" fill="#ef7385"/>
        </g>
        <g id="Grupo_1207647" data-name="Grupo 1207647">
          <path id="Trazado_1052355" data-name="Trazado 1052355" d="M31,50v1a2.006,2.006,0,0,1-2,2H27a2.006,2.006,0,0,1-2-2V35a2.006,2.006,0,0,1,2-2h2a2.006,2.006,0,0,1,2,2V50Z" fill="#ed5565"/>
        </g>
        <g id="Grupo_1207648" data-name="Grupo 1207648">
          <path id="Trazado_1052356" data-name="Trazado 1052356" d="M19,21h4V35H19Z" fill="#ffeaa7"/>
        </g>
        <g id="Grupo_1207649" data-name="Grupo 1207649">
          <path id="Trazado_1052357" data-name="Trazado 1052357" d="M11,25h4V35H11Z" fill="#ffeaa7"/>
        </g>
        <g id="Grupo_1207650" data-name="Grupo 1207650">
          <path id="Trazado_1052358" data-name="Trazado 1052358" d="M3,27H7v8H3Z" fill="#ffeaa7"/>
        </g>
      </g>
      <g id="Grupo_1207652" data-name="Grupo 1207652">
        <path id="Trazado_1052359" data-name="Trazado 1052359" d="M55,36h-.556A3.959,3.959,0,0,0,55,34a1.993,1.993,0,0,0-1-1.722V28.289a15,15,0,1,0-14-.061V32H38.216a9.007,9.007,0,0,0-4.63,1.282L31.907,34.29A3,3,0,0,0,29,32H27a3,3,0,0,0-2.816,2H24V20H18V34H16V24H10V34H8V26H2v8H0V52H24.184A3,3,0,0,0,27,54h2a3,3,0,0,0,2.906-2.29l1.68,1.008A9,9,0,0,0,38.216,54H40v1a7,7,0,0,0,14,0V54h1a2.987,2.987,0,0,0,2.22-5,2.954,2.954,0,0,0,0-4,2.954,2.954,0,0,0,0-4A2.987,2.987,0,0,0,55,36Zm1,3a1,1,0,0,1-1,1H49a1,1,0,0,1,0-2h6A1,1,0,0,1,56,39Zm0,4a1,1,0,0,1-1,1H49a1,1,0,0,1,0-2h6A1,1,0,0,1,56,43Zm0,4a1,1,0,0,1-1,1H49a1,1,0,0,1,0-2h6A1,1,0,0,1,56,47ZM42,38h4.184a2.908,2.908,0,0,0,.6,3,2.954,2.954,0,0,0,0,4,2.954,2.954,0,0,0,0,4,2.908,2.908,0,0,0-.6,3H42ZM36.109,14h-2A12.926,12.926,0,0,1,37.2,6.553l1.414,1.414A10.941,10.941,0,0,0,36.109,14Zm21.9,0a10.954,10.954,0,0,0-2.5-6.034L56.92,6.552A12.929,12.929,0,0,1,60.008,14h-2ZM54.092,6.552a10.943,10.943,0,0,0-6.034-2.5v-2a12.926,12.926,0,0,1,7.447,3.088Zm-8.034-2.5a10.954,10.954,0,0,0-6.034,2.5L38.61,5.138A12.929,12.929,0,0,1,46.057,2.05v2Zm1,1.949a8.986,8.986,0,0,1,4.485,16.781l-2.165-3.464a2.805,2.805,0,0,0-4.756,0l-2.134,3.414A8.986,8.986,0,0,1,47.058,6Zm5.553,18.49a10.912,10.912,0,0,0,1.482-1.041l1.418,1.418a12.955,12.955,0,0,1-1.84,1.32ZM40.025,23.447a10.9,10.9,0,0,0,1.4.992l-1.06,1.7a12.93,12.93,0,0,1-1.753-1.271Zm6.293-3.069a.832.832,0,0,1,1.363,0L51.2,26H42.805ZM52,28v4H48V28Zm4.925-4.547-1.42-1.42A11.023,11.023,0,0,0,58.007,16h2.01A13.07,13.07,0,0,1,56.925,23.453ZM34.1,16h2.01a11.039,11.039,0,0,0,2.5,6.032L37.2,23.449A13.076,13.076,0,0,1,34.1,16ZM42,28h4v4H42ZM20,22h2V34H20Zm-8,4h2v8H12ZM4,28H6v6H4ZM2,36H24V50H2ZM30,51a1,1,0,0,1-1,1H27a1,1,0,0,1-1-1V35a1,1,0,0,1,1-1h2a1,1,0,0,1,1,1Zm8.216,1a7.007,7.007,0,0,1-3.6-1L32,49.434V36.566L34.614,35a7.013,7.013,0,0,1,3.6-1H53a2,2,0,0,1-2,2H40.465l-.3.445A5.724,5.724,0,0,1,35.4,39H35v2h.4A7.709,7.709,0,0,0,40,39.467V52ZM47,60a5.006,5.006,0,0,1-5-5V54H52v1A5.006,5.006,0,0,1,47,60Zm8-8H49a1,1,0,0,1,0-2h6a1,1,0,0,1,0,2Z"/>
        <path id="Trazado_1052360" data-name="Trazado 1052360" d="M41.343,12H52.657v2H41.343Z" transform="translate(4.574 37.042) rotate(-45)"/>
        <circle id="Elipse_13427" data-name="Elipse 13427" cx="1" cy="1" r="1" transform="translate(48 14)"/>
        <circle id="Elipse_13428" data-name="Elipse 13428" cx="1" cy="1" r="1" transform="translate(44 10)"/>
        <path id="Trazado_1052361" data-name="Trazado 1052361" d="M26.989,3.147l.229-1.535L18.725,4.038l.55,1.924,5.4-1.544C23.508,9.017,18.723,22,2,22v2C23.636,24,26.958,3.355,26.989,3.147Z"/>
        <path id="Trazado_1052362" data-name="Trazado 1052362" d="M2,6H14V8H2Z"/>
        <path id="Trazado_1052363" data-name="Trazado 1052363" d="M2,10H4v2H2Z"/>
        <path id="Trazado_1052364" data-name="Trazado 1052364" d="M6,10h8v2H6Z"/>
        <path id="Trazado_1052365" data-name="Trazado 1052365" d="M2,14H14v2H2Z"/>
      </g>
    </g>
  </g>
</svg>
