<svg xmlns="http://www.w3.org/2000/svg" xmlns:xlink="http://www.w3.org/1999/xlink" width="103" height="103" viewBox="0 0 103 103">
  <defs>
    <filter id="Trazado_982547" x="0" y="0" width="103" height="103" filterUnits="userSpaceOnUse">
      <feOffset dy="3" input="SourceAlpha"/>
      <feGaussianBlur stdDeviation="3" result="blur"/>
      <feFlood flood-opacity="0.161"/>
      <feComposite operator="in" in2="blur"/>
      <feComposite in="SourceGraphic"/>
    </filter>
  </defs>
  <g id="Grupo_1207674" data-name="Grupo 1207674" transform="translate(-821 -3490.203)">
    <g id="Grupo_1207597" data-name="Grupo 1207597" transform="translate(630 -173.297)">
      <g id="Grupo_1207313" data-name="Grupo 1207313" transform="translate(0 2919.5)">
        <g id="Grupo_1202212" data-name="Grupo 1202212" transform="translate(-80 -126.414)">
          <g id="Grupo_1174813" data-name="Grupo 1174813" transform="translate(280 876.414)">
            <g id="Grupo_1201680" data-name="Grupo 1201680">
              <g id="Grupo_1201330" data-name="Grupo 1201330">
                <g id="Grupo_1172010" data-name="Grupo 1172010">
                  <g id="Grupo_1171046" data-name="Grupo 1171046">
                    <g id="Grupo_1148525" data-name="Grupo 1148525">
                      <g transform="matrix(1, 0, 0, 1, -9, -6)" filter="url(#Trazado_982547)">
                        <g id="Trazado_982547-2" data-name="Trazado 982547" transform="translate(9 6)" fill="#f2f7e5">
                          <path d="M 42.5 83.5 C 36.96437835693359 83.5 31.59512901306152 82.41617584228516 26.54141235351562 80.27863311767578 C 21.65934181213379 78.21369171142578 17.27447128295898 75.25723266601562 13.50862312316895 71.49137878417969 C 9.742764472961426 67.72553253173828 6.786305904388428 63.34066009521484 4.721364498138428 58.45858764648438 C 2.583823442459106 53.40486907958984 1.5 48.03562164306641 1.5 42.5 C 1.5 36.96437835693359 2.583823442459106 31.59512901306152 4.721364498138428 26.54141235351562 C 6.786305904388428 21.65934181213379 9.742764472961426 17.27448272705078 13.50862312316895 13.50862312316895 C 17.27447128295898 9.742776870727539 21.65934181213379 6.786305904388428 26.54141235351562 4.721364498138428 C 31.59512901306152 2.583823442459106 36.96437835693359 1.5 42.5 1.5 C 48.03562164306641 1.5 53.40486907958984 2.583823442459106 58.45858764648438 4.721364498138428 C 63.34066009521484 6.786305904388428 67.72553253173828 9.742776870727539 71.49137878417969 13.50862312316895 C 75.25723266601562 17.27448272705078 78.21369171142578 21.65934181213379 80.27863311767578 26.54141235351562 C 82.41617584228516 31.59512901306152 83.5 36.96437835693359 83.5 42.5 C 83.5 48.03562164306641 82.41617584228516 53.40486907958984 80.27863311767578 58.45858764648438 C 78.21369171142578 63.34066009521484 75.25723266601562 67.72553253173828 71.49137878417969 71.49137878417969 C 67.72553253173828 75.25723266601562 63.34066009521484 78.21369171142578 58.45858764648438 80.27863311767578 C 53.40486907958984 82.41617584228516 48.03562164306641 83.5 42.5 83.5 Z" stroke="none"/>
                          <path d="M 42.5 3 C 37.16621398925781 3 31.99356079101562 4.043960571289062 27.125732421875 6.102882385253906 C 22.42246627807617 8.092185974121094 18.19785308837891 10.94070434570312 14.56928253173828 14.56928253173828 C 10.94070434570312 18.19785308837891 8.092185974121094 22.42246627807617 6.102882385253906 27.125732421875 C 4.043960571289062 31.99356079101562 3 37.16621398925781 3 42.5 C 3 47.83378601074219 4.043960571289062 53.00643920898438 6.102882385253906 57.874267578125 C 8.092185974121094 62.57753372192383 10.94070434570312 66.80214691162109 14.56928253173828 70.43071746826172 C 18.19785308837891 74.05929565429688 22.42246627807617 76.90781402587891 27.125732421875 78.89711761474609 C 31.99356079101562 80.95603942871094 37.16621398925781 82 42.5 82 C 47.83378601074219 82 53.00643920898438 80.95603942871094 57.874267578125 78.89711761474609 C 62.57753372192383 76.90781402587891 66.80214691162109 74.05929565429688 70.43071746826172 70.43071746826172 C 74.05929565429688 66.80214691162109 76.90781402587891 62.57753372192383 78.89711761474609 57.874267578125 C 80.95603942871094 53.00643920898438 82 47.83378601074219 82 42.5 C 82 37.16621398925781 80.95603942871094 31.99356079101562 78.89711761474609 27.125732421875 C 76.90781402587891 22.42246627807617 74.05929565429688 18.19785308837891 70.43071746826172 14.56928253173828 C 66.80214691162109 10.94070434570312 62.57753372192383 8.092185974121094 57.874267578125 6.102882385253906 C 53.00643920898438 4.043960571289062 47.83378601074219 3 42.5 3 M 42.5 0 C 65.97210693359375 0 85 19.02789306640625 85 42.5 C 85 65.97210693359375 65.97210693359375 85 42.5 85 C 19.02789306640625 85 0 65.97210693359375 0 42.5 C 0 19.02789306640625 19.02789306640625 0 42.5 0 Z" stroke="none" fill="#1d7083"/>
                        </g>
                      </g>
                    </g>
                  </g>
                </g>
              </g>
            </g>
          </g>
        </g>
      </g>
    </g>
    <g id="business_13020255" transform="translate(846.387 3514.387)">
      <path id="Trazado_1052453" data-name="Trazado 1052453" d="M29.764,47.5A4.764,4.764,0,0,1,25,42.734V34h9.528v8.734A4.764,4.764,0,0,1,29.764,47.5Z" transform="translate(-4.945 -6.799)" fill="#2763bb"/>
      <path id="Trazado_1052454" data-name="Trazado 1052454" d="M41.764,22A4.764,4.764,0,0,0,37,26.764v4.764h9.528V26.764A4.764,4.764,0,0,0,41.764,22Z" transform="translate(-7.417 -4.327)" fill="#f3a845"/>
      <path id="Trazado_1052455" data-name="Trazado 1052455" d="M17.764,17A4.764,4.764,0,0,0,13,21.764V30.5h9.528V21.764A4.764,4.764,0,0,0,17.764,17Z" transform="translate(-2.472 -3.297)" fill="#f3a845"/>
      <path id="Trazado_1052456" data-name="Trazado 1052456" d="M5.176,2H2V49.638H49.638V46.462H5.176Z" transform="translate(-0.206 -0.206)" fill="#939393"/>
      <path id="Trazado_1052457" data-name="Trazado 1052457" d="M5.588,2H4V48.05H50.05V46.462H5.588Z" transform="translate(-0.618 -0.206)" fill="#ccc"/>
      <circle id="Elipse_13443" data-name="Elipse 13443" cx="1.5" cy="1.5" r="1.5" transform="translate(36.613 1.613)" fill="#2763bb"/>
      <ellipse id="Elipse_13444" data-name="Elipse 13444" cx="0.794" cy="1.368" rx="0.794" ry="1.368" transform="translate(38.316 2.014)" fill="#3079e6"/>
      <circle id="Elipse_13445" data-name="Elipse 13445" cx="1.5" cy="1.5" r="1.5" transform="translate(36.613 8.613)" fill="#f3a845"/>
      <ellipse id="Elipse_13446" data-name="Elipse 13446" cx="0.794" cy="1.368" rx="0.794" ry="1.368" transform="translate(38.316 8.366)" fill="#eecc61"/>
      <path id="Trazado_1052458" data-name="Trazado 1052458" d="M49.432,45.462H5.764V27.995h13.5v7.94a5.558,5.558,0,0,0,11.115,0v-7.94H46.256V26.407H39.9v-3.97a5.558,5.558,0,1,0-11.115,0v3.97h-7.94v-7.94a5.558,5.558,0,1,0-11.115,0v7.94H5.764V1.794A.794.794,0,0,0,4.97,1H1.794A.794.794,0,0,0,1,1.794V49.432a.794.794,0,0,0,.794.794H49.432a.794.794,0,0,0,.794-.794V46.256A.794.794,0,0,0,49.432,45.462ZM20.849,34.346h7.94v1.588h-7.94Zm0-1.588V31.171h7.94v1.588Zm3.97,7.146a3.97,3.97,0,0,1-3.633-2.382h7.266A3.97,3.97,0,0,1,24.819,39.9Zm5.637-18.261h7.781a3.969,3.969,0,0,1,.079.794v.794h-7.94v-.794a3.97,3.97,0,0,1,.079-.794Zm3.89-3.176A3.952,3.952,0,0,1,37.5,20.055h-6.31a3.952,3.952,0,0,1,3.155-1.588Zm-3.97,6.352h7.94v1.588h-7.94Zm-1.588,3.176v1.588h-7.94V27.995Zm-9.528-7.94h-7.94V18.467h7.94Zm0,1.588v1.588h-7.94V21.643ZM15.291,14.5a3.97,3.97,0,0,1,3.633,2.382H11.658A3.97,3.97,0,0,1,15.291,14.5Zm-3.97,10.321h7.94v1.588h-7.94ZM48.638,48.638H2.588V2.588H4.176V46.256a.794.794,0,0,0,.794.794H48.638Z" transform="translate(0)"/>
      <path id="Trazado_1052459" data-name="Trazado 1052459" d="M47.382,5.764A2.382,2.382,0,1,0,45,3.382a2.382,2.382,0,0,0,2.382,2.382Zm0-3.176a.794.794,0,1,1-.794.794A.794.794,0,0,1,47.382,2.588Z" transform="translate(-9.066 0)"/>
      <path id="Trazado_1052460" data-name="Trazado 1052460" d="M53,1h7.94V2.588H53Z" transform="translate(-10.714)"/>
      <path id="Trazado_1052461" data-name="Trazado 1052461" d="M53,5h4.764V6.588H53Z" transform="translate(-10.714 -0.824)"/>
      <path id="Trazado_1052462" data-name="Trazado 1052462" d="M47.382,13.764A2.382,2.382,0,1,0,45,11.382,2.382,2.382,0,0,0,47.382,13.764Zm0-3.176a.794.794,0,1,1-.794.794A.794.794,0,0,1,47.382,10.588Z" transform="translate(-9.066 -1.648)"/>
      <path id="Trazado_1052463" data-name="Trazado 1052463" d="M61,5h1.588V6.588H61Z" transform="translate(-12.362 -0.824)"/>
      <path id="Trazado_1052464" data-name="Trazado 1052464" d="M53,9h7.94v1.588H53Z" transform="translate(-10.714 -1.648)"/>
      <path id="Trazado_1052465" data-name="Trazado 1052465" d="M53,13h4.764v1.588H53Z" transform="translate(-10.714 -2.472)"/>
      <path id="Trazado_1052466" data-name="Trazado 1052466" d="M61,13h1.588v1.588H61Z" transform="translate(-12.362 -2.472)"/>
    </g>
  </g>
</svg>
