<svg xmlns="http://www.w3.org/2000/svg" xmlns:xlink="http://www.w3.org/1999/xlink" width="103" height="103" viewBox="0 0 103 103">
  <defs>
    <filter id="Trazado_982547" x="0" y="0" width="103" height="103" filterUnits="userSpaceOnUse">
      <feOffset dy="3" input="SourceAlpha"/>
      <feGaussianBlur stdDeviation="3" result="blur"/>
      <feFlood flood-opacity="0.161"/>
      <feComposite operator="in" in2="blur"/>
      <feComposite in="SourceGraphic"/>
    </filter>
  </defs>
  <g id="Grupo_1207678" data-name="Grupo 1207678" transform="translate(-611 -3889.704)">
    <g id="Grupo_1207599" data-name="Grupo 1207599" transform="translate(0 226.204)">
      <g id="Grupo_1207315" data-name="Grupo 1207315" transform="translate(0 2919.5)">
        <g id="Grupo_1202210" data-name="Grupo 1202210" transform="translate(340 -126.414)">
          <g id="Grupo_1174813" data-name="Grupo 1174813" transform="translate(280 876.414)">
            <g id="Grupo_1201680" data-name="Grupo 1201680">
              <g id="Grupo_1201330" data-name="Grupo 1201330">
                <g id="Grupo_1172010" data-name="Grupo 1172010">
                  <g id="Grupo_1171046" data-name="Grupo 1171046">
                    <g id="Grupo_1148525" data-name="Grupo 1148525">
                      <g transform="matrix(1, 0, 0, 1, -9, -6)" filter="url(#Trazado_982547)">
                        <g id="Trazado_982547-2" data-name="Trazado 982547" transform="translate(9 6)" fill="#f2f7e5">
                          <path d="M 42.5 83.5 C 36.96437835693359 83.5 31.59512901306152 82.41617584228516 26.54141235351562 80.27863311767578 C 21.65934181213379 78.21369171142578 17.27447128295898 75.25723266601562 13.50862312316895 71.49137878417969 C 9.742764472961426 67.72553253173828 6.786305904388428 63.34066009521484 4.721364498138428 58.45858764648438 C 2.583823442459106 53.40486907958984 1.5 48.03562164306641 1.5 42.5 C 1.5 36.96437835693359 2.583823442459106 31.59512901306152 4.721364498138428 26.54141235351562 C 6.786305904388428 21.65934181213379 9.742764472961426 17.27448272705078 13.50862312316895 13.50862312316895 C 17.27447128295898 9.742776870727539 21.65934181213379 6.786305904388428 26.54141235351562 4.721364498138428 C 31.59512901306152 2.583823442459106 36.96437835693359 1.5 42.5 1.5 C 48.03562164306641 1.5 53.40486907958984 2.583823442459106 58.45858764648438 4.721364498138428 C 63.34066009521484 6.786305904388428 67.72553253173828 9.742776870727539 71.49137878417969 13.50862312316895 C 75.25723266601562 17.27448272705078 78.21369171142578 21.65934181213379 80.27863311767578 26.54141235351562 C 82.41617584228516 31.59512901306152 83.5 36.96437835693359 83.5 42.5 C 83.5 48.03562164306641 82.41617584228516 53.40486907958984 80.27863311767578 58.45858764648438 C 78.21369171142578 63.34066009521484 75.25723266601562 67.72553253173828 71.49137878417969 71.49137878417969 C 67.72553253173828 75.25723266601562 63.34066009521484 78.21369171142578 58.45858764648438 80.27863311767578 C 53.40486907958984 82.41617584228516 48.03562164306641 83.5 42.5 83.5 Z" stroke="none"/>
                          <path d="M 42.5 3 C 37.16621398925781 3 31.99356079101562 4.043960571289062 27.125732421875 6.102882385253906 C 22.42246627807617 8.092185974121094 18.19785308837891 10.94070434570312 14.56928253173828 14.56928253173828 C 10.94070434570312 18.19785308837891 8.092185974121094 22.42246627807617 6.102882385253906 27.125732421875 C 4.043960571289062 31.99356079101562 3 37.16621398925781 3 42.5 C 3 47.83378601074219 4.043960571289062 53.00643920898438 6.102882385253906 57.874267578125 C 8.092185974121094 62.57753372192383 10.94070434570312 66.80214691162109 14.56928253173828 70.43071746826172 C 18.19785308837891 74.05929565429688 22.42246627807617 76.90781402587891 27.125732421875 78.89711761474609 C 31.99356079101562 80.95603942871094 37.16621398925781 82 42.5 82 C 47.83378601074219 82 53.00643920898438 80.95603942871094 57.874267578125 78.89711761474609 C 62.57753372192383 76.90781402587891 66.80214691162109 74.05929565429688 70.43071746826172 70.43071746826172 C 74.05929565429688 66.80214691162109 76.90781402587891 62.57753372192383 78.89711761474609 57.874267578125 C 80.95603942871094 53.00643920898438 82 47.83378601074219 82 42.5 C 82 37.16621398925781 80.95603942871094 31.99356079101562 78.89711761474609 27.125732421875 C 76.90781402587891 22.42246627807617 74.05929565429688 18.19785308837891 70.43071746826172 14.56928253173828 C 66.80214691162109 10.94070434570312 62.57753372192383 8.092185974121094 57.874267578125 6.102882385253906 C 53.00643920898438 4.043960571289062 47.83378601074219 3 42.5 3 M 42.5 0 C 65.97210693359375 0 85 19.02789306640625 85 42.5 C 85 65.97210693359375 65.97210693359375 85 42.5 85 C 19.02789306640625 85 0 65.97210693359375 0 42.5 C 0 19.02789306640625 19.02789306640625 0 42.5 0 Z" stroke="none" fill="#1d7083"/>
                        </g>
                      </g>
                    </g>
                  </g>
                </g>
              </g>
            </g>
          </g>
        </g>
      </g>
    </g>
    <g id="feature_18291939" transform="translate(616.543 3881.387)">
      <g id="Grupo_1207677" data-name="Grupo 1207677" transform="translate(25.904 31.415)">
        <path id="Trazado_1052480" data-name="Trazado 1052480" d="M34.557,84.25H64.209a2.566,2.566,0,0,1,2.559,2.557v45.7a2.569,2.569,0,0,1-2.559,2.559H34.557A2.566,2.566,0,0,1,32,132.5v-45.7A2.565,2.565,0,0,1,34.557,84.25Z" transform="translate(-32 -84.25)" fill="#43b249" fill-rule="evenodd"/>
        <path id="Trazado_1052481" data-name="Trazado 1052481" d="M34.565,84.25H64.217a2.566,2.566,0,0,1,2.559,2.557v30.523a24.224,24.224,0,0,1-8.36.509c-13.847-1.483-25.59-13.6-26.407-27.147V87.714q.06-.961.2-1.89a2.56,2.56,0,0,1,2.358-1.574Z" transform="translate(-32.009 -84.25)" fill="#8fc73e" fill-rule="evenodd"/>
        <path id="Trazado_1052482" data-name="Trazado 1052482" d="M222.47,375.249c2.293,0,2.747-.084,5.354.084-.952,4.347-.659,4.992.469,8.21-1.806,1.681-2.241,1.864-4.318,1.583C222.444,383.935,222.5,383.572,222.47,375.249Z" transform="translate(-197.863 -337.636)" fill="#af4499" fill-rule="evenodd"/>
        <path id="Trazado_1052483" data-name="Trazado 1052483" d="M239.42,375.237c.85-.008,1.637,0,3.164.1-.952,4.347-.659,4.992.469,8.21a10.6,10.6,0,0,1-1.531,1.263c-.183-.018-.381-.04-.6-.07C239.412,383.568,239.448,383.2,239.42,375.237Z" transform="translate(-212.623 -337.642)" fill="#cb6aaa" fill-rule="evenodd"/>
        <path id="Trazado_1052484" data-name="Trazado 1052484" d="M161.361,321.088l1.648-.132a.686.686,0,0,1,.366.074,6.225,6.225,0,0,0,.341,4.4.651.651,0,0,1-.337.121l-1.648.132a.678.678,0,0,1-.732-.619l-.256-3.244A.675.675,0,0,1,161.361,321.088Z" transform="translate(-144.107 -290.374)" fill="#4085c6" fill-rule="evenodd"/>
        <path id="Trazado_1052485" data-name="Trazado 1052485" d="M216.225,250.059q5.1.746,12.37,4.9-3.1-.829-4.507-10.639-.829-9.6,1.856-13.18c-5.845,4.779-10.206,7.386-18.1,7.9-1.505,1.505-.608,9.016.86,10.942a27.317,27.317,0,0,1,7.523.08Z" transform="translate(-184.448 -212.163)" fill="#2a70b8" fill-rule="evenodd"/>
        <path id="Trazado_1052486" data-name="Trazado 1052486" d="M216.482,287.8q5.1.746,12.37,4.9-3.1-.829-4.507-10.639a38.194,38.194,0,0,1-.018-7.581c-5.16,3.98-9.246,5.611-16.509,6.08a2.078,2.078,0,0,0-.457.828c.158,2.515.795,5.27,1.6,6.332A27.308,27.308,0,0,1,216.482,287.8Z" transform="translate(-184.705 -249.904)" fill="#4085c6" fill-rule="evenodd"/>
        <path id="Trazado_1052487" data-name="Trazado 1052487" d="M340.25,250.32a11.481,11.481,0,0,0,1.008.619q-2.521-1.725-3.747-10.284-.829-9.6,1.856-13.18,2.614-2.246,4.581,4.819,2.06,9.36.583,15.531-.824,3.411-2.513,3.467C341.418,250.955,340.829,250.628,340.25,250.32Z" transform="translate(-297.871 -208.5)" fill="#af4499" fill-rule="evenodd"/>
        <path id="Trazado_1052488" data-name="Trazado 1052488" d="M361.034,236.18a15.082,15.082,0,0,1,1.681,4.168q2.06,9.36.583,15.531a6.07,6.07,0,0,1-1.388,2.974q-1.851-2.44-2.849-9.4-.829-9.6,1.86-13.18c.036-.032.076-.066.112-.1Z" transform="translate(-316.638 -216.552)" fill="#cb6aaa" fill-rule="evenodd"/>
        <path id="Trazado_1052489" data-name="Trazado 1052489" d="M337.959,306.437c-.168-.85-.322-1.765-.461-2.75q-.2-2.279-.2-4.219a3.571,3.571,0,1,1,.659,6.97Z" transform="translate(-297.858 -271.531)" fill="#2a70b8" fill-rule="evenodd"/>
        <path id="Trazado_1052490" data-name="Trazado 1052490" d="M338.133,317.3c-.168-.85-.322-1.765-.461-2.75-.084-.964-.143-1.882-.172-2.754a3.5,3.5,0,0,1,1.1.118A2.72,2.72,0,0,1,338.133,317.3Z" transform="translate(-298.032 -282.398)" fill="#4085c6" fill-rule="evenodd"/>
        <path id="Trazado_1052491" data-name="Trazado 1052491" d="M183.561,292.25c-6.687,1.619-5.168,11.4.86,10.942C182.954,301.266,182.056,293.755,183.561,292.25Z" transform="translate(-160.168 -265.378)" fill="#af4499" fill-rule="evenodd"/>
        <path id="Trazado_1052492" data-name="Trazado 1052492" d="M185.253,323.254a4.571,4.571,0,0,0,4.164,2.4c-.066-.282-.128-.571-.187-.864a19.115,19.115,0,0,1-1.164-6.764A5.527,5.527,0,0,0,185.253,323.254Z" transform="translate(-165.448 -287.819)" fill="#cb6aaa" fill-rule="evenodd"/>
        <path id="Trazado_1052496" data-name="Trazado 1052496" d="M69.76,137.42H83.427v6.4H69.76Z" transform="translate(-64.882 -130.551)" fill="#fdd736" fill-rule="evenodd"/>
        <path id="Trazado_1052497" data-name="Trazado 1052497" d="M80.71,137.42H92.964v4.028a8.051,8.051,0,0,1-4.084.8A10.684,10.684,0,0,1,80.71,137.42Z" transform="translate(-74.417 -130.551)" fill="#f8ed3f" fill-rule="evenodd"/>
        <path id="Trazado_1052498" data-name="Trazado 1052498" d="M69.76,239.07H80.922v5.563H69.76Z" transform="translate(-64.882 -219.069)" fill="#fdd736" fill-rule="evenodd"/>
        <path id="Trazado_1052499" data-name="Trazado 1052499" d="M78.92,239.07H88.9v3.8a6.073,6.073,0,0,1-4.076.5A7.991,7.991,0,0,1,78.92,239.07Z" transform="translate(-72.858 -219.069)" fill="#f8ed3f" fill-rule="evenodd"/>
        <path id="Trazado_1052500" data-name="Trazado 1052500" d="M69.76,389.51H80.922v5.563H69.76Z" transform="translate(-64.882 -350.073)" fill="#fdd736" fill-rule="evenodd"/>
        <path id="Trazado_1052501" data-name="Trazado 1052501" d="M75.21,389.51H85.669v3.962a8.043,8.043,0,0,1-4.058.234A9.422,9.422,0,0,1,75.21,389.51Z" transform="translate(-69.628 -350.073)" fill="#f8ed3f" fill-rule="evenodd"/>
      </g>
      <path id="Trazado_1052502" data-name="Trazado 1052502" d="M30.783,69.947h4.677V57.881H30.783a.9.9,0,0,1-.9-.9V51.413a.907.907,0,0,1,.9-.9H41.945a.907.907,0,0,1,.9.9v1.878h4.208V42.385h-1.7v2.3a.907.907,0,0,1-.9.9H30.783a.907.907,0,0,1-.9-.9v-6.4a.907.907,0,0,1,.9-.9H44.45a.907.907,0,0,1,.9.9v2.293h2.607a.907.907,0,0,1,.9.9V54.2a.907.907,0,0,1-.9.9H42.849v1.878a.9.9,0,0,1-.9.9H37.268V69.946h4.677a.9.9,0,0,1,.9.9v5.563a.907.907,0,0,1-.9.9H30.783a.907.907,0,0,1-.9-.9V70.85a.9.9,0,0,1,.9-.9ZM41.04,71.756H31.687V75.51H41.04Zm0-19.438H31.687v3.757H41.04Zm2.505-13.128H31.688v4.589H43.547V39.189Zm4.208,20.745c-3.068,2.138-2.274,7.276.9,8.244A19.525,19.525,0,0,1,47.753,59.935Zm1.86,10.21A5.4,5.4,0,0,1,45.054,67.5l-1.457.118a1.587,1.587,0,0,1-1.7-1.451l-.256-3.244a1.588,1.588,0,0,1,1.451-1.7l1.473-.118a6.327,6.327,0,0,1,4.471-3.687.906.906,0,0,1,.212-.04A24.966,24.966,0,0,0,59.77,54.611V33.966a1.662,1.662,0,0,0-1.655-1.651H28.461a1.658,1.658,0,0,0-1.651,1.651v45.7a1.656,1.656,0,0,0,1.651,1.651H58.113a1.659,1.659,0,0,0,1.655-1.651v-9a19.679,19.679,0,0,0-2.216-.465c-.329-.044-.652-.084-.97-.118-.7,3.439-.363,4.174.6,6.94a.9.9,0,0,1-.238.956v0c-1.922,1.783-2.579,2.146-5.054,1.813a.9.9,0,0,1-.433-.183v0C49.657,78.215,49.643,77.81,49.613,70.145Zm-5.328-4.391a7.108,7.108,0,0,1-.216-2.791l-.611.048.22,2.791Zm20.159-6.361a.277.277,0,0,1,0-.08,29.347,29.347,0,0,1,.253-3.958,17.546,17.546,0,0,1,.4-2.018,26.879,26.879,0,0,1-15.326,5.819,9.278,9.278,0,0,0-.286,4.014,15.53,15.53,0,0,0,1.136,5.09,29.437,29.437,0,0,1,7.192.158A31.309,31.309,0,0,1,66.466,71.3,34.193,34.193,0,0,1,64.65,63.7c0-.014,0-.034-.008-.048Q64.445,61.357,64.445,59.392Zm1.82-1.09a4.471,4.471,0,0,1,.842,8.881,24.772,24.772,0,0,0,.831,2.93A7.2,7.2,0,0,0,69.5,72.867l.725.4c.729-.26,1.216-1.717,1.461-2.743l0,0c1.1-4.611.523-10.067-.589-15.124a11.132,11.132,0,0,0-1.9-4.314.762.762,0,0,0-1.139-.074A10.342,10.342,0,0,0,66.484,55.6a26.364,26.364,0,0,0-.22,2.7Zm.487,7.111a2.67,2.67,0,0,0-.494-5.311q.027,1.581.187,3.387Q66.587,64.5,66.752,65.412Zm1.564,8.922c-.143-.088-.307-.194-.5-.326a48.173,48.173,0,0,0-4.827-2.26c-.483-.19-.956-.366-1.413-.523v8.441a3.471,3.471,0,0,1-3.465,3.461H28.461A3.47,3.47,0,0,1,25,79.667v-45.7a3.47,3.47,0,0,1,3.461-3.461H58.113a3.471,3.471,0,0,1,3.465,3.461v19.6a52.789,52.789,0,0,0,5.237-3.86,2.377,2.377,0,0,1,3.691.143,12.64,12.64,0,0,1,2.344,5.12c0,.014.008.034.01.048h0c1.154,5.24,1.758,11.118.575,15.931v0c-.473,1.96-1.344,4.042-3.318,4.16-.465.026-.762-.3-.952-.363a2.722,2.722,0,0,1-.853-.413Zm-13.547-4.4a24.78,24.78,0,0,0-3.355.052c.022,6.567.03,7.262.974,8.052A3.316,3.316,0,0,0,53.959,78a4.564,4.564,0,0,0,1.325-.942,10.344,10.344,0,0,1-.515-7.118Z"/>
    </g>
  </g>
</svg>
