<svg xmlns="http://www.w3.org/2000/svg" xmlns:xlink="http://www.w3.org/1999/xlink" width="103" height="103" viewBox="0 0 103 103">
  <defs>
    <filter id="Trazado_982547" x="0" y="0" width="103" height="103" filterUnits="userSpaceOnUse">
      <feOffset dy="3" input="SourceAlpha"/>
      <feGaussianBlur stdDeviation="3" result="blur"/>
      <feFlood flood-opacity="0.161"/>
      <feComposite operator="in" in2="blur"/>
      <feComposite in="SourceGraphic"/>
    </filter>
  </defs>
  <g id="Grupo_1207680" data-name="Grupo 1207680" transform="translate(-1031 -3890.211)">
    <g id="Grupo_1207600" data-name="Grupo 1207600" transform="translate(0 226.711)">
      <g id="Grupo_1207317" data-name="Grupo 1207317" transform="translate(0 2919.5)">
        <g id="Grupo_1202211" data-name="Grupo 1202211" transform="translate(760 -126.414)">
          <g id="Grupo_1174813" data-name="Grupo 1174813" transform="translate(280 876.414)">
            <g id="Grupo_1201680" data-name="Grupo 1201680">
              <g id="Grupo_1201330" data-name="Grupo 1201330">
                <g id="Grupo_1172010" data-name="Grupo 1172010">
                  <g id="Grupo_1171046" data-name="Grupo 1171046">
                    <g id="Grupo_1148525" data-name="Grupo 1148525">
                      <g transform="matrix(1, 0, 0, 1, -9, -6)" filter="url(#Trazado_982547)">
                        <g id="Trazado_982547-2" data-name="Trazado 982547" transform="translate(9 6)" fill="#f2f7e5">
                          <path d="M 42.5 83.5 C 36.96437835693359 83.5 31.59512901306152 82.41617584228516 26.54141235351562 80.27863311767578 C 21.65934181213379 78.21369171142578 17.27447128295898 75.25723266601562 13.50862312316895 71.49137878417969 C 9.742764472961426 67.72553253173828 6.786305904388428 63.34066009521484 4.721364498138428 58.45858764648438 C 2.583823442459106 53.40486907958984 1.5 48.03562164306641 1.5 42.5 C 1.5 36.96437835693359 2.583823442459106 31.59512901306152 4.721364498138428 26.54141235351562 C 6.786305904388428 21.65934181213379 9.742764472961426 17.27448272705078 13.50862312316895 13.50862312316895 C 17.27447128295898 9.742776870727539 21.65934181213379 6.786305904388428 26.54141235351562 4.721364498138428 C 31.59512901306152 2.583823442459106 36.96437835693359 1.5 42.5 1.5 C 48.03562164306641 1.5 53.40486907958984 2.583823442459106 58.45858764648438 4.721364498138428 C 63.34066009521484 6.786305904388428 67.72553253173828 9.742776870727539 71.49137878417969 13.50862312316895 C 75.25723266601562 17.27448272705078 78.21369171142578 21.65934181213379 80.27863311767578 26.54141235351562 C 82.41617584228516 31.59512901306152 83.5 36.96437835693359 83.5 42.5 C 83.5 48.03562164306641 82.41617584228516 53.40486907958984 80.27863311767578 58.45858764648438 C 78.21369171142578 63.34066009521484 75.25723266601562 67.72553253173828 71.49137878417969 71.49137878417969 C 67.72553253173828 75.25723266601562 63.34066009521484 78.21369171142578 58.45858764648438 80.27863311767578 C 53.40486907958984 82.41617584228516 48.03562164306641 83.5 42.5 83.5 Z" stroke="none"/>
                          <path d="M 42.5 3 C 37.16621398925781 3 31.99356079101562 4.043960571289062 27.125732421875 6.102882385253906 C 22.42246627807617 8.092185974121094 18.19785308837891 10.94070434570312 14.56928253173828 14.56928253173828 C 10.94070434570312 18.19785308837891 8.092185974121094 22.42246627807617 6.102882385253906 27.125732421875 C 4.043960571289062 31.99356079101562 3 37.16621398925781 3 42.5 C 3 47.83378601074219 4.043960571289062 53.00643920898438 6.102882385253906 57.874267578125 C 8.092185974121094 62.57753372192383 10.94070434570312 66.80214691162109 14.56928253173828 70.43071746826172 C 18.19785308837891 74.05929565429688 22.42246627807617 76.90781402587891 27.125732421875 78.89711761474609 C 31.99356079101562 80.95603942871094 37.16621398925781 82 42.5 82 C 47.83378601074219 82 53.00643920898438 80.95603942871094 57.874267578125 78.89711761474609 C 62.57753372192383 76.90781402587891 66.80214691162109 74.05929565429688 70.43071746826172 70.43071746826172 C 74.05929565429688 66.80214691162109 76.90781402587891 62.57753372192383 78.89711761474609 57.874267578125 C 80.95603942871094 53.00643920898438 82 47.83378601074219 82 42.5 C 82 37.16621398925781 80.95603942871094 31.99356079101562 78.89711761474609 27.125732421875 C 76.90781402587891 22.42246627807617 74.05929565429688 18.19785308837891 70.43071746826172 14.56928253173828 C 66.80214691162109 10.94070434570312 62.57753372192383 8.092185974121094 57.874267578125 6.102882385253906 C 53.00643920898438 4.043960571289062 47.83378601074219 3 42.5 3 M 42.5 0 C 65.97210693359375 0 85 19.02789306640625 85 42.5 C 85 65.97210693359375 65.97210693359375 85 42.5 85 C 19.02789306640625 85 0 65.97210693359375 0 42.5 C 0 19.02789306640625 19.02789306640625 0 42.5 0 Z" stroke="none" fill="#1d7083"/>
                        </g>
                      </g>
                    </g>
                  </g>
                </g>
              </g>
            </g>
          </g>
        </g>
      </g>
    </g>
    <path id="Trazado_1052512" data-name="Trazado 1052512" d="M51.948,40.256V20.691a.789.789,0,0,0-.785-.785H29.385v6.788a2.7,2.7,0,0,1-2.691,2.691H19.906V67.227a.789.789,0,0,0,.785.785H51.164a.789.789,0,0,0,.785-.785V65.639A12.733,12.733,0,0,1,41.693,58.9H24.077a.953.953,0,1,1,0-1.906h16.8a12.675,12.675,0,0,1-.622-3.095H24.077a.953.953,0,1,1,0-1.906H40.253a12.674,12.674,0,0,1,.622-3.095H37.291a.953.953,0,0,1-.953-.953V39.193a.953.953,0,0,1,.953-.953h3.88a.953.953,0,0,1,.953.953v7.051a12.8,12.8,0,0,1,.821-1.17V35a.953.953,0,0,1,.953-.953h3.88a.953.953,0,0,1,.953.953v5.936a12.668,12.668,0,0,1,3.218-.677Zm9.658,15.173h-.865a8.18,8.18,0,0,1-.53,1.275l.612.612a.953.953,0,0,1,.051,1.292,9.607,9.607,0,0,1-2.339,2.32.952.952,0,0,1-1.22-.105h0l-.612-.612a8.431,8.431,0,0,1-1.275.528v.867a.953.953,0,0,1-.829.945,9.7,9.7,0,0,1-3.344-.007.953.953,0,0,1-.788-.938h0v-.865a8.2,8.2,0,0,1-1.275-.53l-.612.612a.953.953,0,0,1-1.292.051,9.608,9.608,0,0,1-2.32-2.339.952.952,0,0,1,.105-1.22h0l.612-.612a8.425,8.425,0,0,1-.528-1.275h-.867a.953.953,0,0,1-.945-.828,9.7,9.7,0,0,1,.007-3.345.953.953,0,0,1,.938-.789h.867a8.434,8.434,0,0,1,.528-1.275l-.612-.612A.953.953,0,0,1,45,47.311a9.682,9.682,0,0,1,2.358-2.344.952.952,0,0,1,1.22.105h0l.612.612a8.2,8.2,0,0,1,1.275-.53v-.865a.953.953,0,0,1,.829-.945,9.7,9.7,0,0,1,3.344.007.953.953,0,0,1,.789.938v.867a8.417,8.417,0,0,1,1.275.528l.612-.612A.953.953,0,0,1,58.584,45a9.614,9.614,0,0,1,2.344,2.362.949.949,0,0,1-.107,1.215l0,0-.611.611a8.2,8.2,0,0,1,.53,1.275h.864a.953.953,0,0,1,.945.828,9.71,9.71,0,0,1-.007,3.344.953.953,0,0,1-.938.789Zm-1.594-1.906a.953.953,0,0,0-.939.791,6.312,6.312,0,0,1-.851,2.035.951.951,0,0,0,.128,1.186h0l.534.534-.814.812-.532-.533a.953.953,0,0,0-1.237-.1,6.284,6.284,0,0,1-2.025.826.952.952,0,0,0-.751.931h0v.755H52.373v-.753a.953.953,0,0,0-.79-.939,6.316,6.316,0,0,1-2.035-.851.951.951,0,0,0-1.186.128h0l-.534.534-.812-.814.532-.533a.953.953,0,0,0,.1-1.237,6.282,6.282,0,0,1-.826-2.025.953.953,0,0,0-.931-.751H45.13V52.373h.755a.953.953,0,0,0,.939-.79,6.255,6.255,0,0,1,.849-2.036.951.951,0,0,0-.128-1.186h0l-.533-.533.813-.813.534.534a.953.953,0,0,0,1.237.1,6.345,6.345,0,0,1,2.024-.828.952.952,0,0,0,.751-.931h0V45.13h1.149v.755a.953.953,0,0,0,.791.939,6.25,6.25,0,0,1,2.036.849.951.951,0,0,0,1.186-.128h0l.532-.533.814.812-.534.534a.953.953,0,0,0-.1,1.237,6.336,6.336,0,0,1,.828,2.024.953.953,0,0,0,.931.751h.753v1.149Zm-7.064-5.6a5.024,5.024,0,1,1-5.024,5.024,5.024,5.024,0,0,1,5.024-5.024Zm0,1.906a3.118,3.118,0,1,1-3.118,3.118,3.118,3.118,0,0,1,3.118-3.118ZM65.333,62.251a2.1,2.1,0,0,1,2.638.266L74.1,68.645a2.1,2.1,0,0,1,0,2.964L71.608,74.1a2.1,2.1,0,0,1-2.964,0l-6.128-6.128a2.1,2.1,0,0,1-.266-2.638l-1.975-1.976a12.662,12.662,0,0,1-6.421,2.288v1.581a2.7,2.7,0,0,1-2.691,2.691H20.691A2.7,2.7,0,0,1,18,67.227V28.432a.949.949,0,0,1,.285-.679c3.165-3.141,6.311-6.344,9.477-9.477a.95.95,0,0,1,.67-.276H51.164a2.7,2.7,0,0,1,2.691,2.691V40.25a12.731,12.731,0,0,1,9.5,20.026l1.975,1.975Zm1.022,1.614-2.491,2.491a.193.193,0,0,0,0,.268l6.128,6.128a.193.193,0,0,0,.268,0l2.491-2.491a.193.193,0,0,0,0-.268l-6.128-6.128a.193.193,0,0,0-.268,0Zm-4.215-2.111-.387.387,1.815,1.815.387-.387ZM44.85,43.124V35.95h1.974v5.834a12.752,12.752,0,0,0-1.974,1.34ZM60.6,45.294a10.824,10.824,0,1,1-15.307,0A10.824,10.824,0,0,1,60.6,45.294ZM24.077,42.23h3.88a.953.953,0,0,1,.953.953v4.764a.953.953,0,0,1-.953.953h-3.88a.953.953,0,0,1-.953-.953V43.183A.953.953,0,0,1,24.077,42.23ZM27,44.136v2.857H25.031V44.136Zm-.477-7.056a.949.949,0,1,1-1.02-1.6l6.607-4.207a.947.947,0,0,1,.8-.1v0l6.112,1.986,4.754-3.911-.416-.022a.951.951,0,1,1,.1-1.9l2.859.151a.952.952,0,0,1,.889,1.106L46.741,31.4a.951.951,0,1,1-1.877-.313l.053-.318L39.88,34.915a.951.951,0,0,1-.943.209l-6.183-2.008L26.527,37.08Zm13.69,3.066v6.848H38.244V40.146Zm-9.533-3.5h3.88a.953.953,0,0,1,.953.953V47.947a.953.953,0,0,1-.953.953h-3.88a.953.953,0,0,1-.953-.953V37.6A.953.953,0,0,1,30.684,36.647Zm2.927,1.906v8.44H31.637v-8.44Zm-6.132-17.3v5.44a.789.789,0,0,1-.785.785h-5.44Z" transform="translate(1036.144 3891)" fill-rule="evenodd"/>
  </g>
</svg>
