<svg xmlns="http://www.w3.org/2000/svg" width="68.939" height="91.918" viewBox="0 0 68.939 91.918">
  <g id="icons8-power-bi-2021_1_" data-name="icons8-power-bi-2021 (1)" transform="translate(-9 -4)">
    <path id="Trazado_1052313" data-name="Trazado 1052313" d="M54.873,95.918H27.3a2.3,2.3,0,0,1-2.3-2.3V6.3A2.3,2.3,0,0,1,27.3,4H54.873a2.3,2.3,0,0,1,2.3,2.3V93.62A2.3,2.3,0,0,1,54.873,95.918Z" transform="translate(20.767)" fill="#eda503"/>
    <path id="Trazado_1052314" data-name="Trazado 1052314" d="M46.873,82.939H19.3a2.3,2.3,0,0,1-2.3-2.3V16.3A2.3,2.3,0,0,1,19.3,14H46.873a2.3,2.3,0,0,1,2.3,2.3V80.641A2.3,2.3,0,0,1,46.873,82.939Z" transform="translate(10.384 12.98)" fill="#ffca28"/>
    <path id="Trazado_1052315" data-name="Trazado 1052315" d="M38.873,69.959H11.3a2.3,2.3,0,0,1-2.3-2.3V26.3A2.3,2.3,0,0,1,11.3,24H38.873a2.3,2.3,0,0,1,2.3,2.3V67.661A2.3,2.3,0,0,1,38.873,69.959Z" transform="translate(0 25.959)" fill="#ffe082"/>
  </g>
</svg>
