<svg xmlns="http://www.w3.org/2000/svg" xmlns:xlink="http://www.w3.org/1999/xlink" width="103" height="103" viewBox="0 0 103 103">
  <defs>
    <filter id="Trazado_982547" x="0" y="0" width="103" height="103" filterUnits="userSpaceOnUse">
      <feOffset dy="3" input="SourceAlpha"/>
      <feGaussianBlur stdDeviation="3" result="blur"/>
      <feFlood flood-opacity="0.161"/>
      <feComposite operator="in" in2="blur"/>
      <feComposite in="SourceGraphic"/>
    </filter>
  </defs>
  <g id="Grupo_1207683" data-name="Grupo 1207683" transform="translate(-611 -2769.706)">
    <g id="Grupo_1207602" data-name="Grupo 1207602" transform="translate(0 -893.795)">
      <g id="Grupo_1207315" data-name="Grupo 1207315" transform="translate(0 2919.5)">
        <g id="Grupo_1202210" data-name="Grupo 1202210" transform="translate(340 -126.414)">
          <g id="Grupo_1174813" data-name="Grupo 1174813" transform="translate(280 876.414)">
            <g id="Grupo_1201680" data-name="Grupo 1201680">
              <g id="Grupo_1201330" data-name="Grupo 1201330">
                <g id="Grupo_1172010" data-name="Grupo 1172010">
                  <g id="Grupo_1171046" data-name="Grupo 1171046">
                    <g id="Grupo_1148525" data-name="Grupo 1148525">
                      <g transform="matrix(1, 0, 0, 1, -9, -6)" filter="url(#Trazado_982547)">
                        <g id="Trazado_982547-2" data-name="Trazado 982547" transform="translate(9 6)" fill="#f2f7e5">
                          <path d="M 42.5 83.5 C 36.96437835693359 83.5 31.59512901306152 82.41617584228516 26.54141235351562 80.27863311767578 C 21.65934181213379 78.21369171142578 17.27447128295898 75.25723266601562 13.50862312316895 71.49137878417969 C 9.742764472961426 67.72553253173828 6.786305904388428 63.34066009521484 4.721364498138428 58.45858764648438 C 2.583823442459106 53.40486907958984 1.5 48.03562164306641 1.5 42.5 C 1.5 36.96437835693359 2.583823442459106 31.59512901306152 4.721364498138428 26.54141235351562 C 6.786305904388428 21.65934181213379 9.742764472961426 17.27448272705078 13.50862312316895 13.50862312316895 C 17.27447128295898 9.742776870727539 21.65934181213379 6.786305904388428 26.54141235351562 4.721364498138428 C 31.59512901306152 2.583823442459106 36.96437835693359 1.5 42.5 1.5 C 48.03562164306641 1.5 53.40486907958984 2.583823442459106 58.45858764648438 4.721364498138428 C 63.34066009521484 6.786305904388428 67.72553253173828 9.742776870727539 71.49137878417969 13.50862312316895 C 75.25723266601562 17.27448272705078 78.21369171142578 21.65934181213379 80.27863311767578 26.54141235351562 C 82.41617584228516 31.59512901306152 83.5 36.96437835693359 83.5 42.5 C 83.5 48.03562164306641 82.41617584228516 53.40486907958984 80.27863311767578 58.45858764648438 C 78.21369171142578 63.34066009521484 75.25723266601562 67.72553253173828 71.49137878417969 71.49137878417969 C 67.72553253173828 75.25723266601562 63.34066009521484 78.21369171142578 58.45858764648438 80.27863311767578 C 53.40486907958984 82.41617584228516 48.03562164306641 83.5 42.5 83.5 Z" stroke="none"/>
                          <path d="M 42.5 3 C 37.16621398925781 3 31.99356079101562 4.043960571289062 27.125732421875 6.102882385253906 C 22.42246627807617 8.092185974121094 18.19785308837891 10.94070434570312 14.56928253173828 14.56928253173828 C 10.94070434570312 18.19785308837891 8.092185974121094 22.42246627807617 6.102882385253906 27.125732421875 C 4.043960571289062 31.99356079101562 3 37.16621398925781 3 42.5 C 3 47.83378601074219 4.043960571289062 53.00643920898438 6.102882385253906 57.874267578125 C 8.092185974121094 62.57753372192383 10.94070434570312 66.80214691162109 14.56928253173828 70.43071746826172 C 18.19785308837891 74.05929565429688 22.42246627807617 76.90781402587891 27.125732421875 78.89711761474609 C 31.99356079101562 80.95603942871094 37.16621398925781 82 42.5 82 C 47.83378601074219 82 53.00643920898438 80.95603942871094 57.874267578125 78.89711761474609 C 62.57753372192383 76.90781402587891 66.80214691162109 74.05929565429688 70.43071746826172 70.43071746826172 C 74.05929565429688 66.80214691162109 76.90781402587891 62.57753372192383 78.89711761474609 57.874267578125 C 80.95603942871094 53.00643920898438 82 47.83378601074219 82 42.5 C 82 37.16621398925781 80.95603942871094 31.99356079101562 78.89711761474609 27.125732421875 C 76.90781402587891 22.42246627807617 74.05929565429688 18.19785308837891 70.43071746826172 14.56928253173828 C 66.80214691162109 10.94070434570312 62.57753372192383 8.092185974121094 57.874267578125 6.102882385253906 C 53.00643920898438 4.043960571289062 47.83378601074219 3 42.5 3 M 42.5 0 C 65.97210693359375 0 85 19.02789306640625 85 42.5 C 85 65.97210693359375 65.97210693359375 85 42.5 85 C 19.02789306640625 85 0 65.97210693359375 0 42.5 C 0 19.02789306640625 19.02789306640625 0 42.5 0 Z" stroke="none" fill="#1d7083"/>
                        </g>
                      </g>
                    </g>
                  </g>
                </g>
              </g>
            </g>
          </g>
        </g>
      </g>
    </g>
    <g id="data-analytics_1671609" transform="translate(634.865 2792.578)">
      <path id="Trazado_1052523" data-name="Trazado 1052523" d="M27.7,205.847a9.578,9.578,0,0,1-9.583,9.583,8.1,8.1,0,0,1-1.306-.1,9.576,9.576,0,0,1,0-18.975,8.1,8.1,0,0,1,1.306-.1,9.578,9.578,0,0,1,9.583,9.583Zm0,0" transform="translate(-7.664 -176.227)" fill="#bb193b"/>
      <path id="Trazado_1052524" data-name="Trazado 1052524" d="M25.088,206.694a9.565,9.565,0,0,1-8.276,9.488,9.576,9.576,0,0,1,0-18.975A9.564,9.564,0,0,1,25.088,206.694Zm0,0" transform="translate(-7.664 -177.074)" fill="#ef314c"/>
      <path id="Trazado_1052525" data-name="Trazado 1052525" d="M9.406,8.535H39.027a.871.871,0,0,1,.871.871v6.97a.871.871,0,0,1-.871.871H9.406a.871.871,0,0,1-.871-.871V9.406a.871.871,0,0,1,.871-.871Zm0,0" transform="translate(-7.664 -7.664)" fill="#fec108"/>
      <path id="Trazado_1052526" data-name="Trazado 1052526" d="M9.406,8.535H36.414a.871.871,0,0,1,.871.871v6.97a.871.871,0,0,1-.871.871H9.406a.871.871,0,0,1-.871-.871V9.406a.871.871,0,0,1,.871-.871Zm0,0" transform="translate(-7.664 -7.664)" fill="#ffdc00"/>
      <path id="Trazado_1052527" data-name="Trazado 1052527" d="M111.982,205.849H102.4v-9.583a9.578,9.578,0,0,1,9.583,9.583Zm0,0" transform="translate(-91.945 -176.229)" fill="#0377bc"/>
      <path id="Trazado_1052528" data-name="Trazado 1052528" d="M109.368,209.069H102.4v-9.217A9.569,9.569,0,0,1,109.368,209.069Zm0,0" transform="translate(-91.945 -179.448)" fill="#02a9f4"/>
      <path id="Trazado_1052529" data-name="Trazado 1052529" d="M18.114,196.266v9.583l-6.778,6.778a9.586,9.586,0,0,1,6.778-16.361Zm0,0" transform="translate(-7.661 -176.229)" fill="#ffdc00"/>
      <path id="Trazado_1052530" data-name="Trazado 1052530" d="M442.169,165.617a3.483,3.483,0,0,1-3.485,3.485,3.268,3.268,0,0,1-1.306-.261,3.474,3.474,0,0,1,0-6.447,3.274,3.274,0,0,1,1.306-.261,3.484,3.484,0,0,1,3.485,3.485Zm0,0" transform="translate(-390.769 -145.58)" fill="#bb193b"/>
      <path id="Trazado_1052531" data-name="Trazado 1052531" d="M439.555,167.915c0-1.78-.975-3.224-2.178-3.224s-2.178,1.443-2.178,3.224.975,3.224,2.178,3.224S439.555,169.7,439.555,167.915Zm0,0" transform="translate(-390.768 -147.878)" fill="#ef314c"/>
      <path id="Trazado_1052532" data-name="Trazado 1052532" d="M31.363,10.454H1.742A1.744,1.744,0,0,1,0,8.711V1.742A1.744,1.744,0,0,1,1.742,0H31.363a1.744,1.744,0,0,1,1.742,1.742v6.97A1.744,1.744,0,0,1,31.363,10.454ZM1.742,1.742v6.97H31.365l0-6.97Zm0,0"/>
      <path id="Trazado_1052533" data-name="Trazado 1052533" d="M.874,33.444a.871.871,0,0,1-.4-1.645,22.376,22.376,0,0,1,9.984-2.541,20,20,0,0,1,5.809.851A21.633,21.633,0,0,0,22.653,31a12.947,12.947,0,0,0,4.545-.975,27.084,27.084,0,0,1,4.9-1.307.871.871,0,1,1,.274,1.72,25.4,25.4,0,0,0-4.608,1.235,14.7,14.7,0,0,1-5.112,1.07,23.091,23.091,0,0,1-6.839-.951A18.323,18.323,0,0,0,10.456,31a20.617,20.617,0,0,0-9.182,2.346.865.865,0,0,1-.4.1Zm0,0" transform="translate(-0.002 -25.774)"/>
      <path id="Trazado_1052534" data-name="Trazado 1052534" d="M94.738,41.1a.871.871,0,0,1-.871-.871V35a.871.871,0,1,1,1.742,0v5.227A.871.871,0,0,1,94.738,41.1Zm0,0" transform="translate(-84.284 -30.648)"/>
      <path id="Trazado_1052535" data-name="Trazado 1052535" d="M205.672,56.426a.871.871,0,0,1-.871-.871V52.07a.871.871,0,1,1,1.742,0v3.485A.871.871,0,0,1,205.672,56.426Zm0,0" transform="translate(-183.892 -45.972)"/>
      <path id="Trazado_1052536" data-name="Trazado 1052536" d="M431.024,162.314a4.356,4.356,0,1,1,4.356-4.356A4.356,4.356,0,0,1,431.024,162.314Zm0-6.969a2.614,2.614,0,1,0,2.614,2.613A2.613,2.613,0,0,0,431.024,155.344Zm0,0" transform="translate(-383.108 -137.92)"/>
      <path id="Trazado_1052537" data-name="Trazado 1052537" d="M324.846,52.251a.871.871,0,0,1-.871-.871V49.637a.871.871,0,1,1,1.742,0V51.38A.872.872,0,0,1,324.846,52.251Zm0-5.228a.871.871,0,0,1-.871-.871v-.871a.865.865,0,0,0-.106-.418.871.871,0,0,1,1.53-.834,2.627,2.627,0,0,1,.319,1.252v.871A.871.871,0,0,1,324.846,47.024Zm-3.36-2.613h-1.742a.871.871,0,1,1,0-1.742h1.742a.871.871,0,0,1,0,1.742Zm-5.227,0h-1.743a.871.871,0,0,1,0-1.742h1.743a.871.871,0,0,1,0,1.742Zm-5.228,0h-1.742a.871.871,0,0,1,0-1.742h1.742a.871.871,0,1,1,0,1.742Zm0,0" transform="translate(-276.931 -38.312)"/>
      <path id="Trazado_1052538" data-name="Trazado 1052538" d="M461.672,105.923a.871.871,0,0,1-.484-1.6l2.613-1.742a.871.871,0,0,1,.967,1.45l-2.614,1.743A.875.875,0,0,1,461.672,105.923Zm0,0" transform="translate(-413.755 -91.984)"/>
      <path id="Trazado_1052539" data-name="Trazado 1052539" d="M438.742,105.923a.875.875,0,0,1-.482-.146l-2.614-1.743a.871.871,0,0,1,.966-1.45l2.614,1.742a.871.871,0,0,1-.484,1.6Zm0,0" transform="translate(-390.827 -91.984)"/>
      <path id="Trazado_1052540" data-name="Trazado 1052540" d="M224.483,263.029a.869.869,0,0,1-.726-.388l-1.742-2.613a.872.872,0,0,1,0-.967l1.742-2.613a.871.871,0,0,1,1.45.966l-1.42,2.13,1.42,2.13a.871.871,0,0,1-.724,1.354Zm0,0" transform="translate(-199.218 -229.924)"/>
      <path id="Trazado_1052541" data-name="Trazado 1052541" d="M222.7,450.644a.871.871,0,0,1-.724-1.354l1.42-2.13-1.42-2.13a.871.871,0,1,1,1.45-.966l1.742,2.613a.873.873,0,0,1,0,.967l-1.742,2.613a.87.87,0,0,1-.726.388Zm0,0" transform="translate(-199.176 -398.372)"/>
      <path id="Trazado_1052542" data-name="Trazado 1052542" d="M361.942,327.788a.865.865,0,0,1-.483-.146l-2.614-1.742a.871.871,0,0,1,.967-1.45l2.13,1.42,2.13-1.42a.871.871,0,0,1,.967,1.45l-2.614,1.742a.864.864,0,0,1-.483.146Zm0,0" transform="translate(-321.867 -291.198)"/>
      <path id="Trazado_1052543" data-name="Trazado 1052543" d="M71.809,140.056a.87.87,0,0,1-.483-.146l-2.614-1.742a.871.871,0,0,1,.967-1.45l2.13,1.42,2.13-1.42a.871.871,0,0,1,.967,1.45l-2.614,1.742a.868.868,0,0,1-.483.147Zm0,0" transform="translate(-61.355 -122.632)"/>
      <path id="Trazado_1052544" data-name="Trazado 1052544" d="M10.454,208.644a10.454,10.454,0,1,1,10.455-10.455A10.455,10.455,0,0,1,10.454,208.644Zm0-19.166a8.712,8.712,0,1,0,8.712,8.712A8.712,8.712,0,0,0,10.454,189.477Zm0,0" transform="translate(0 -168.569)"/>
      <path id="Trazado_1052545" data-name="Trazado 1052545" d="M231.27,199.06a.871.871,0,1,1,0-1.742c3.218,0,5.838-1.45,8.008-4.433a12.543,12.543,0,0,1,10.114-5.151h1.916a.871.871,0,1,1,0,1.742h-1.916a10.8,10.8,0,0,0-8.705,4.432C238.2,197.327,235.033,199.06,231.27,199.06Zm0,0" transform="translate(-206.877 -168.568)"/>
      <path id="Trazado_1052546" data-name="Trazado 1052546" d="M28.373,290.119a.871.871,0,0,1-.616-1.487l6.776-6.775a.87.87,0,0,1,.616-.255h9.583a.871.871,0,1,1,0,1.742H35.509l-6.52,6.52a.869.869,0,0,1-.616.255Zm0,0" transform="translate(-24.695 -252.852)"/>
      <path id="Trazado_1052547" data-name="Trazado 1052547" d="M94.738,199.06a.871.871,0,0,1-.871-.871v-9.583a.871.871,0,0,1,1.742,0v9.583A.871.871,0,0,1,94.738,199.06Zm0,0" transform="translate(-84.284 -168.568)"/>
      <path id="Trazado_1052548" data-name="Trazado 1052548" d="M296.589,389.4H273.938a.871.871,0,0,1-.871-.871v-12.2a.871.871,0,1,1,1.742,0v11.326h21.78a.871.871,0,1,1,0,1.742Zm0,0" transform="translate(-245.189 -337.132)"/>
      <path id="Trazado_1052549" data-name="Trazado 1052549" d="M296.589,389.4c-2.486,0-3.7-2.694-4.991-5.546-1.478-3.27-3-6.65-6.335-6.65s-4.857,3.381-6.335,6.65c-1.288,2.853-2.5,5.546-4.991,5.546a.871.871,0,1,1,0-1.742c1.361,0,2.353-2.2,3.4-4.522,1.545-3.419,3.468-7.675,7.923-7.675s6.377,4.256,7.922,7.675c1.05,2.326,2.042,4.522,3.4,4.522a.871.871,0,1,1,0,1.742Zm0,0" transform="translate(-245.188 -337.132)"/>
      <path id="Trazado_1052550" data-name="Trazado 1052550" d="M384.871,378.95a.871.871,0,0,1-.871-.871v-1.742a.871.871,0,1,1,1.742,0v1.742A.871.871,0,0,1,384.871,378.95Zm0,0" transform="translate(-344.796 -337.133)"/>
      <path id="Trazado_1052551" data-name="Trazado 1052551" d="M384.871,481.352a.871.871,0,0,1-.871-.871v-1.742a.871.871,0,0,1,1.742,0v1.742A.871.871,0,0,1,384.871,481.352Zm0,0" transform="translate(-344.796 -429.08)"/>
      <path id="Trazado_1052552" data-name="Trazado 1052552" d="M384.871,430.153a.871.871,0,0,1-.871-.871v-1.742a.871.871,0,0,1,1.742,0v1.742A.871.871,0,0,1,384.871,430.153Zm0,0" transform="translate(-344.796 -383.108)"/>
      <path id="Trazado_1052553" data-name="Trazado 1052553" d="M109.549,386.79H96.481a2.616,2.616,0,0,1-2.613-2.613v-7.841a.871.871,0,1,1,1.742,0v7.841a.871.871,0,0,0,.871.871h13.068a.871.871,0,1,1,0,1.742Zm0,0" transform="translate(-84.284 -337.132)"/>
      <path id="Trazado_1052554" data-name="Trazado 1052554" d="M388.554,232.773a.871.871,0,0,1-.841-1.1,9.714,9.714,0,0,1,.677-1.782.871.871,0,1,1,1.559.778,8.024,8.024,0,0,0-.555,1.464A.871.871,0,0,1,388.554,232.773Zm2.739-4.354a.871.871,0,0,1-.584-1.518,17.428,17.428,0,0,1,1.431-1.147.871.871,0,0,1,1.026,1.409,15.7,15.7,0,0,0-1.289,1.031.866.866,0,0,1-.584.225Zm4.093-3.24a.871.871,0,0,1-.662-1.437,1.489,1.489,0,0,0,.423-1,.871.871,0,0,1,1.742,0,3.2,3.2,0,0,1-.841,2.136A.871.871,0,0,1,395.386,225.179Zm0,0" transform="translate(-348.102 -199.216)"/>
      <path id="Trazado_1052555" data-name="Trazado 1052555" d="M94.738,94.044a.871.871,0,0,1-.871-.871V86.2a.871.871,0,1,1,1.742,0v6.97A.871.871,0,0,1,94.738,94.044Zm0,0" transform="translate(-84.284 -76.621)"/>
    </g>
  </g>
</svg>
