<svg xmlns="http://www.w3.org/2000/svg" xmlns:xlink="http://www.w3.org/1999/xlink" width="967" height="447.166" viewBox="0 0 967 447.166">
  <defs>
    <clipPath id="clip-path">
      <rect id="Rectángulo_419509" data-name="Rectángulo 419509" width="524.27" height="365.581" fill="none"/>
    </clipPath>
    <clipPath id="clip-path-4">
      <rect id="Rectángulo_419514" data-name="Rectángulo 419514" width="283" height="341" transform="translate(374 979.108)" fill="#fff" stroke="#707070" stroke-width="1"/>
    </clipPath>
    <clipPath id="clip-path-5">
      <rect id="Rectángulo_419460" data-name="Rectángulo 419460" width="247.883" height="544.295" fill="none"/>
    </clipPath>
  </defs>
  <g id="Grupo_1207699" data-name="Grupo 1207699" transform="translate(-3706 1089.166)">
    <g id="Grupo_1207569" data-name="Grupo 1207569" transform="translate(3385 -1940)">
      <g id="Grupo_1207567" data-name="Grupo 1207567" transform="translate(538.365 850.834)">
        <rect id="Rectángulo_419477" data-name="Rectángulo 419477" width="413.859" height="235.331" transform="translate(59.795 77.578)" fill="#ada8f0"/>
        <path id="Trazado_1052257" data-name="Trazado 1052257" d="M456.116,191.626V293.16H90.105V194.691l59.6-29.45,49.127,3.662,43.678-1.079,50.859-25.649,43.977,18.855,37.556-5.634,55.822,18.79Z" transform="translate(-3.647 -5.754)" fill="#553ac7"/>
        <g id="Grupo_1207562" data-name="Grupo 1207562">
          <g id="Grupo_1207561" data-name="Grupo 1207561" clip-path="url(#clip-path)">
            <path id="Trazado_1052258" data-name="Trazado 1052258" d="M90.082,195.246a.58.58,0,0,1-.258-1.1L149.136,164.7a.525.525,0,0,1,.3-.059l49.417,3.662,43.491-1.078,50.742-25.591a.581.581,0,0,1,.49-.015L337.4,160.406l37.5-5.667a.6.6,0,0,1,.273.024l55.714,18.848a.6.6,0,0,1,.143.071l25.39,17.441a.58.58,0,1,1-.656.956l-25.324-17.4-55.5-18.776-37.525,5.671a.6.6,0,0,1-.316-.041l-43.727-18.748-50.618,25.527a.57.57,0,0,1-.248.062l-43.678,1.079-49.316-3.652-59.169,29.38a.574.574,0,0,1-.257.06" transform="translate(-3.622 -5.73)" fill="#fff"/>
            <path id="Trazado_1052259" data-name="Trazado 1052259" d="M90.105,283.333l59.312-25.125,49.417-27.724,43.678-.571,51.148-24.8,43.978,40.162,36.975-9.3,55.822-14.053,25.681,11.25v62.529H90.105Z" transform="translate(-3.647 -8.302)" fill="#716ad9"/>
            <path id="Trazado_1052260" data-name="Trazado 1052260" d="M151.907,168.811a.29.29,0,0,1-.29-.29V166.2a.29.29,0,1,1,.58,0v2.318a.289.289,0,0,1-.29.29" transform="translate(-6.137 -6.715)" fill="#cfccff"/>
            <path id="Trazado_1052261" data-name="Trazado 1052261" d="M151.907,285.506a.29.29,0,0,1-.29-.29v-4.652a.29.29,0,1,1,.58,0v4.652a.29.29,0,0,1-.29.29m0-11.63a.29.29,0,0,1-.29-.29v-4.652a.29.29,0,0,1,.58,0v4.652a.29.29,0,0,1-.29.29m0-11.629a.29.29,0,0,1-.29-.29V257.3a.29.29,0,1,1,.58,0v4.654a.29.29,0,0,1-.29.29m0-11.631a.29.29,0,0,1-.29-.29v-4.652a.29.29,0,1,1,.58,0v4.652a.29.29,0,0,1-.29.29m0-11.63a.29.29,0,0,1-.29-.29v-4.652a.29.29,0,1,1,.58,0v4.652a.29.29,0,0,1-.29.29m0-11.629a.29.29,0,0,1-.29-.29v-4.652a.29.29,0,1,1,.58,0v4.652a.29.29,0,0,1-.29.29m0-11.63a.29.29,0,0,1-.29-.29v-4.653a.29.29,0,1,1,.58,0v4.653a.29.29,0,0,1-.29.29m0-11.631a.29.29,0,0,1-.29-.29v-4.652a.29.29,0,1,1,.58,0V203.8a.289.289,0,0,1-.29.29m0-11.629a.29.29,0,0,1-.29-.29v-4.652a.29.29,0,1,1,.58,0v4.652a.29.29,0,0,1-.29.29m0-11.63a.289.289,0,0,1-.29-.29v-4.653a.29.29,0,1,1,.58,0v4.653a.289.289,0,0,1-.29.29" transform="translate(-6.137 -7.107)" fill="#cfccff"/>
            <path id="Trazado_1052262" data-name="Trazado 1052262" d="M151.907,299.709a.29.29,0,0,1-.29-.29V297.1a.29.29,0,1,1,.58,0v2.318a.29.29,0,0,1-.29.29" transform="translate(-6.137 -12.013)" fill="#cfccff"/>
            <path id="Trazado_1052263" data-name="Trazado 1052263" d="M203.408,172.627a.29.29,0,0,1-.29-.29v-2.318a.29.29,0,0,1,.58,0v2.318a.29.29,0,0,1-.29.29" transform="translate(-8.221 -6.87)" fill="#cfccff"/>
            <path id="Trazado_1052264" data-name="Trazado 1052264" d="M203.408,285.859a.29.29,0,0,1-.29-.29v-4.514a.29.29,0,0,1,.58,0v4.514a.29.29,0,0,1-.29.29m0-11.285a.29.29,0,0,1-.29-.29v-4.514a.29.29,0,0,1,.58,0v4.514a.289.289,0,0,1-.29.29m0-11.284a.29.29,0,0,1-.29-.291v-4.514a.29.29,0,0,1,.58,0V263a.29.29,0,0,1-.29.291m0-11.285a.29.29,0,0,1-.29-.29V247.2a.29.29,0,0,1,.58,0v4.514a.29.29,0,0,1-.29.29m0-11.285a.29.29,0,0,1-.29-.29v-4.515a.29.29,0,0,1,.58,0v4.515a.29.29,0,0,1-.29.29m0-11.285a.29.29,0,0,1-.29-.29v-4.515a.29.29,0,0,1,.58,0v4.515a.29.29,0,0,1-.29.29m0-11.285a.29.29,0,0,1-.29-.29v-4.515a.29.29,0,1,1,.58,0v4.515a.29.29,0,0,1-.29.29m0-11.286a.29.29,0,0,1-.29-.29v-4.514a.29.29,0,0,1,.58,0v4.514a.29.29,0,0,1-.29.29m0-11.284a.29.29,0,0,1-.29-.29v-4.514a.29.29,0,0,1,.58,0v4.514a.29.29,0,0,1-.29.29m0-11.285a.29.29,0,0,1-.29-.29v-4.514a.29.29,0,0,1,.58,0v4.514a.289.289,0,0,1-.29.29" transform="translate(-8.221 -7.253)" fill="#cfccff"/>
            <path id="Trazado_1052265" data-name="Trazado 1052265" d="M203.408,299.709a.29.29,0,0,1-.29-.29V297.1a.29.29,0,1,1,.58,0v2.318a.29.29,0,0,1-.29.29" transform="translate(-8.221 -12.013)" fill="#cfccff"/>
            <path id="Trazado_1052266" data-name="Trazado 1052266" d="M248.928,171.5a.29.29,0,0,1-.29-.29v-2.318a.29.29,0,0,1,.58,0v2.318a.29.29,0,0,1-.29.29" transform="translate(-10.063 -6.824)" fill="#cfccff"/>
            <path id="Trazado_1052267" data-name="Trazado 1052267" d="M248.928,285.755a.29.29,0,0,1-.29-.29v-4.554a.29.29,0,0,1,.58,0v4.554a.29.29,0,0,1-.29.29m0-11.387a.29.29,0,0,1-.29-.29v-4.554a.29.29,0,1,1,.58,0v4.554a.29.29,0,0,1-.29.29m0-11.387a.29.29,0,0,1-.29-.29v-4.554a.29.29,0,1,1,.58,0v4.554a.29.29,0,0,1-.29.29m0-11.387a.29.29,0,0,1-.29-.29v-4.554a.29.29,0,0,1,.58,0V251.3a.29.29,0,0,1-.29.29m0-11.387a.29.29,0,0,1-.29-.29v-4.554a.29.29,0,0,1,.58,0v4.554a.29.29,0,0,1-.29.29m0-11.386a.29.29,0,0,1-.29-.291v-4.554a.29.29,0,1,1,.58,0v4.554a.29.29,0,0,1-.29.291m0-11.387a.29.29,0,0,1-.29-.291v-4.554a.29.29,0,1,1,.58,0v4.554a.29.29,0,0,1-.29.291m0-11.387a.29.29,0,0,1-.29-.291V201.2a.29.29,0,1,1,.58,0v4.554a.29.29,0,0,1-.29.291m0-11.387a.29.29,0,0,1-.29-.29v-4.555a.29.29,0,0,1,.58,0v4.555a.29.29,0,0,1-.29.29m0-11.388a.29.29,0,0,1-.29-.29V178.43a.29.29,0,1,1,.58,0v4.555a.29.29,0,0,1-.29.29" transform="translate(-10.063 -7.21)" fill="#cfccff"/>
            <path id="Trazado_1052268" data-name="Trazado 1052268" d="M248.928,299.709a.29.29,0,0,1-.29-.29V297.1a.29.29,0,1,1,.58,0v2.318a.29.29,0,0,1-.29.29" transform="translate(-10.063 -12.013)" fill="#cfccff"/>
            <path id="Trazado_1052269" data-name="Trazado 1052269" d="M301.932,144.771a.29.29,0,0,1-.29-.29v-2.318a.29.29,0,1,1,.58,0v2.318a.29.29,0,0,1-.29.29" transform="translate(-12.209 -5.742)" fill="#cfccff"/>
            <path id="Trazado_1052270" data-name="Trazado 1052270" d="M301.932,284.541a.29.29,0,0,1-.29-.29v-4.646a.29.29,0,0,1,.58,0v4.646a.29.29,0,0,1-.29.29m0-11.615a.29.29,0,0,1-.29-.29v-4.645a.29.29,0,0,1,.58,0v4.645a.29.29,0,0,1-.29.29m0-11.614a.291.291,0,0,1-.29-.29v-4.646a.29.29,0,1,1,.58,0v4.646a.291.291,0,0,1-.29.29m0-11.615a.291.291,0,0,1-.29-.29v-4.646a.29.29,0,0,1,.58,0v4.646a.291.291,0,0,1-.29.29m0-11.615a.291.291,0,0,1-.29-.291v-4.645a.29.29,0,0,1,.58,0v4.645a.291.291,0,0,1-.29.291m0-11.615a.29.29,0,0,1-.29-.29v-4.646a.29.29,0,0,1,.58,0v4.646a.29.29,0,0,1-.29.29m0-11.615a.291.291,0,0,1-.29-.29v-4.646a.29.29,0,1,1,.58,0v4.646a.291.291,0,0,1-.29.29m0-11.614a.291.291,0,0,1-.29-.29V198.3a.29.29,0,1,1,.58,0v4.646a.291.291,0,0,1-.29.29m0-11.615a.291.291,0,0,1-.29-.29v-4.646a.29.29,0,1,1,.58,0v4.646a.291.291,0,0,1-.29.29m0-11.616a.29.29,0,0,1-.29-.29v-4.645a.29.29,0,1,1,.58,0v4.645a.29.29,0,0,1-.29.29m0-11.614a.29.29,0,0,1-.29-.29v-4.646a.29.29,0,0,1,.58,0V168.1a.29.29,0,0,1-.29.29m0-11.615a.29.29,0,0,1-.29-.29v-4.646a.29.29,0,1,1,.58,0v4.646a.29.29,0,0,1-.29.29" transform="translate(-12.209 -6.134)" fill="#cfccff"/>
            <path id="Trazado_1052271" data-name="Trazado 1052271" d="M301.932,299.709a.291.291,0,0,1-.29-.29V297.1a.29.29,0,1,1,.58,0v2.318a.291.291,0,0,1-.29.29" transform="translate(-12.209 -12.013)" fill="#cfccff"/>
            <path id="Trazado_1052272" data-name="Trazado 1052272" d="M347.765,164.421a.29.29,0,0,1-.29-.29v-2.318a.29.29,0,1,1,.58,0v2.318a.29.29,0,0,1-.29.29" transform="translate(-14.064 -6.537)" fill="#cfccff"/>
            <path id="Trazado_1052273" data-name="Trazado 1052273" d="M347.765,285.1a.291.291,0,0,1-.29-.29V280a.29.29,0,1,1,.58,0v4.81a.291.291,0,0,1-.29.29m0-12.028a.29.29,0,0,1-.29-.29v-4.811a.29.29,0,1,1,.58,0v4.811a.29.29,0,0,1-.29.29m0-12.027a.291.291,0,0,1-.29-.29v-4.812a.29.29,0,1,1,.58,0v4.812a.291.291,0,0,1-.29.29m0-12.028a.291.291,0,0,1-.29-.29v-4.812a.29.29,0,1,1,.58,0v4.812a.291.291,0,0,1-.29.29m0-12.029a.291.291,0,0,1-.29-.29v-4.81a.29.29,0,1,1,.58,0v4.81a.291.291,0,0,1-.29.29m0-12.028a.291.291,0,0,1-.29-.29V219.86a.29.29,0,1,1,.58,0v4.811a.291.291,0,0,1-.29.29m0-12.028a.29.29,0,0,1-.29-.29v-4.811a.29.29,0,1,1,.58,0v4.811a.29.29,0,0,1-.29.29m0-12.027a.291.291,0,0,1-.29-.29v-4.812a.29.29,0,1,1,.58,0v4.812a.291.291,0,0,1-.29.29m0-12.029a.29.29,0,0,1-.29-.29v-4.811a.29.29,0,1,1,.58,0v4.811a.29.29,0,0,1-.29.29m0-12.028a.29.29,0,0,1-.29-.29V171.75a.29.29,0,1,1,.58,0v4.811a.29.29,0,0,1-.29.29" transform="translate(-14.064 -6.94)" fill="#cfccff"/>
            <path id="Trazado_1052274" data-name="Trazado 1052274" d="M347.765,299.709a.291.291,0,0,1-.29-.29V297.1a.29.29,0,1,1,.58,0v2.318a.291.291,0,0,1-.29.29" transform="translate(-14.064 -12.013)" fill="#cfccff"/>
            <path id="Trazado_1052275" data-name="Trazado 1052275" d="M386.9,158.489a.29.29,0,0,1-.29-.29v-2.318a.29.29,0,0,1,.58,0V158.2a.29.29,0,0,1-.29.29" transform="translate(-15.648 -6.297)" fill="#cfccff"/>
            <path id="Trazado_1052276" data-name="Trazado 1052276" d="M386.9,285.174a.291.291,0,0,1-.29-.29v-4.593a.29.29,0,0,1,.58,0v4.593a.291.291,0,0,1-.29.29m0-11.482a.29.29,0,0,1-.29-.29V268.81a.29.29,0,1,1,.58,0V273.4a.29.29,0,0,1-.29.29m0-11.482a.291.291,0,0,1-.29-.29v-4.591a.29.29,0,1,1,.58,0v4.591a.291.291,0,0,1-.29.29m0-11.481a.29.29,0,0,1-.29-.29v-4.592a.29.29,0,1,1,.58,0v4.592a.29.29,0,0,1-.29.29m0-11.482a.29.29,0,0,1-.29-.29v-4.593a.29.29,0,1,1,.58,0v4.593a.29.29,0,0,1-.29.29m0-11.482a.291.291,0,0,1-.29-.29v-4.593a.29.29,0,1,1,.58,0v4.593a.291.291,0,0,1-.29.29m0-11.482a.291.291,0,0,1-.29-.29V211.4a.29.29,0,1,1,.58,0v4.591a.291.291,0,0,1-.29.29m0-11.482a.291.291,0,0,1-.29-.29v-4.592a.29.29,0,0,1,.58,0v4.592a.291.291,0,0,1-.29.29m0-11.481a.291.291,0,0,1-.29-.29v-4.593a.29.29,0,1,1,.58,0v4.593a.291.291,0,0,1-.29.29m0-11.482a.29.29,0,0,1-.29-.29v-4.592a.29.29,0,0,1,.58,0v4.592a.29.29,0,0,1-.29.29m0-11.482a.29.29,0,0,1-.29-.29v-4.592a.29.29,0,1,1,.58,0v4.592a.29.29,0,0,1-.29.29" transform="translate(-15.648 -6.686)" fill="#cfccff"/>
            <path id="Trazado_1052277" data-name="Trazado 1052277" d="M386.9,299.709a.291.291,0,0,1-.29-.29V297.1a.29.29,0,1,1,.58,0v2.318a.291.291,0,0,1-.29.29" transform="translate(-15.648 -12.013)" fill="#cfccff"/>
            <path id="Trazado_1052278" data-name="Trazado 1052278" d="M445.081,178.132a.29.29,0,0,1-.29-.29v-2.318a.29.29,0,1,1,.58,0v2.318a.29.29,0,0,1-.29.29" transform="translate(-18.002 -7.092)" fill="#cfccff"/>
            <path id="Trazado_1052279" data-name="Trazado 1052279" d="M445.081,285.723a.291.291,0,0,1-.29-.29v-4.765a.29.29,0,0,1,.58,0v4.765a.291.291,0,0,1-.29.29m0-11.911a.291.291,0,0,1-.29-.29v-4.764a.29.29,0,1,1,.58,0v4.764a.291.291,0,0,1-.29.29m0-11.91a.291.291,0,0,1-.29-.29v-4.764a.29.29,0,0,1,.58,0v4.764a.291.291,0,0,1-.29.29m0-11.911a.291.291,0,0,1-.29-.291v-4.763a.29.29,0,0,1,.58,0V249.7a.291.291,0,0,1-.29.291m0-11.911a.29.29,0,0,1-.29-.29v-4.763a.29.29,0,0,1,.58,0v4.763a.29.29,0,0,1-.29.29m0-11.911a.29.29,0,0,1-.29-.29v-4.764a.29.29,0,1,1,.58,0v4.764a.29.29,0,0,1-.29.29m0-11.91a.291.291,0,0,1-.29-.29v-4.764a.29.29,0,1,1,.58,0v4.764a.291.291,0,0,1-.29.29m0-11.91a.291.291,0,0,1-.29-.29V197.3a.29.29,0,1,1,.58,0v4.765a.291.291,0,0,1-.29.29m0-11.911a.291.291,0,0,1-.29-.29v-4.764a.29.29,0,1,1,.58,0v4.764a.291.291,0,0,1-.29.29" transform="translate(-18.002 -7.492)" fill="#cfccff"/>
            <path id="Trazado_1052280" data-name="Trazado 1052280" d="M445.081,299.709a.291.291,0,0,1-.29-.29V297.1a.29.29,0,1,1,.58,0v2.318a.291.291,0,0,1-.29.29" transform="translate(-18.002 -12.013)" fill="#cfccff"/>
            <path id="Trazado_1052281" data-name="Trazado 1052281" d="M351.811,161.647a4.212,4.212,0,1,1-4.211-4.211,4.211,4.211,0,0,1,4.211,4.211" transform="translate(-13.898 -6.372)" fill="#8b86d9"/>
            <path id="Trazado_1052282" data-name="Trazado 1052282" d="M350.844,161.69a3.2,3.2,0,1,1-3.2-3.2,3.2,3.2,0,0,1,3.2,3.2" transform="translate(-13.941 -6.415)" fill="#553ac7"/>
            <path id="Trazado_1052283" data-name="Trazado 1052283" d="M449.128,175.357a4.212,4.212,0,1,1-4.211-4.211,4.211,4.211,0,0,1,4.211,4.211" transform="translate(-17.837 -6.927)" fill="#8b86d9"/>
            <path id="Trazado_1052284" data-name="Trazado 1052284" d="M448.161,175.4a3.2,3.2,0,1,1-3.2-3.2,3.2,3.2,0,0,1,3.2,3.2" transform="translate(-17.88 -6.97)" fill="#553ac7"/>
            <path id="Trazado_1052285" data-name="Trazado 1052285" d="M305.978,142a4.212,4.212,0,1,1-4.211-4.211A4.211,4.211,0,0,1,305.978,142" transform="translate(-12.043 -5.577)" fill="#8b86d9"/>
            <path id="Trazado_1052286" data-name="Trazado 1052286" d="M305.011,142.039a3.2,3.2,0,1,1-3.2-3.2,3.2,3.2,0,0,1,3.2,3.2" transform="translate(-12.086 -5.619)" fill="#553ac7"/>
            <path id="Trazado_1052287" data-name="Trazado 1052287" d="M252.975,168.728a4.212,4.212,0,1,1-4.211-4.211,4.211,4.211,0,0,1,4.211,4.211" transform="translate(-9.898 -6.659)" fill="#8b86d9"/>
            <path id="Trazado_1052288" data-name="Trazado 1052288" d="M252.007,168.771a3.2,3.2,0,1,1-3.2-3.2,3.2,3.2,0,0,1,3.2,3.2" transform="translate(-9.94 -6.701)" fill="#553ac7"/>
            <path id="Trazado_1052289" data-name="Trazado 1052289" d="M207.454,169.853a4.212,4.212,0,1,1-4.211-4.211,4.211,4.211,0,0,1,4.211,4.211" transform="translate(-8.055 -6.704)" fill="#8b86d9"/>
            <path id="Trazado_1052290" data-name="Trazado 1052290" d="M206.487,169.9a3.2,3.2,0,1,1-3.2-3.2,3.2,3.2,0,0,1,3.2,3.2" transform="translate(-8.098 -6.747)" fill="#553ac7"/>
            <path id="Trazado_1052291" data-name="Trazado 1052291" d="M155.953,166.036a4.212,4.212,0,1,1-4.211-4.211,4.211,4.211,0,0,1,4.211,4.211" transform="translate(-5.971 -6.55)" fill="#8b86d9"/>
            <path id="Trazado_1052292" data-name="Trazado 1052292" d="M154.986,166.079a3.2,3.2,0,1,1-3.2-3.2,3.2,3.2,0,0,1,3.2,3.2" transform="translate(-6.014 -6.592)" fill="#553ac7"/>
            <path id="Trazado_1052293" data-name="Trazado 1052293" d="M461.047,292.04H89.5V100.181H90.66v190.7H461.047Z" transform="translate(-3.622 -4.055)" fill="#fff"/>
            <rect id="Rectángulo_419478" data-name="Rectángulo 419478" width="41.288" height="8.974" transform="translate(336.902 91.246)" fill="#fff"/>
            <rect id="Rectángulo_419479" data-name="Rectángulo 419479" width="64.336" height="8.974" transform="translate(388.133 91.246)" fill="#fff"/>
            <path id="Trazado_1052294" data-name="Trazado 1052294" d="M405.818,155.121a19.735,19.735,0,1,1-19.735-19.735,19.734,19.734,0,0,1,19.735,19.735" transform="translate(-14.828 -5.48)" fill="#c3bfff"/>
            <path id="Trazado_1052295" data-name="Trazado 1052295" d="M397.366,155.493a10.909,10.909,0,1,1-10.91-10.909,10.909,10.909,0,0,1,10.91,10.909" transform="translate(-15.2 -5.852)" fill="#dbd9ff"/>
            <path id="Trazado_1052296" data-name="Trazado 1052296" d="M394.038,155.639A7.435,7.435,0,1,1,386.6,148.2a7.435,7.435,0,0,1,7.434,7.435" transform="translate(-15.346 -5.998)" fill="#b6b3ff"/>
            <path id="Trazado_1052297" data-name="Trazado 1052297" d="M390.708,155.786a3.959,3.959,0,1,1-3.959-3.959,3.959,3.959,0,0,1,3.959,3.959" transform="translate(-15.493 -6.145)" fill="#5b53d6"/>
            <rect id="Rectángulo_419480" data-name="Rectángulo 419480" width="188.604" height="139.622" transform="translate(0 0.001)" fill="#553ac7"/>
            <path id="Trazado_1052298" data-name="Trazado 1052298" d="M54.834,95.979l-17.6,25A58.792,58.792,0,0,1,15.314,91.424l29.017-9.581a28.013,28.013,0,0,0,10.5,14.136" transform="translate(-0.62 -3.312)" fill="#fff"/>
            <path id="Trazado_1052299" data-name="Trazado 1052299" d="M130.573,70.185a58.646,58.646,0,0,1-92.418,47.948l17.6-25A28.081,28.081,0,1,0,71.925,42.1V11.537a58.647,58.647,0,0,1,58.648,58.648" transform="translate(-1.544 -0.467)" fill="#f6b34f"/>
            <path id="Trazado_1052300" data-name="Trazado 1052300" d="M70.875,11.536V42.1A28.09,28.09,0,0,0,44.206,79L15.189,88.578A58.666,58.666,0,0,1,70.875,11.536" transform="translate(-0.495 -0.467)" fill="#f04965"/>
            <rect id="Rectángulo_419481" data-name="Rectángulo 419481" width="36.573" height="7.106" transform="translate(141.261 99.697)" fill="#ada8f0"/>
            <rect id="Rectángulo_419482" data-name="Rectángulo 419482" width="45.98" height="7.106" transform="translate(131.855 115.054)" fill="#ada8f0"/>
            <rect id="Rectángulo_419483" data-name="Rectángulo 419483" width="11.668" height="7.853" transform="translate(157.192 59.46)" fill="#f6b34f"/>
            <rect id="Rectángulo_419484" data-name="Rectángulo 419484" width="11.668" height="7.853" transform="translate(157.192 41.341)" fill="#fff"/>
            <rect id="Rectángulo_419485" data-name="Rectángulo 419485" width="11.668" height="7.853" transform="translate(157.192 23.223)" fill="#f04965"/>
            <rect id="Rectángulo_419486" data-name="Rectángulo 419486" width="188.604" height="139.622" transform="translate(3.229 2.992)" fill="none" stroke="#f04965" stroke-miterlimit="10" stroke-width="1.208"/>
            <rect id="Rectángulo_419487" data-name="Rectángulo 419487" width="54.67" height="8.077" transform="translate(204.236 42.781)" fill="#553ac7"/>
            <rect id="Rectángulo_419488" data-name="Rectángulo 419488" width="54.67" height="8.077" transform="translate(204.236 11.07)" fill="#553ac7"/>
            <rect id="Rectángulo_419489" data-name="Rectángulo 419489" width="34.128" height="8.077" transform="translate(204.236 23.111)" fill="#553ac7"/>
            <rect id="Rectángulo_419490" data-name="Rectángulo 419490" width="26.327" height="5.824" transform="translate(36.927 165.106)" fill="#716ad9"/>
            <rect id="Rectángulo_419491" data-name="Rectángulo 419491" width="51.756" height="5.824" transform="translate(24.213 174.13)" fill="#716ad9"/>
            <rect id="Rectángulo_419492" data-name="Rectángulo 419492" width="38.294" height="5.824" transform="translate(30.944 183.153)" fill="#716ad9"/>
            <rect id="Rectángulo_419493" data-name="Rectángulo 419493" width="26.327" height="5.824" transform="translate(36.927 208.311)" fill="#716ad9"/>
            <rect id="Rectángulo_419494" data-name="Rectángulo 419494" width="51.756" height="5.824" transform="translate(24.213 217.335)" fill="#716ad9"/>
            <rect id="Rectángulo_419495" data-name="Rectángulo 419495" width="38.294" height="5.824" transform="translate(30.944 226.359)" fill="#716ad9"/>
            <rect id="Rectángulo_419496" data-name="Rectángulo 419496" width="71.221" height="138.505" transform="translate(450.356 122.171)" fill="#f04965"/>
            <rect id="Rectángulo_419497" data-name="Rectángulo 419497" width="71.221" height="138.505" transform="translate(452.469 124.714)" fill="none" stroke="#553ac7" stroke-miterlimit="10" stroke-width="1.208"/>
            <rect id="Rectángulo_419498" data-name="Rectángulo 419498" width="12.995" height="36.631" transform="translate(460.621 215.108)" fill="#fff"/>
            <rect id="Rectángulo_419499" data-name="Rectángulo 419499" width="12.995" height="113.231" transform="translate(479.469 138.508)" fill="#f6b34f"/>
            <rect id="Rectángulo_419500" data-name="Rectángulo 419500" width="12.995" height="67.689" transform="translate(498.316 184.05)" fill="#553ac7"/>
            <rect id="Rectángulo_419501" data-name="Rectángulo 419501" width="15.557" height="7.18" transform="translate(444.093 329.083)" fill="#f04965"/>
            <rect id="Rectángulo_419502" data-name="Rectángulo 419502" width="15.557" height="7.18" transform="translate(444.093 343.743)" fill="#f04965"/>
            <rect id="Rectángulo_419503" data-name="Rectángulo 419503" width="15.557" height="7.18" transform="translate(444.093 358.401)" fill="#f04965"/>
            <rect id="Rectángulo_419504" data-name="Rectángulo 419504" width="49.047" height="7.18" transform="translate(465.623 329.083)" fill="#716ad9"/>
            <rect id="Rectángulo_419505" data-name="Rectángulo 419505" width="43.389" height="7.18" transform="translate(465.623 343.743)" fill="#716ad9"/>
            <rect id="Rectángulo_419506" data-name="Rectángulo 419506" width="52.363" height="7.18" transform="translate(465.623 358.401)" fill="#716ad9"/>
            <rect id="Rectángulo_419507" data-name="Rectángulo 419507" width="45.997" height="18.691" transform="translate(204.236 94.284)" fill="none" stroke="#4b44b0" stroke-miterlimit="10" stroke-width="1.208"/>
            <rect id="Rectángulo_419508" data-name="Rectángulo 419508" width="45.997" height="18.691" transform="translate(204.236 94.284)" fill="#fff"/>
          </g>
        </g>
        <text id="_4.410" data-name="4.410" transform="translate(224.713 104.261)" fill="#4b44b0" font-size="6" font-family="Montserrat-SemiBold, Montserrat" font-weight="600"><tspan x="0" y="0" letter-spacing="0.02em">4</tspan><tspan y="0" letter-spacing="-0.004em">.</tspan><tspan y="0" letter-spacing="-0.024em">4</tspan><tspan y="0">10</tspan></text>
        <g id="Grupo_1207564" data-name="Grupo 1207564">
          <g id="Grupo_1207563" data-name="Grupo 1207563" clip-path="url(#clip-path)">
            <path id="Trazado_1052301" data-name="Trazado 1052301" d="M221.284,104.588l-3.347,5.8h6.694Z" transform="translate(-8.821 -4.233)" fill="#f04965"/>
            <rect id="Rectángulo_419510" data-name="Rectángulo 419510" width="45.997" height="18.692" transform="translate(204.236 69.851)" fill="none" stroke="#4b44b0" stroke-miterlimit="10" stroke-width="1.208"/>
            <rect id="Rectángulo_419511" data-name="Rectángulo 419511" width="45.997" height="18.692" transform="translate(204.236 69.851)" fill="#fff"/>
          </g>
        </g>
        <text id="_14.380" data-name="14.380" transform="translate(220.017 79.829)" fill="#4b44b0" font-size="6" font-family="Montserrat-SemiBold, Montserrat" font-weight="600"><tspan x="0" y="0">1</tspan><tspan y="0" letter-spacing="0.02em">4</tspan><tspan y="0" letter-spacing="0.009em">.</tspan><tspan y="0">380</tspan></text>
        <g id="Grupo_1207566" data-name="Grupo 1207566">
          <g id="Grupo_1207565" data-name="Grupo 1207565" clip-path="url(#clip-path)">
            <path id="Trazado_1052302" data-name="Trazado 1052302" d="M221.284,79.125l-3.347,5.8h6.694Z" transform="translate(-8.821 -3.202)" fill="#f04965"/>
          </g>
        </g>
      </g>
      <g id="Enmascarar_grupo_1098813" data-name="Enmascarar grupo 1098813" transform="translate(-10 -22.108)" clip-path="url(#clip-path-4)">
        <g id="Grupo_1207568" data-name="Grupo 1207568" transform="translate(409.878 978.822)">
          <g id="Grupo_1207541" data-name="Grupo 1207541" clip-path="url(#clip-path-5)">
            <path id="Trazado_1052105" data-name="Trazado 1052105" d="M150.172,81.226,128.766,69.714,141.9,49.226s3.646-9.186,5.292-11.914,3.994-4.572,5.106-4.1,2.015,1.335,1.892,4.019a22.95,22.95,0,0,1-.388,3.786s7.753-11.066,9.774-12.8,4.019-2.247,4.79-1.88-.841,3.992-.841,3.992,3.009-3.11,4.365-3.232a2.239,2.239,0,0,1,2.168,2.522s2.754-2,3.247-.246-.921,5.751-.921,5.751,3.111-2.875,4.121-.077-9.975,15.9-11.563,17.916-14.735,20.907-14.735,20.907Z" transform="translate(66.611 13.568)" fill="#fff"/>
            <path id="Trazado_1052106" data-name="Trazado 1052106" d="M168.678,41.016c6.175-8.18,11.609-11.891,11.853-8.341s-13,19.714-17.3,25.151-13.446,21.091-13.446,21.091L128.723,66.931l1.648-3.1s9.362-13,13.443-21.814,7.3-12.65,9.617-10.7-2.567,10.142-1.68,14.477.574,7.556-.249,9.693" transform="translate(66.589 15.942)" fill="none" stroke="#010001" stroke-linecap="round" stroke-miterlimit="10" stroke-width="1"/>
            <path id="Trazado_1052107" data-name="Trazado 1052107" d="M163.355,34.693s3.737-7.074-.188-6.9c-2.077.093-7.926,9.072-10.142,11.943" transform="translate(79.16 14.376)" fill="none" stroke="#010001" stroke-linecap="round" stroke-miterlimit="10" stroke-width="1"/>
            <path id="Trazado_1052108" data-name="Trazado 1052108" d="M162.011,29.826s.366-2.549-.947-2.936c-1.46-.431-3.848.889-5.817,4.32-3.739,6.514-4.185,7.187-4.185,7.187" transform="translate(78.145 13.869)" fill="none" stroke="#010001" stroke-linecap="round" stroke-miterlimit="10" stroke-width="1"/>
            <path id="Trazado_1052109" data-name="Trazado 1052109" d="M160.608,29s1.023-3.547-2.189-2.86-14,16.036-14,16.036" transform="translate(74.708 13.476)" fill="none" stroke="#010001" stroke-linecap="round" stroke-miterlimit="10" stroke-width="1"/>
            <path id="Trazado_1052110" data-name="Trazado 1052110" d="M68.417,78.508S93.8,98.036,113.575,89.536,157.863,46.8,157.863,46.8l31.164,21.256s-8.91,70.08-50.814,82.9-52.347,2.32-52.347,2.32L67.476,147Z" transform="translate(34.906 24.21)" fill="#f19101"/>
            <path id="Trazado_1052111" data-name="Trazado 1052111" d="M129.337,46.8,160.5,68.057s-.607,4.752-2.236,12L122.621,55.53c4.139-5.136,6.716-8.729,6.716-8.729" transform="translate(63.432 24.21)" fill="#f19101"/>
            <path id="Trazado_1052112" data-name="Trazado 1052112" d="M129.337,46.8,160.5,68.057s-.607,4.752-2.236,12L122.621,55.53C126.76,50.394,129.337,46.8,129.337,46.8Z" transform="translate(63.432 24.21)" fill="none" stroke="#010001" stroke-linecap="round" stroke-miterlimit="10" stroke-width="1"/>
            <path id="Trazado_1052113" data-name="Trazado 1052113" d="M130.2,51.565a2.122,2.122,0,1,1-2.224-2.015,2.122,2.122,0,0,1,2.224,2.015" transform="translate(65.157 25.631)" fill="#010001"/>
            <path id="Trazado_1052114" data-name="Trazado 1052114" d="M157.863,46.8l31.164,21.256s-8.91,70.081-50.816,82.9-52.345,2.318-52.345,2.318L67.476,147l.941-68.49S82.428,89.287,97.739,91.343" transform="translate(34.906 24.21)" fill="none" stroke="#010001" stroke-linecap="round" stroke-miterlimit="10" stroke-width="1"/>
            <path id="Trazado_1052115" data-name="Trazado 1052115" d="M40.363,137.518l-1.488.751,1.018-.514-.2-1.74-1.877-16.446L61.979,67.9s-28.647,7.136-40.55,28.78S-8.765,162,10.146,186.2c11.914,15.249,35.223,16.1,54.087,1.739Z" transform="translate(1.027 35.126)" fill="#f19101"/>
            <path id="Trazado_1052116" data-name="Trazado 1052116" d="M19.359,87.269C32.881,72.913,52.993,67.9,52.993,67.9" transform="translate(10.014 35.127)" fill="none" stroke="#010001" stroke-linecap="round" stroke-miterlimit="10" stroke-width="1"/>
            <path id="Trazado_1052117" data-name="Trazado 1052117" d="M37.8,101.954l2.076,18.186,24.341,50.186c-19.085,15.247-41.949,13.8-54.086-1.739-5.364-6.863-7.735-15.291-8.108-24.341" transform="translate(1.045 52.741)" fill="none" stroke="#010001" stroke-linecap="round" stroke-miterlimit="10" stroke-width="1"/>
            <path id="Trazado_1052118" data-name="Trazado 1052118" d="M111.586,303.532l12.751,51.977-33.819,3.1L78.655,307.455Z" transform="translate(40.688 157.018)" fill="#fff"/>
            <path id="Trazado_1052119" data-name="Trazado 1052119" d="M111.586,303.532l12.751,51.977-33.819,3.1L78.655,307.455Z" transform="translate(40.688 157.018)" fill="none" stroke="#010001" stroke-miterlimit="10" stroke-width="1"/>
            <path id="Trazado_1052120" data-name="Trazado 1052120" d="M131.526,331.034l-53.4,3.2,6.49,38.049,91.035-.448-34.683-19.56Z" transform="translate(40.414 171.245)" fill="#fff"/>
            <path id="Trazado_1052121" data-name="Trazado 1052121" d="M131.526,331.034l-53.4,3.2,6.49,38.049,91.035-.448-34.683-19.56Z" transform="translate(40.414 171.245)" fill="none" stroke="#010001" stroke-miterlimit="10" stroke-width="1"/>
            <line id="Línea_1261" data-name="Línea 1261" x1="7.937" y2="5.136" transform="translate(188.768 529.366)" fill="none" stroke="#010001" stroke-linecap="round" stroke-miterlimit="10" stroke-width="1"/>
            <line id="Línea_1262" data-name="Línea 1262" x1="7.937" y2="5.136" transform="translate(182.514 524.229)" fill="none" stroke="#010001" stroke-linecap="round" stroke-miterlimit="10" stroke-width="1"/>
            <path id="Trazado_1052122" data-name="Trazado 1052122" d="M83.577,365.254l-3.449-20.226a26.669,26.669,0,0,1,4.52-.4c12.767,0,23.272,8.963,24.7,20.5Z" transform="translate(41.451 178.277)" fill="#6348ed"/>
            <path id="Trazado_1052123" data-name="Trazado 1052123" d="M83.577,365.254l-3.449-20.226a26.669,26.669,0,0,1,4.52-.4c12.767,0,23.272,8.963,24.7,20.5Z" transform="translate(41.451 178.277)" fill="none" stroke="#010001" stroke-miterlimit="10" stroke-width="1"/>
            <path id="Trazado_1052124" data-name="Trazado 1052124" d="M49.354,305.473l.513,53.515-33.631-4.723.164-52.512Z" transform="translate(8.399 156.098)" fill="#fff"/>
            <path id="Trazado_1052125" data-name="Trazado 1052125" d="M49.354,305.473l.513,53.515-33.631-4.723.164-52.512Z" transform="translate(8.399 156.098)" fill="none" stroke="#010001" stroke-miterlimit="10" stroke-width="1"/>
            <path id="Trazado_1052126" data-name="Trazado 1052126" d="M64.329,332.229,12.32,333.386,8.4,371.669l91.035-.448L64.754,351.66Z" transform="translate(4.346 171.864)" fill="#fff"/>
            <path id="Trazado_1052127" data-name="Trazado 1052127" d="M64.329,332.229,12.32,333.386,8.4,371.669l91.035-.448L64.754,351.66Z" transform="translate(4.346 171.864)" fill="none" stroke="#010001" stroke-miterlimit="10" stroke-width="1"/>
            <line id="Línea_1263" data-name="Línea 1263" x1="7.939" y2="5.136" transform="translate(76.486 529.366)" fill="none" stroke="#010001" stroke-linecap="round" stroke-miterlimit="10" stroke-width="1"/>
            <line id="Línea_1264" data-name="Línea 1264" x1="7.937" y2="5.136" transform="translate(70.234 524.229)" fill="none" stroke="#010001" stroke-linecap="round" stroke-miterlimit="10" stroke-width="1"/>
            <path id="Trazado_1052128" data-name="Trazado 1052128" d="M8.4,364.984l2.03-19.83s21.191-.8,23.743,19.7Z" transform="translate(4.346 178.548)" fill="#6348ed"/>
            <path id="Trazado_1052129" data-name="Trazado 1052129" d="M8.4,364.984l2.03-19.83s21.191-.8,23.743,19.7Z" transform="translate(4.346 178.548)" fill="none" stroke="#010001" stroke-miterlimit="10" stroke-width="1"/>
            <path id="Trazado_1052130" data-name="Trazado 1052130" d="M20.834,181.508s67.939,1.231,88,3.4-4.085-48.082-4.085-48.082H40.023Z" transform="translate(10.778 70.78)" fill="#fff"/>
            <path id="Trazado_1052131" data-name="Trazado 1052131" d="M52.276,203.431l34.1,206.623,71.391-5.751L108.612,157.736H43.01Z" transform="translate(22.249 81.597)" fill="#6348ed"/>
            <path id="Trazado_1052132" data-name="Trazado 1052132" d="M49.3,188.846,83.12,393.96l71.391-5.751" transform="translate(25.502 97.691)" fill="none" stroke="#010001" stroke-linecap="round" stroke-miterlimit="10" stroke-width="1"/>
            <path id="Trazado_1052133" data-name="Trazado 1052133" d="M69.42,183.318l-11.119.964-6.6,88.779" transform="translate(26.745 94.831)" fill="none" stroke="#3a4a36" stroke-miterlimit="10" stroke-width="0.25"/>
            <path id="Trazado_1052134" data-name="Trazado 1052134" d="M95.906,205.064l-11.119.963-10.246,209.1L.5,414.11,31.447,183.856l3.323-21.772,76.141-20.8Z" transform="translate(0.258 73.086)" fill="#6348ed"/>
            <path id="Trazado_1052135" data-name="Trazado 1052135" d="M95.906,183.318l-11.119.964-10.246,209.1L.5,392.365" transform="translate(0.258 94.831)" fill="none" stroke="#010001" stroke-linecap="round" stroke-miterlimit="10" stroke-width="1"/>
            <path id="Trazado_1052136" data-name="Trazado 1052136" d="M43.878,104s-2.6-21.816-1.517-28.146,4.553-13.7,10.082-14.026,19.4.108,22.007,3.686,7.7,8.456,5.854,21.248-9.756,59.592-9.756,59.592l-5.666,13.7H54.835Z" transform="translate(21.776 31.94)" fill="#fff"/>
            <line id="Línea_1265" data-name="Línea 1265" x1="0.821" y2="125.024" transform="translate(82.304 98.709)" fill="none" stroke="#010001" stroke-linecap="round" stroke-miterlimit="10" stroke-width="1"/>
            <path id="Trazado_1052137" data-name="Trazado 1052137" d="M54.122,81.776a1.9,1.9,0,1,1-1.9-1.9,1.9,1.9,0,0,1,1.9,1.9" transform="translate(26.034 41.322)" fill="#010001"/>
            <path id="Trazado_1052138" data-name="Trazado 1052138" d="M53.663,93.487a1.9,1.9,0,1,1-1.9-1.9,1.9,1.9,0,0,1,1.9,1.9" transform="translate(25.797 47.38)" fill="#010001"/>
            <path id="Trazado_1052139" data-name="Trazado 1052139" d="M54.122,105.2a1.9,1.9,0,1,1-1.9-1.9,1.9,1.9,0,0,1,1.9,1.9" transform="translate(26.034 53.438)" fill="#010001"/>
            <path id="Trazado_1052140" data-name="Trazado 1052140" d="M54.122,116.907a1.9,1.9,0,1,1-1.9-1.9,1.9,1.9,0,0,1,1.9,1.9" transform="translate(26.034 59.495)" fill="#010001"/>
            <path id="Trazado_1052141" data-name="Trazado 1052141" d="M60.954,170.441l3.286.713s-8.429-52.2-9.494-58.544-3.962-43.733,1.39-45.853,19.672-.982,19.672-.982,5.52,1.93,6.169,15.032S66.5,172.536,66.5,172.536l5.2-1.073L102.883,98.3l-8.348-7.048,5.576-1.912s-1.766-9.708-6.729-14.776S79.546,62.363,74.66,60.9s-16.7-2.857-25.708,5.3S33.424,80.219,32.7,89.341l5.914,1.912L30.265,98.3,47.8,140.084Z" transform="translate(15.656 30.924)" fill="#f19101"/>
            <path id="Trazado_1052142" data-name="Trazado 1052142" d="M61.953,171.932C55.587,158.678,30.266,97.7,30.266,97.7l8.348-7.046L32.7,88.736C36.108,69.7,57.043,60.944,57.043,60.944H76.105S97.041,69.7,100.449,88.736L94.534,90.65l8.348,7.046S77.562,158.678,71.2,171.932" transform="translate(15.657 31.527)" fill="none" stroke="#010001" stroke-linecap="round" stroke-miterlimit="10" stroke-width="1"/>
            <path id="Trazado_1052143" data-name="Trazado 1052143" d="M5.657,206.316c32.3,4.566,46.774-.217,54.377-6.42s24.345-64.534,24.345-64.534L27.546,146.038s-8.755,19.514-13.137,32.611c-2.422,7.244-8.752,27.666-8.752,27.666" transform="translate(2.926 70.023)" fill="#f19101"/>
            <path id="Trazado_1052144" data-name="Trazado 1052144" d="M84.379,135.362S67.639,193.693,60.034,199.9s-22.077,10.985-54.377,6.42" transform="translate(2.926 70.023)" fill="none" stroke="#010001" stroke-linecap="round" stroke-miterlimit="10" stroke-width="1"/>
            <path id="Trazado_1052145" data-name="Trazado 1052145" d="M118.019,196.2c-4.233-13.1-16.413-46.659-16.413-46.659l-.035,0-5.587-15.172,9.063-28.738-8.671-4.189L54.359,124.748l-3.443,26.574-1.048.036s16.712,59.882,24.06,66.085,21.336,10.985,52.55,6.42c0,0-6.118-20.423-8.459-27.667" transform="translate(25.797 52.476)" fill="#f19101"/>
            <path id="Trazado_1052146" data-name="Trazado 1052146" d="M49.868,149.361s16.712,59.882,24.06,66.085,21.336,10.985,52.55,6.42L119,197.29l-18.291-52.321-4.723-12.6,8.858-27.069" transform="translate(25.797 54.473)" fill="none" stroke="#010001" stroke-linecap="round" stroke-miterlimit="10" stroke-width="1"/>
            <path id="Trazado_1052147" data-name="Trazado 1052147" d="M98.178,160.578,54.064,176.836a8.231,8.231,0,0,1-10.57-4.877L20.133,108.574A8.232,8.232,0,0,1,25.011,98L69.122,81.745a8.231,8.231,0,0,1,10.57,4.877l23.362,63.387a8.23,8.23,0,0,1-4.875,10.57" transform="translate(10.151 42.023)" fill="#010001"/>
            <path id="Trazado_1052148" data-name="Trazado 1052148" d="M55.37,91.5,34.393,99.228a4.517,4.517,0,0,1-3.124-8.477l20.977-7.731A4.517,4.517,0,1,1,55.37,91.5" transform="translate(14.646 42.802)" fill="#bfbcc0"/>
            <path id="Trazado_1052149" data-name="Trazado 1052149" d="M37.259,81.629a6.978,6.978,0,1,0,8.961,4.135,6.977,6.977,0,0,0-8.961-4.135M40.99,91.752a3.811,3.811,0,1,1,2.258-4.893,3.81,3.81,0,0,1-2.258,4.893" transform="translate(16.912 42.003)" fill="#bfbcc0"/>
            <path id="Trazado_1052150" data-name="Trazado 1052150" d="M54.155,147.093S88.488,113.442,90.508,103.7c1.693-8.166-12.715,10.123-12.715,10.123s11.507-12.028,9.541-15-13.475,11.937-13.475,11.937,12.4-14.644,10.078-16.546-13.994,13.7-13.994,13.7,12.77-14.759,10.1-17.045-14.49,13.694-14.49,13.694,6.154-10.8,3.481-11.6-13.77,22.083-29.173,35.7c-8.819,7.8,14.3,18.432,14.3,18.432" transform="translate(19.581 46.893)" fill="#fff"/>
            <path id="Trazado_1052151" data-name="Trazado 1052151" d="M71.822,107.463c3.438-3.878,7.3-8.291,9.175-13.2.391-1.021.915-2.6-.017-3.508a2.386,2.386,0,0,0-2.661-.132c-3.123,1.379-5.622,4.739-7.732,7.289-1.62,1.957-3.185,3.972-4.654,6.048l.982.574c.789-1.416,1.531-2.862,2.226-4.326.809-1.705,1.977-3.787,2.007-5.723s-1.417-2.423-2.86-1.387c-1.818,1.306-3.114,3.593-4.4,5.394-3.112,4.344-6.072,8.784-9.093,13.188a113.281,113.281,0,0,1-8.816,10.6c-2.963,3.353-5.9,6.8-9.1,9.932-.523.513.281,1.317.8.8a212.66,212.66,0,0,0,15.464-17.358c2.3-2.818,4.22-5.864,6.282-8.858q2.3-3.337,4.655-6.637a40.464,40.464,0,0,1,4.13-5.482c.7-.687,1.674-1.388,1.78-.032a4.25,4.25,0,0,1-.335,1.381,29.376,29.376,0,0,1-1.5,3.6q-1.042,2.2-2.226,4.327a.569.569,0,0,0,.982.574,61.61,61.61,0,0,1,9.741-11.406c.674-.575,2-1.831,3.006-1.716,1.528.176.155,2.793-.2,3.52-2.091,4.3-5.292,8.165-8.445,11.723-.484.546.317,1.353.8.8" transform="translate(18.989 46.706)" fill="#0f110e"/>
            <path id="Trazado_1052152" data-name="Trazado 1052152" d="M62.595,109.506c2.411-2.781,4.748-5.643,6.937-8.6a22.208,22.208,0,0,0,3.252-5.229c.5-1.353.231-3.241-1.505-3.376a4.746,4.746,0,0,0-2.992,1.147,19.056,19.056,0,0,0-4.071,4.4c-.426.6.561,1.165.983.574a18.7,18.7,0,0,1,3.45-3.836,4.564,4.564,0,0,1,2.344-1.156c1.265-.074.919,1.495.537,2.3a29.668,29.668,0,0,1-3.161,4.836c-1.334,1.787-2.73,3.528-4.15,5.245-.8.97-1.607,1.935-2.431,2.884-.478.551.323,1.358.806.8" transform="translate(31.888 47.742)" fill="#0f110e"/>
            <path id="Trazado_1052153" data-name="Trazado 1052153" d="M65.721,110.289c1.328-1.488,2.584-3.048,3.8-4.625A28.8,28.8,0,0,0,73.87,98.9c.366-.929.728-2.355-.041-3.191-.74-.8-1.945-.422-2.778,0a19.6,19.6,0,0,0-5.532,4.962c-.475.552.326,1.361.8.8A22.761,22.761,0,0,1,70.9,97.117a4.715,4.715,0,0,1,1.475-.709.956.956,0,0,1,.426-.032,1.434,1.434,0,0,1,.162.07.45.45,0,0,1,.112.176.982.982,0,0,1,.058.466,4.409,4.409,0,0,1-.387,1.58,28.574,28.574,0,0,1-3.978,6.133c-1.231,1.6-2.507,3.177-3.849,4.684-.487.545.316,1.352.8.8" transform="translate(33.503 49.266)" fill="#0f110e"/>
            <path id="Trazado_1052154" data-name="Trazado 1052154" d="M79.061,103.374c.91-1.15,4.635-6.283,5.784-4.8.684.88.006,2.514-.331,3.39a39.587,39.587,0,0,1-5.45,8.944,103.332,103.332,0,0,1-7.433,8.535q-6.04,6.534-12.172,12.988c-3.466,3.629-6.905,7.825-10.967,10.817-.583.429-.017,1.419.575.983,3.79-2.792,7-6.617,10.242-10,4.61-4.808,9.152-9.683,13.672-14.577a93.988,93.988,0,0,0,8.82-10.63c1.674-2.441,3.543-5.162,4.238-8.093a3.525,3.525,0,0,0-.37-3.141,1.887,1.887,0,0,0-1.466-.659c-1.25.059-2.461,1.517-3.252,2.337-.95.985-1.847,2.027-2.695,3.1-.451.567.349,1.378.8.8" transform="translate(24.958 50.247)" fill="#0f110e"/>
            <path id="Trazado_1052155" data-name="Trazado 1052155" d="M86.427,127.008,62.184,105.3,21.012,126.06l15.175-7.65-.086-.76-1.048,1.332-21.169,10.33-4.731,40.6c20.194,20.156,61.88,8.728,77.276-42.906" transform="translate(4.734 54.474)" fill="#f19101"/>
            <path id="Trazado_1052156" data-name="Trazado 1052156" d="M7.365,166.857c18.912,24.2,63.863,14.22,79.986-39.849L63.109,105.3,21.937,126.06" transform="translate(3.81 54.474)" fill="none" stroke="#010001" stroke-linecap="round" stroke-miterlimit="10" stroke-width="1"/>
            <line id="Línea_1266" data-name="Línea 1266" x2="29.492" y2="31.452" transform="translate(55.814 165.374)" fill="none" stroke="#010001" stroke-linecap="round" stroke-miterlimit="10" stroke-width="1"/>
            <path id="Trazado_1052157" data-name="Trazado 1052157" d="M45.865,110.677a2.259,2.259,0,1,1-2.259-2.259,2.26,2.26,0,0,1,2.259,2.259" transform="translate(21.388 56.085)" fill="#010001"/>
            <path id="Trazado_1052158" data-name="Trazado 1052158" d="M62.305,77.832s8.822,7.609,15.436,3.415c9.051-5.741-1.924-16.677-9.454-21.4a12.3,12.3,0,0,0-13.748,0s-15.161,9.13-13.182,16.851,14.609,7.274,20.949,1.138" transform="translate(21.301 29.87)" fill="#fff"/>
            <path id="Trazado_1052159" data-name="Trazado 1052159" d="M62.305,77.832s8.822,7.609,15.436,3.415c9.051-5.741-1.924-16.677-9.454-21.4a12.3,12.3,0,0,0-13.748,0s-15.161,9.13-13.182,16.851S55.964,83.968,62.305,77.832Z" transform="translate(21.301 29.87)" fill="none" stroke="#010001" stroke-linecap="round" stroke-miterlimit="10" stroke-width="1"/>
            <path id="Trazado_1052160" data-name="Trazado 1052160" d="M76.931,17.339S52.78,10.323,39.137,38.174c-10.472,21.38-7.3,36.335-5.257,42.131a3.993,3.993,0,0,0,3.614,2.739l56.588,1.6A3.994,3.994,0,0,0,98,81.6c3.183-11.847,11.868-53.761-21.071-64.258" transform="translate(16.441 8.562)" fill="#010001"/>
            <path id="Trazado_1052161" data-name="Trazado 1052161" d="M70.463,25.884l-11.181.567c-7.433.378-13.163,7.611-12.733,16.073l.879,17.332c.026.489.074.97.138,1.444a6.879,6.879,0,0,0-.109,1.6l.534,10.55.03.589.536,10.55A6.991,6.991,0,0,0,55.871,91.2l4.435-.225a6.991,6.991,0,0,0,6.608-7.315l-.475-9.336L72.9,73.99c7.433-.376,13.164-7.609,12.735-16.073l-.88-17.332c-.429-8.462-6.863-15.079-14.3-14.7" transform="translate(24.068 13.382)" fill="#fff"/>
            <path id="Trazado_1052162" data-name="Trazado 1052162" d="M70.463,25.884l-11.181.567c-7.433.378-13.163,7.611-12.733,16.073l.879,17.332c.026.489.074.97.138,1.444a6.879,6.879,0,0,0-.109,1.6l.534,10.55.03.589.536,10.55A6.991,6.991,0,0,0,55.871,91.2l4.435-.225a6.991,6.991,0,0,0,6.608-7.315l-.475-9.336L72.9,73.99c7.433-.376,13.164-7.609,12.735-16.073l-.88-17.332C84.33,32.123,77.9,25.506,70.463,25.884Z" transform="translate(24.068 13.382)" fill="none" stroke="#010001" stroke-miterlimit="10" stroke-width="0.94"/>
            <path id="Trazado_1052163" data-name="Trazado 1052163" d="M57.168,40.952A2.523,2.523,0,1,0,59.561,38.3a2.525,2.525,0,0,0-2.393,2.648" transform="translate(29.572 19.813)" fill="#010001"/>
            <path id="Trazado_1052164" data-name="Trazado 1052164" d="M68.03,40.025a2.154,2.154,0,1,0,2.042-2.261,2.155,2.155,0,0,0-2.042,2.261" transform="translate(35.191 19.534)" fill="#010001"/>
            <path id="Trazado_1052165" data-name="Trazado 1052165" d="M69.829,46.347S68.75,50.1,66.085,50.491s-4.913-2.472-5.176-4.78Z" transform="translate(31.508 23.646)" fill="#fff"/>
            <path id="Trazado_1052166" data-name="Trazado 1052166" d="M69.334,46.406c-.027.094-.059.188-.093.281s-.071.19-.106.285c-.011.027-.023.055-.035.083-.042.106.055-.123.006-.012-.033.076-.067.152-.1.228a6.478,6.478,0,0,1-1.185,1.821,2.681,2.681,0,0,1-2,.909,3.534,3.534,0,0,1-2.429-1.224,5.179,5.179,0,0,1-1.411-2.795l-.8.8q3.9.278,7.8.557l1.123.079c1.023.073,1.018-1.519,0-1.592q-3.9-.278-7.8-.557l-1.123-.079a.8.8,0,0,0-.8.8c.3,2.4,2.048,4.956,4.528,5.5,2.347.517,4.218-1.017,5.259-2.986a8.971,8.971,0,0,0,.7-1.668.8.8,0,0,0-1.536-.423" transform="translate(31.236 23.374)" fill="#010001"/>
            <path id="Trazado_1052167" data-name="Trazado 1052167" d="M51.707,48.7a6.273,6.273,0,1,0,5.946-6.582A6.272,6.272,0,0,0,51.707,48.7" transform="translate(26.744 21.782)" fill="#ed80a5"/>
            <path id="Trazado_1052168" data-name="Trazado 1052168" d="M72.6,42.538a4.737,4.737,0,0,1,1.112.079l.331,6.5a13.341,13.341,0,0,1-.091,2.836,5.614,5.614,0,0,1-.868.124,4.774,4.774,0,1,1-.484-9.536" transform="translate(35.211 22.002)" fill="#ed80a5"/>
            <path id="Trazado_1052169" data-name="Trazado 1052169" d="M89.628,42.554A29.036,29.036,0,0,1,74.986,30.966S70.037,44,53.764,51.333c-21.3,9.592-10.642-16.511-4.745-23.257s36-15.135,40.609,14.478" transform="translate(21.25 11.165)" fill="#010001"/>
            <path id="Trazado_1052170" data-name="Trazado 1052170" d="M37.664,48.4a8.912,8.912,0,1,0,8.451-9.28,8.874,8.874,0,0,0-8.451,9.28" transform="translate(19.478 20.231)" fill="#fff"/>
            <path id="Trazado_1052171" data-name="Trazado 1052171" d="M50.113,47.629a7.016,7.016,0,0,0-.388-2.293,5.444,5.444,0,0,0-3.167-3.462,7.2,7.2,0,0,0-3.725-.229.985.985,0,0,0-.684,1.208,1.01,1.01,0,0,0,1.206.684c.035,0,.32-.039.076-.012l.164-.018q.2-.02.4-.032a6.82,6.82,0,0,1,.768,0c.1.006.2.017.3.026.232.021-.228-.042,0,0,.041.008.083.014.124.023a4.624,4.624,0,0,1,.611.155c.09.03.178.067.266.1.124.044-.228-.114-.058-.023.032.017.065.03.1.047a4.02,4.02,0,0,1,.493.288c.027.018.055.039.082.058.155.1-.155-.13-.061-.047.056.047.114.093.168.141a4.059,4.059,0,0,1,.367.373c.021.024.039.049.061.071.077.088.047.149-.039-.053a1.263,1.263,0,0,0,.121.167q.132.193.246.4c.07.127.132.258.193.388.1.211-.077-.208-.009-.02.027.071.055.141.08.212a6.525,6.525,0,0,1,.212.739c.024.111.047.223.067.335.009.052.017.1.026.156.038.232-.023-.2-.011-.088a5.8,5.8,0,0,1,.05.706.982.982,0,1,0,1.963,0" transform="translate(21.785 21.472)" fill="#010001"/>
            <path id="Trazado_1052172" data-name="Trazado 1052172" d="M72.537,35.9a10.844,10.844,0,0,0-4.511-.455.818.818,0,0,0-.8.8c.018.391.354.847.8.8a10.23,10.23,0,0,1,2.133-.023c.093.009.187.018.279.03-.137-.017.085.012.108.017.173.026.344.058.516.093a10.528,10.528,0,0,1,1.051.281.8.8,0,0,0,.98-.557.814.814,0,0,0-.557-.979" transform="translate(34.778 18.3)" fill="#010001"/>
            <path id="Trazado_1052173" data-name="Trazado 1052173" d="M61.435,35.613a14.939,14.939,0,0,0-2.528,1.059c-.375.2-.739.416-1.092.648s-.692.522-1.059.751a.8.8,0,0,0,.8,1.375c.344-.214.655-.483.994-.707s.715-.454,1.086-.654a11.414,11.414,0,0,1,2.218-.936.8.8,0,0,0-.423-1.536" transform="translate(29.155 18.406)" fill="#010001"/>
            <path id="Trazado_1052174" data-name="Trazado 1052174" d="M64.106,38.746a34.788,34.788,0,0,0,3.47,5.913q.143-.546.285-1.089a7.872,7.872,0,0,1-2.78.844.819.819,0,0,0-.8.8.8.8,0,0,0,.8.8,9.926,9.926,0,0,0,3.584-1.061.8.8,0,0,0,.285-1.089,34.83,34.83,0,0,1-3.47-5.913.8.8,0,0,0-1.089-.285.815.815,0,0,0-.285,1.089" transform="translate(33.113 19.427)" fill="#010001"/>
            <path id="Trazado_1052175" data-name="Trazado 1052175" d="M26.054,16.374A16.373,16.373,0,1,0,42.427,0,16.373,16.373,0,0,0,26.054,16.374" transform="translate(13.478 0.001)" fill="#010001"/>
          </g>
        </g>
      </g>
    </g>
    <g id="Grupo_1207570" data-name="Grupo 1207570" transform="translate(3471 -1727)">
      <g id="Rectángulo_419515" data-name="Rectángulo 419515" transform="translate(920 874)" fill="#fff" stroke="#1d7083" stroke-width="1">
        <rect width="282" height="40" rx="20" stroke="none"/>
        <rect x="0.5" y="0.5" width="281" height="39" rx="19.5" fill="none"/>
      </g>
      <path id="Trazado_1052722" data-name="Trazado 1052722" d="M6.18-11.773a5.9,5.9,0,0,1,2.8.625A4.078,4.078,0,0,1,11.07-8H9.531A2.8,2.8,0,0,0,8.367-9.832a4.007,4.007,0,0,0-2.227-.574,3.489,3.489,0,0,0-2.684,1.2,5.13,5.13,0,0,0-1.09,3.563,5.692,5.692,0,0,0,.9,3.332A3.321,3.321,0,0,0,6.2-1.031a3.741,3.741,0,0,0,2.574-.9A3.777,3.777,0,0,0,9.813-4.852H6.219V-6.141h5.039V0h-1L9.883-1.477a5.894,5.894,0,0,1-1.4,1.2A5.242,5.242,0,0,1,5.883.3a5.069,5.069,0,0,1-3.508-1.32,6.266,6.266,0,0,1-1.6-4.547,6.521,6.521,0,0,1,1.563-4.586A4.967,4.967,0,0,1,6.18-11.773Zm7.338,3.406h1.336v1.445a3.193,3.193,0,0,1,.8-1.027,2.086,2.086,0,0,1,1.477-.605q.039,0,.133.008l.32.031v1.484a2.1,2.1,0,0,0-.23-.031q-.105-.008-.23-.008a2.007,2.007,0,0,0-1.633.684,2.386,2.386,0,0,0-.57,1.574V0H13.517Zm6.369,6.141a1.158,1.158,0,0,0,.445.961,1.651,1.651,0,0,0,1.055.352,3.207,3.207,0,0,0,1.438-.344A1.935,1.935,0,0,0,24-3.125V-4.258a2.406,2.406,0,0,1-.664.273,5.659,5.659,0,0,1-.8.156l-.852.109a3.257,3.257,0,0,0-1.148.32A1.248,1.248,0,0,0,19.886-2.227ZM23.292-5.07a.764.764,0,0,0,.648-.406,1.236,1.236,0,0,0,.094-.539,1.142,1.142,0,0,0-.512-1.043,2.745,2.745,0,0,0-1.465-.324,1.861,1.861,0,0,0-1.562.594,1.953,1.953,0,0,0-.336.977H18.847a2.416,2.416,0,0,1,1-2.152,4.122,4.122,0,0,1,2.238-.605,4.554,4.554,0,0,1,2.4.563,1.908,1.908,0,0,1,.914,1.75v4.82a.617.617,0,0,0,.09.352.433.433,0,0,0,.379.133q.094,0,.211-.012T26.331-1V.039a3.917,3.917,0,0,1-.5.117,3.654,3.654,0,0,1-.469.023,1.157,1.157,0,0,1-1.055-.516,1.99,1.99,0,0,1-.242-.773,3.578,3.578,0,0,1-1.234.977,3.818,3.818,0,0,1-1.773.414,2.637,2.637,0,0,1-1.9-.707,2.349,2.349,0,0,1-.738-1.77A2.279,2.279,0,0,1,19.144-4a3.457,3.457,0,0,1,1.906-.789Zm.594-6.664L21.8-9.477H20.722l1.43-2.258Zm4.173,2.094a2.507,2.507,0,0,1,.3-1.281,2.153,2.153,0,0,1,1.9-.719q.133,0,.273.008t.32.023v1.281q-.219-.016-.316-.02t-.184,0q-.641,0-.766.332a6.564,6.564,0,0,0-.125,1.691h1.391v1.109H29.45V0H28.059V-7.219H26.9V-8.328h1.164Zm4.1,1.313h1.43V0h-1.43Zm0-3.148h1.43v1.594h-1.43Zm6.783,2.867a3.648,3.648,0,0,1,2.3.688A3.294,3.294,0,0,1,42.3-5.555H40.938a2.524,2.524,0,0,0-.57-1.285,1.8,1.8,0,0,0-1.43-.512,1.975,1.975,0,0,0-1.922,1.313,5.214,5.214,0,0,0-.375,2.1,3.955,3.955,0,0,0,.531,2.117,1.822,1.822,0,0,0,1.672.859A1.828,1.828,0,0,0,40.231-1.5a2.943,2.943,0,0,0,.707-1.465H42.3A3.67,3.67,0,0,1,41.133-.527a3.656,3.656,0,0,1-2.4.77,3.2,3.2,0,0,1-2.617-1.2,4.59,4.59,0,0,1-.977-3,5.048,5.048,0,0,1,1.07-3.43A3.459,3.459,0,0,1,38.938-8.609Zm8.1,7.7a1.939,1.939,0,0,0,1.918-1.059,5.274,5.274,0,0,0,.52-2.355A4.194,4.194,0,0,0,49.1-6.227a2.11,2.11,0,0,0-2.047-1.156,2.018,2.018,0,0,0-1.875.984,4.563,4.563,0,0,0-.586,2.375A3.969,3.969,0,0,0,45.174-1.8,2.064,2.064,0,0,0,47.033-.906Zm.055-7.7a3.789,3.789,0,0,1,2.734,1.078,4.21,4.21,0,0,1,1.117,3.172,5.442,5.442,0,0,1-.984,3.344A3.561,3.561,0,0,1,46.9.3,3.449,3.449,0,0,1,44.158-.863,4.613,4.613,0,0,1,43.142-4a4.991,4.991,0,0,1,1.07-3.359A3.592,3.592,0,0,1,47.088-8.609Zm6.361,5.984A2.045,2.045,0,0,0,53.8-1.547a2.209,2.209,0,0,0,1.844.68,2.719,2.719,0,0,0,1.375-.34,1.129,1.129,0,0,0,.594-1.051.9.9,0,0,0-.477-.82,5.666,5.666,0,0,0-1.2-.4l-1.117-.281a5.45,5.45,0,0,1-1.578-.594,1.775,1.775,0,0,1-.906-1.578,2.411,2.411,0,0,1,.855-1.922,3.413,3.413,0,0,1,2.3-.734,3.194,3.194,0,0,1,2.727,1.109,2.407,2.407,0,0,1,.508,1.516H57.394a1.627,1.627,0,0,0-.336-.867,2.143,2.143,0,0,0-1.68-.555,2.008,2.008,0,0,0-1.207.3.955.955,0,0,0-.41.8A.991.991,0,0,0,54.3-5.4a3.239,3.239,0,0,0,.922.344l.93.227a7.188,7.188,0,0,1,2.031.711,1.882,1.882,0,0,1,.82,1.7,2.584,2.584,0,0,1-.848,1.93A3.608,3.608,0,0,1,55.574.32a3.464,3.464,0,0,1-2.645-.848,3.206,3.206,0,0,1-.832-2.1Zm12.5-1.461a4.147,4.147,0,0,0,.57,2.25A2,2,0,0,0,68.35-.93a1.925,1.925,0,0,0,1.605-.84,3.966,3.966,0,0,0,.629-2.41,3.564,3.564,0,0,0-.648-2.348,2.023,2.023,0,0,0-1.6-.762,2.114,2.114,0,0,0-1.723.813A3.721,3.721,0,0,0,65.952-4.086Zm2.117-4.43a2.977,2.977,0,0,1,1.609.406,3.78,3.78,0,0,1,.852.82v-4.227h1.352V0H70.616V-1.164A3.043,3.043,0,0,1,69.452-.047,3.332,3.332,0,0,1,67.913.3,3.117,3.117,0,0,1,65.491-.879a4.6,4.6,0,0,1-1.023-3.129A5.4,5.4,0,0,1,65.4-7.176,3.057,3.057,0,0,1,68.069-8.516Zm9.377-.039a3.817,3.817,0,0,1,1.727.418,3.184,3.184,0,0,1,1.273,1.082,3.733,3.733,0,0,1,.563,1.477,9.66,9.66,0,0,1,.125,1.844H75a3.579,3.579,0,0,0,.6,2.043,2.014,2.014,0,0,0,1.742.77A2.252,2.252,0,0,0,79.1-1.648a2.449,2.449,0,0,0,.531-.977h1.383A2.912,2.912,0,0,1,80.653-1.6a3.654,3.654,0,0,1-.691.926,3.277,3.277,0,0,1-1.586.844A4.818,4.818,0,0,1,77.227.3,3.524,3.524,0,0,1,74.578-.84a4.423,4.423,0,0,1-1.086-3.184A4.809,4.809,0,0,1,74.586-7.3,3.608,3.608,0,0,1,77.446-8.555Zm2.242,3.7a3.643,3.643,0,0,0-.4-1.461,2.042,2.042,0,0,0-1.93-1.016,2.139,2.139,0,0,0-1.625.7,2.641,2.641,0,0,0-.7,1.777ZM87.2-11.516h1.367v4.164a3.118,3.118,0,0,1,1.1-.918,3.1,3.1,0,0,1,1.391-.316,3.26,3.26,0,0,1,2.535,1.074,4.576,4.576,0,0,1,.973,3.168,5.433,5.433,0,0,1-.961,3.3A3.117,3.117,0,0,1,90.941.266,2.73,2.73,0,0,1,89.332-.2,3.887,3.887,0,0,1,88.5-1.07V0H87.2ZM90.855-.977a1.879,1.879,0,0,0,1.707-.906,4.462,4.462,0,0,0,.566-2.391,3.924,3.924,0,0,0-.566-2.187,1.865,1.865,0,0,0-1.668-.867,2.327,2.327,0,0,0-1.684.711,3.193,3.193,0,0,0-.723,2.344,5.18,5.18,0,0,0,.3,1.914A2.051,2.051,0,0,0,90.855-.977Zm6.431-1.25a1.158,1.158,0,0,0,.445.961,1.651,1.651,0,0,0,1.055.352,3.207,3.207,0,0,0,1.438-.344A1.935,1.935,0,0,0,101.4-3.125V-4.258a2.406,2.406,0,0,1-.664.273,5.659,5.659,0,0,1-.8.156l-.852.109a3.257,3.257,0,0,0-1.148.32A1.248,1.248,0,0,0,97.286-2.227Zm3.406-2.844a.764.764,0,0,0,.648-.406,1.236,1.236,0,0,0,.094-.539,1.142,1.142,0,0,0-.512-1.043,2.745,2.745,0,0,0-1.465-.324,1.861,1.861,0,0,0-1.562.594,1.953,1.953,0,0,0-.336.977H96.247a2.416,2.416,0,0,1,1-2.152A4.122,4.122,0,0,1,99.49-8.57a4.554,4.554,0,0,1,2.4.563,1.908,1.908,0,0,1,.914,1.75v4.82a.617.617,0,0,0,.09.352.433.433,0,0,0,.379.133q.094,0,.211-.012t.25-.035V.039a3.916,3.916,0,0,1-.5.117,3.654,3.654,0,0,1-.469.023,1.157,1.157,0,0,1-1.055-.516,1.99,1.99,0,0,1-.242-.773,3.578,3.578,0,0,1-1.234.977,3.818,3.818,0,0,1-1.773.414,2.637,2.637,0,0,1-1.9-.707,2.349,2.349,0,0,1-.738-1.77A2.279,2.279,0,0,1,96.544-4a3.457,3.457,0,0,1,1.906-.789Zm4.455-3.3h1.336v1.445a3.193,3.193,0,0,1,.8-1.027,2.086,2.086,0,0,1,1.477-.605q.039,0,.133.008l.32.031v1.484a2.1,2.1,0,0,0-.23-.031q-.105-.008-.23-.008a2.007,2.007,0,0,0-1.633.684,2.386,2.386,0,0,0-.57,1.574V0h-1.406Zm5.33,0h1.336v1.445a3.193,3.193,0,0,1,.8-1.027,2.086,2.086,0,0,1,1.477-.605q.039,0,.133.008l.32.031v1.484a2.1,2.1,0,0,0-.23-.031q-.105-.008-.23-.008a2.007,2.007,0,0,0-1.633.684,2.386,2.386,0,0,0-.57,1.574V0h-1.406Zm6.369,6.141a1.158,1.158,0,0,0,.445.961,1.651,1.651,0,0,0,1.055.352,3.207,3.207,0,0,0,1.438-.344,1.935,1.935,0,0,0,1.172-1.867V-4.258a2.406,2.406,0,0,1-.664.273,5.659,5.659,0,0,1-.8.156l-.852.109a3.257,3.257,0,0,0-1.148.32A1.248,1.248,0,0,0,116.846-2.227Zm3.406-2.844a.764.764,0,0,0,.648-.406,1.236,1.236,0,0,0,.094-.539,1.142,1.142,0,0,0-.512-1.043,2.745,2.745,0,0,0-1.465-.324,1.861,1.861,0,0,0-1.562.594,1.953,1.953,0,0,0-.336.977h-1.312a2.416,2.416,0,0,1,1-2.152,4.122,4.122,0,0,1,2.238-.605,4.554,4.554,0,0,1,2.4.563,1.908,1.908,0,0,1,.914,1.75v4.82a.617.617,0,0,0,.09.352.433.433,0,0,0,.379.133q.094,0,.211-.012t.25-.035V.039a3.916,3.916,0,0,1-.5.117,3.654,3.654,0,0,1-.469.023,1.157,1.157,0,0,1-1.055-.516,1.99,1.99,0,0,1-.242-.773,3.578,3.578,0,0,1-1.234.977,3.818,3.818,0,0,1-1.773.414,2.637,2.637,0,0,1-1.9-.707,2.349,2.349,0,0,1-.738-1.77A2.279,2.279,0,0,1,116.1-4a3.457,3.457,0,0,1,1.906-.789ZM125.5-2.625a2.045,2.045,0,0,0,.352,1.078,2.209,2.209,0,0,0,1.844.68,2.719,2.719,0,0,0,1.375-.34,1.129,1.129,0,0,0,.594-1.051.9.9,0,0,0-.477-.82,5.666,5.666,0,0,0-1.2-.4l-1.117-.281a5.45,5.45,0,0,1-1.578-.594,1.775,1.775,0,0,1-.906-1.578,2.411,2.411,0,0,1,.855-1.922,3.413,3.413,0,0,1,2.3-.734,3.194,3.194,0,0,1,2.727,1.109,2.407,2.407,0,0,1,.508,1.516h-1.328a1.627,1.627,0,0,0-.336-.867,2.143,2.143,0,0,0-1.68-.555,2.008,2.008,0,0,0-1.207.3.955.955,0,0,0-.41.8.991.991,0,0,0,.539.875,3.239,3.239,0,0,0,.922.344l.93.227a7.188,7.188,0,0,1,2.031.711,1.882,1.882,0,0,1,.82,1.7,2.584,2.584,0,0,1-.848,1.93,3.608,3.608,0,0,1-2.582.813,3.464,3.464,0,0,1-2.645-.848,3.206,3.206,0,0,1-.832-2.1Zm16.839-5.742H143.9q-.3.8-1.32,3.672-.766,2.156-1.281,3.516a23.768,23.768,0,0,1-1.719,3.906,1.965,1.965,0,0,1-1.719.7,3.372,3.372,0,0,1-.457-.023,3.611,3.611,0,0,1-.395-.086V2.039a4.852,4.852,0,0,0,.531.125,2.074,2.074,0,0,0,.289.023,1.012,1.012,0,0,0,.574-.129,1.189,1.189,0,0,0,.309-.316q.039-.062.281-.641t.352-.859l-3.094-8.609h1.594l2.242,6.813Zm10.449-.242a3.648,3.648,0,0,1,2.3.688,3.294,3.294,0,0,1,1.066,2.367h-1.367a2.524,2.524,0,0,0-.57-1.285,1.8,1.8,0,0,0-1.43-.512,1.975,1.975,0,0,0-1.922,1.313,5.214,5.214,0,0,0-.375,2.1,3.955,3.955,0,0,0,.531,2.117,1.822,1.822,0,0,0,1.672.859,1.828,1.828,0,0,0,1.387-.535,2.943,2.943,0,0,0,.707-1.465h1.367a3.67,3.67,0,0,1-1.172,2.434,3.656,3.656,0,0,1-2.4.77,3.2,3.2,0,0,1-2.617-1.2,4.59,4.59,0,0,1-.977-3,5.047,5.047,0,0,1,1.07-3.43A3.459,3.459,0,0,1,152.791-8.609Zm8.1,7.7A1.939,1.939,0,0,0,162.8-1.965a5.274,5.274,0,0,0,.52-2.355,4.194,4.194,0,0,0-.375-1.906A2.11,2.11,0,0,0,160.9-7.383a2.018,2.018,0,0,0-1.875.984,4.563,4.563,0,0,0-.586,2.375,3.969,3.969,0,0,0,.586,2.227A2.064,2.064,0,0,0,160.887-.906Zm.055-7.7a3.789,3.789,0,0,1,2.734,1.078,4.21,4.21,0,0,1,1.117,3.172,5.442,5.442,0,0,1-.984,3.344A3.561,3.561,0,0,1,160.754.3a3.449,3.449,0,0,1-2.742-1.168A4.613,4.613,0,0,1,157-4a4.991,4.991,0,0,1,1.07-3.359A3.592,3.592,0,0,1,160.941-8.609Zm5.564-2.867h1.406V0h-1.406Zm4.923,3.109v5.555a2.342,2.342,0,0,0,.2,1.047,1.417,1.417,0,0,0,1.4.75,1.977,1.977,0,0,0,2-1.312,5.207,5.207,0,0,0,.289-1.93V-8.367h1.406V0H175.4l.016-1.234a2.837,2.837,0,0,1-.68.8,2.991,2.991,0,0,1-1.953.656,2.519,2.519,0,0,1-2.437-1.2,3.56,3.56,0,0,1-.352-1.711V-8.367Zm7.494,0h1.391V-7.18a4.674,4.674,0,0,1,.906-.9,2.726,2.726,0,0,1,1.578-.477,2.484,2.484,0,0,1,1.609.492,2.573,2.573,0,0,1,.625.828,3.039,3.039,0,0,1,1.1-1,3.073,3.073,0,0,1,1.422-.324,2.325,2.325,0,0,1,2.3,1.219,3.984,3.984,0,0,1,.328,1.766V0H188.72V-5.812a1.354,1.354,0,0,0-.418-1.148,1.654,1.654,0,0,0-1.02-.312,2.024,2.024,0,0,0-1.426.555,2.436,2.436,0,0,0-.6,1.852V0h-1.43V-5.461a2.837,2.837,0,0,0-.2-1.242,1.239,1.239,0,0,0-1.2-.586,2.062,2.062,0,0,0-1.449.617,3.025,3.025,0,0,0-.652,2.234V0h-1.406Zm13.33,0h1.336V-7.18a3.747,3.747,0,0,1,1.258-1.055,3.354,3.354,0,0,1,1.477-.32,2.435,2.435,0,0,1,2.406,1.242,4.411,4.411,0,0,1,.344,1.945V0h-1.43V-5.273a2.855,2.855,0,0,0-.227-1.234,1.374,1.374,0,0,0-1.359-.781,2.768,2.768,0,0,0-.82.1,2.113,2.113,0,0,0-1.016.688,2.07,2.07,0,0,0-.457.855,5.758,5.758,0,0,0-.105,1.262V0h-1.406Zm9.978,6.141a1.158,1.158,0,0,0,.445.961,1.651,1.651,0,0,0,1.055.352,3.207,3.207,0,0,0,1.438-.344,1.935,1.935,0,0,0,1.172-1.867V-4.258a2.406,2.406,0,0,1-.664.273,5.658,5.658,0,0,1-.8.156l-.852.109a3.257,3.257,0,0,0-1.148.32A1.248,1.248,0,0,0,202.231-2.227Zm3.406-2.844a.764.764,0,0,0,.648-.406,1.236,1.236,0,0,0,.094-.539,1.142,1.142,0,0,0-.512-1.043,2.745,2.745,0,0,0-1.465-.324,1.861,1.861,0,0,0-1.562.594,1.953,1.953,0,0,0-.336.977h-1.312a2.416,2.416,0,0,1,1-2.152,4.122,4.122,0,0,1,2.238-.605,4.554,4.554,0,0,1,2.4.563,1.908,1.908,0,0,1,.914,1.75v4.82a.617.617,0,0,0,.09.352.433.433,0,0,0,.379.133q.094,0,.211-.012t.25-.035V.039a3.917,3.917,0,0,1-.5.117,3.654,3.654,0,0,1-.469.023,1.157,1.157,0,0,1-1.055-.516,1.99,1.99,0,0,1-.242-.773,3.578,3.578,0,0,1-1.234.977A3.818,3.818,0,0,1,203.4.281a2.637,2.637,0,0,1-1.9-.707,2.349,2.349,0,0,1-.738-1.77,2.279,2.279,0,0,1,.727-1.8,3.457,3.457,0,0,1,1.906-.789Zm5.252,2.445a2.045,2.045,0,0,0,.352,1.078,2.209,2.209,0,0,0,1.844.68,2.719,2.719,0,0,0,1.375-.34,1.129,1.129,0,0,0,.594-1.051.9.9,0,0,0-.477-.82,5.666,5.666,0,0,0-1.2-.4l-1.117-.281a5.45,5.45,0,0,1-1.578-.594,1.775,1.775,0,0,1-.906-1.578,2.411,2.411,0,0,1,.855-1.922,3.413,3.413,0,0,1,2.3-.734,3.194,3.194,0,0,1,2.727,1.109,2.407,2.407,0,0,1,.508,1.516h-1.328a1.627,1.627,0,0,0-.336-.867,2.143,2.143,0,0,0-1.68-.555,2.008,2.008,0,0,0-1.207.3.955.955,0,0,0-.41.8.991.991,0,0,0,.539.875,3.239,3.239,0,0,0,.922.344l.93.227a7.188,7.188,0,0,1,2.031.711,1.882,1.882,0,0,1,.82,1.7,2.584,2.584,0,0,1-.848,1.93,3.608,3.608,0,0,1-2.582.813,3.464,3.464,0,0,1-2.645-.848,3.206,3.206,0,0,1-.832-2.1Z" transform="translate(964 900)" fill="#212429"/>
    </g>
    <g id="Grupo_1207572" data-name="Grupo 1207572" transform="translate(3706 -1049)">
      <g id="Rectángulo_419515-2" data-name="Rectángulo 419515" fill="#fff" stroke="#1d7083" stroke-width="1">
        <rect width="254" height="40" rx="20" stroke="none"/>
        <rect x="0.5" y="0.5" width="253" height="39" rx="19.5" fill="none"/>
      </g>
      <path id="Trazado_1052718" data-name="Trazado 1052718" d="M6.18-11.773a5.9,5.9,0,0,1,2.8.625A4.078,4.078,0,0,1,11.07-8H9.531A2.8,2.8,0,0,0,8.367-9.832a4.007,4.007,0,0,0-2.227-.574,3.489,3.489,0,0,0-2.684,1.2,5.13,5.13,0,0,0-1.09,3.563,5.692,5.692,0,0,0,.9,3.332A3.321,3.321,0,0,0,6.2-1.031a3.741,3.741,0,0,0,2.574-.9A3.777,3.777,0,0,0,9.813-4.852H6.219V-6.141h5.039V0h-1L9.883-1.477a5.894,5.894,0,0,1-1.4,1.2A5.242,5.242,0,0,1,5.883.3a5.069,5.069,0,0,1-3.508-1.32,6.266,6.266,0,0,1-1.6-4.547,6.521,6.521,0,0,1,1.563-4.586A4.967,4.967,0,0,1,6.18-11.773Zm7.338,3.406h1.336v1.445a3.193,3.193,0,0,1,.8-1.027,2.086,2.086,0,0,1,1.477-.605q.039,0,.133.008l.32.031v1.484a2.1,2.1,0,0,0-.23-.031q-.105-.008-.23-.008a2.007,2.007,0,0,0-1.633.684,2.386,2.386,0,0,0-.57,1.574V0H13.517Zm6.369,6.141a1.158,1.158,0,0,0,.445.961,1.651,1.651,0,0,0,1.055.352,3.207,3.207,0,0,0,1.438-.344A1.935,1.935,0,0,0,24-3.125V-4.258a2.406,2.406,0,0,1-.664.273,5.659,5.659,0,0,1-.8.156l-.852.109a3.257,3.257,0,0,0-1.148.32A1.248,1.248,0,0,0,19.886-2.227ZM23.292-5.07a.764.764,0,0,0,.648-.406,1.236,1.236,0,0,0,.094-.539,1.142,1.142,0,0,0-.512-1.043,2.745,2.745,0,0,0-1.465-.324,1.861,1.861,0,0,0-1.562.594,1.953,1.953,0,0,0-.336.977H18.847a2.416,2.416,0,0,1,1-2.152,4.122,4.122,0,0,1,2.238-.605,4.554,4.554,0,0,1,2.4.563,1.908,1.908,0,0,1,.914,1.75v4.82a.617.617,0,0,0,.09.352.433.433,0,0,0,.379.133q.094,0,.211-.012T26.331-1V.039a3.917,3.917,0,0,1-.5.117,3.654,3.654,0,0,1-.469.023,1.157,1.157,0,0,1-1.055-.516,1.99,1.99,0,0,1-.242-.773,3.578,3.578,0,0,1-1.234.977,3.818,3.818,0,0,1-1.773.414,2.637,2.637,0,0,1-1.9-.707,2.349,2.349,0,0,1-.738-1.77A2.279,2.279,0,0,1,19.144-4a3.457,3.457,0,0,1,1.906-.789Zm.594-6.664L21.8-9.477H20.722l1.43-2.258Zm4.173,2.094a2.507,2.507,0,0,1,.3-1.281,2.153,2.153,0,0,1,1.9-.719q.133,0,.273.008t.32.023v1.281q-.219-.016-.316-.02t-.184,0q-.641,0-.766.332a6.564,6.564,0,0,0-.125,1.691h1.391v1.109H29.45V0H28.059V-7.219H26.9V-8.328h1.164Zm4.1,1.313h1.43V0h-1.43Zm0-3.148h1.43v1.594h-1.43Zm6.783,2.867a3.648,3.648,0,0,1,2.3.688A3.294,3.294,0,0,1,42.3-5.555H40.938a2.524,2.524,0,0,0-.57-1.285,1.8,1.8,0,0,0-1.43-.512,1.975,1.975,0,0,0-1.922,1.313,5.214,5.214,0,0,0-.375,2.1,3.955,3.955,0,0,0,.531,2.117,1.822,1.822,0,0,0,1.672.859A1.828,1.828,0,0,0,40.231-1.5a2.943,2.943,0,0,0,.707-1.465H42.3A3.67,3.67,0,0,1,41.133-.527a3.656,3.656,0,0,1-2.4.77,3.2,3.2,0,0,1-2.617-1.2,4.59,4.59,0,0,1-.977-3,5.048,5.048,0,0,1,1.07-3.43A3.459,3.459,0,0,1,38.938-8.609Zm8.1,7.7a1.939,1.939,0,0,0,1.918-1.059,5.274,5.274,0,0,0,.52-2.355A4.194,4.194,0,0,0,49.1-6.227a2.11,2.11,0,0,0-2.047-1.156,2.018,2.018,0,0,0-1.875.984,4.563,4.563,0,0,0-.586,2.375A3.969,3.969,0,0,0,45.174-1.8,2.064,2.064,0,0,0,47.033-.906Zm.055-7.7a3.789,3.789,0,0,1,2.734,1.078,4.21,4.21,0,0,1,1.117,3.172,5.442,5.442,0,0,1-.984,3.344A3.561,3.561,0,0,1,46.9.3,3.449,3.449,0,0,1,44.158-.863,4.613,4.613,0,0,1,43.142-4a4.991,4.991,0,0,1,1.07-3.359A3.592,3.592,0,0,1,47.088-8.609Zm6.361,5.984A2.045,2.045,0,0,0,53.8-1.547a2.209,2.209,0,0,0,1.844.68,2.719,2.719,0,0,0,1.375-.34,1.129,1.129,0,0,0,.594-1.051.9.9,0,0,0-.477-.82,5.666,5.666,0,0,0-1.2-.4l-1.117-.281a5.45,5.45,0,0,1-1.578-.594,1.775,1.775,0,0,1-.906-1.578,2.411,2.411,0,0,1,.855-1.922,3.413,3.413,0,0,1,2.3-.734,3.194,3.194,0,0,1,2.727,1.109,2.407,2.407,0,0,1,.508,1.516H57.394a1.627,1.627,0,0,0-.336-.867,2.143,2.143,0,0,0-1.68-.555,2.008,2.008,0,0,0-1.207.3.955.955,0,0,0-.41.8A.991.991,0,0,0,54.3-5.4a3.239,3.239,0,0,0,.922.344l.93.227a7.188,7.188,0,0,1,2.031.711,1.882,1.882,0,0,1,.82,1.7,2.584,2.584,0,0,1-.848,1.93A3.608,3.608,0,0,1,55.574.32a3.464,3.464,0,0,1-2.645-.848,3.206,3.206,0,0,1-.832-2.1ZM68.288-8.609a3.648,3.648,0,0,1,2.3.688,3.294,3.294,0,0,1,1.066,2.367H70.288a2.524,2.524,0,0,0-.57-1.285,1.8,1.8,0,0,0-1.43-.512,1.975,1.975,0,0,0-1.922,1.313,5.214,5.214,0,0,0-.375,2.1,3.955,3.955,0,0,0,.531,2.117,1.822,1.822,0,0,0,1.672.859A1.828,1.828,0,0,0,69.581-1.5a2.943,2.943,0,0,0,.707-1.465h1.367A3.67,3.67,0,0,1,70.483-.527a3.656,3.656,0,0,1-2.4.77,3.2,3.2,0,0,1-2.617-1.2,4.59,4.59,0,0,1-.977-3,5.048,5.048,0,0,1,1.07-3.43A3.459,3.459,0,0,1,68.288-8.609Zm4.775.281h1.43V0h-1.43Zm0-3.148h1.43v1.594h-1.43Zm3.6,3.109h1.336v1.445a3.193,3.193,0,0,1,.8-1.027,2.086,2.086,0,0,1,1.477-.605q.039,0,.133.008l.32.031v1.484a2.1,2.1,0,0,0-.23-.031q-.105-.008-.23-.008a2.007,2.007,0,0,0-1.633.684,2.386,2.386,0,0,0-.57,1.574V0H76.658Zm8.517-.242a3.648,3.648,0,0,1,2.3.688,3.294,3.294,0,0,1,1.066,2.367H87.175a2.524,2.524,0,0,0-.57-1.285,1.8,1.8,0,0,0-1.43-.512,1.975,1.975,0,0,0-1.922,1.313,5.214,5.214,0,0,0-.375,2.1A3.955,3.955,0,0,0,83.41-1.82a1.822,1.822,0,0,0,1.672.859A1.828,1.828,0,0,0,86.468-1.5a2.943,2.943,0,0,0,.707-1.465h1.367A3.67,3.67,0,0,1,87.371-.527a3.656,3.656,0,0,1-2.4.77,3.2,3.2,0,0,1-2.617-1.2,4.59,4.59,0,0,1-.977-3,5.048,5.048,0,0,1,1.07-3.43A3.459,3.459,0,0,1,85.175-8.609Zm6.181.242v5.555a2.342,2.342,0,0,0,.2,1.047,1.417,1.417,0,0,0,1.4.75,1.977,1.977,0,0,0,2-1.312,5.207,5.207,0,0,0,.289-1.93V-8.367h1.406V0H95.325l.016-1.234a2.837,2.837,0,0,1-.68.8,2.991,2.991,0,0,1-1.953.656,2.519,2.519,0,0,1-2.437-1.2,3.56,3.56,0,0,1-.352-1.711V-8.367Zm7.533-3.109H100.3V0H98.89Zm4.6,9.25a1.158,1.158,0,0,0,.445.961,1.651,1.651,0,0,0,1.055.352,3.207,3.207,0,0,0,1.438-.344,1.935,1.935,0,0,0,1.172-1.867V-4.258a2.406,2.406,0,0,1-.664.273,5.659,5.659,0,0,1-.8.156l-.852.109a3.257,3.257,0,0,0-1.148.32A1.248,1.248,0,0,0,103.485-2.227Zm3.406-2.844a.764.764,0,0,0,.648-.406,1.236,1.236,0,0,0,.094-.539,1.142,1.142,0,0,0-.512-1.043,2.745,2.745,0,0,0-1.465-.324,1.861,1.861,0,0,0-1.562.594,1.953,1.953,0,0,0-.336.977h-1.312a2.416,2.416,0,0,1,1-2.152,4.122,4.122,0,0,1,2.238-.605,4.554,4.554,0,0,1,2.4.563A1.908,1.908,0,0,1,109-6.258v4.82a.617.617,0,0,0,.09.352.433.433,0,0,0,.379.133q.094,0,.211-.012T109.93-1V.039a3.916,3.916,0,0,1-.5.117,3.654,3.654,0,0,1-.469.023,1.157,1.157,0,0,1-1.055-.516,1.99,1.99,0,0,1-.242-.773,3.578,3.578,0,0,1-1.234.977,3.818,3.818,0,0,1-1.773.414,2.637,2.637,0,0,1-1.9-.707,2.349,2.349,0,0,1-.738-1.77,2.279,2.279,0,0,1,.727-1.8,3.457,3.457,0,0,1,1.906-.789Zm4.455-3.3h1.336v1.445a3.193,3.193,0,0,1,.8-1.027,2.086,2.086,0,0,1,1.477-.605q.039,0,.133.008l.32.031v1.484a2.1,2.1,0,0,0-.23-.031q-.105-.008-.23-.008a2.007,2.007,0,0,0-1.633.684,2.386,2.386,0,0,0-.57,1.574V0h-1.406Zm8.775-.187a3.817,3.817,0,0,1,1.727.418,3.184,3.184,0,0,1,1.273,1.082,3.733,3.733,0,0,1,.563,1.477,9.66,9.66,0,0,1,.125,1.844h-6.133a3.579,3.579,0,0,0,.6,2.043,2.014,2.014,0,0,0,1.742.77,2.252,2.252,0,0,0,1.758-.727,2.449,2.449,0,0,0,.531-.977h1.383a2.912,2.912,0,0,1-.363,1.027,3.654,3.654,0,0,1-.691.926,3.277,3.277,0,0,1-1.586.844A4.818,4.818,0,0,1,119.9.3,3.524,3.524,0,0,1,117.254-.84a4.423,4.423,0,0,1-1.086-3.184A4.809,4.809,0,0,1,117.262-7.3,3.608,3.608,0,0,1,120.121-8.555Zm2.242,3.7a3.643,3.643,0,0,0-.4-1.461,2.042,2.042,0,0,0-1.93-1.016,2.139,2.139,0,0,0-1.625.7,2.641,2.641,0,0,0-.7,1.777Zm4.009,2.227a2.045,2.045,0,0,0,.352,1.078,2.209,2.209,0,0,0,1.844.68,2.719,2.719,0,0,0,1.375-.34,1.129,1.129,0,0,0,.594-1.051.9.9,0,0,0-.477-.82,5.666,5.666,0,0,0-1.2-.4l-1.117-.281a5.45,5.45,0,0,1-1.578-.594,1.775,1.775,0,0,1-.906-1.578,2.411,2.411,0,0,1,.855-1.922,3.413,3.413,0,0,1,2.3-.734,3.194,3.194,0,0,1,2.727,1.109,2.407,2.407,0,0,1,.508,1.516h-1.328a1.627,1.627,0,0,0-.336-.867,2.143,2.143,0,0,0-1.68-.555,2.008,2.008,0,0,0-1.207.3.955.955,0,0,0-.41.8.991.991,0,0,0,.539.875,3.239,3.239,0,0,0,.922.344l.93.227a7.188,7.188,0,0,1,2.031.711,1.882,1.882,0,0,1,.82,1.7,2.584,2.584,0,0,1-.848,1.93A3.608,3.608,0,0,1,128.5.32a3.464,3.464,0,0,1-2.645-.848,3.206,3.206,0,0,1-.832-2.1Zm15.316-9.039a27.281,27.281,0,0,0-1.594,3.508A12.824,12.824,0,0,0,139.54-4.2a12.885,12.885,0,0,0,.633,4.141,25,25,0,0,0,1.539,3.328h-.945q-1.141-1.781-1.414-2.273a10.56,10.56,0,0,1-.594-1.336,10.98,10.98,0,0,1-.609-2.469,10.351,10.351,0,0,1-.086-1.3,10.953,10.953,0,0,1,.727-4.117,23.7,23.7,0,0,1,1.922-3.437ZM146.846-.945a2.006,2.006,0,0,0,1.637-.824,3.922,3.922,0,0,0,.652-2.465,4.6,4.6,0,0,0-.289-1.719,2,2,0,0,0-2-1.383,1.994,1.994,0,0,0-2,1.461,5.79,5.79,0,0,0-.289,1.984,4.207,4.207,0,0,0,.289,1.648A1.994,1.994,0,0,0,146.846-.945Zm-3.641-7.383h1.367v1.109a3.413,3.413,0,0,1,.922-.883,2.967,2.967,0,0,1,1.672-.469,3.144,3.144,0,0,1,2.414,1.09,4.465,4.465,0,0,1,.992,3.113,4.781,4.781,0,0,1-1.43,3.906,3.23,3.23,0,0,1-2.109.742,2.863,2.863,0,0,1-1.586-.414,3.654,3.654,0,0,1-.836-.8V3.336h-1.406Zm10.088,6.1a1.158,1.158,0,0,0,.445.961,1.651,1.651,0,0,0,1.055.352,3.207,3.207,0,0,0,1.438-.344A1.935,1.935,0,0,0,157.4-3.125V-4.258a2.406,2.406,0,0,1-.664.273,5.658,5.658,0,0,1-.8.156l-.852.109a3.257,3.257,0,0,0-1.148.32A1.248,1.248,0,0,0,153.293-2.227ZM156.7-5.07a.764.764,0,0,0,.648-.406,1.236,1.236,0,0,0,.094-.539,1.142,1.142,0,0,0-.512-1.043,2.745,2.745,0,0,0-1.465-.324,1.861,1.861,0,0,0-1.562.594,1.953,1.953,0,0,0-.336.977h-1.312a2.416,2.416,0,0,1,1-2.152A4.122,4.122,0,0,1,155.5-8.57a4.554,4.554,0,0,1,2.4.563,1.908,1.908,0,0,1,.914,1.75v4.82a.617.617,0,0,0,.09.352.433.433,0,0,0,.379.133q.094,0,.211-.012t.25-.035V.039a3.917,3.917,0,0,1-.5.117,3.654,3.654,0,0,1-.469.023,1.157,1.157,0,0,1-1.055-.516,1.99,1.99,0,0,1-.242-.773,3.578,3.578,0,0,1-1.234.977,3.818,3.818,0,0,1-1.773.414,2.637,2.637,0,0,1-1.9-.707,2.349,2.349,0,0,1-.738-1.77,2.279,2.279,0,0,1,.727-1.8,3.457,3.457,0,0,1,1.906-.789Zm5.252,2.445a2.045,2.045,0,0,0,.352,1.078,2.209,2.209,0,0,0,1.844.68,2.719,2.719,0,0,0,1.375-.34,1.129,1.129,0,0,0,.594-1.051.9.9,0,0,0-.477-.82,5.666,5.666,0,0,0-1.2-.4l-1.117-.281a5.45,5.45,0,0,1-1.578-.594,1.775,1.775,0,0,1-.906-1.578,2.411,2.411,0,0,1,.855-1.922,3.413,3.413,0,0,1,2.3-.734,3.194,3.194,0,0,1,2.727,1.109,2.407,2.407,0,0,1,.508,1.516H165.9a1.627,1.627,0,0,0-.336-.867,2.143,2.143,0,0,0-1.68-.555,2.008,2.008,0,0,0-1.207.3.955.955,0,0,0-.41.8.991.991,0,0,0,.539.875,3.239,3.239,0,0,0,.922.344l.93.227a7.188,7.188,0,0,1,2.031.711,1.882,1.882,0,0,1,.82,1.7,2.584,2.584,0,0,1-.848,1.93,3.608,3.608,0,0,1-2.582.813,3.464,3.464,0,0,1-2.645-.848,3.206,3.206,0,0,1-.832-2.1ZM169.4-10.7h1.422v2.336h1.336v1.148H170.82v5.461a.591.591,0,0,0,.3.586,1.262,1.262,0,0,0,.547.086q.1,0,.219,0t.273-.02V0a3.139,3.139,0,0,1-.5.1,4.791,4.791,0,0,1-.566.031,1.527,1.527,0,0,1-1.336-.5A2.239,2.239,0,0,1,169.4-1.68V-7.219h-1.133V-8.367H169.4Zm7.65,2.148a3.817,3.817,0,0,1,1.727.418,3.184,3.184,0,0,1,1.273,1.082,3.733,3.733,0,0,1,.563,1.477,9.661,9.661,0,0,1,.125,1.844H174.6a3.579,3.579,0,0,0,.6,2.043,2.014,2.014,0,0,0,1.742.77,2.252,2.252,0,0,0,1.758-.727,2.449,2.449,0,0,0,.531-.977h1.383a2.912,2.912,0,0,1-.363,1.027,3.654,3.654,0,0,1-.691.926,3.277,3.277,0,0,1-1.586.844A4.818,4.818,0,0,1,176.829.3,3.524,3.524,0,0,1,174.181-.84a4.423,4.423,0,0,1-1.086-3.184A4.809,4.809,0,0,1,174.188-7.3,3.608,3.608,0,0,1,177.048-8.555Zm2.242,3.7a3.643,3.643,0,0,0-.4-1.461,2.042,2.042,0,0,0-1.93-1.016,2.139,2.139,0,0,0-1.625.7,2.641,2.641,0,0,0-.7,1.777Zm3.213-6.625h1.406V0H182.5Zm3.041,14.742a27.58,27.58,0,0,0,1.6-3.531,12.748,12.748,0,0,0,.547-3.937,12.859,12.859,0,0,0-.633-4.133,25,25,0,0,0-1.539-3.328h.945q1.2,1.922,1.457,2.371a9.168,9.168,0,0,1,.551,1.238,10.008,10.008,0,0,1,.535,1.93,11.081,11.081,0,0,1,.16,1.836,10.909,10.909,0,0,1-.734,4.125,22.656,22.656,0,0,1-1.914,3.43Z" transform="translate(46 26)" fill="#212429"/>
    </g>
    <g id="Grupo_1207576" data-name="Grupo 1207576" transform="translate(4054 -960)">
      <g id="Rectángulo_419515-3" data-name="Rectángulo 419515" transform="translate(4)" fill="#fff" stroke="#1d7083" stroke-width="1">
        <rect width="189" height="40" rx="20" stroke="none"/>
        <rect x="0.5" y="0.5" width="188" height="39" rx="19.5" fill="none"/>
      </g>
      <path id="Trazado_1052719" data-name="Trazado 1052719" d="M6.18-11.773a5.9,5.9,0,0,1,2.8.625A4.078,4.078,0,0,1,11.07-8H9.531A2.8,2.8,0,0,0,8.367-9.832a4.007,4.007,0,0,0-2.227-.574,3.489,3.489,0,0,0-2.684,1.2,5.13,5.13,0,0,0-1.09,3.563,5.692,5.692,0,0,0,.9,3.332A3.321,3.321,0,0,0,6.2-1.031a3.741,3.741,0,0,0,2.574-.9A3.777,3.777,0,0,0,9.813-4.852H6.219V-6.141h5.039V0h-1L9.883-1.477a5.894,5.894,0,0,1-1.4,1.2A5.242,5.242,0,0,1,5.883.3a5.069,5.069,0,0,1-3.508-1.32,6.266,6.266,0,0,1-1.6-4.547,6.521,6.521,0,0,1,1.563-4.586A4.967,4.967,0,0,1,6.18-11.773Zm7.338,3.406h1.336v1.445a3.193,3.193,0,0,1,.8-1.027,2.086,2.086,0,0,1,1.477-.605q.039,0,.133.008l.32.031v1.484a2.1,2.1,0,0,0-.23-.031q-.105-.008-.23-.008a2.007,2.007,0,0,0-1.633.684,2.386,2.386,0,0,0-.57,1.574V0H13.517Zm6.369,6.141a1.158,1.158,0,0,0,.445.961,1.651,1.651,0,0,0,1.055.352,3.207,3.207,0,0,0,1.438-.344A1.935,1.935,0,0,0,24-3.125V-4.258a2.406,2.406,0,0,1-.664.273,5.659,5.659,0,0,1-.8.156l-.852.109a3.257,3.257,0,0,0-1.148.32A1.248,1.248,0,0,0,19.886-2.227ZM23.292-5.07a.764.764,0,0,0,.648-.406,1.236,1.236,0,0,0,.094-.539,1.142,1.142,0,0,0-.512-1.043,2.745,2.745,0,0,0-1.465-.324,1.861,1.861,0,0,0-1.562.594,1.953,1.953,0,0,0-.336.977H18.847a2.416,2.416,0,0,1,1-2.152,4.122,4.122,0,0,1,2.238-.605,4.554,4.554,0,0,1,2.4.563,1.908,1.908,0,0,1,.914,1.75v4.82a.617.617,0,0,0,.09.352.433.433,0,0,0,.379.133q.094,0,.211-.012T26.331-1V.039a3.917,3.917,0,0,1-.5.117,3.654,3.654,0,0,1-.469.023,1.157,1.157,0,0,1-1.055-.516,1.99,1.99,0,0,1-.242-.773,3.578,3.578,0,0,1-1.234.977,3.818,3.818,0,0,1-1.773.414,2.637,2.637,0,0,1-1.9-.707,2.349,2.349,0,0,1-.738-1.77A2.279,2.279,0,0,1,19.144-4a3.457,3.457,0,0,1,1.906-.789Zm.594-6.664L21.8-9.477H20.722l1.43-2.258Zm4.173,2.094a2.507,2.507,0,0,1,.3-1.281,2.153,2.153,0,0,1,1.9-.719q.133,0,.273.008t.32.023v1.281q-.219-.016-.316-.02t-.184,0q-.641,0-.766.332a6.564,6.564,0,0,0-.125,1.691h1.391v1.109H29.45V0H28.059V-7.219H26.9V-8.328h1.164Zm4.1,1.313h1.43V0h-1.43Zm0-3.148h1.43v1.594h-1.43Zm6.783,2.867a3.648,3.648,0,0,1,2.3.688A3.294,3.294,0,0,1,42.3-5.555H40.938a2.524,2.524,0,0,0-.57-1.285,1.8,1.8,0,0,0-1.43-.512,1.975,1.975,0,0,0-1.922,1.313,5.214,5.214,0,0,0-.375,2.1,3.955,3.955,0,0,0,.531,2.117,1.822,1.822,0,0,0,1.672.859A1.828,1.828,0,0,0,40.231-1.5a2.943,2.943,0,0,0,.707-1.465H42.3A3.67,3.67,0,0,1,41.133-.527a3.656,3.656,0,0,1-2.4.77,3.2,3.2,0,0,1-2.617-1.2,4.59,4.59,0,0,1-.977-3,5.048,5.048,0,0,1,1.07-3.43A3.459,3.459,0,0,1,38.938-8.609Zm8.1,7.7a1.939,1.939,0,0,0,1.918-1.059,5.274,5.274,0,0,0,.52-2.355A4.194,4.194,0,0,0,49.1-6.227a2.11,2.11,0,0,0-2.047-1.156,2.018,2.018,0,0,0-1.875.984,4.563,4.563,0,0,0-.586,2.375A3.969,3.969,0,0,0,45.174-1.8,2.064,2.064,0,0,0,47.033-.906Zm.055-7.7a3.789,3.789,0,0,1,2.734,1.078,4.21,4.21,0,0,1,1.117,3.172,5.442,5.442,0,0,1-.984,3.344A3.561,3.561,0,0,1,46.9.3,3.449,3.449,0,0,1,44.158-.863,4.613,4.613,0,0,1,43.142-4a4.991,4.991,0,0,1,1.07-3.359A3.592,3.592,0,0,1,47.088-8.609Zm6.361,5.984A2.045,2.045,0,0,0,53.8-1.547a2.209,2.209,0,0,0,1.844.68,2.719,2.719,0,0,0,1.375-.34,1.129,1.129,0,0,0,.594-1.051.9.9,0,0,0-.477-.82,5.666,5.666,0,0,0-1.2-.4l-1.117-.281a5.45,5.45,0,0,1-1.578-.594,1.775,1.775,0,0,1-.906-1.578,2.411,2.411,0,0,1,.855-1.922,3.413,3.413,0,0,1,2.3-.734,3.194,3.194,0,0,1,2.727,1.109,2.407,2.407,0,0,1,.508,1.516H57.394a1.627,1.627,0,0,0-.336-.867,2.143,2.143,0,0,0-1.68-.555,2.008,2.008,0,0,0-1.207.3.955.955,0,0,0-.41.8A.991.991,0,0,0,54.3-5.4a3.239,3.239,0,0,0,.922.344l.93.227a7.188,7.188,0,0,1,2.031.711,1.882,1.882,0,0,1,.82,1.7,2.584,2.584,0,0,1-.848,1.93A3.608,3.608,0,0,1,55.574.32a3.464,3.464,0,0,1-2.645-.848,3.206,3.206,0,0,1-.832-2.1Zm12.5-1.461a4.147,4.147,0,0,0,.57,2.25A2,2,0,0,0,68.35-.93a1.925,1.925,0,0,0,1.605-.84,3.966,3.966,0,0,0,.629-2.41,3.564,3.564,0,0,0-.648-2.348,2.023,2.023,0,0,0-1.6-.762,2.114,2.114,0,0,0-1.723.813A3.721,3.721,0,0,0,65.952-4.086Zm2.117-4.43a2.977,2.977,0,0,1,1.609.406,3.78,3.78,0,0,1,.852.82v-4.227h1.352V0H70.616V-1.164A3.043,3.043,0,0,1,69.452-.047,3.332,3.332,0,0,1,67.913.3,3.117,3.117,0,0,1,65.491-.879a4.6,4.6,0,0,1-1.023-3.129A5.4,5.4,0,0,1,65.4-7.176,3.057,3.057,0,0,1,68.069-8.516Zm9.377-.039a3.817,3.817,0,0,1,1.727.418,3.184,3.184,0,0,1,1.273,1.082,3.733,3.733,0,0,1,.563,1.477,9.66,9.66,0,0,1,.125,1.844H75a3.579,3.579,0,0,0,.6,2.043,2.014,2.014,0,0,0,1.742.77A2.252,2.252,0,0,0,79.1-1.648a2.449,2.449,0,0,0,.531-.977h1.383A2.912,2.912,0,0,1,80.653-1.6a3.654,3.654,0,0,1-.691.926,3.277,3.277,0,0,1-1.586.844A4.818,4.818,0,0,1,77.227.3,3.524,3.524,0,0,1,74.578-.84a4.423,4.423,0,0,1-1.086-3.184A4.809,4.809,0,0,1,74.586-7.3,3.608,3.608,0,0,1,77.446-8.555Zm2.242,3.7a3.643,3.643,0,0,0-.4-1.461,2.042,2.042,0,0,0-1.93-1.016,2.139,2.139,0,0,0-1.625.7,2.641,2.641,0,0,0-.7,1.777Zm7.659-6.625h1.406V0H87.347ZM91.31-8.328h1.43V0H91.31ZM93.8-11.734,91.716-9.477H90.638l1.43-2.258Zm1.509,3.367h1.336V-7.18a3.747,3.747,0,0,1,1.258-1.055,3.354,3.354,0,0,1,1.477-.32,2.435,2.435,0,0,1,2.406,1.242,4.411,4.411,0,0,1,.344,1.945V0H100.7V-5.273a2.856,2.856,0,0,0-.227-1.234,1.374,1.374,0,0,0-1.359-.781,2.768,2.768,0,0,0-.82.1A2.113,2.113,0,0,0,97.28-6.5a2.07,2.07,0,0,0-.457.855,5.758,5.758,0,0,0-.105,1.262V0H95.311ZM107.7-8.555a3.817,3.817,0,0,1,1.727.418A3.184,3.184,0,0,1,110.7-7.055a3.733,3.733,0,0,1,.563,1.477,9.66,9.66,0,0,1,.125,1.844h-6.133a3.579,3.579,0,0,0,.6,2.043,2.014,2.014,0,0,0,1.742.77,2.252,2.252,0,0,0,1.758-.727,2.449,2.449,0,0,0,.531-.977h1.383A2.912,2.912,0,0,1,110.9-1.6a3.654,3.654,0,0,1-.691.926,3.277,3.277,0,0,1-1.586.844A4.818,4.818,0,0,1,107.477.3,3.524,3.524,0,0,1,104.829-.84a4.423,4.423,0,0,1-1.086-3.184A4.809,4.809,0,0,1,104.837-7.3,3.608,3.608,0,0,1,107.7-8.555Zm2.242,3.7a3.643,3.643,0,0,0-.4-1.461,2.042,2.042,0,0,0-1.93-1.016,2.139,2.139,0,0,0-1.625.7,2.641,2.641,0,0,0-.7,1.777Zm4.252,2.625a1.158,1.158,0,0,0,.445.961,1.651,1.651,0,0,0,1.055.352,3.207,3.207,0,0,0,1.438-.344A1.935,1.935,0,0,0,118.3-3.125V-4.258a2.406,2.406,0,0,1-.664.273,5.659,5.659,0,0,1-.8.156l-.852.109a3.257,3.257,0,0,0-1.148.32A1.248,1.248,0,0,0,114.19-2.227ZM117.6-5.07a.764.764,0,0,0,.648-.406,1.236,1.236,0,0,0,.094-.539,1.142,1.142,0,0,0-.512-1.043,2.745,2.745,0,0,0-1.465-.324,1.861,1.861,0,0,0-1.562.594,1.953,1.953,0,0,0-.336.977h-1.312a2.416,2.416,0,0,1,1-2.152,4.122,4.122,0,0,1,2.238-.605,4.554,4.554,0,0,1,2.4.563,1.908,1.908,0,0,1,.914,1.75v4.82a.617.617,0,0,0,.09.352.433.433,0,0,0,.379.133q.094,0,.211-.012t.25-.035V.039a3.916,3.916,0,0,1-.5.117,3.654,3.654,0,0,1-.469.023,1.157,1.157,0,0,1-1.055-.516,1.99,1.99,0,0,1-.242-.773,3.578,3.578,0,0,1-1.234.977,3.818,3.818,0,0,1-1.773.414,2.637,2.637,0,0,1-1.9-.707,2.349,2.349,0,0,1-.738-1.77,2.279,2.279,0,0,1,.727-1.8,3.457,3.457,0,0,1,1.906-.789Zm5.252,2.445a2.045,2.045,0,0,0,.352,1.078,2.209,2.209,0,0,0,1.844.68,2.719,2.719,0,0,0,1.375-.34,1.129,1.129,0,0,0,.594-1.051.9.9,0,0,0-.477-.82,5.666,5.666,0,0,0-1.2-.4l-1.117-.281a5.45,5.45,0,0,1-1.578-.594,1.775,1.775,0,0,1-.906-1.578,2.411,2.411,0,0,1,.855-1.922,3.413,3.413,0,0,1,2.3-.734,3.194,3.194,0,0,1,2.727,1.109,2.407,2.407,0,0,1,.508,1.516h-1.328a1.627,1.627,0,0,0-.336-.867,2.143,2.143,0,0,0-1.68-.555,2.008,2.008,0,0,0-1.207.3.955.955,0,0,0-.41.8.991.991,0,0,0,.539.875,3.239,3.239,0,0,0,.922.344l.93.227a7.188,7.188,0,0,1,2.031.711,1.882,1.882,0,0,1,.82,1.7,2.584,2.584,0,0,1-.848,1.93,3.608,3.608,0,0,1-2.582.813,3.464,3.464,0,0,1-2.645-.848,3.206,3.206,0,0,1-.832-2.1Z" transform="translate(46 26)" fill="#212429"/>
    </g>
    <g id="Grupo_1207577" data-name="Grupo 1207577" transform="translate(3234 -1941)">
      <g id="Grupo_1207574" data-name="Grupo 1207574" transform="translate(12.686)">
        <rect id="Rectángulo_419516" data-name="Rectángulo 419516" width="121" height="117" transform="translate(805.314 1104)" fill="#553ac7"/>
        <g id="Rectángulo_419517" data-name="Rectángulo 419517" transform="translate(808.314 1108)" fill="none" stroke="#908af8" stroke-width="1">
          <rect width="121" height="117" stroke="none"/>
          <rect x="0.5" y="0.5" width="120" height="116" fill="none"/>
        </g>
      </g>
      <rect id="Rectángulo_419518" data-name="Rectángulo 419518" width="12.995" height="84.231" transform="translate(838.835 1128.341)" fill="#ada8f0"/>
      <rect id="Rectángulo_419519" data-name="Rectángulo 419519" width="12.995" height="73.231" transform="translate(861.835 1139.341)" fill="#f04965"/>
      <rect id="Rectángulo_419520" data-name="Rectángulo 419520" width="12.995" height="97.231" transform="translate(880.835 1115.341)" fill="#f6b34f"/>
      <rect id="Rectángulo_419521" data-name="Rectángulo 419521" width="12.995" height="57.231" transform="translate(903.835 1155.341)" fill="#fff"/>
    </g>
    <g id="Grupo_1207573" data-name="Grupo 1207573" transform="translate(4124 -890)">
      <g id="Rectángulo_419515-4" data-name="Rectángulo 419515" fill="#fff" stroke="#1d7083" stroke-width="1">
        <rect width="247" height="40" rx="20" stroke="none"/>
        <rect x="0.5" y="0.5" width="246" height="39" rx="19.5" fill="none"/>
      </g>
      <path id="Trazado_1052720" data-name="Trazado 1052720" d="M5.625-1.328a4.3,4.3,0,0,0,1.3-.164A2.852,2.852,0,0,0,8.406-2.664,4.8,4.8,0,0,0,9.07-4.445a6.794,6.794,0,0,0,.117-1.2A5.6,5.6,0,0,0,8.34-8.961a3.131,3.131,0,0,0-2.73-1.18H2.852v8.813ZM1.289-11.477H5.938A4.381,4.381,0,0,1,9.609-9.8a6.193,6.193,0,0,1,1.164,3.883,7.736,7.736,0,0,1-.687,3.3A4.242,4.242,0,0,1,5.922,0H1.289Zm11.3,3.148h1.43V0h-1.43Zm0-3.148h1.43v1.594h-1.43Zm4.634,9.25a1.158,1.158,0,0,0,.445.961,1.651,1.651,0,0,0,1.055.352,3.207,3.207,0,0,0,1.438-.344,1.935,1.935,0,0,0,1.172-1.867V-4.258a2.406,2.406,0,0,1-.664.273,5.659,5.659,0,0,1-.8.156l-.852.109a3.257,3.257,0,0,0-1.148.32A1.248,1.248,0,0,0,17.222-2.227ZM20.628-5.07a.764.764,0,0,0,.648-.406,1.236,1.236,0,0,0,.094-.539,1.142,1.142,0,0,0-.512-1.043,2.745,2.745,0,0,0-1.465-.324,1.861,1.861,0,0,0-1.562.594,1.953,1.953,0,0,0-.336.977H16.183a2.416,2.416,0,0,1,1-2.152,4.122,4.122,0,0,1,2.238-.605,4.554,4.554,0,0,1,2.4.563,1.908,1.908,0,0,1,.914,1.75v4.82a.617.617,0,0,0,.09.352.433.433,0,0,0,.379.133q.094,0,.211-.012T23.667-1V.039a3.917,3.917,0,0,1-.5.117A3.654,3.654,0,0,1,22.7.18a1.157,1.157,0,0,1-1.055-.516,1.99,1.99,0,0,1-.242-.773,3.578,3.578,0,0,1-1.234.977,3.818,3.818,0,0,1-1.773.414,2.637,2.637,0,0,1-1.9-.707,2.349,2.349,0,0,1-.738-1.77A2.279,2.279,0,0,1,16.48-4a3.457,3.457,0,0,1,1.906-.789ZM28-8.516a3.05,3.05,0,0,1,1.719.484,3.86,3.86,0,0,1,.813.8V-8.289h1.3V-.68a5.611,5.611,0,0,1-.469,2.516,3.366,3.366,0,0,1-3.3,1.7,4.054,4.054,0,0,1-2.273-.605,2.361,2.361,0,0,1-1.031-1.895h1.43a1.591,1.591,0,0,0,.406.867,2.071,2.071,0,0,0,1.5.469A2.064,2.064,0,0,0,30.2,1.234a6.424,6.424,0,0,0,.273-2.4,2.759,2.759,0,0,1-1.016.953A3.379,3.379,0,0,1,27.888.1a3.352,3.352,0,0,1-2.379-.965,4.243,4.243,0,0,1-1.02-3.191,4.833,4.833,0,0,1,1.027-3.281A3.177,3.177,0,0,1,28-8.516Zm2.531,4.3a3.488,3.488,0,0,0-.641-2.3,2.052,2.052,0,0,0-1.633-.75,2.016,2.016,0,0,0-2.031,1.391,5.453,5.453,0,0,0-.289,1.945,3.453,3.453,0,0,0,.574,2.152,1.854,1.854,0,0,0,1.543.738,2.166,2.166,0,0,0,2.133-1.367A4.41,4.41,0,0,0,30.528-4.219Zm3.455-4.148h1.336v1.445a3.193,3.193,0,0,1,.8-1.027A2.086,2.086,0,0,1,37.6-8.555q.039,0,.133.008l.32.031v1.484a2.1,2.1,0,0,0-.23-.031q-.105-.008-.23-.008a2.007,2.007,0,0,0-1.633.684,2.386,2.386,0,0,0-.57,1.574V0H33.983Zm6.369,6.141a1.158,1.158,0,0,0,.445.961,1.651,1.651,0,0,0,1.055.352,3.207,3.207,0,0,0,1.438-.344,1.935,1.935,0,0,0,1.172-1.867V-4.258a2.406,2.406,0,0,1-.664.273,5.659,5.659,0,0,1-.8.156l-.852.109A3.257,3.257,0,0,0,41-3.4,1.248,1.248,0,0,0,40.352-2.227ZM43.758-5.07a.764.764,0,0,0,.648-.406,1.236,1.236,0,0,0,.094-.539,1.142,1.142,0,0,0-.512-1.043,2.745,2.745,0,0,0-1.465-.324,1.861,1.861,0,0,0-1.562.594,1.953,1.953,0,0,0-.336.977H39.313a2.416,2.416,0,0,1,1-2.152,4.122,4.122,0,0,1,2.238-.605,4.554,4.554,0,0,1,2.4.563,1.908,1.908,0,0,1,.914,1.75v4.82a.617.617,0,0,0,.09.352.433.433,0,0,0,.379.133q.094,0,.211-.012T46.8-1V.039a3.917,3.917,0,0,1-.5.117,3.654,3.654,0,0,1-.469.023,1.157,1.157,0,0,1-1.055-.516,1.99,1.99,0,0,1-.242-.773A3.578,3.578,0,0,1,43.3-.133a3.818,3.818,0,0,1-1.773.414,2.637,2.637,0,0,1-1.9-.707,2.349,2.349,0,0,1-.738-1.77A2.279,2.279,0,0,1,39.61-4a3.457,3.457,0,0,1,1.906-.789Zm4.416-3.3h1.391V-7.18a4.674,4.674,0,0,1,.906-.9,2.726,2.726,0,0,1,1.578-.477,2.484,2.484,0,0,1,1.609.492,2.573,2.573,0,0,1,.625.828,3.039,3.039,0,0,1,1.1-1,3.073,3.073,0,0,1,1.422-.324,2.325,2.325,0,0,1,2.3,1.219,3.984,3.984,0,0,1,.328,1.766V0H57.971V-5.812a1.354,1.354,0,0,0-.418-1.148,1.654,1.654,0,0,0-1.02-.312,2.024,2.024,0,0,0-1.426.555,2.436,2.436,0,0,0-.6,1.852V0H53.08V-5.461a2.837,2.837,0,0,0-.2-1.242,1.239,1.239,0,0,0-1.2-.586,2.062,2.062,0,0,0-1.449.617,3.025,3.025,0,0,0-.652,2.234V0H48.174ZM62.582-2.227a1.158,1.158,0,0,0,.445.961,1.651,1.651,0,0,0,1.055.352,3.207,3.207,0,0,0,1.438-.344,1.935,1.935,0,0,0,1.172-1.867V-4.258a2.406,2.406,0,0,1-.664.273,5.659,5.659,0,0,1-.8.156l-.852.109a3.257,3.257,0,0,0-1.148.32A1.248,1.248,0,0,0,62.582-2.227ZM65.988-5.07a.764.764,0,0,0,.648-.406,1.236,1.236,0,0,0,.094-.539,1.142,1.142,0,0,0-.512-1.043,2.745,2.745,0,0,0-1.465-.324,1.861,1.861,0,0,0-1.562.594,1.953,1.953,0,0,0-.336.977H61.542a2.416,2.416,0,0,1,1-2.152,4.122,4.122,0,0,1,2.238-.605,4.554,4.554,0,0,1,2.4.563,1.908,1.908,0,0,1,.914,1.75v4.82a.617.617,0,0,0,.09.352.433.433,0,0,0,.379.133q.094,0,.211-.012T69.027-1V.039a3.916,3.916,0,0,1-.5.117,3.654,3.654,0,0,1-.469.023A1.157,1.157,0,0,1,67-.336a1.99,1.99,0,0,1-.242-.773,3.578,3.578,0,0,1-1.234.977,3.818,3.818,0,0,1-1.773.414,2.637,2.637,0,0,1-1.9-.707,2.349,2.349,0,0,1-.738-1.77A2.279,2.279,0,0,1,61.839-4a3.457,3.457,0,0,1,1.906-.789Zm5.252,2.445a2.045,2.045,0,0,0,.352,1.078,2.209,2.209,0,0,0,1.844.68,2.719,2.719,0,0,0,1.375-.34A1.129,1.129,0,0,0,75.4-2.258a.9.9,0,0,0-.477-.82,5.666,5.666,0,0,0-1.2-.4l-1.117-.281a5.45,5.45,0,0,1-1.578-.594,1.775,1.775,0,0,1-.906-1.578,2.411,2.411,0,0,1,.855-1.922,3.413,3.413,0,0,1,2.3-.734A3.194,3.194,0,0,1,76-7.477a2.407,2.407,0,0,1,.508,1.516H75.185a1.627,1.627,0,0,0-.336-.867,2.143,2.143,0,0,0-1.68-.555,2.008,2.008,0,0,0-1.207.3.955.955,0,0,0-.41.8.991.991,0,0,0,.539.875,3.239,3.239,0,0,0,.922.344l.93.227a7.188,7.188,0,0,1,2.031.711,1.882,1.882,0,0,1,.82,1.7,2.584,2.584,0,0,1-.848,1.93A3.608,3.608,0,0,1,73.364.32,3.464,3.464,0,0,1,70.72-.527a3.206,3.206,0,0,1-.832-2.1Zm12.5-1.461a4.147,4.147,0,0,0,.57,2.25,2,2,0,0,0,1.828.906,1.925,1.925,0,0,0,1.605-.84,3.966,3.966,0,0,0,.629-2.41,3.564,3.564,0,0,0-.648-2.348,2.023,2.023,0,0,0-1.6-.762,2.114,2.114,0,0,0-1.723.813A3.721,3.721,0,0,0,83.743-4.086Zm2.117-4.43a2.977,2.977,0,0,1,1.609.406,3.78,3.78,0,0,1,.852.82v-4.227h1.352V0H88.407V-1.164A3.043,3.043,0,0,1,87.243-.047,3.332,3.332,0,0,1,85.7.3,3.117,3.117,0,0,1,83.282-.879a4.6,4.6,0,0,1-1.023-3.129,5.4,5.4,0,0,1,.934-3.168A3.057,3.057,0,0,1,85.86-8.516Zm9.377-.039a3.817,3.817,0,0,1,1.727.418,3.184,3.184,0,0,1,1.273,1.082A3.733,3.733,0,0,1,98.8-5.578a9.66,9.66,0,0,1,.125,1.844H92.791a3.579,3.579,0,0,0,.6,2.043,2.014,2.014,0,0,0,1.742.77,2.252,2.252,0,0,0,1.758-.727,2.449,2.449,0,0,0,.531-.977h1.383A2.912,2.912,0,0,1,98.443-1.6a3.654,3.654,0,0,1-.691.926,3.277,3.277,0,0,1-1.586.844A4.818,4.818,0,0,1,95.018.3,3.524,3.524,0,0,1,92.369-.84a4.423,4.423,0,0,1-1.086-3.184A4.809,4.809,0,0,1,92.377-7.3,3.608,3.608,0,0,1,95.236-8.555Zm2.242,3.7a3.643,3.643,0,0,0-.4-1.461,2.042,2.042,0,0,0-1.93-1.016,2.139,2.139,0,0,0-1.625.7,2.641,2.641,0,0,0-.7,1.777Zm8.511.766a4.147,4.147,0,0,0,.57,2.25,2,2,0,0,0,1.828.906,1.925,1.925,0,0,0,1.605-.84,3.966,3.966,0,0,0,.629-2.41,3.564,3.564,0,0,0-.648-2.348,2.023,2.023,0,0,0-1.6-.762,2.114,2.114,0,0,0-1.723.813A3.721,3.721,0,0,0,105.99-4.086Zm2.117-4.43a2.977,2.977,0,0,1,1.609.406,3.78,3.78,0,0,1,.852.82v-4.227h1.352V0h-1.266V-1.164A3.043,3.043,0,0,1,109.49-.047,3.332,3.332,0,0,1,107.95.3a3.117,3.117,0,0,1-2.422-1.176,4.6,4.6,0,0,1-1.023-3.129,5.4,5.4,0,0,1,.934-3.168A3.057,3.057,0,0,1,108.107-8.516ZM114-8.328h1.43V0H114Zm0-3.148h1.43v1.594H114Zm4.392,8.852a2.045,2.045,0,0,0,.352,1.078,2.209,2.209,0,0,0,1.844.68,2.719,2.719,0,0,0,1.375-.34,1.129,1.129,0,0,0,.594-1.051.9.9,0,0,0-.477-.82,5.666,5.666,0,0,0-1.2-.4l-1.117-.281a5.45,5.45,0,0,1-1.578-.594,1.775,1.775,0,0,1-.906-1.578,2.411,2.411,0,0,1,.855-1.922,3.413,3.413,0,0,1,2.3-.734,3.194,3.194,0,0,1,2.727,1.109,2.407,2.407,0,0,1,.508,1.516h-1.328A1.627,1.627,0,0,0,122-6.828a2.143,2.143,0,0,0-1.68-.555,2.008,2.008,0,0,0-1.207.3.955.955,0,0,0-.41.8.991.991,0,0,0,.539.875,3.239,3.239,0,0,0,.922.344l.93.227a7.188,7.188,0,0,1,2.031.711,1.882,1.882,0,0,1,.82,1.7,2.584,2.584,0,0,1-.848,1.93,3.608,3.608,0,0,1-2.582.813,3.464,3.464,0,0,1-2.645-.848,3.206,3.206,0,0,1-.832-2.1Zm10.7,1.68a2.006,2.006,0,0,0,1.637-.824,3.922,3.922,0,0,0,.652-2.465,4.6,4.6,0,0,0-.289-1.719,2,2,0,0,0-2-1.383,1.994,1.994,0,0,0-2,1.461,5.79,5.79,0,0,0-.289,1.984,4.206,4.206,0,0,0,.289,1.648A1.994,1.994,0,0,0,129.088-.945Zm-3.641-7.383h1.367v1.109a3.413,3.413,0,0,1,.922-.883,2.967,2.967,0,0,1,1.672-.469,3.144,3.144,0,0,1,2.414,1.09,4.465,4.465,0,0,1,.992,3.113,4.781,4.781,0,0,1-1.43,3.906,3.23,3.23,0,0,1-2.109.742,2.863,2.863,0,0,1-1.586-.414,3.654,3.654,0,0,1-.836-.8V3.336h-1.406Zm12.494-.227a3.817,3.817,0,0,1,1.727.418,3.184,3.184,0,0,1,1.273,1.082,3.733,3.733,0,0,1,.563,1.477,9.661,9.661,0,0,1,.125,1.844H135.5a3.579,3.579,0,0,0,.6,2.043,2.014,2.014,0,0,0,1.742.77,2.252,2.252,0,0,0,1.758-.727,2.449,2.449,0,0,0,.531-.977h1.383a2.912,2.912,0,0,1-.363,1.027,3.654,3.654,0,0,1-.691.926,3.277,3.277,0,0,1-1.586.844A4.818,4.818,0,0,1,137.723.3,3.524,3.524,0,0,1,135.074-.84a4.423,4.423,0,0,1-1.086-3.184A4.809,4.809,0,0,1,135.082-7.3,3.608,3.608,0,0,1,137.941-8.555Zm2.242,3.7a3.643,3.643,0,0,0-.4-1.461,2.042,2.042,0,0,0-1.93-1.016,2.139,2.139,0,0,0-1.625.7,2.641,2.641,0,0,0-.7,1.777ZM143.4-8.367h1.336v1.445a3.193,3.193,0,0,1,.8-1.027,2.086,2.086,0,0,1,1.477-.605q.039,0,.133.008l.32.031v1.484a2.1,2.1,0,0,0-.23-.031q-.105-.008-.23-.008a2.007,2.007,0,0,0-1.633.684,2.386,2.386,0,0,0-.57,1.574V0H143.4Zm6.127,5.742a2.045,2.045,0,0,0,.352,1.078,2.209,2.209,0,0,0,1.844.68,2.719,2.719,0,0,0,1.375-.34,1.129,1.129,0,0,0,.594-1.051.9.9,0,0,0-.477-.82,5.666,5.666,0,0,0-1.2-.4l-1.117-.281a5.45,5.45,0,0,1-1.578-.594,1.775,1.775,0,0,1-.906-1.578,2.411,2.411,0,0,1,.855-1.922,3.413,3.413,0,0,1,2.3-.734,3.194,3.194,0,0,1,2.727,1.109,2.407,2.407,0,0,1,.508,1.516h-1.328a1.627,1.627,0,0,0-.336-.867,2.143,2.143,0,0,0-1.68-.555,2.008,2.008,0,0,0-1.207.3.955.955,0,0,0-.41.8.991.991,0,0,0,.539.875,3.239,3.239,0,0,0,.922.344l.93.227a7.188,7.188,0,0,1,2.031.711,1.882,1.882,0,0,1,.82,1.7,2.584,2.584,0,0,1-.848,1.93,3.608,3.608,0,0,1-2.582.813A3.464,3.464,0,0,1,149-.527a3.206,3.206,0,0,1-.832-2.1Zm7.166-5.7h1.43V0h-1.43Zm0-3.148h1.43v1.594h-1.43Zm6.877,10.57a1.939,1.939,0,0,0,1.918-1.059A5.274,5.274,0,0,0,166-4.32a4.194,4.194,0,0,0-.375-1.906,2.11,2.11,0,0,0-2.047-1.156,2.018,2.018,0,0,0-1.875.984,4.563,4.563,0,0,0-.586,2.375,3.969,3.969,0,0,0,.586,2.227A2.064,2.064,0,0,0,163.565-.906Zm.055-7.7a3.789,3.789,0,0,1,2.734,1.078,4.21,4.21,0,0,1,1.117,3.172,5.442,5.442,0,0,1-.984,3.344A3.561,3.561,0,0,1,163.432.3,3.449,3.449,0,0,1,160.69-.863,4.613,4.613,0,0,1,159.674-4a4.991,4.991,0,0,1,1.07-3.359A3.592,3.592,0,0,1,163.62-8.609Zm5.525.242h1.336V-7.18a3.747,3.747,0,0,1,1.258-1.055,3.354,3.354,0,0,1,1.477-.32,2.435,2.435,0,0,1,2.406,1.242,4.411,4.411,0,0,1,.344,1.945V0h-1.43V-5.273a2.855,2.855,0,0,0-.227-1.234,1.374,1.374,0,0,0-1.359-.781,2.768,2.768,0,0,0-.82.1,2.113,2.113,0,0,0-1.016.688,2.07,2.07,0,0,0-.457.855,5.758,5.758,0,0,0-.105,1.262V0h-1.406Z" transform="translate(48 26)" fill="#212429"/>
    </g>
    <g id="Grupo_1207578" data-name="Grupo 1207578" transform="translate(4153 -828)">
      <g id="Rectángulo_419515-5" data-name="Rectángulo 419515" fill="#fff" stroke="#1d7083" stroke-width="1">
        <rect width="155" height="40" rx="20" stroke="none"/>
        <rect x="0.5" y="0.5" width="154" height="39" rx="19.5" fill="none"/>
      </g>
      <path id="Trazado_1052721" data-name="Trazado 1052721" d="M1.258-11.477h1.57v4.742H8.8v-4.742h1.57V0H8.8V-5.367H2.828V0H1.258Zm11.33,3.148h1.43V0h-1.43Zm0-3.148h1.43v1.594h-1.43ZM16.98-2.625a2.045,2.045,0,0,0,.352,1.078,2.209,2.209,0,0,0,1.844.68,2.719,2.719,0,0,0,1.375-.34,1.129,1.129,0,0,0,.594-1.051.9.9,0,0,0-.477-.82,5.666,5.666,0,0,0-1.2-.4l-1.117-.281a5.45,5.45,0,0,1-1.578-.594,1.775,1.775,0,0,1-.906-1.578,2.411,2.411,0,0,1,.855-1.922,3.413,3.413,0,0,1,2.3-.734,3.194,3.194,0,0,1,2.727,1.109,2.407,2.407,0,0,1,.508,1.516H20.925a1.627,1.627,0,0,0-.336-.867,2.143,2.143,0,0,0-1.68-.555,2.008,2.008,0,0,0-1.207.3.955.955,0,0,0-.41.8.991.991,0,0,0,.539.875,3.239,3.239,0,0,0,.922.344l.93.227a7.188,7.188,0,0,1,2.031.711,1.882,1.882,0,0,1,.82,1.7,2.584,2.584,0,0,1-.848,1.93A3.608,3.608,0,0,1,19.1.32,3.464,3.464,0,0,1,16.46-.527a3.206,3.206,0,0,1-.832-2.1ZM24.427-10.7h1.422v2.336h1.336v1.148H25.849v5.461a.591.591,0,0,0,.3.586,1.262,1.262,0,0,0,.547.086q.1,0,.219,0t.273-.02V0a3.139,3.139,0,0,1-.5.1,4.791,4.791,0,0,1-.566.031,1.527,1.527,0,0,1-1.336-.5,2.239,2.239,0,0,1-.352-1.309V-7.219H23.294V-8.367h1.133Zm7.486,9.8a1.939,1.939,0,0,0,1.918-1.059,5.274,5.274,0,0,0,.52-2.355,4.194,4.194,0,0,0-.375-1.906,2.11,2.11,0,0,0-2.047-1.156,2.018,2.018,0,0,0-1.875.984,4.563,4.563,0,0,0-.586,2.375A3.969,3.969,0,0,0,30.053-1.8,2.064,2.064,0,0,0,31.913-.906Zm.055-7.7A3.789,3.789,0,0,1,34.7-7.531a4.21,4.21,0,0,1,1.117,3.172,5.442,5.442,0,0,1-.984,3.344A3.561,3.561,0,0,1,31.78.3,3.449,3.449,0,0,1,29.038-.863,4.613,4.613,0,0,1,28.022-4a4.991,4.991,0,0,1,1.07-3.359A3.592,3.592,0,0,1,31.967-8.609Zm8.478.094a3.05,3.05,0,0,1,1.719.484,3.861,3.861,0,0,1,.813.8V-8.289h1.3V-.68A5.611,5.611,0,0,1,43.8,1.836a3.366,3.366,0,0,1-3.3,1.7,4.054,4.054,0,0,1-2.273-.605A2.361,2.361,0,0,1,37.2,1.039h1.43a1.591,1.591,0,0,0,.406.867,2.071,2.071,0,0,0,1.5.469,2.064,2.064,0,0,0,2.117-1.141,6.424,6.424,0,0,0,.273-2.4,2.759,2.759,0,0,1-1.016.953A3.379,3.379,0,0,1,40.336.1a3.352,3.352,0,0,1-2.379-.965,4.243,4.243,0,0,1-1.02-3.191,4.833,4.833,0,0,1,1.027-3.281A3.177,3.177,0,0,1,40.445-8.516Zm2.531,4.3a3.488,3.488,0,0,0-.641-2.3,2.052,2.052,0,0,0-1.633-.75,2.016,2.016,0,0,0-2.031,1.391,5.453,5.453,0,0,0-.289,1.945,3.453,3.453,0,0,0,.574,2.152,1.854,1.854,0,0,0,1.543.738,2.166,2.166,0,0,0,2.133-1.367A4.41,4.41,0,0,0,42.977-4.219Zm3.455-4.148h1.336v1.445a3.193,3.193,0,0,1,.8-1.027,2.086,2.086,0,0,1,1.477-.605q.039,0,.133.008l.32.031v1.484a2.1,2.1,0,0,0-.23-.031q-.105-.008-.23-.008a2.007,2.007,0,0,0-1.633.684,2.386,2.386,0,0,0-.57,1.574V0H46.431ZM52.8-2.227a1.158,1.158,0,0,0,.445.961A1.651,1.651,0,0,0,54.3-.914a3.207,3.207,0,0,0,1.438-.344A1.935,1.935,0,0,0,56.91-3.125V-4.258a2.406,2.406,0,0,1-.664.273,5.659,5.659,0,0,1-.8.156l-.852.109a3.257,3.257,0,0,0-1.148.32A1.248,1.248,0,0,0,52.8-2.227ZM56.207-5.07a.764.764,0,0,0,.648-.406,1.236,1.236,0,0,0,.094-.539,1.142,1.142,0,0,0-.512-1.043,2.745,2.745,0,0,0-1.465-.324,1.861,1.861,0,0,0-1.562.594,1.953,1.953,0,0,0-.336.977H51.761a2.416,2.416,0,0,1,1-2.152A4.122,4.122,0,0,1,55-8.57a4.554,4.554,0,0,1,2.4.563,1.908,1.908,0,0,1,.914,1.75v4.82a.617.617,0,0,0,.09.352.433.433,0,0,0,.379.133q.094,0,.211-.012T59.246-1V.039a3.917,3.917,0,0,1-.5.117,3.654,3.654,0,0,1-.469.023,1.157,1.157,0,0,1-1.055-.516,1.99,1.99,0,0,1-.242-.773,3.578,3.578,0,0,1-1.234.977,3.818,3.818,0,0,1-1.773.414,2.637,2.637,0,0,1-1.9-.707,2.349,2.349,0,0,1-.738-1.77A2.279,2.279,0,0,1,52.058-4a3.457,3.457,0,0,1,1.906-.789Zm4.416-3.3h1.391V-7.18a4.674,4.674,0,0,1,.906-.9A2.726,2.726,0,0,1,64.5-8.555a2.484,2.484,0,0,1,1.609.492,2.573,2.573,0,0,1,.625.828,3.039,3.039,0,0,1,1.1-1,3.073,3.073,0,0,1,1.422-.324,2.325,2.325,0,0,1,2.3,1.219A3.984,3.984,0,0,1,71.88-5.57V0H70.419V-5.812A1.354,1.354,0,0,0,70-6.961a1.654,1.654,0,0,0-1.02-.312,2.024,2.024,0,0,0-1.426.555,2.436,2.436,0,0,0-.6,1.852V0h-1.43V-5.461a2.837,2.837,0,0,0-.2-1.242,1.239,1.239,0,0,0-1.2-.586,2.062,2.062,0,0,0-1.449.617,3.025,3.025,0,0,0-.652,2.234V0H60.622ZM75.03-2.227a1.158,1.158,0,0,0,.445.961,1.651,1.651,0,0,0,1.055.352,3.207,3.207,0,0,0,1.438-.344,1.935,1.935,0,0,0,1.172-1.867V-4.258a2.406,2.406,0,0,1-.664.273,5.659,5.659,0,0,1-.8.156l-.852.109a3.257,3.257,0,0,0-1.148.32A1.248,1.248,0,0,0,75.03-2.227ZM78.436-5.07a.764.764,0,0,0,.648-.406,1.236,1.236,0,0,0,.094-.539,1.142,1.142,0,0,0-.512-1.043A2.745,2.745,0,0,0,77.2-7.383a1.861,1.861,0,0,0-1.562.594,1.953,1.953,0,0,0-.336.977H73.991a2.416,2.416,0,0,1,1-2.152,4.122,4.122,0,0,1,2.238-.605,4.554,4.554,0,0,1,2.4.563,1.908,1.908,0,0,1,.914,1.75v4.82a.617.617,0,0,0,.09.352.433.433,0,0,0,.379.133q.094,0,.211-.012T81.475-1V.039a3.916,3.916,0,0,1-.5.117,3.654,3.654,0,0,1-.469.023,1.157,1.157,0,0,1-1.055-.516,1.99,1.99,0,0,1-.242-.773,3.578,3.578,0,0,1-1.234.977A3.818,3.818,0,0,1,76.2.281a2.637,2.637,0,0,1-1.9-.707,2.349,2.349,0,0,1-.738-1.77A2.279,2.279,0,0,1,74.288-4a3.457,3.457,0,0,1,1.906-.789Zm5.252,2.445a2.045,2.045,0,0,0,.352,1.078,2.209,2.209,0,0,0,1.844.68,2.719,2.719,0,0,0,1.375-.34,1.129,1.129,0,0,0,.594-1.051.9.9,0,0,0-.477-.82,5.666,5.666,0,0,0-1.2-.4l-1.117-.281a5.45,5.45,0,0,1-1.578-.594,1.775,1.775,0,0,1-.906-1.578,2.411,2.411,0,0,1,.855-1.922,3.413,3.413,0,0,1,2.3-.734,3.194,3.194,0,0,1,2.727,1.109,2.407,2.407,0,0,1,.508,1.516H87.633a1.627,1.627,0,0,0-.336-.867,2.143,2.143,0,0,0-1.68-.555,2.008,2.008,0,0,0-1.207.3.955.955,0,0,0-.41.8.991.991,0,0,0,.539.875,3.239,3.239,0,0,0,.922.344l.93.227a7.188,7.188,0,0,1,2.031.711,1.882,1.882,0,0,1,.82,1.7,2.584,2.584,0,0,1-.848,1.93A3.608,3.608,0,0,1,85.813.32a3.464,3.464,0,0,1-2.645-.848,3.206,3.206,0,0,1-.832-2.1Z" transform="translate(47 26)" fill="#212429"/>
    </g>
  </g>
</svg>
